<?xml version="1.0" encoding="utf-8"?>
<!-- Generator: Adobe Illustrator 16.0.4, SVG Export Plug-In . SVG Version: 6.00 Build 0)  -->
<!DOCTYPE svg PUBLIC "-//W3C//DTD SVG 1.1//EN" "http://www.w3.org/Graphics/SVG/1.1/DTD/svg11.dtd">
<svg version="1.1" id="Ebene_1" xmlns="http://www.w3.org/2000/svg" xmlns:xlink="http://www.w3.org/1999/xlink" x="0px" y="0px"
	 width="1440px" height="1440px" viewBox="0 0 1440 1440" enable-background="new 0 0 1440 1440" xml:space="preserve">
<g>
	<defs>
		<rect id="SVGID_1_" x="430.831" y="12.971" width="997.169" height="1425.029"/>
	</defs>
	<clipPath id="SVGID_2_">
		<use xlink:href="#SVGID_1_"  overflow="visible"/>
	</clipPath>
	<path clip-path="url(#SVGID_2_)" fill="#231F20" d="M794.308,131.711"/>
</g>
<path fill="none" stroke="#231F20" d="M794.308,131.711"/>
<g>
	<defs>
		<rect id="SVGID_3_" x="430.831" y="12.971" width="997.169" height="1425.029"/>
	</defs>
	<clipPath id="SVGID_4_">
		<use xlink:href="#SVGID_3_"  overflow="visible"/>
	</clipPath>
	<path clip-path="url(#SVGID_4_)" fill="#231F20" d="M793.308,139.711"/>
</g>
<path fill="none" stroke="#231F20" d="M793.308,139.711"/>
<g>
	<defs>
		<rect id="SVGID_5_" x="432.831" y="6" width="997.169" height="1425.029"/>
	</defs>
	<clipPath id="SVGID_6_">
		<use xlink:href="#SVGID_5_"  overflow="visible"/>
	</clipPath>
	<path clip-path="url(#SVGID_6_)" fill="#0000FF" d="M437.895,1371.102l-1.684-0.716c0.521-1.147,1.142-1.308,2.353-0.858
		l0.728-1.711c-2.635-1.087-4.138-0.39-5.112,1.902l-1.349,3.175l3.645,1.549L437.895,1371.102z M444.613,1373.916l-1.688-0.705
		c0.513-1.151,1.134-1.314,2.347-0.872l0.717-1.717c-2.641-1.07-4.139-0.363-5.099,1.934l-1.33,3.184l3.654,1.526L444.613,1373.916z
		 M460.108,1367.102l-3.673,1.126c-3.489,1.07-6.45,2.188-7.676,5.283c-1.238,3.124-0.069,6.362,4.114,8.021
		c3.877,1.536,7.41,0.193,8.869-3.488c0.21-0.529,0.348-1.12,0.457-1.723l-3.403-1.51c-0.048,0.529-0.181,1.025-0.413,1.611
		c-0.806,2.035-2.313,2.987-4.265,2.214c-1.897-0.751-2.269-2.254-1.628-3.872c0.84-2.12,2.898-2.917,6.538-4.121l6.511-2.1
		l0.928-2.343l-13.248-5.25l-1.171,2.957L460.108,1367.102z M476.042,1373.108l-3.644,1.216c-3.463,1.156-6.394,2.348-7.544,5.473
		c-1.161,3.152,0.088,6.36,4.311,7.916c3.913,1.439,7.412,0.011,8.78-3.706c0.197-0.535,0.32-1.13,0.414-1.733l-3.439-1.426
		c-0.035,0.529-0.155,1.029-0.373,1.621c-0.756,2.055-2.239,3.044-4.21,2.318c-1.914-0.705-2.324-2.197-1.723-3.83
		c0.788-2.141,2.826-2.988,6.435-4.281l6.457-2.26l0.871-2.364l-13.373-4.922l-1.099,2.984L476.042,1373.108z M485.429,1389.229
		l-1.729-0.602c0.442-1.18,1.052-1.381,2.29-1.015l0.61-1.757c-2.702-0.906-4.154-0.108-4.971,2.244l-1.131,3.259l3.741,1.299
		L485.429,1389.229z M500.503,1377.743c-4.449-1.452-7.725-0.312-8.758,2.854c-0.754,2.31,0.293,4.419,2.083,5.508
		c-2.086,0.108-3.579,1.104-4.259,3.187c-1.014,3.107,1.08,5.875,4.845,7.104c3.764,1.229,7.088,0.23,8.103-2.877
		c0.679-2.082,0.062-3.768-1.559-5.085c2.117,0.186,4.178-0.908,4.932-3.218C506.924,1382.049,504.98,1379.204,500.503,1377.743
		 M497.821,1385.957c-2.196-0.718-3.143-2.068-2.557-3.864c0.578-1.769,2.168-2.386,4.364-1.669
		c2.195,0.718,3.115,2.153,2.538,3.922C501.579,1386.143,500.017,1386.674,497.821,1385.957 M495.27,1393.771
		c-1.825-0.596-2.725-1.899-2.138-3.696c0.54-1.653,2.036-2.176,3.861-1.58c1.768,0.578,2.668,1.881,2.128,3.535
		C498.534,1393.826,497.038,1394.349,495.27,1393.771 M533.422,1397.645c-0.872,3.369,0.9,5.501,4.211,6.357
		c3.398,0.881,5.875-0.431,6.988-2.932l-3.091-1.109c-0.613,1.174-1.623,1.842-3.075,1.466c-1.481-0.384-2.011-1.45-1.642-2.873
		l0.075-0.291l3.694,0.213c3.055,0.171,5.293-0.334,5.925-2.773c0.571-2.208-0.709-3.965-3.381-4.655
		c-1.888-0.489-3.833-0.156-4.943,1.137c0.042-1.477-0.67-2.561-2.122-2.937c-1.161-0.301-1.956-0.104-2.621,0.189l-0.481,1.859
		c0.423-0.077,0.794-0.074,1.142,0.017c0.552,0.142,0.818,0.552,0.645,1.22L533.422,1397.645z M537.512,1395.853
		c0.534-2.062,2.289-3.095,4.119-2.622c1.103,0.286,1.636,0.982,1.41,1.854c-0.331,1.277-1.473,1.261-3.066,1.189l-2.546-0.102
		L537.512,1395.853z M552.241,1404.442l8.555-6.328l0.557-2.396l-11.221-2.608l-0.605,2.602l7.013,1.63l-8.671,6.3l-0.557,2.396
		l10.87,2.527l0.604-2.601L552.241,1404.442z M565.193,1412.269l-3.609-0.769l-0.73,3.435l3.609,0.767L565.193,1412.269z
		 M565.584,1410.144l2.753-12.94l-3.521-0.75l-2.753,12.941L565.584,1410.144z M581.767,1402.502
		c-0.365-1.75-1.775-3.307-4.043-3.744c-3.889-0.751-6.501,1.86-7.242,5.689c-0.74,3.829,0.707,7.256,4.537,7.995
		c2.326,0.45,4.133-0.515,5.029-1.992l-1.56,8.071l3.534,0.682l3.584-18.557l-2.709-0.523L581.767,1402.502z M580.8,1406.716
		c-0.455,2.355-2.154,3.556-4.156,3.169c-2.239-0.433-3.075-2.274-2.598-4.749c0.473-2.444,1.934-3.843,4.174-3.41
		c2.002,0.387,3.137,2.103,2.676,4.489L580.8,1406.716z M590.746,1417.178l-3.636-0.632l-0.6,3.459l3.635,0.631L590.746,1417.178z
		 M591.056,1415.038l2.265-13.033l-3.548-0.617l-2.262,13.035L591.056,1415.038z M599.597,1413.758l8.098-6.902l0.39-2.429
		l-11.374-1.829l-0.423,2.637l7.108,1.143l-8.217,6.884l-0.391,2.428l11.02,1.772l0.424-2.638L599.597,1413.758z M614.463,1411.541
		c0.302-2.23,1.564-3.513,3.318-3.276c1.754,0.237,2.337,1.526,2.067,3.519l-1.012,7.492l3.568,0.481l1.107-8.205
		c0.394-2.914-0.479-5.423-3.957-5.894c-1.992-0.268-3.67,0.504-4.56,1.929l0.289-2.142l-3.567-0.481l-1.77,13.111l3.566,0.481
		L614.463,1411.541z M638.847,1418.315l-0.646,5.904l-4.324-0.474c-2.714-0.296-3.846-1.537-3.64-3.416
		c0.222-2.027,1.571-2.784,4.286-2.487L638.847,1418.315z M627.669,1407.104c0.551,0.754,0.536,1.718,0.473,4.518
		c-0.033,2.229,0.933,3.604,3.035,4.256c-2.33,0.047-4.357,1.484-4.668,4.317c-0.382,3.489,1.729,5.984,6.531,6.509l8.499,0.931
		l2.056-18.788l-3.668-0.401l-0.761,6.948l-4.414-0.483c-2.147-0.234-2.997-1.293-2.914-3.427c0.079-2.104-0.019-3.412-0.352-3.962
		L627.669,1407.104z M661.022,1405.352l-8.86,17.564l3.501,0.25l4.202-8.754l0.12,0.009l2.949,9.263l3.771,0.268l-4.533-13.646
		l2.381-4.703L661.022,1405.352z M678.919,1419.319c-0.416,1.63-1.475,2.927-3.451,2.824c-2.008-0.105-2.861-1.621-2.9-3.155
		L678.919,1419.319z M672.231,1415.637c0.588-1.473,1.675-2.166,3.443-2.074c1.946,0.102,3.402,1.559,3.422,3.513l-9.918-0.517
		l-0.066,1.288c-0.188,3.596,1.873,6.707,6.188,6.932c3.954,0.206,7.076-2.635,7.293-6.8c0.217-4.164-2.582-6.924-6.656-7.136
		c-3.387-0.177-5.754,1.442-6.596,4.343L672.231,1415.637z M689.353,1430.666l0.625-18.89l-3.598-0.119l-0.625,18.891
		L689.353,1430.666z M705.328,1416.506c-0.174-3.244-2.783-4.799-6.231-4.868c-3.42-0.07-5.791,1.382-5.846,4.081
		c-0.05,2.49,1.575,3.692,4.355,4.199l2.512,0.473c0.956,0.169,1.428,0.599,1.413,1.318c-0.019,0.899-0.87,1.452-2.16,1.427
		c-1.89-0.039-2.894-0.81-3.103-2.314l-2.973,0.06c0.18,2.944,2.336,4.639,5.995,4.714c3.358,0.067,5.524-1.628,5.576-4.147
		c0.05-2.46-1.488-3.541-4.298-4.049l-2.094-0.403c-1.314-0.236-1.906-0.639-1.889-1.538c0.02-0.96,1.109-1.388,2.43-1.36
		c1.828,0.037,3.012,0.871,3.189,2.465L705.328,1416.506z M718.042,1420.029c-0.322,1.652-1.305,3.007-3.285,3.018
		c-2.01,0.009-2.947-1.456-3.074-2.985L718.042,1420.029z M711.156,1416.733c0.502-1.502,1.549-2.257,3.317-2.266
		c1.951-0.011,3.487,1.362,3.617,3.312l-9.93,0.049l0.006,1.29c0.018,3.601,2.253,6.589,6.573,6.568
		c3.96-0.021,6.915-3.034,6.894-7.204c-0.02-4.17-2.973-6.766-7.053-6.746c-3.391,0.018-5.661,1.769-6.337,4.712L711.156,1416.733z
		 M734.737,1430.633l3.447-0.127l3.149-14.015l0.12-0.004l3.986,13.753l3.746-0.137l-5.577-18.709l-4.107,0.151l-3.099,13.741
		l-0.12,0.004l-4.065-13.479l-4.138,0.152l-4.196,19.065l3.598-0.132l2.938-14.037l0.12-0.004L734.737,1430.633z M761.554,1410.304
		l-3.591,0.268l1.407,18.849l3.59-0.269l-0.611-8.197c0.719,1.57,2.43,2.736,4.764,2.562c3.919-0.292,5.723-3.526,5.433-7.415
		s-2.553-6.789-6.472-6.496c-2.333,0.174-3.854,1.581-4.333,3.211L761.554,1410.304z M761.996,1416.648
		c-0.181-2.424,1.176-3.999,3.21-4.151c2.244-0.167,3.533,1.392,3.719,3.874c0.188,2.514-0.855,4.246-3.1,4.413
		c-2.035,0.152-3.612-1.233-3.791-3.628L761.996,1416.648z M785.251,1415.312c0.221,2.209-0.77,3.755-2.591,3.937
		c-1.761,0.178-2.685-0.906-2.888-2.937l-0.75-7.492l-3.582,0.358l0.822,8.209c0.293,2.926,1.815,5.185,5.338,4.833
		c1.971-0.198,3.541-1.38,4.047-2.938l0.216,2.149l3.583-0.358l-1.318-13.165l-3.582,0.359L785.251,1415.312z M796.8,1413.046
		c-0.281-2.233,0.611-3.796,2.367-4.018c1.758-0.221,2.65,0.877,2.901,2.871l0.942,7.501l3.571-0.449l-1.032-8.215
		c-0.365-2.917-1.853-5.119-5.334-4.682c-1.994,0.251-3.42,1.428-3.914,3.032l-0.269-2.145l-3.572,0.449l1.649,13.127l3.572-0.449
		L796.8,1413.046z M821.224,1418.964l-3.647,0.552l0.524,3.47l3.648-0.552L821.224,1418.964z M820.843,1416.837l-1.979-13.081
		l-3.56,0.537l1.979,13.082L820.843,1416.837z M828.306,1397.2l-4.429,19.168l3.46-0.59l2-9.502l0.118-0.02l5.067,8.296l3.727-0.637
		l-7.646-12.177l1.192-5.134L828.306,1397.2z M848.823,1405.578c0.428,2.179-0.413,3.812-2.208,4.164
		c-1.737,0.342-2.759-0.65-3.151-2.651l-1.451-7.39l-3.533,0.694l1.592,8.095c0.566,2.885,2.295,4.991,5.77,4.31
		c1.941-0.382,3.394-1.707,3.752-3.307l0.416,2.119l3.533-0.694l-2.552-12.98l-3.532,0.694L848.823,1405.578z M865.888,1402.816
		c0.037,1.682-0.637,3.215-2.569,3.646c-1.962,0.437-3.189-0.796-3.64-2.264L865.888,1402.816z M858.458,1401.059
		c0.171-1.575,1.033-2.535,2.762-2.92c1.902-0.424,3.696,0.591,4.237,2.468l-9.692,2.158l0.279,1.26
		c0.783,3.513,3.602,5.959,7.818,5.021c3.865-0.861,6.113-4.436,5.206-8.505c-0.906-4.071-4.343-5.979-8.325-5.093
		c-3.309,0.736-5.157,2.931-5.191,5.95L858.458,1401.059z M882.679,1401.779c0.953,1.428,2.506,2.178,4.773,1.598
		c1.947-0.497,3.148-1.857,3.416-3.475l0.535,2.093l3.488-0.891l-3.277-12.818l-3.488,0.892l1.754,6.858
		c0.551,2.151-0.111,3.808-1.797,4.238c-1.686,0.43-2.615-0.54-3.12-2.516l-1.864-7.296l-3.488,0.892l1.754,6.859
		c0.549,2.15-0.111,3.806-1.797,4.236c-1.715,0.439-2.615-0.539-3.12-2.515l-1.865-7.296l-3.487,0.892l2.043,7.993
		c0.713,2.79,2.426,4.892,5.885,4.007C881.116,1404.996,882.366,1403.47,882.679,1401.779 M903.474,1400.893l-3.551,1.002
		l0.954,3.378l3.552-1.002L903.474,1400.893z M902.83,1398.829l-3.595-12.731l-3.465,0.978l3.595,12.732L902.83,1398.829z
		 M901.731,1385.448l11.111,7.828l-5.037,10.08l4.193-1.268l5.249-10.521l2.476,8.185l3.588-1.086l-5.471-18.091l-3.59,1.086
		l1.814,6.001l-1.283,2.489l-8.744-6.006L901.731,1385.448z M939.486,1381.744c0.224,1.668-0.274,3.267-2.146,3.909
		c-1.902,0.653-3.259-0.435-3.869-1.843L939.486,1381.744z M931.907,1380.826c-0.005-1.584,0.745-2.635,2.419-3.21
		c1.844-0.633,3.739,0.175,4.485,1.98l-9.391,3.226l0.42,1.221c1.168,3.404,4.242,5.521,8.328,4.117
		c3.745-1.287,5.58-5.089,4.225-9.033c-1.354-3.942-4.982-5.456-8.84-4.132c-3.207,1.103-4.799,3.488-4.496,6.493L931.907,1380.826z
		 M937.396,1389.789l-1.445,4.747l3.66-1.257l0.226-4.328L937.396,1389.789z M946.875,1370.671l-0.377,14.217l3.298-1.201
		l0.108-9.873l0.112-0.041l6.461,7.481l3.552-1.295l-9.433-10.645L946.875,1370.671z M961.964,1378.98
		c0.484,0.164,1.176,0.119,1.93-0.177c1.703-0.668,2.483-2.457,2.383-4.029l0.921,2.346l3.351-1.314l-4.832-12.316l-3.352,1.315
		l2.389,6.088c0.877,2.234,0.186,3.923-1.546,4.603c-0.81,0.317-1.435,0.369-2.219,0.259L961.964,1378.98z M981.131,1365.766
		c0.326,1.65-0.073,3.277-1.903,4.034c-1.856,0.768-3.277-0.235-3.974-1.603L981.131,1365.766z M973.511,1365.315
		c-0.104-1.581,0.58-2.676,2.215-3.353c1.803-0.745,3.744-0.056,4.601,1.7l-9.176,3.796l0.493,1.192
		c1.377,3.327,4.574,5.25,8.566,3.599c3.659-1.514,5.258-5.422,3.662-9.274c-1.594-3.854-5.309-5.142-9.078-3.581
		c-3.133,1.296-4.574,3.775-4.088,6.756L973.511,1365.315z M996.856,1350.172l3.324,7.387l-8.508,3.829l-3.324-7.388l-3.418,1.539
		l7.756,17.235l3.418-1.539l-3.164-7.031l8.51-3.827l3.164,7.029l3.419-1.538l-7.756-17.235L996.856,1350.172z M1013.236,1342.404
		l-1.618,0.789c-0.553-1.133-0.29-1.828,0.816-2.434l-0.828-1.699c-2.535,1.302-3.01,3.001-1.905,5.267l1.683,3.452l3.613-1.761
		L1013.236,1342.404z M1021.32,1347.91c1.581,3.102,4.321,3.522,7.368,1.969c3.127-1.595,4.111-4.219,3.287-6.828l-3.051,1.218
		c0.319,1.285,0.006,2.455-1.33,3.137c-1.363,0.695-2.467,0.247-3.134-1.062l-0.137-0.269l2.907-2.29
		c2.399-1.896,3.74-3.759,2.596-6.004c-1.036-2.031-3.16-2.498-5.618-1.244c-1.737,0.887-2.973,2.426-2.946,4.129
		c-0.947-1.133-2.199-1.472-3.535-0.791c-1.068,0.547-1.533,1.221-1.836,1.881l0.871,1.71c0.267-0.337,0.547-0.581,0.867-0.745
		c0.508-0.258,0.979-0.128,1.291,0.486L1021.32,1347.91z M1023.193,1343.857c-0.968-1.896-0.339-3.834,1.345-4.693
		c1.016-0.518,1.875-0.35,2.284,0.452c0.6,1.175-0.267,1.92-1.507,2.923l-1.973,1.612L1023.193,1343.857z M1042.792,1335.102
		c1.057,1.953,0.738,3.762-0.872,4.632c-1.556,0.842-2.825,0.198-3.796-1.596l-3.582-6.623l-3.167,1.713l3.925,7.256
		c1.399,2.586,3.676,4.083,6.789,2.399c1.741-0.942,2.734-2.639,2.602-4.272l1.027,1.9l3.166-1.712l-6.293-11.638l-3.168,1.714
		L1042.792,1335.102z M1051.214,1332.088c1.729,3.02,4.487,3.308,7.455,1.608c3.047-1.745,3.903-4.413,2.952-6.979l-2.987,1.363
		c0.381,1.27,0.125,2.452-1.177,3.198c-1.327,0.76-2.451,0.367-3.182-0.909l-0.149-0.26l2.792-2.429
		c2.306-2.011,3.554-3.937,2.302-6.123c-1.133-1.979-3.275-2.342-5.67-0.97c-1.693,0.969-2.853,2.565-2.744,4.267
		c-1.002-1.086-2.267-1.364-3.568-0.619c-1.041,0.597-1.473,1.293-1.743,1.966l0.954,1.667c0.249-0.35,0.516-0.606,0.829-0.786
		c0.493-0.282,0.971-0.176,1.313,0.424L1051.214,1332.088z M1052.89,1327.948c-1.06-1.849-0.524-3.813,1.115-4.753
		c0.989-0.565,1.856-0.44,2.303,0.34c0.656,1.146-0.172,1.933-1.362,2.993l-1.892,1.706L1052.89,1327.948z M1074.157,1321.386
		c1.332,1.083,3.038,1.339,5.033,0.116c1.713-1.052,2.459-2.705,2.236-4.328l1.129,1.841l3.069-1.882l-6.917-11.278l-3.068,1.882
		l3.701,6.035c1.161,1.893,1.019,3.669-0.465,4.579c-1.482,0.91-2.656,0.257-3.724-1.482l-3.937-6.419l-3.07,1.883l3.703,6.035
		c1.16,1.894,1.018,3.669-0.465,4.579c-1.51,0.925-2.658,0.257-3.725-1.481l-3.938-6.419l-3.068,1.882l4.314,7.033
		c1.504,2.455,3.762,3.955,6.807,2.09C1073.615,1324.921,1074.359,1323.093,1074.157,1321.386 M1093.742,1314.408l-3.099,2.005
		l1.908,2.946l3.098-2.004L1093.742,1314.408z M1092.519,1312.627l-7.187-11.107l-3.022,1.956l7.187,11.108L1092.519,1312.627z
		 M1100.3,1300.088c1.239,1.842,1.098,3.673-0.421,4.694c-1.469,0.988-2.794,0.47-3.933-1.223l-4.203-6.248l-2.987,2.01l4.605,6.845
		c1.641,2.439,4.052,3.711,6.987,1.734c1.644-1.104,2.469-2.889,2.179-4.502l1.206,1.792l2.986-2.01l-7.386-10.978l-2.987,2.011
		L1100.3,1300.088z M1106.093,1295.579c2.375,3.354,6.389,4.039,9.743,1.664c3.33-2.357,4.015-6.373,1.64-9.727
		c-2.375-3.354-6.373-4.015-9.703-1.657C1104.419,1288.234,1103.716,1292.226,1106.093,1295.579 M1114.513,1289.614
		c1.457,2.058,1.532,4.136-0.254,5.401c-1.812,1.283-3.748,0.521-5.205-1.534c-1.438-2.032-1.514-4.111,0.297-5.394
		C1111.138,1286.821,1113.074,1287.582,1114.513,1289.614 M1126.101,1276.091c-1.539-0.911-3.64-0.918-5.492,0.462
		c-3.176,2.365-3.008,6.056-0.678,9.184s5.834,4.369,8.963,2.04c1.9-1.416,2.404-3.399,1.918-5.058l4.91,6.592l2.888-2.15
		l-11.29-15.158l-2.213,1.649L1126.101,1276.091z M1128.56,1279.646c1.435,1.924,1.176,3.987-0.461,5.206
		c-1.828,1.362-3.752,0.737-5.258-1.283c-1.488-1.997-1.535-4.019,0.295-5.381c1.635-1.219,3.668-0.9,5.119,1.048L1128.56,1279.646z
		 M1137.556,1264.01l5.691,14.475l-0.094,0.075l-9.241-11.663l-2.963,2.348l11.737,14.813l4.539-3.596l-5.453-13.21l0.07-0.056
		l11.778,8.197l4.632-3.67l-11.738-14.813l-2.728,2.161l9.242,11.663l-0.094,0.074l-12.863-8.793L1137.556,1264.01z
		 M1167.073,1249.862c0.828,1.465,0.96,3.134-0.539,4.427c-1.521,1.313-3.186,0.809-4.276-0.271L1167.073,1249.862z
		 M1159.696,1251.829c-0.593-1.469-0.288-2.723,1.052-3.879c1.476-1.273,3.536-1.229,4.901,0.169l-7.52,6.487l0.844,0.978
		c2.352,2.725,5.992,3.547,9.263,0.724c2.999-2.587,3.288-6.798,0.562-9.955c-2.724-3.158-6.654-3.213-9.744-0.548
		c-2.566,2.215-3.155,5.021-1.758,7.697L1159.696,1251.829z M1174.619,1250.051c0.51-0.015,1.142-0.297,1.746-0.837
		c1.364-1.222,1.472-3.169,0.83-4.607l1.68,1.878l2.685-2.4l-8.821-9.86l-2.684,2.401l4.36,4.873c1.6,1.789,1.541,3.612,0.155,4.854
		c-0.649,0.58-1.216,0.846-1.99,1.015L1174.619,1250.051z M1189.136,1239.354l3.922,1.846l2.838-2.631l-4.867-0.97
		L1189.136,1239.354z M1187.966,1230.988c0.88,1.435,1.072,3.098-0.38,4.444c-1.474,1.366-3.155,0.921-4.284-0.12L1187.966,1230.988
		z M1180.664,1233.218c-0.646-1.446-0.386-2.71,0.912-3.914c1.43-1.326,3.49-1.354,4.904-0.006l-7.281,6.752l0.877,0.945
		c2.447,2.641,6.115,3.33,9.283,0.394c2.903-2.693,3.042-6.912,0.207-9.971c-2.836-3.058-6.767-2.972-9.759-0.197
		c-2.485,2.305-2.975,5.131-1.481,7.756L1180.664,1233.218z M1200.946,1228.854l-2.66,2.557l2.432,2.53l2.66-2.557
		L1200.946,1228.854z M1199.406,1227.338l-9.167-9.539l-2.596,2.494l9.167,9.539L1199.406,1227.338z M1209.003,1225.856
		l-13.258-13.47l-2.566,2.524l13.259,13.471L1209.003,1225.856z M1205.301,1214.843c2.485,2.436,5.218,1.964,7.611-0.479
		c2.457-2.507,2.557-5.308,0.944-7.52l-2.504,2.125c0.711,1.118,0.786,2.326-0.264,3.396c-1.07,1.093-2.26,1.021-3.31-0.009
		l-0.214-0.21l2.026-3.097c1.672-2.562,2.351-4.754,0.552-6.519c-1.63-1.596-3.79-1.361-5.723,0.609
		c-1.365,1.392-2.047,3.245-1.479,4.851c-1.26-0.771-2.554-0.695-3.604,0.376c-0.84,0.856-1.065,1.645-1.143,2.366l1.371,1.344
		c0.144-0.404,0.332-0.725,0.584-0.981c0.398-0.407,0.887-0.434,1.379,0.05L1205.301,1214.843z M1205.787,1210.404
		c-1.521-1.492-1.541-3.527-0.218-4.878c0.798-0.813,1.667-0.928,2.309-0.298c0.943,0.924,0.359,1.905-0.498,3.251l-1.356,2.156
		L1205.787,1210.404z M1224.423,1198.275c1.577,0.68,3.288,0.463,4.875-1.256c1.364-1.477,1.632-3.27,0.979-4.773l1.587,1.466
		l2.441-2.645l-9.719-8.976l-2.442,2.645l5.201,4.803c1.632,1.507,1.977,3.254,0.797,4.533c-1.182,1.278-2.488,0.969-3.987-0.415
		l-5.532-5.107l-2.442,2.644l5.201,4.804c1.631,1.507,1.978,3.255,0.796,4.533c-1.199,1.3-2.486,0.97-3.985-0.415l-5.532-5.108
		l-2.442,2.645l6.061,5.597c2.116,1.954,4.696,2.786,7.119,0.163C1224.861,1201.824,1225.081,1199.862,1224.423,1198.275
		 M1234.32,1183.76c2.625,2.283,5.324,1.647,7.568-0.933c2.304-2.648,2.235-5.45,0.493-7.562l-2.372,2.27
		c0.776,1.073,0.925,2.275-0.06,3.407c-1.004,1.154-2.195,1.152-3.305,0.188l-0.227-0.197l1.839-3.212
		c1.517-2.657,2.062-4.886,0.161-6.539c-1.721-1.496-3.864-1.134-5.676,0.948c-1.279,1.472-1.849,3.36-1.188,4.931
		c-1.303-0.695-2.589-0.542-3.573,0.59c-0.787,0.905-0.965,1.705-1,2.431l1.448,1.26c0.12-0.413,0.288-0.743,0.525-1.016
		c0.374-0.43,0.859-0.484,1.379-0.031L1234.32,1183.76z M1234.54,1179.3c-1.607-1.398-1.749-3.43-0.508-4.856
		c0.748-0.859,1.607-1.025,2.287-0.435c0.996,0.866,0.471,1.881-0.303,3.273l-1.228,2.233L1234.54,1179.3z M1243.91,1158.726
		c-1.71,2.089-2.399,4.589-1.362,6.638l-2.159-1.767l-2.109,2.577l7.383,6.043l5.396-6.594l-2.158-1.768l-3.173,3.877
		c-1.516-1.938-1.465-4.416,0.227-6.482c2.337-2.854,5.778-2.984,8.912-0.42c3.063,2.509,3.631,5.842,1.446,8.512
		c-1.995,2.437-4.59,2.718-6.9,1.136l-2.202,2.927c3.938,2.721,8.254,2.184,11.713-2.043c3.363-4.109,2.917-9.863-1.587-13.549
		C1252.808,1154.106,1247.255,1154.64,1243.91,1158.726 M1258.258,1141.13l-2.453,3.186l3.187,2.452l2.452-3.186L1258.258,1141.13z
		 M1271.467,1141.393l-8.563-6.43l-2.145,2.854l8.565,6.43l-2.126,2.831l2.015,1.514l2.126-2.831l1.104,0.829
		c0.982,0.738,1.367,1.627,0.7,2.515c-0.559,0.743-1.356,0.857-2.208,0.592l-0.787,2.298c2.021,0.806,3.814,0.314,5.256-1.604
		c1.784-2.375,1.437-4.962-1.034-6.817l-0.887-0.666l1.17-1.56l-2.016-1.513L1271.467,1141.393z M1270.634,1135.645
		c3.33,2.408,7.353,1.762,9.761-1.569c2.391-3.306,1.744-7.327-1.587-9.734c-3.329-2.409-7.326-1.745-9.718,1.561
		C1266.683,1129.232,1267.304,1133.235,1270.634,1135.645 M1276.681,1127.281c2.042,1.478,2.784,3.42,1.502,5.195
		c-1.302,1.799-3.38,1.703-5.422,0.226c-2.018-1.459-2.76-3.401-1.459-5.2C1272.585,1125.727,1274.663,1125.822,1276.681,1127.281
		 M1285.27,1126.337c0.491-0.136,1.038-0.561,1.497-1.228c1.036-1.509,0.682-3.427-0.283-4.673l2.077,1.428l2.038-2.968
		l-10.903-7.492l-2.039,2.967l5.39,3.704c1.979,1.359,2.354,3.146,1.299,4.679c-0.491,0.717-0.98,1.109-1.692,1.457
		L1285.27,1126.337z M1293.196,1102.901l-2.101,3.178c-2.663,4.03-2.282,7.589,0.996,9.757c3.278,2.166,6.678,1.104,9.341-2.925
		l4.151-6.281l-15.768-10.421l-2.052,3.103L1293.196,1102.901z M1295.749,1104.589l5.256,3.474l-2.035,3.078
		c-1.555,2.352-3.184,2.75-4.886,1.625c-1.701-1.125-1.924-2.746-0.369-5.1L1295.749,1104.589z M1301.798,1083.334
		c-2.398-1.484-4.063-0.504-5.137,1.231c-0.852,1.378-1.063,2.519-0.955,3.713l2.015,1.246c0.105-0.852,0.27-1.632,0.648-2.244
		c0.568-0.919,1.27-1.085,2.24-0.484l5.562,3.439l-1.894,3.062l2.143,1.324l1.895-3.061l3.112,1.925l1.152-1.863l-1.31-1.304
		c-0.889-0.901-1.261-1.555-0.761-2.763l0.346-0.844l-1.812-1.12l-0.994,1.606L1301.798,1083.334z M1316.445,1082.271l-1.884,3.173
		l3.019,1.792l1.884-3.173L1316.445,1082.271z M1314.558,1081.221l-11.377-6.754l-1.838,3.095l11.376,6.754L1314.558,1081.221z
		 M1319.342,1068.234c1.692,0.296,3.307-0.311,4.452-2.352c0.984-1.752,0.829-3.561-0.156-4.87l1.884,1.058l1.763-3.139
		l-11.537-6.478l-1.762,3.14l6.173,3.466c1.936,1.087,2.678,2.708,1.826,4.225c-0.853,1.518-2.195,1.521-3.975,0.521l-6.565-3.687
		l-1.762,3.14l6.173,3.466c1.936,1.087,2.678,2.707,1.825,4.224c-0.865,1.544-2.194,1.521-3.974,0.522l-6.565-3.688l-1.763,3.141
		l7.193,4.038c2.512,1.409,5.215,1.62,6.963-1.492C1320.592,1071.586,1320.351,1069.627,1319.342,1068.234 M1339.166,1020.186
		l0.126-0.272l26.819,1.312l3.584-7.763l-42.9-19.804l-3.615,7.831l24.991,11.536l-0.126,0.272l-29.831-1.05l-2.955,6.401
		l42.9,19.803l3.615-7.831L1339.166,1020.186z M1335.504,992.69l4.956-12.072l11.726,4.814l-3.675,8.95l7.077,2.904l3.674-8.949
		l10.755,4.415l-4.899,11.934l7.076,2.905l8.347-20.328l-43.71-17.946l-8.403,20.467L1335.504,992.69z M1341.368,957.16
		l37.247,13.447l-3.082,8.536l7.195,2.598l9.245-25.606l-7.195-2.599l-3.005,8.324l-37.247-13.448L1341.368,957.16z
		 M1371.275,918.829l-2.577-0.806c-9.02-2.821-15.051,0.635-17.424,8.223c-2.328,7.444,0.658,13.723,8.747,16.252
		c6.942,2.173,11.189-0.35,15.901-4.612l3.854-3.274c2.147-1.843,4.077-2.731,7.083-1.792c2.935,0.918,4.486,2.739,3.704,5.245
		c-0.896,2.863-3.446,3.48-7.527,2.203l-2.648-0.828l-2.439,7.802l2.576,0.807c8.661,2.709,14.684,0.034,17.125-7.768
		c2.261-7.229-1.294-13.449-8.811-15.8c-7.516-2.351-11.803,0.551-15.888,4.067l-3.527,2.982c-2.64,2.16-4.322,3.521-7.544,2.514
		c-3.006-0.941-4.37-2.861-3.52-5.581c0.94-3.007,3.867-3.819,7.731-2.61l2.721,0.85L1371.275,918.829z M1391.526,901.203
		c5.292,1.405,8.559,3.127,7.635,6.606c-0.924,3.479-4.615,3.352-9.906,1.947l-14.643-3.89c-5.291-1.405-8.56-3.127-7.635-6.606
		c0.924-3.479,4.615-3.353,9.906-1.947L1391.526,901.203z M1382.513,917.898c12.976,3.447,21.37,1.641,23.97-8.145
		c2.619-9.858-3.774-15.592-16.749-19.037l-6.089-1.617c-12.976-3.447-21.369-1.641-23.988,8.217
		c-2.599,9.785,3.793,15.52,16.769,18.965L1382.513,917.898z M1366.843,870.29l18.755,4.113l-1.896,8.645l7.472,1.639l1.896-8.646
		l12.454,2.731l-2.555,11.649l7.473,1.638l4.547-20.732l-46.153-10.121L1366.843,870.29z M1388.784,843.615l-0.426,2.362
		c-1.822,10.112,2.93,15.464,12.599,17.206s15.989-1.615,17.812-11.728l2.062-11.44l-46.502-8.378l-1.635,9.079L1388.784,843.615z
		 M1396.165,844.945l15.648,2.819l-0.267,1.476c-0.903,5.02-3.385,6.098-9.067,5.073c-5.61-1.011-7.484-2.873-6.58-7.892
		L1396.165,844.945z M1424.676,812.397l-46.824-6.321l-2.941,21.777l7.582,1.024l1.695-12.562l39.243,5.298L1424.676,812.397z
		 M1427.488,784.952l-47.031-4.545l-2.113,21.873l7.614,0.736l1.219-12.616l39.417,3.809L1427.488,784.952z M1413.044,759.625
		c5.466,0.318,9.012,1.353,8.802,4.946c-0.211,3.594-3.852,4.207-9.317,3.888l-15.124-0.885c-5.466-0.318-9.013-1.353-8.802-4.946
		c0.211-3.595,3.853-4.207,9.317-3.889L1413.044,759.625z M1407.55,777.784c13.402,0.783,21.268-2.664,21.858-12.771
		c0.595-10.184-6.814-14.523-20.217-15.307l-6.289-0.367c-13.402-0.783-21.267,2.664-21.862,12.846
		c-0.59,10.108,6.819,14.448,20.221,15.23L1407.55,777.784z M1382.597,736.739l47.17,10.566l0.067-8.625l-29.955-6.007l0.003-0.301
		l30.044-5.616l0.074-9.525l-47.328,9.834L1382.597,736.739z M1381.133,690.289c0.521,10.562,7.275,13.533,16.938,13.058
		l31.611-1.558l-0.469-9.514l-32.211,1.587c-5.169,0.255-8.056-0.429-8.229-3.95c-0.174-3.52,2.636-4.41,7.804-4.664l32.211-1.586
		l-0.468-9.515l-31.612,1.558C1387.046,676.182,1380.612,679.728,1381.133,690.289 M1408.237,669.686
		c12.835-1.285,19.192-6.293,18.191-16.293l-1.276-12.762l-47.016,4.707l1.277,12.761c1.001,10,8.225,13.649,21.062,12.364
		L1408.237,669.686z M1396.773,661.336c-6.567,0.658-9.718-0.686-10.157-5.088l-0.24-2.389l32.389-3.242l0.239,2.389
		c0.44,4.402-2.38,6.343-8.948,7L1396.773,661.336z M1374.895,622.011l0.591,4.081c-2.896,0.421-4.191-0.68-4.674-3.49l-4.306,0.624
		c1.084,6.437,4.292,8.698,10.081,7.86l8.759-1.269l-1.322-9.13L1374.895,622.011z M1381.856,616.59l-2.276-12.851l12.481-2.21
		l1.687,9.526l7.533-1.334l-1.688-9.526l11.447-2.027l2.249,12.703l7.533-1.334l-3.832-21.639l-46.526,8.239l3.858,21.786
		L1381.856,616.59z M1367.803,583.437l38.653-8.606l1.973,8.858l7.468-1.663l-5.917-26.574l-7.468,1.663l1.924,8.638l-38.653,8.607
		L1367.803,583.437z M1358.146,544.188l19.627-5.278l2.356,8.764l-19.628,5.277l2.416,8.981l45.628-12.271l-2.415-8.98
		l-18.612,5.005l-2.357-8.763l18.614-5.006l-2.415-8.981l-45.629,12.271L1358.146,544.188z M1378.96,504.926
		c5.21-1.684,8.723-2.029,9.807,1.326c1.106,3.425-1.992,5.056-7.202,6.738l-4.069,1.313l2.789,8.636l1.854-0.6
		c10.778-3.479,16.925-8.853,13.905-18.202c-3.134-9.706-11.397-11.136-24.174-7.012l-6.423,2.074
		c-12.776,4.125-18.644,10.118-15.509,19.825c3.018,9.349,11.146,10.114,21.924,6.634l1.854-0.599l-2.788-8.636l-4.067,1.313
		c-5.21,1.683-8.679,2.171-9.784-1.255c-1.083-3.354,1.97-5.128,7.18-6.811L1378.96,504.926z M1386.058,476.913l-44.494,15.898
		l3.129,8.758l44.496-15.898L1386.058,476.913z M1333.14,471.142l18.875-7.54l3.366,8.428l-18.874,7.539l3.45,8.637l43.878-17.528
		l-3.45-8.636l-17.898,7.15l-3.367-8.428l17.9-7.15l-3.45-8.636l-43.879,17.527L1333.14,471.142z M1349.27,429.711
		c4.979-2.278,8.428-3.031,9.895,0.175c1.497,3.274-1.391,5.254-6.37,7.532l-3.887,1.778l3.773,8.253l1.774-0.811
		c10.298-4.711,15.777-10.763,11.691-19.698c-4.243-9.276-12.617-9.734-24.826-4.15l-6.138,2.807
		c-12.21,5.584-17.34,12.219-13.097,21.495c4.086,8.935,12.248,8.748,22.547,4.038l1.773-0.811l-3.774-8.253l-3.888,1.778
		c-4.979,2.277-8.366,3.167-9.863-0.107c-1.466-3.206,1.359-5.323,6.338-7.6L1349.27,429.711z M1318.126,400.744l-2.405,1.226
		c-8.419,4.293-10.312,10.983-6.699,18.065c3.543,6.949,10.069,9.346,17.62,5.496c6.48-3.305,7.75-8.078,8.137-14.42l0.463-5.035
		c0.246-2.82,1.002-4.805,3.808-6.236c2.739-1.397,5.123-1.181,6.315,1.158c1.363,2.672-0.028,4.897-3.837,6.839l-2.473,1.261
		l3.715,7.283l2.404-1.227c8.085-4.122,10.519-10.246,6.806-17.529c-3.441-6.749-10.333-8.707-17.349-5.129
		c-7.016,3.577-8.049,8.651-8.51,14.021l-0.433,4.598c-0.376,3.391-0.627,5.54-3.635,7.073c-2.806,1.431-5.124,1.013-6.418-1.526
		c-1.431-2.806,0.092-5.434,3.699-7.274l2.539-1.295L1318.126,400.744z M1308.873,401.812l-6.415-11.364l11.037-6.231l4.757,8.425
		l6.661-3.761l-4.756-8.425l10.123-5.715l6.342,11.234l6.662-3.761l-10.804-19.136l-41.146,23.229l10.878,19.267L1308.873,401.812z
		 M1289.022,382.268l20.445-12.711l-6.69-10.764l-5.988,3.722l2.059,3.312l-0.764,0.475c-4.713,2.93-8.158,3.923-10.019,0.93
		c-1.861-2.994,0.514-5.707,5.228-8.637l12.93-8.038c4.65-2.891,8.016-4.012,9.916-0.954c1.901,3.057-0.673,5.452-5.322,8.343
		l-2.229,1.385l4.791,7.708l0.893-0.555c9.617-5.979,13.528-12.473,8.302-20.88c-5.267-8.472-13.71-7.991-25.112-0.904l-5.731,3.564
		c-11.402,7.088-15.768,14.129-11.096,21.645c1.901,3.057,5.044,4.989,8.528,4.059l-3.425,3.013L1289.022,382.268z
		 M1300.189,312.689l-39.044,26.611l12.377,18.158l6.32-4.308l-7.139-10.473l32.722-22.303L1300.189,312.689z M1277.457,303.492
		l0.179,0.24l-11.712,12.652l-4.032-5.414L1277.457,303.492z M1284.816,291.65l-43.897,20.165l5.108,6.857l9.345-4.529l5.6,7.518
		l-7.016,7.657l5.556,7.459l31.891-36.285L1284.816,291.65z M1269.988,272.724l-36.857,29.566l5.819,7.254l36.857-29.565
		L1269.988,272.724z M1241.535,277.389l-0.195-0.228l12.431-23.802l-5.548-6.506l-35.958,30.652l5.596,6.564l20.947-17.856
		l0.194,0.228l-13.454,26.646l4.573,5.365l35.958-30.652l-5.595-6.564L1241.535,277.389z M1219.53,239.62
		c3.993-3.746,7.182-5.608,9.646-2.983c2.463,2.625,0.402,5.69-3.59,9.437l-11.047,10.367c-3.993,3.746-7.183,5.608-9.646,2.983
		c-2.464-2.625-0.403-5.691,3.589-9.438L1219.53,239.62z M1228.929,256.102c9.789-9.186,12.699-17.265,5.771-24.649
		c-6.979-7.437-15.226-5.046-25.017,4.14l-4.594,4.311c-9.79,9.188-12.7,17.265-5.72,24.703c6.929,7.383,15.176,4.993,24.965-4.194
		L1228.929,256.102z M1206.205,203.575l-33.077,33.742l15.693,15.383l5.354-5.463l-9.051-8.872l27.721-28.279L1206.205,203.575z
		 M1177.275,198.892c3.666-4.067,6.689-6.188,9.362-3.777c2.675,2.41,0.876,5.636-2.789,9.703l-10.146,11.252
		c-3.666,4.066-6.689,6.188-9.363,3.777c-2.674-2.411-0.876-5.637,2.79-9.704L1177.275,198.892z M1188.015,214.531
		c8.989-9.97,11.217-18.263,3.696-25.043c-7.576-6.831-15.595-3.76-24.585,6.21l-4.218,4.679c-8.99,9.971-11.216,18.264-3.64,25.094
		c7.519,6.78,15.537,3.71,24.527-6.26L1188.015,214.531z M1148.634,215.083l10.131-26.114l19.681-10.545l-7.429-6.08l-20.984,11.9
		l14.252-17.411l-7.197-5.891l-29.928,36.564l7.197,5.89l7.078-8.647l6.564-3.64l-6.911,17.798L1148.634,215.083z M1116.787,158.098
		l8.438-11.669l1.336,0.967c4.012,2.9,3.916,5.977,1.19,9.745c-3.075,4.255-5.616,4.824-9.628,1.923L1116.787,158.098z
		 M1116.216,188.967c0.45-2.543,2.049-4.626,5.262-9.708c3.185-4.916,4.183-8.729,0.771-12.585c4.372,2.144,9.14,1.056,13.446-4.9
		c4.878-6.746,4.562-13.732-3.704-19.709l-9.785-7.075l-27.687,38.288l7.414,5.362l10.547-14.586l1.582,1.142
		c3.281,2.374,2.576,5.011-0.036,9.137c-3.229,4.977-4.646,7.192-5.285,9.229L1116.216,188.967z M1095.28,164.504l-10.887-7.196
		l6.988-10.574l8.071,5.335l4.218-6.382l-8.07-5.335l6.41-9.698l10.76,7.113l4.22-6.382l-18.333-12.117l-26.053,39.419
		l18.457,12.199L1095.28,164.504z M1083.29,132.791c6.652-11.053,6.445-19.144-2.166-24.326l-10.988-6.614l-24.367,40.483
		l10.99,6.613c8.609,5.183,15.856,1.579,22.508-9.474L1083.29,132.791z M1069.74,136.978c-3.404,5.654-6.365,7.374-10.156,5.092
		l-2.056-1.238l16.785-27.888l2.057,1.238c3.791,2.282,3.658,5.703,0.254,11.358L1069.74,136.978z M1035.509,111.272l-0.267-0.139
		l2.617-26.724l-7.579-3.958l-21.871,41.884l7.646,3.992l12.739-24.399l0.267,0.139l-2.502,29.745l6.248,3.263l21.871-41.883
		l-7.646-3.992L1035.509,111.272z M1007.839,113.65l-11.814-5.542l5.382-11.475l8.76,4.108l3.248-6.926l-8.759-4.108l4.938-10.525
		l11.678,5.478l3.248-6.926l-19.895-9.332l-20.064,42.778l20.031,9.396L1007.839,113.65z M980.292,109.326l9.28-22.214
		l-11.696-4.886l-2.717,6.505l3.598,1.503l-0.347,0.831c-2.14,5.121-4.368,7.928-7.621,6.57c-3.253-1.359-2.892-4.947-0.752-10.068
		l5.869-14.049c2.11-5.052,4.2-7.917,7.522-6.529c3.322,1.387,2.615,4.831,0.504,9.883l-1.012,2.422l8.374,3.498l0.405-0.969
		c4.365-10.449,3.784-18.008-5.352-21.824c-9.203-3.845-15.803,1.445-20.978,13.833l-2.603,6.228
		c-5.174,12.388-4.646,20.655,3.521,24.067c3.321,1.387,7.002,1.137,9.302-1.642l-1.043,4.442L980.292,109.326z M955.106,90.732
		l-12.246-4.507l4.378-11.895l9.079,3.342l2.643-7.18l-9.08-3.341l4.016-10.91l12.105,4.456l2.643-7.18l-20.623-7.59l-16.319,44.343
		l20.765,7.641L955.106,90.732z M922.724,66.295l-0.287-0.088l4.045-27.312l-6.67-2.041l-11.861,24.92l-0.287-0.087l4.044-27.313
		l-8.463-2.589l-6.224,47.508l8.32,2.546l11.36-24.054l0.286,0.088l-3.973,26.314l8.318,2.545l21.428-42.856l-8.176-2.501
		L922.724,66.295z M868.935,71.972l8.966-38.572l8.839,2.055l1.732-7.451l-26.519-6.165l-1.731,7.452l8.621,2.003l-8.968,38.572
		L868.935,71.972z M828.931,46.993l-0.513,2.651c-1.793,9.279,2.319,14.885,10.124,16.393c7.659,1.479,13.562-2.193,15.17-10.514
		c1.379-7.143-1.603-11.08-6.367-15.285l-3.685-3.462c-2.072-1.928-3.173-3.744-2.575-6.837c0.583-3.019,2.219-4.766,4.797-4.268
		c2.945,0.569,3.844,3.034,3.033,7.232l-0.527,2.724l8.027,1.551l0.512-2.651c1.721-8.911-1.611-14.596-9.638-16.146
		c-7.437-1.438-13.219,2.794-14.713,10.525c-1.493,7.732,1.871,11.666,5.823,15.332l3.359,3.17c2.442,2.381,3.982,3.901,3.342,7.215
		c-0.597,3.093-2.352,4.663-5.149,4.123c-3.093-0.598-4.229-3.414-3.462-7.391l0.541-2.798L828.931,46.993z M818.958,14.114
		l-7.499,46.651l9.183,1.476l7.498-46.651L818.958,14.114z M773.772,39.784l-0.293,2.685c-1.028,9.393,3.527,14.645,11.431,15.51
		c7.754,0.848,13.337-3.295,14.259-11.719c0.791-7.232-2.503-10.912-7.595-14.714l-3.956-3.148
		c-2.223-1.752-3.469-3.473-3.126-6.605c0.335-3.056,1.821-4.931,4.433-4.645c2.981,0.326,4.078,2.709,3.614,6.959l-0.302,2.759
		l8.126,0.889l0.294-2.684c0.986-9.021-2.799-14.415-10.926-15.304c-7.53-0.824-12.947,3.865-13.803,11.693
		c-0.857,7.828,2.818,11.475,7.057,14.805l3.607,2.885c2.629,2.174,4.287,3.562,3.92,6.917c-0.342,3.132-1.963,4.84-4.795,4.53
		c-3.132-0.342-4.494-3.056-4.054-7.082l0.31-2.833L773.772,39.784z M757.007,20.566l0.299,0.019l2.049,17.118l-6.736-0.436
		L757.007,20.566z M752.757,7.289L739.672,53.79l8.532,0.553l2.605-10.053l9.355,0.607l1.286,10.305l9.28,0.601l-6.973-47.801
		L752.757,7.289z M739.253,26.276c0.264-12.897-3.947-19.81-13.994-20.015L712.437,6l-0.965,47.239l12.822,0.262
		c10.049,0.205,14.536-6.529,14.801-19.427L739.253,26.276z M729.589,36.656c-0.135,6.598-1.846,9.564-6.27,9.475l-2.399-0.049
		l0.664-32.543l2.4,0.049c4.424,0.09,6.012,3.123,5.877,9.722L729.589,36.656z"/>
</g>
</svg>
