<?xml version="1.0" encoding="utf-8"?>
<!-- Generator: Adobe Illustrator 16.0.4, SVG Export Plug-In . SVG Version: 6.00 Build 0)  -->
<!DOCTYPE svg PUBLIC "-//W3C//DTD SVG 1.1//EN" "http://www.w3.org/Graphics/SVG/1.1/DTD/svg11.dtd">
<svg version="1.1" id="Ebene_1" xmlns="http://www.w3.org/2000/svg" xmlns:xlink="http://www.w3.org/1999/xlink" x="0px" y="0px"
	 width="1440px" height="1440px" viewBox="0 0 1440 1440" enable-background="new 0 0 1440 1440" xml:space="preserve">
<g>
	<defs>
		<rect id="SVGID_1_" x="430.831" y="12.971" width="997.169" height="1425.029"/>
	</defs>
	<clipPath id="SVGID_2_">
		<use xlink:href="#SVGID_1_"  overflow="visible"/>
	</clipPath>
	<path clip-path="url(#SVGID_2_)" fill="#231F20" d="M794.308,131.711"/>
</g>
<path fill="none" stroke="#231F20" d="M794.308,131.711"/>
<g>
	<defs>
		<rect id="SVGID_3_" x="430.831" y="12.971" width="997.169" height="1425.029"/>
	</defs>
	<clipPath id="SVGID_4_">
		<use xlink:href="#SVGID_3_"  overflow="visible"/>
	</clipPath>
	<path clip-path="url(#SVGID_4_)" fill="#231F20" d="M793.308,139.711"/>
</g>
<path fill="none" stroke="#231F20" d="M793.308,139.711"/>
<g>
	<defs>
		<rect id="SVGID_5_" x="432.831" y="6" width="997.169" height="1425.029"/>
	</defs>
	<clipPath id="SVGID_6_">
		<use xlink:href="#SVGID_5_"  overflow="visible"/>
	</clipPath>
	<path clip-path="url(#SVGID_6_)" fill="#0000FF" d="M1180.655,1052.983l-1.053,1.497c-1.014-0.75-1.039-1.392-0.346-2.481
		l-1.521-1.07c-1.615,2.35-1.247,3.965,0.79,5.397l2.821,1.984l2.278-3.24L1180.655,1052.983z M1184.797,1046.986l-1.034,1.51
		c-1.022-0.737-1.057-1.378-0.377-2.476l-1.535-1.052c-1.585,2.368-1.197,3.979,0.857,5.387l2.846,1.948l2.238-3.268
		L1184.797,1046.986z M1190.467,1045.102l6.281-9.551c-2.558-1.789-6.28-5.027-8.197-6.862l-2.237,2.908
		c0.523,1.062,0.648,2.401-0.275,3.805c-1.203,1.83-3.199,2.024-4.903,0.903c-1.854-1.22-2.266-3.105-1.095-4.885
		c1.285-1.955,3.181-2.217,5.086-0.964l2.237-2.909c-3.478-2.467-7.218-1.803-9.838,2.183c-2.276,3.459-1.694,7.324,1.689,9.55
		c2.982,1.962,6.592,1.715,8.982-1.919c1.039-1.579,1.171-3.036,0.947-4.116c0.604,0.612,2.527,2.271,3.288,2.808l-4.748,7.22
		L1190.467,1045.102z M1190.751,1015.391l0.474,3.813c0.451,3.621,1.041,6.73,3.878,8.473c2.863,1.76,6.256,1.167,8.61-2.667
		c2.183-3.553,1.471-7.265-1.903-9.338c-0.484-0.298-1.044-0.536-1.617-0.748l-2.075,3.092c0.513,0.14,0.979,0.355,1.516,0.685
		c1.866,1.146,2.543,2.795,1.444,4.585c-1.068,1.738-2.613,1.845-4.096,0.934c-1.942-1.193-2.372-3.358-2.93-7.151l-0.941-6.776
		l-2.148-1.319l-7.459,12.143l2.709,1.664L1190.751,1015.391z M1208.75,1008.648l-0.92,1.583c-1.074-0.659-1.155-1.296-0.56-2.442
		l-1.607-0.934c-1.406,2.479-0.9,4.057,1.253,5.308l2.983,1.733l1.988-3.425L1208.75,1008.648z M1213.158,997.361l-1.722,3.094
		l-11.9-6.624l-1.824,3.276l16.567,9.221l1.342-2.411c-1.395-1.565-1.597-3.053-0.313-5.358L1213.158,997.361z M1212.387,957.557
		l13.267,14.526l1.479-3.184l-6.688-7.04l0.051-0.109l9.706,0.537l1.592-3.428l-14.367-0.617l-3.549-3.896L1212.387,957.557z
		 M1231.811,945.501c1.388,0.952,2.239,2.395,1.46,4.214c-0.791,1.849-2.508,2.125-3.962,1.633L1231.811,945.501z M1226.047,950.507
		c-1.178-1.058-1.455-2.318-0.759-3.945c0.767-1.793,2.638-2.657,4.478-2l-3.905,9.129l1.186,0.508
		c3.311,1.416,6.941,0.555,8.641-3.417c1.558-3.641-0.032-7.552-3.866-9.192c-3.834-1.64-7.391,0.037-8.995,3.788
		c-1.333,3.117-0.63,5.897,1.802,7.688L1226.047,950.507z M1234.4,930.019l0.741,1.943l-7.18,2.042l-1.524,3.817l9.593-2.662
		l2.771,7.374l1.613-4.039l-2.839-7.208l10.196,4.073l1.336-3.344l-17.552-7.011l-1.336,3.343L1234.4,930.019z M1248.517,918.414
		l-1.232,3.318l-12.768-4.745l-1.307,3.515l17.773,6.606l0.961-2.587c-1.615-1.337-2.041-2.775-1.121-5.25L1248.517,918.414z
		 M1249.121,894.735c-3.987-1.32-7.522,0.575-8.804,4.448c-1.235,3.73,0.534,6.592,3.46,7.876l1.208-2.791
		c-1.823-0.889-2.67-2.339-2.049-4.219c0.623-1.879,2.452-2.727,5.043-1.868c2.621,0.866,3.582,2.639,2.961,4.519
		c-0.622,1.88-2.14,2.547-4.104,2.181l-0.753,2.942c3.113,0.715,6.241-0.525,7.476-4.256
		C1254.843,899.694,1253.109,896.055,1249.121,894.735 M1259.641,890.252l-1.074,3.529l3.357,1.022l1.075-3.529L1259.641,890.252z
		 M1257.557,889.679l-12.654-3.854l-1.05,3.444l12.655,3.854L1257.557,889.679z M1258.292,886.66
		c0.425-0.285,0.807-0.862,1.03-1.641c0.501-1.761-0.448-3.466-1.759-4.338l2.424,0.69l0.986-3.462l-12.723-3.627l-0.987,3.462
		l6.289,1.793c2.309,0.658,3.232,2.231,2.723,4.021c-0.238,0.837-0.576,1.363-1.141,1.921L1258.292,886.66z M1252.292,871.402
		l2.62-10.106l4.821,1.25l-2.004,7.726l2.991,0.774l2.003-7.724l4.443,1.152l-2.553,9.844l3.02,0.784l3.479-13.417l-18.295-4.744
		l-3.546,13.678L1252.292,871.402z M1259.907,840.628c-2.757-0.593-3.996,0.89-4.426,2.884c-0.341,1.583-0.156,2.728,0.346,3.818
		l2.316,0.498c-0.188-0.838-0.294-1.628-0.143-2.332c0.227-1.056,0.833-1.447,1.947-1.208l6.394,1.375l-0.757,3.521l2.464,0.529
		l0.757-3.52l3.578,0.77l0.461-2.141l-1.672-0.789c-1.139-0.552-1.709-1.043-1.643-2.348l0.043-0.911l-2.083-0.448l-0.397,1.847
		L1259.907,840.628z M1273.375,834.728l-0.711,3.619l3.444,0.678l0.711-3.621L1273.375,834.728z M1271.244,834.369l-12.982-2.55
		l-0.693,3.533l12.981,2.55L1271.244,834.369z M1271.399,820.377c1.691-0.298,3.002-1.418,3.385-3.727
		c0.328-1.983-0.434-3.63-1.806-4.526l2.132,0.354l0.588-3.552l-13.053-2.162l-0.588,3.553l6.985,1.155
		c2.19,0.363,3.438,1.635,3.154,3.352c-0.284,1.716-1.546,2.176-3.56,1.843l-7.428-1.229l-0.588,3.551l6.984,1.157
		c2.189,0.362,3.439,1.634,3.154,3.351c-0.289,1.746-1.546,2.176-3.559,1.843l-7.43-1.229l-0.588,3.551l8.14,1.348
		c2.842,0.472,5.455-0.252,6.038-3.773C1273.715,823.103,1272.821,821.342,1271.399,820.377 M1276.885,760.245l14.366,0.989
		l-0.114,1.646c-0.34,4.938-3.002,6.484-7.641,6.165c-5.238-0.36-7.065-2.216-6.726-7.154L1276.885,760.245z M1250.384,776.087
		c2.397-0.962,5.01-0.707,11.022-0.669c5.856,0.103,9.621-1.066,11.088-6.003c0.494,4.845,3.938,8.315,11.271,8.82
		c8.307,0.571,14.067-3.393,14.768-13.568l0.829-12.046l-47.139-3.246l-0.629,9.129l17.958,1.236l-0.134,1.945
		c-0.278,4.041-2.889,4.838-7.773,4.803c-5.932-0.108-8.561-0.138-10.627,0.396L1250.384,776.087z M1259.987,745.333l0.273-13.047
		l12.672,0.266l-0.203,9.674l7.648,0.16l0.203-9.673l11.623,0.244l-0.271,12.897l7.648,0.161l0.462-21.971l-47.24-0.992
		l-0.464,22.12L1259.987,745.333z M1291.996,700.075l0.086,2.624c0.147,4.497-2.441,5.633-6.039,5.751s-6.031-0.853-6.179-5.351
		l-0.086-2.623L1291.996,700.075z M1272.753,703.635c0.15,4.571-2.282,5.928-6.33,6.061c-4.123,0.135-6.488-1.062-6.638-5.637
		l-0.097-2.922l12.969-0.427L1272.753,703.635z M1265.817,718.645c6.296-0.206,10.091-3.483,10.955-9.14
		c0.978,4.62,4.905,7.718,10.678,7.529c7.421-0.244,12.408-3.785,12.086-13.604l-0.414-12.594l-47.225,1.551l0.421,12.818
		C1252.638,714.95,1257.571,718.915,1265.817,718.645 M1284.392,670.299l0.028,0.299l-16.585,4.709l-0.626-6.722L1284.392,670.299z
		 M1296.839,664.02l-47.978-5.627l0.792,8.513l10.337,0.996l0.869,9.335l-9.976,2.887l0.862,9.26l46.115-14.387L1296.839,664.02z
		 M1245.635,637.253l20.087-3.1l1.385,8.969l-20.088,3.101l1.42,9.19l46.696-7.207l-1.419-9.19l-19.049,2.939l-1.384-8.969
		l19.049-2.94l-1.419-9.19l-46.697,7.207L1245.635,637.253z M1278.767,598.624l0.541,2.568c0.929,4.403-1.424,5.972-4.945,6.715
		c-3.523,0.742-6.088,0.21-7.017-4.194l-0.541-2.568L1278.767,598.624z M1260.436,605.477c0.944,4.477-1.215,6.234-5.178,7.069
		c-4.036,0.851-6.574,0.083-7.518-4.394l-0.604-2.862l12.696-2.676L1260.436,605.477z M1256.218,621.465
		c6.164-1.299,9.331-5.186,9.198-10.906c1.766,4.379,6.174,6.746,11.825,5.556c7.266-1.531,11.56-5.886,9.534-15.499l-2.6-12.329
		l-46.233,9.744l2.645,12.549C1242.598,620.12,1248.145,623.166,1256.218,621.465 M1244.229,591.983l-3.388-12.604l12.24-3.29
		l2.512,9.344l7.389-1.986l-2.513-9.344l11.227-3.018l3.349,12.457l7.388-1.986l-5.705-21.221l-45.63,12.268l5.744,21.365
		L1244.229,591.983z M1271.999,545.139l-45.147,13.937l2.743,8.886l45.148-13.937L1271.999,545.139z M1263.072,519.079
		l-44.603,15.597l7.253,20.742l7.223-2.525l-4.185-11.963l37.381-13.071L1263.072,519.079z M1230.131,503.996l-0.12-0.275
		l18.815-19.158l-3.414-7.838l-43.319,18.868l3.444,7.907l25.235-10.991l0.119,0.275l-20.623,21.581l2.815,6.463l43.32-18.868
		l-3.445-7.908L1230.131,503.996z M1207.062,488.376l-5.875-11.653l11.318-5.706l4.356,8.639l6.831-3.444l-4.356-8.639l10.381-5.234
		l5.808,11.519l6.831-3.444l-9.894-19.622l-42.19,21.272l9.959,19.756L1207.062,488.376z M1203.153,449.204l-0.148-0.261
		l16.674-21.047l-4.227-7.432l-41.07,23.362l4.264,7.497l23.926-13.609l0.148,0.261l-18.215,23.648l3.486,6.128l41.069-23.362
		l-4.264-7.497L1203.153,449.204z M1206.686,406.763l-40.001,25.149l4.95,7.874l40.001-25.15L1206.686,406.763z M1170.763,424.043
		l-7.359-10.777l10.467-7.148l5.457,7.989l6.316-4.314l-5.456-7.99l9.601-6.556l7.274,10.653l6.317-4.314l-12.393-18.146
		l-39.02,26.646l12.479,18.271L1170.763,424.043z M1131.735,383.732l15.867-12.703l5.67,7.084l-15.865,12.703l5.812,7.26
		l36.885-29.531l-5.812-7.26l-15.047,12.047l-5.671-7.084l15.046-12.047l-5.812-7.26l-36.885,29.531L1131.735,383.732z
		 M1134.877,339.279c4.071-3.66,7.14-5.408,9.495-2.786c2.406,2.678,0.242,5.43-3.83,9.09l-3.18,2.857l6.065,6.75l1.45-1.304
		c8.423-7.569,11.846-14.981,5.279-22.289c-6.818-7.587-14.947-5.524-24.934,3.449l-5.02,4.512
		c-9.985,8.974-12.901,16.837-6.083,24.424c6.567,7.308,14.301,4.693,22.724-2.877l1.451-1.303l-6.066-6.75l-3.18,2.858
		c-4.072,3.659-7.039,5.519-9.445,2.841c-2.356-2.621-0.291-5.485,3.78-9.145L1134.877,339.279z M1129.651,310.622l-33.92,32.892
		l6.474,6.677l33.921-32.893L1129.651,310.622z M1085.584,311.043l-1.866,1.952c-6.529,6.83-6.109,13.77-0.363,19.264
		c5.639,5.39,12.59,5.499,18.446-0.627c5.027-5.258,4.652-10.183,2.923-16.297l-1.224-4.906c-0.698-2.743-0.64-4.866,1.537-7.143
		c2.125-2.223,4.446-2.805,6.343-0.991c2.169,2.073,1.59,4.632-1.365,7.722l-1.916,2.006l5.908,5.649l1.865-1.951
		c6.271-6.559,6.549-13.144,0.64-18.793c-5.476-5.235-12.627-4.809-18.069,0.883s-4.744,10.822-3.406,16.043l1.109,4.485
		c0.764,3.324,1.235,5.436-1.097,7.875c-2.177,2.277-4.503,2.647-6.563,0.678c-2.276-2.177-1.707-5.16,1.093-8.088l1.969-2.06
		L1085.584,311.043z M1057.799,308.671l25.134-30.602l7.012,5.76l4.856-5.912l-21.039-17.279l-4.854,5.912l6.839,5.617
		l-25.134,30.601L1057.799,308.671z M1056.36,247.638l-28.365,37.789l17.574,13.192l4.593-6.118l-10.138-7.609l23.773-31.67
		L1056.36,247.638z M1026.785,246.76c3.065-4.537,5.764-7.058,8.747-5.043c2.982,2.016,1.65,5.461-1.414,9.997l-8.482,12.553
		c-3.064,4.537-5.764,7.058-8.747,5.043c-2.983-2.016-1.651-5.461,1.414-9.997L1026.785,246.76z M1039.595,260.755
		c7.516-11.124,8.567-19.646,0.178-25.314c-8.451-5.711-15.965-1.555-23.481,9.569l-3.527,5.22
		c-7.516,11.124-8.567,19.646-0.116,25.355c8.391,5.669,15.904,1.513,23.42-9.611L1039.595,260.755z M981.937,255.723l10.317-17.512
		l7.819,4.607l-10.318,17.512l8.012,4.721l23.987-40.709l-8.012-4.721l-9.785,16.607l-7.819-4.608l9.785-16.606l-8.012-4.721
		l-23.987,40.708L981.937,255.723z M962.841,220.128l-0.27-0.131l1.857-26.788l-7.688-3.741l-20.674,42.487l7.754,3.774
		l12.045-24.75l0.27,0.131l-1.658,29.804l6.34,3.085l20.674-42.487l-7.756-3.774L962.841,220.128z M941.87,183.065l-18.848,43.328
		l8.528,3.71l18.847-43.328L941.87,183.065z M918.783,224.471l8.659-22.464l-11.828-4.559l-2.534,6.578l3.639,1.403l-0.323,0.84
		c-1.996,5.178-4.147,8.047-7.437,6.779s-3.028-4.865-1.032-10.043l5.477-14.206c1.97-5.109,3.98-8.031,7.34-6.736
		c3.359,1.295,2.748,4.756,0.777,9.865l-0.943,2.449l8.468,3.264l0.377-0.979c4.074-10.567,3.283-18.106-5.955-21.667
		c-9.307-3.588-15.757,1.883-20.586,14.41l-2.428,6.298c-4.828,12.526-4.07,20.776,4.188,23.959c3.358,1.295,7.03,0.943,9.252-1.899
		l-0.92,4.469L918.783,224.471z M895.526,165.65l-15.121,44.765l8.812,2.976l15.121-44.765L895.526,165.65z M873.78,184.918
		l-0.287-0.084l-2.68-26.718l-8.207-2.393l-13.226,45.361l8.28,2.415l7.703-26.425l0.289,0.084l3.385,29.657l6.768,1.974
		l13.225-45.362l-8.279-2.414L873.78,184.918z M834.239,165.53c1.215-5.338,2.818-8.666,6.328-7.866
		c3.511,0.799,3.516,4.492,2.301,9.83l-3.362,14.772c-1.215,5.339-2.819,8.666-6.329,7.867c-3.51-0.799-3.516-4.492-2.301-9.831
		L834.239,165.53z M851.247,173.94c2.979-13.09,0.875-21.415-8.998-23.663c-9.945-2.264-15.446,4.33-18.426,17.42l-1.398,6.143
		c-2.98,13.09-0.875,21.415,9.07,23.679c9.873,2.247,15.374-4.346,18.354-17.436L851.247,173.94z M843.599,148.739l6.948,1.581
		l1.931-8.483l-6.947-1.581L843.599,148.739z M834.751,146.725l7.02,1.597l1.932-8.482l-7.02-1.599L834.751,146.725z
		 M817.138,193.658l-4.068-27.714l11.918-18.88l-9.461-1.625l-12.383,20.703l3.809-22.175l-9.166-1.575l-7.998,46.569l9.166,1.574
		l1.892-11.014l3.915-6.405l2.768,18.891L817.138,193.658z M776.476,179.529l-12.986-1.284l1.246-12.613l9.629,0.951l0.753-7.612
		l-9.628-0.952l1.144-11.569l12.837,1.269l0.754-7.613l-21.869-2.162l-4.648,47.021l22.018,2.177L776.476,179.529z M742.519,136.959
		l-2.965,47.157l9.281,0.583l2.964-47.157L742.519,136.959z M735.94,156.266c0.271-12.897-3.936-19.812-13.983-20.023l-12.822-0.27
		l-0.991,47.24l12.821,0.269c10.048,0.211,14.54-6.521,14.812-19.418L735.94,156.266z M726.271,166.64
		c-0.14,6.599-1.852,9.563-6.275,9.47l-2.4-0.05l0.684-32.543l2.399,0.05c4.425,0.093,6.011,3.127,5.872,9.726L726.271,166.64z"/>
</g>
</svg>
