<?xml version="1.0" encoding="utf-8"?>
<!-- Generator: Adobe Illustrator 16.0.4, SVG Export Plug-In . SVG Version: 6.00 Build 0)  -->
<!DOCTYPE svg PUBLIC "-//W3C//DTD SVG 1.1//EN" "http://www.w3.org/Graphics/SVG/1.1/DTD/svg11.dtd">
<svg version="1.1" id="Ebene_1" xmlns="http://www.w3.org/2000/svg" xmlns:xlink="http://www.w3.org/1999/xlink" x="0px" y="0px"
	 width="1440px" height="1440px" viewBox="0 0 1440 1440" enable-background="new 0 0 1440 1440" xml:space="preserve">
<g>
	<defs>
		<rect id="SVGID_1_" x="430.831" y="12.971" width="997.169" height="1425.029"/>
	</defs>
	<clipPath id="SVGID_2_">
		<use xlink:href="#SVGID_1_"  overflow="visible"/>
	</clipPath>
	<path clip-path="url(#SVGID_2_)" fill="#231F20" d="M794.308,131.711"/>
</g>
<path fill="none" stroke="#231F20" d="M794.308,131.711"/>
<g>
	<defs>
		<rect id="SVGID_3_" x="430.831" y="12.971" width="997.169" height="1425.029"/>
	</defs>
	<clipPath id="SVGID_4_">
		<use xlink:href="#SVGID_3_"  overflow="visible"/>
	</clipPath>
	<path clip-path="url(#SVGID_4_)" fill="#231F20" d="M793.308,139.711"/>
</g>
<path fill="none" stroke="#231F20" d="M793.308,139.711"/>
<g>
	<defs>
		<rect id="SVGID_5_" x="432.688" y="6.486" width="997.175" height="1425.03"/>
	</defs>
	<clipPath id="SVGID_6_">
		<use xlink:href="#SVGID_5_"  overflow="visible"/>
	</clipPath>
	<path clip-path="url(#SVGID_6_)" fill="#231F20" d="M711.171,725.227"/>
</g>
<path fill="none" stroke="#231F20" d="M711.171,725.227"/>
<g>
	<defs>
		<rect id="SVGID_7_" x="432.688" y="6.486" width="997.175" height="1425.03"/>
	</defs>
	<clipPath id="SVGID_8_">
		<use xlink:href="#SVGID_7_"  overflow="visible"/>
	</clipPath>
	<path clip-path="url(#SVGID_8_)" fill="#231F20" d="M711.171,725.227"/>
</g>
<path fill="none" stroke="#231F20" d="M711.171,725.227"/>
<g>
	<defs>
		<rect id="SVGID_9_" x="432.688" y="6.486" width="997.175" height="1425.03"/>
	</defs>
	<clipPath id="SVGID_10_">
		<use xlink:href="#SVGID_9_"  overflow="visible"/>
	</clipPath>
	<path clip-path="url(#SVGID_10_)" fill="#0000FF" d="M790.03,1226.629l-1.809,0.285c-0.164-1.25,0.278-1.715,1.543-1.973
		l-0.287-1.838c-2.812,0.471-3.717,1.857-3.331,4.318l0.534,3.408l3.912-0.613L790.03,1226.629z M797.423,1225.406l-1.805,0.305
		c-0.181-1.246,0.256-1.717,1.518-1.99l-0.311-1.834c-2.805,0.506-3.693,1.904-3.277,4.359l0.578,3.402l3.903-0.664
		L797.423,1225.406z M805.312,1224.223c2.932-4.701,3.765-9.971,2.612-16.316l-4.033,0.789c1.154,6.041,1.256,11.248-2.516,16.971
		l0.525,2.68l13.572-2.658l-0.651-3.328L805.312,1224.223z M819.052,1211.035c-0.396-1.725,0.742-2.939,2.556-3.354
		c2.252-0.516,3.952,0.326,4.582,2.674l3.631-0.676c-0.937-4.096-4.298-6.002-8.89-4.951c-4.182,0.957-6.433,3.625-5.689,6.871
		c0.535,2.34,2.438,3.66,4.864,3.504c-1.701,0.635-3.036,2.602-2.515,4.883c0.73,3.189,3.594,4.811,7.806,3.846
		c4.356-0.996,6.327-4.494,5.457-8.297l-3.572,0.664c0.542,2.369-0.338,4.172-2.474,4.66c-2.018,0.461-3.267-0.422-3.641-2.059
		c-0.429-1.873,0.814-2.896,2.364-3.25c0.673-0.154,1.228-0.281,1.622-0.311l-0.629-2.748c-0.484,0.172-1.004,0.322-1.559,0.449
		C821.064,1213.375,819.453,1212.791,819.052,1211.035 M838.96,1216.406l-1.773,0.453c-0.283-1.229,0.113-1.732,1.349-2.109
		l-0.461-1.803c-2.753,0.736-3.524,2.203-2.907,4.615l0.854,3.342l3.837-0.98L838.96,1216.406z M850.408,1203.74
		c0.58,2.049-0.315,3.736-2.508,4.357c-2.224,0.629-3.869-0.34-4.449-2.391c-0.563-1.992,0.323-3.707,2.517-4.328
		C848.134,1200.768,849.854,1201.777,850.408,1203.74 M849.568,1214.547c-1.963,0.555-3.304-0.219-4.017-1.857l-3.354,1.043
		c1.314,3.432,4.376,4.779,8.129,3.717c5.167-1.461,6.564-6.221,4.973-11.85c-1.601-5.658-5.232-8.465-10.197-7.062
		c-4.1,1.16-6.168,4.426-5.09,8.238c1.004,3.549,4.131,5.346,8.086,4.227c2.396-0.676,3.744-2.305,4.008-4.127
		C853.118,1210.674,852.455,1213.73,849.568,1214.547 M889.224,1200.664l-3.465,1.271l1.209,3.295l3.465-1.271L889.224,1200.664z
		 M888.425,1198.656l-4.558-12.42l-3.379,1.24l4.556,12.42L888.425,1198.656z M895.47,1193.096l3.435-10.072l-0.905-2.287
		l-10.712,4.24l0.981,2.48l6.695-2.648l-3.547,10.115l0.906,2.287l10.376-4.107l-0.981-2.482L895.47,1193.096z M910.571,1192.145
		l-3.404,1.424l1.354,3.238l3.404-1.422L910.571,1192.145z M909.683,1190.176l-5.1-12.207l-3.322,1.387l5.101,12.207
		L909.683,1190.176z M918.796,1174.451c-1.312-1.215-3.363-1.666-5.465-0.709c-3.604,1.641-4.22,5.283-2.604,8.832
		c1.615,3.551,4.779,5.504,8.328,3.889c2.158-0.982,3.07-2.814,2.945-4.537l3.406,7.48l3.275-1.492l-7.83-17.201l-2.512,1.145
		L918.796,1174.451z M920.449,1178.445c0.995,2.184,0.306,4.146-1.551,4.992c-2.075,0.943-3.823-0.072-4.868-2.367
		c-1.031-2.266-0.65-4.252,1.425-5.197c1.857-0.844,3.776-0.104,4.783,2.107L920.449,1178.445z M929.259,1176.104
		c1.541,3.119,4.275,3.576,7.342,2.062c3.147-1.555,4.166-4.166,3.375-6.785l-3.065,1.178c0.302,1.291-0.026,2.455-1.37,3.119
		c-1.371,0.678-2.47,0.217-3.121-1.102l-0.133-0.27l2.936-2.252c2.426-1.867,3.789-3.711,2.675-5.971
		c-1.011-2.045-3.128-2.539-5.603-1.316c-1.748,0.863-3.004,2.387-2.998,4.09c-0.934-1.145-2.18-1.5-3.524-0.836
		c-1.076,0.531-1.55,1.201-1.861,1.855l0.851,1.723c0.27-0.334,0.553-0.574,0.875-0.734c0.512-0.252,0.98-0.115,1.285,0.502
		L929.259,1176.104z M931.185,1172.074c-0.943-1.91-0.289-3.838,1.404-4.676c1.023-0.504,1.881-0.326,2.279,0.48
		c0.584,1.186-0.292,1.918-1.544,2.904l-1.994,1.586L931.185,1172.074z M951.087,1163.277c1.057,1.953,0.74,3.762-0.869,4.633
		c-1.557,0.842-2.826,0.199-3.797-1.596l-3.584-6.621l-3.166,1.713l3.926,7.256c1.4,2.586,3.678,4.082,6.791,2.396
		c1.74-0.941,2.732-2.639,2.599-4.271l3.728,6.885l3.166-1.713l-8.998-16.621l-3.166,1.713L951.087,1163.277z M966.72,1151.256
		c-1.838-2.68-4.875-2.646-7.856-0.91c-2.955,1.721-4.224,4.193-2.864,6.527c1.254,2.152,3.268,2.332,5.905,1.316l2.39-0.904
		c0.904-0.354,1.531-0.232,1.894,0.391c0.452,0.777,0.014,1.691-1.101,2.342c-1.634,0.951-2.893,0.816-3.854-0.359l-2.507,1.598
		c1.687,2.42,4.41,2.744,7.572,0.902c2.904-1.691,3.869-4.266,2.601-6.445c-1.238-2.125-3.114-2.248-5.777-1.217l-1.996,0.746
		c-1.247,0.482-1.961,0.447-2.413-0.33c-0.483-0.83,0.223-1.762,1.363-2.426c1.582-0.922,3.025-0.826,4.008,0.443L966.72,1151.256z
		 M973.816,1148.963c-1.192-1.906-1.039-3.701,0.462-4.639s2.773-0.318,3.838,1.387l4.006,6.412l3.053-1.908l-4.387-7.021
		c-1.558-2.494-3.831-3.867-6.808-2.008c-1.705,1.064-2.503,2.73-2.278,4.395l-1.145-1.832l-3.053,1.908l7.01,11.219l3.053-1.906
		L973.816,1148.963z M989.013,1131.734l4.688,14.83l-0.099,0.068l-8.424-12.268l-3.115,2.141l10.699,15.58l4.772-3.277
		l-4.538-13.553l0.074-0.051l11.191,8.984l4.871-3.346l-10.699-15.58l-2.868,1.971l8.423,12.266l-0.1,0.068l-12.23-9.652
		L989.013,1131.734z M1009.328,1110.869l5.077,19.006l2.779-2.143l-2.689-9.332l0.096-0.072l8.365,4.951l2.993-2.309l-12.465-7.17
		l-1.353-5.094L1009.328,1110.869z M1032.099,1109.084c0.793,1.484,0.885,3.156-0.646,4.414c-1.553,1.275-3.205,0.73-4.269-0.377
		L1032.099,1109.084z M1024.677,1110.873c-0.559-1.482-0.223-2.729,1.145-3.854c1.507-1.236,3.564-1.143,4.896,0.289l-7.674,6.303
		l0.819,0.996c2.285,2.783,5.905,3.691,9.243,0.949c3.06-2.514,3.449-6.717,0.803-9.939s-6.575-3.373-9.729-0.783
		c-2.618,2.152-3.276,4.945-1.942,7.654L1024.677,1110.873z M1044.083,1097.541c1.471,1.662,1.572,3.496,0.201,4.709
		c-1.325,1.172-2.707,0.832-4.059-0.693l-4.99-5.641l-2.696,2.385l5.468,6.18c1.947,2.201,4.504,3.145,7.155,0.799
		c1.483-1.312,2.065-3.189,1.565-4.75l1.432,1.617l2.696-2.385l-8.767-9.908l-2.697,2.385L1044.083,1097.541z M1056.817,1085.727
		c1.529,1.607,1.697,3.436,0.372,4.699c-1.282,1.219-2.675,0.93-4.082-0.547l-5.192-5.455l-2.607,2.482l5.688,5.975
		c2.027,2.131,4.616,2.98,7.181,0.539c1.434-1.365,1.947-3.262,1.392-4.805l1.489,1.566l2.606-2.484l-9.12-9.582l-2.609,2.482
		L1056.817,1085.727z M1064.224,1080.469c2.476,2.447,5.209,1.986,7.615-0.445c2.467-2.496,2.578-5.297,0.975-7.516l-2.512,2.113
		c0.705,1.121,0.776,2.33-0.278,3.396c-1.076,1.088-2.265,1.01-3.31-0.023l-0.214-0.211l2.041-3.088
		c1.683-2.555,2.37-4.744,0.578-6.516c-1.621-1.604-3.784-1.379-5.724,0.584c-1.371,1.387-2.062,3.236-1.5,4.846
		c-1.256-0.779-2.551-0.707-3.605,0.359c-0.843,0.854-1.072,1.639-1.152,2.361l1.365,1.35c0.146-0.404,0.336-0.723,0.588-0.979
		c0.4-0.406,0.889-0.43,1.379,0.055L1064.224,1080.469z M1064.73,1076.031c-1.515-1.496-1.526-3.533-0.197-4.877
		c0.801-0.811,1.67-0.922,2.31-0.289c0.939,0.928,0.351,1.908-0.512,3.248l-1.367,2.15L1064.73,1076.031z M1082.89,1071.07
		l-2.531,2.686l2.555,2.408l2.531-2.686L1082.89,1071.07z M1081.276,1069.635l-9.63-9.072l-2.47,2.619l9.631,9.072
		L1081.276,1069.635z M1078.74,1052.736l9.204,18.107l2.488-2.807l-7.066-13.643l0.079-0.09l14.433,5.34l2.606-2.941l-19.097-6.951
		L1078.74,1052.736z M1104.433,1034.4c1.087,1.285,1.527,2.9,0.297,4.451c-1.251,1.574-2.98,1.387-4.254,0.527L1104.433,1034.4z
		 M1097.552,1037.707c-0.856-1.332-0.791-2.621,0.311-4.006c1.213-1.527,3.246-1.867,4.847-0.748l-6.178,7.775l1.01,0.803
		c2.818,2.24,6.548,2.367,9.236-1.014c2.463-3.102,1.963-7.293-1.302-9.887c-3.266-2.594-7.137-1.918-9.676,1.277
		c-2.109,2.654-2.166,5.521-0.293,7.893L1097.552,1037.707z M1117.05,1030.172l-2.226,2.943l2.799,2.117l2.226-2.943
		L1117.05,1030.172z M1115.291,1028.918l-10.552-7.98l-2.172,2.871l10.552,7.98L1115.291,1028.918z M1117.011,1026.33
		c0.498-0.121,1.056-0.529,1.533-1.184c1.076-1.48,0.774-3.408-0.156-4.678l2.037,1.482l2.119-2.91l-10.693-7.791l-2.119,2.91
		l5.285,3.852c1.94,1.414,2.266,3.209,1.171,4.713c-0.513,0.703-1.011,1.082-1.733,1.41L1117.011,1026.33z M1121.812,1011.85
		c2.873,1.965,5.479,1.021,7.41-1.803c1.981-2.896,1.59-5.672-0.385-7.566l-2.094,2.529c0.895,0.977,1.182,2.152,0.334,3.391
		c-0.863,1.264-2.046,1.398-3.26,0.57l-0.248-0.17l1.455-3.404c1.197-2.814,1.482-5.09-0.598-6.514
		c-1.883-1.285-3.97-0.68-5.527,1.6c-1.102,1.609-1.448,3.553-0.608,5.035c-1.375-0.539-2.635-0.238-3.481,1
		c-0.678,0.99-0.762,1.805-0.713,2.529l1.586,1.084c0.072-0.424,0.201-0.771,0.404-1.068c0.32-0.473,0.797-0.582,1.366-0.193
		L1121.812,1011.85z M1121.515,1007.395c-1.758-1.201-2.135-3.203-1.067-4.764c0.644-0.941,1.478-1.205,2.222-0.697
		c1.09,0.744,0.686,1.812,0.077,3.287l-0.96,2.359L1121.515,1007.395z M1128.341,986.547l10.224,11.721l-0.063,0.102l-12.623-7.879
		l-2.002,3.207l16.033,10.008l3.066-4.912l-9.575-10.609l0.048-0.076l13.848,3.764l3.129-5.014l-16.033-10.008l-1.842,2.953
		l12.623,7.879l-0.064,0.102l-15.069-3.959L1128.341,986.547z M1150.476,962.643c1.943,1.072,2.653,2.768,1.77,4.369
		c-0.855,1.551-2.271,1.693-4.057,0.709l-6.594-3.641l-1.738,3.152l7.223,3.986c2.574,1.422,5.299,1.451,7.009-1.648
		c0.957-1.732,0.875-3.697-0.118-5l1.891,1.045l1.74-3.152l-11.584-6.393l-1.739,3.152L1150.476,962.643z M1155.979,955.258
		c3.104,1.572,5.565,0.297,7.11-2.756c1.585-3.131,0.833-5.832-1.372-7.453l-1.744,2.783c1.016,0.85,1.453,1.979,0.774,3.316
		c-0.689,1.365-1.846,1.656-3.157,0.992l-0.268-0.137l0.997-3.562c0.819-2.949,0.804-5.242-1.445-6.381
		c-2.034-1.029-4.023-0.154-5.27,2.309c-0.882,1.74-0.972,3.711,0.055,5.072c-1.433-0.357-2.644,0.107-3.321,1.445
		c-0.541,1.07-0.519,1.889-0.375,2.602l1.713,0.867c0.017-0.43,0.099-0.791,0.262-1.113c0.257-0.508,0.714-0.68,1.33-0.369
		L1155.979,955.258z M1155.102,950.879c-1.9-0.961-2.535-2.896-1.682-4.582c0.516-1.018,1.309-1.389,2.111-0.982
		c1.178,0.596,0.918,1.709,0.507,3.25l-0.642,2.465L1155.102,950.879z M1166.584,932.166c1.36,0.992,2.17,2.457,1.34,4.254
		c-0.843,1.826-2.567,2.055-4.007,1.521L1166.584,932.166z M1160.681,937.006c-1.148-1.092-1.389-2.359-0.646-3.965
		c0.818-1.771,2.712-2.582,4.533-1.873l-4.164,9.016l1.171,0.541c3.269,1.51,6.922,0.752,8.734-3.17
		c1.661-3.594,0.183-7.549-3.604-9.299c-3.785-1.746-7.388-0.174-9.099,3.531c-1.421,3.076-0.798,5.877,1.582,7.736
		L1160.681,937.006z M1181.136,926.309l-11.067-4.717c-2.539-1.082-3.33-2.594-2.437-4.691c0.906-2.125,2.827-2.578,5.409-1.672
		l1.273-3.371c-4.436-1.76-7.863-0.221-9.58,3.809c-1.658,3.893-0.745,7.41,3.643,9.281l11.287,4.812L1181.136,926.309z
		 M1176.79,895.156c-2.644-0.98-4.083,0.309-4.792,2.223c-0.562,1.52-0.544,2.678-0.203,3.828l2.223,0.824
		c-0.066-0.857-0.06-1.654,0.191-2.33c0.375-1.012,1.031-1.312,2.1-0.916l6.133,2.273l-1.252,3.375l2.362,0.877l1.252-3.377
		l3.432,1.271l0.761-2.053l-1.541-1.02c-1.049-0.709-1.543-1.275-1.292-2.559l0.173-0.895l-1.998-0.74l-0.655,1.771L1176.79,895.156
		z M1190.957,891.232l-1.22,3.48l3.312,1.162l1.221-3.482L1190.957,891.232z M1188.899,890.574l-12.486-4.375l-1.19,3.398
		l12.485,4.375L1188.899,890.574z M1190.995,876.725c1.717-0.055,3.174-0.979,3.881-3.207c0.607-1.918,0.088-3.656-1.143-4.738
		l2.059,0.654l1.088-3.434l-12.61-3.998l-1.088,3.434l6.749,2.139c2.115,0.67,3.172,2.107,2.646,3.766s-1.841,1.934-3.785,1.318
		l-7.178-2.275l-1.088,3.432l6.749,2.139c2.116,0.67,3.172,2.107,2.646,3.766c-0.534,1.688-1.841,1.934-3.784,1.318l-7.179-2.275
		l-1.088,3.432l7.864,2.492c2.746,0.871,5.435,0.527,6.514-2.875C1192.9,879.75,1192.266,877.881,1190.995,876.725
		 M1224.299,829.564l-46.209-9.861l-1.94,9.094l46.21,9.861L1224.299,829.564z M1206.903,802.594l14.212,2.314l-0.265,1.629
		c-0.796,4.885-3.59,6.178-8.181,5.43c-5.181-0.844-6.829-2.859-6.032-7.746L1206.903,802.594z M1179.048,815.912
		c2.477-0.736,5.056-0.24,11.037,0.354c5.822,0.645,9.679-0.17,11.598-4.949c0.042,4.871,3.15,8.645,10.404,9.826
		c8.218,1.34,14.32-2.074,15.96-12.143l1.942-11.916l-46.635-7.6l-1.472,9.031l17.766,2.895l-0.313,1.924
		c-0.65,3.998-3.324,4.551-8.185,4.062c-5.896-0.656-8.511-0.932-10.618-0.59L1179.048,815.912z M1184.677,770.996
		c-1.059,10.521,5.179,14.465,14.805,15.434l31.491,3.168l0.952-9.479l-32.088-3.227c-5.148-0.518-7.901-1.623-7.549-5.131
		s3.264-3.969,8.412-3.451l32.088,3.227l0.953-9.477l-31.491-3.166C1192.624,757.926,1185.734,760.475,1184.677,770.996
		 M1187.082,747.504l39.579,1.277l-0.293,9.07l7.646,0.248l0.879-27.211l-7.646-0.248l-0.286,8.846l-39.579-1.277L1187.082,747.504z
		 M1234.763,717.423l-47.25,0.236l0.047,9.299l47.249-0.234L1234.763,717.423z M1226.402,693.818l0.144,2.621
		c0.247,4.492-2.315,5.685-5.91,5.883s-6.049-0.719-6.296-5.212l-0.144-2.621L1226.402,693.818z M1207.242,697.8
		c0.251,4.568-2.149,5.977-6.194,6.199c-4.118,0.227-6.51-0.919-6.761-5.486l-0.161-2.922l12.955-0.711L1207.242,697.8z
		 M1200.64,712.96c6.291-0.346,10.012-3.705,10.752-9.38c1.079,4.599,5.074,7.608,10.841,7.291
		c7.414-0.407,12.321-4.057,11.782-13.868l-0.692-12.58l-47.179,2.595l0.704,12.805
		C1187.383,709.558,1192.402,713.414,1200.64,712.96 M1229.728,652.865l-1.56-11.898l-46.85,6.139l1.062,8.105l29.227-3.83
		l0.039,0.299l-28.428,9.927l0.761,5.8l29.995,2.046l0.039,0.297l-29.226,3.829l1.12,8.553l46.85-6.139l-1.529-11.675l-27.771-1.808
		l-0.039-0.297L1229.728,652.865z M1207.375,618.708c5.366-1.087,9.059-0.992,9.772,2.536s-2.65,5.052-8.018,6.138l-14.849,3.004
		c-5.366,1.086-9.058,0.992-9.772-2.535c-0.714-3.529,2.651-5.053,8.018-6.139L1207.375,618.708z M1206.698,637.669
		c13.158-2.664,19.882-8.004,17.874-17.928c-2.024-9.997-10.296-12.302-23.454-9.639l-6.174,1.25
		c-13.159,2.662-19.883,8.003-17.859,18c2.008,9.924,10.28,12.229,23.438,9.566L1206.698,637.669z M1173.881,611.63l23.207-6.406
		l-3.373-12.217l-6.796,1.875l1.038,3.76l-0.867,0.24c-5.35,1.476-8.935,1.455-9.872-1.943c-0.938-3.398,2.107-5.328,7.457-6.805
		l14.677-4.051c5.277-1.457,8.822-1.58,9.78,1.889c0.958,3.472-2.188,5.039-7.466,6.496l-2.53,0.699l2.414,8.747l1.013-0.278
		c10.917-3.014,16.506-8.135,13.872-17.678c-2.655-9.617-10.891-11.545-23.831-7.973l-6.506,1.796
		c-12.941,3.573-19.121,9.091-16.767,17.622c0.958,3.47,3.427,6.212,7.032,6.307l-4.139,1.92L1173.881,611.63z M1160.225,568.552
		c3.452,9.996,10.769,10.959,19.914,7.801l29.915-10.334l-3.11-9.004l-30.482,10.531c-4.892,1.689-7.854,1.84-9.006-1.492
		c-1.15-3.332,1.298-4.971,6.189-6.66l30.482-10.53l-3.109-9.003l-29.916,10.334
		C1161.957,553.354,1156.771,558.558,1160.225,568.552 M1171.436,525.64l13.252-5.635l0.646,1.519
		c1.938,4.556,0.266,7.141-4.014,8.961c-4.832,2.054-7.301,1.229-9.238-3.326L1171.436,525.64z M1155.003,551.78
		c1.7-1.944,4.146-2.903,9.521-5.597c5.266-2.564,8.09-5.314,7.159-10.379c2.637,4.095,7.28,5.625,14.045,2.748
		c7.662-3.258,10.998-9.402,7.006-18.789l-4.726-11.112l-43.481,18.489l3.581,8.42l16.563-7.043l0.764,1.794
		c1.585,3.727-0.38,5.622-4.749,7.806c-5.335,2.596-7.692,3.76-9.291,5.174L1155.003,551.78z M1138.253,513.919l21.312-11.195
		l-5.895-11.221l-6.24,3.277l1.812,3.453l-0.796,0.419c-4.914,2.58-8.422,3.321-10.062,0.201c-1.639-3.121,0.928-5.655,5.842-8.236
		l13.478-7.079c4.847-2.546,8.285-3.42,9.959-0.232c1.674,3.187-1.065,5.389-5.913,7.935l-2.324,1.22l4.221,8.035l0.93-0.488
		c10.026-5.267,14.397-11.459,9.793-20.225c-4.638-8.831-13.095-8.963-24.98-2.72l-5.976,3.138
		c-11.885,6.243-16.749,12.949-12.634,20.784c1.674,3.188,4.669,5.342,8.212,4.667l-3.635,2.757L1138.253,513.919z M1159.18,454.113
		l-40.683,24.031l4.73,8.008l40.682-24.032L1159.18,454.113z M1129.987,454.395l-0.165-0.25l15.25-22.101l-4.709-7.138
		l-39.44,26.021l4.75,7.199l22.976-15.158l0.166,0.25l-16.615,24.8l3.882,5.884l39.44-26.02l-4.75-7.199L1129.987,454.395z
		 M1112.109,413.923c4.354-3.317,7.719-4.843,9.901-1.979c2.181,2.864-0.184,5.701-4.539,9.02l-12.051,9.18
		c-4.355,3.318-7.72,4.843-9.9,1.979c-2.182-2.863,0.182-5.701,4.537-9.019L1112.109,413.923z M1119.77,431.282
		c10.68-8.135,14.401-15.873,8.266-23.927c-6.18-8.114-14.629-6.581-25.31,1.554l-5.01,3.817
		c-10.681,8.135-14.402,15.873-8.222,23.988c6.136,8.054,14.584,6.521,25.263-1.615L1119.77,431.282z M1130.058,407.04l4.318,5.667
		l6.92-5.271l-4.316-5.668L1130.058,407.04z M1124.56,399.82l4.363,5.729l6.92-5.272l-4.362-5.728L1124.56,399.82z
		 M1080.929,424.561l14.47-23.984l21.2-7.006l-6.273-7.267l-22.717,8.117l17.031-14.703l-6.076-7.039l-35.768,30.875l6.077,7.041
		l8.459-7.303l7.093-2.457l-9.867,16.344L1080.929,424.561z M1061.905,370.679l-0.216-0.209l10.061-24.896l-6.151-5.938
		l-32.814,33.998l6.206,5.99l19.116-19.805l0.216,0.208l-10.806,27.826l5.072,4.896l32.814-33.998l-6.206-5.988L1061.905,370.679z
		 M1035.724,335.05c3.533-4.182,6.485-6.399,9.235-4.076c2.75,2.324,1.058,5.605-2.476,9.787l-9.777,11.574
		c-3.533,4.183-6.486,6.399-9.236,4.076c-2.75-2.322-1.058-5.605,2.477-9.787L1035.724,335.05z M1046.962,350.337
		c8.663-10.256,10.62-18.615,2.887-25.149c-7.793-6.583-15.709-3.256-24.373,6.999l-4.064,4.812
		c-8.664,10.256-10.622,18.616-2.83,25.198c7.734,6.534,15.65,3.207,24.314-7.048L1046.962,350.337z M999.087,345.775l36.258-31.968
		l-6.94-5.12l-22.456,20.713l-0.242-0.178l13.102-27.614l-7.664-5.655l-19.842,44.078L999.087,345.775z M976.904,320.655
		l-11.07-6.91l6.712-10.753l8.207,5.123l4.051-6.49l-8.209-5.121l6.156-9.862l10.943,6.83l4.05-6.489l-18.641-11.636l-25.019,40.083
		l18.77,11.715L976.904,320.655z M963.644,289.073c6.166-11.33,5.607-19.405-3.219-24.209l-11.266-6.13l-22.585,41.503l11.265,6.13
		c8.827,4.805,15.91,0.889,22.076-10.441L963.644,289.073z M950.288,293.845c-3.154,5.797-6.037,7.643-9.924,5.53l-2.107-1.148
		l15.558-28.591l2.108,1.148c3.887,2.115,3.901,5.539,0.748,11.336L950.288,293.845z M923.736,274.173l-0.272-0.126l1.318-26.819
		l-7.761-3.586l-19.816,42.894l7.83,3.618l11.543-24.988l0.272,0.126l-1.057,29.831l6.399,2.957l19.815-42.894l-7.83-3.617
		L923.736,274.173z M896.062,277.908l-12.153-4.755l4.619-11.803l9.01,3.525l2.787-7.124l-9.01-3.525l4.235-10.826l12.014,4.7
		l2.787-7.124l-20.463-8.007l-17.217,44.001l20.603,8.062L896.062,277.908z M868.298,275.363l7.273-22.95l-12.083-3.83l-2.13,6.721
		l3.718,1.178l-0.272,0.858c-1.676,5.291-3.648,8.285-7.008,7.22c-3.361-1.065-3.32-4.672-1.643-9.962l4.6-14.514
		c1.655-5.219,3.484-8.258,6.916-7.17c3.432,1.087,3.032,4.58,1.379,9.799l-0.793,2.503l8.649,2.741l0.317-1
		c3.422-10.796,2.172-18.272-7.265-21.264c-9.509-3.014-15.612,2.84-19.669,15.638l-2.04,6.435
		c-4.056,12.798-2.796,20.986,5.64,23.66c3.433,1.088,7.076,0.512,9.119-2.46l-0.644,4.517L868.298,275.363z M841.49,259.015
		l-12.635-3.263l3.168-12.272l9.368,2.418l1.912-7.407l-9.369-2.419l2.906-11.255l12.491,3.224l1.912-7.407l-21.276-5.493
		l-11.812,45.75l21.423,5.531L841.49,259.015z M802.163,209.437l-9.298,46.326l21.546,4.325l1.505-7.501l-12.427-2.494l7.793-38.826
		L802.163,209.437z M779.763,245.944l-12.957-1.544l1.5-12.586l9.606,1.145l0.906-7.596l-9.606-1.146l1.375-11.543l12.81,1.527
		l0.905-7.596l-21.82-2.601l-5.594,46.918l21.97,2.618L779.763,245.944z M746.317,202.753l-3.568,47.115l9.273,0.703l3.568-47.116
		L746.317,202.753z M739.283,221.882c0.336-12.895-3.835-19.832-13.881-20.094l-12.821-0.334l-1.232,47.234l12.822,0.334
		c10.045,0.262,14.572-6.447,14.908-19.343L739.283,221.882z M729.56,232.207c-0.172,6.598-1.899,9.554-6.322,9.438l-2.4-0.062
		l0.85-32.539l2.4,0.062c4.422,0.116,5.993,3.158,5.821,9.756L729.56,232.207z"/>
</g>
</svg>
