<?xml version="1.0" encoding="utf-8"?>
<!-- Generator: Adobe Illustrator 16.0.4, SVG Export Plug-In . SVG Version: 6.00 Build 0)  -->
<!DOCTYPE svg PUBLIC "-//W3C//DTD SVG 1.1//EN" "http://www.w3.org/Graphics/SVG/1.1/DTD/svg11.dtd">
<svg version="1.1" id="Ebene_1" xmlns="http://www.w3.org/2000/svg" xmlns:xlink="http://www.w3.org/1999/xlink" x="0px" y="0px"
	 width="1440px" height="1440px" viewBox="0 0 1440 1440" enable-background="new 0 0 1440 1440" xml:space="preserve">
<g>
	<defs>
		<rect id="SVGID_1_" x="430.831" y="12.971" width="997.169" height="1425.029"/>
	</defs>
	<clipPath id="SVGID_2_">
		<use xlink:href="#SVGID_1_"  overflow="visible"/>
	</clipPath>
	<path clip-path="url(#SVGID_2_)" fill="#231F20" d="M794.308,131.711"/>
</g>
<path fill="none" stroke="#231F20" d="M794.308,131.711"/>
<g>
	<defs>
		<rect id="SVGID_3_" x="430.831" y="12.971" width="997.169" height="1425.029"/>
	</defs>
	<clipPath id="SVGID_4_">
		<use xlink:href="#SVGID_3_"  overflow="visible"/>
	</clipPath>
	<path clip-path="url(#SVGID_4_)" fill="#231F20" d="M793.308,139.711"/>
</g>
<path fill="none" stroke="#231F20" d="M793.308,139.711"/>
<g>
	<defs>
		<rect id="SVGID_5_" x="432.688" y="6.486" width="997.175" height="1425.03"/>
	</defs>
	<clipPath id="SVGID_6_">
		<use xlink:href="#SVGID_5_"  overflow="visible"/>
	</clipPath>
	<path clip-path="url(#SVGID_6_)" fill="#231F20" d="M711.171,725.227"/>
</g>
<path fill="none" stroke="#231F20" d="M711.171,725.227"/>
<g>
	<defs>
		<rect id="SVGID_7_" x="432.688" y="6.486" width="997.175" height="1425.03"/>
	</defs>
	<clipPath id="SVGID_8_">
		<use xlink:href="#SVGID_7_"  overflow="visible"/>
	</clipPath>
	<path clip-path="url(#SVGID_8_)" fill="#231F20" d="M711.171,725.227"/>
</g>
<path fill="none" stroke="#231F20" d="M711.171,725.227"/>
<g>
	<defs>
		<rect id="SVGID_9_" x="432.688" y="6.486" width="997.175" height="1425.03"/>
	</defs>
	<clipPath id="SVGID_10_">
		<use xlink:href="#SVGID_9_"  overflow="visible"/>
	</clipPath>
	<path clip-path="url(#SVGID_10_)" fill="#0000FF" d="M437.753,1371.586l-1.684-0.717c0.52-1.148,1.142-1.307,2.353-0.857
		l0.727-1.713c-2.635-1.086-4.137-0.389-5.111,1.904l-1.35,3.174l3.645,1.549L437.753,1371.586z M444.471,1374.4l-1.689-0.705
		c0.513-1.152,1.134-1.314,2.348-0.873l0.717-1.715c-2.642-1.072-4.14-0.365-5.1,1.932l-1.33,3.184l3.654,1.527L444.471,1374.4z
		 M459.966,1367.586l-3.673,1.125c-3.49,1.07-6.45,2.189-7.677,5.285c-1.238,3.123-0.068,6.361,4.115,8.02
		c3.877,1.535,7.41,0.193,8.869-3.488c0.21-0.531,0.347-1.121,0.457-1.725l-3.403-1.508c-0.049,0.529-0.181,1.025-0.413,1.611
		c-0.807,2.035-2.313,2.986-4.266,2.213c-1.896-0.75-2.269-2.254-1.628-3.871c0.84-2.121,2.899-2.918,6.538-4.121l6.512-2.1
		l0.928-2.344l-13.248-5.25l-1.171,2.957L459.966,1367.586z M475.899,1373.592l-3.644,1.217c-3.462,1.156-6.394,2.348-7.544,5.473
		c-1.161,3.152,0.088,6.361,4.311,7.916c3.914,1.439,7.413,0.01,8.78-3.707c0.197-0.535,0.32-1.129,0.415-1.732l-3.44-1.426
		c-0.035,0.529-0.155,1.029-0.373,1.621c-0.756,2.055-2.239,3.043-4.209,2.318c-1.915-0.705-2.324-2.197-1.723-3.83
		c0.787-2.141,2.826-2.988,6.434-4.281l6.458-2.26l0.87-2.365l-13.373-4.922l-1.098,2.984L475.899,1373.592z M485.298,1389.717
		l-1.729-0.6c0.442-1.182,1.051-1.383,2.29-1.018l0.61-1.756c-2.702-0.906-4.154-0.107-4.971,2.244l-1.131,3.258l3.741,1.301
		L485.298,1389.717z M500.371,1378.232c-4.449-1.453-7.724-0.314-8.757,2.852c-0.755,2.311,0.293,4.42,2.083,5.508
		c-2.087,0.109-3.579,1.105-4.259,3.188c-1.015,3.107,1.08,5.875,4.844,7.104c3.765,1.229,7.089,0.23,8.103-2.877
		c0.68-2.082,0.063-3.768-1.558-5.086c2.116,0.188,4.178-0.908,4.932-3.217C506.792,1382.537,504.849,1379.693,500.371,1378.232
		 M497.69,1386.445c-2.196-0.719-3.143-2.068-2.557-3.865c0.577-1.768,2.167-2.385,4.363-1.668s3.116,2.154,2.539,3.922
		C501.448,1386.631,499.886,1387.162,497.69,1386.445 M495.139,1394.258c-1.825-0.594-2.725-1.898-2.139-3.695
		c0.54-1.654,2.036-2.176,3.861-1.58c1.769,0.578,2.668,1.881,2.128,3.535C498.403,1394.314,496.907,1394.836,495.139,1394.258
		 M533.291,1398.131c-0.872,3.369,0.9,5.502,4.21,6.359c3.398,0.881,5.876-0.432,6.989-2.932l-3.091-1.109
		c-0.614,1.172-1.624,1.842-3.075,1.465c-1.482-0.383-2.011-1.451-1.643-2.873l0.076-0.291l3.694,0.213
		c3.055,0.172,5.293-0.334,5.925-2.773c0.571-2.207-0.709-3.965-3.381-4.656c-1.889-0.488-3.834-0.156-4.943,1.137
		c0.041-1.475-0.67-2.559-2.122-2.934c-1.162-0.303-1.956-0.105-2.621,0.188l-0.481,1.859c0.422-0.076,0.793-0.074,1.142,0.016
		c0.552,0.145,0.818,0.553,0.645,1.223L533.291,1398.131z M537.381,1396.34c0.534-2.062,2.289-3.096,4.118-2.621
		c1.104,0.285,1.637,0.98,1.411,1.854c-0.331,1.277-1.474,1.26-3.066,1.188l-2.546-0.1L537.381,1396.34z M552.11,1404.93
		l8.554-6.328l0.558-2.395l-11.221-2.609l-0.605,2.602l7.014,1.629l-8.672,6.301l-0.557,2.396l10.871,2.525l0.604-2.6
		L552.11,1404.93z M565.062,1412.756l-3.608-0.768l-0.729,3.434l3.608,0.768L565.062,1412.756z M565.453,1410.631l2.753-12.939
		l-3.521-0.75l-2.752,12.939L565.453,1410.631z M581.636,1402.99c-0.365-1.752-1.775-3.309-4.043-3.746
		c-3.889-0.75-6.502,1.861-7.24,5.689c-0.74,3.83,0.705,7.258,4.535,7.996c2.326,0.449,4.133-0.516,5.029-1.992l-1.559,8.07
		l3.533,0.684l3.586-18.557l-2.711-0.523L581.636,1402.99z M580.669,1407.203c-0.456,2.355-2.154,3.555-4.156,3.168
		c-2.238-0.432-3.074-2.273-2.597-4.748c0.472-2.445,1.933-3.842,4.172-3.41c2.003,0.387,3.138,2.104,2.677,4.488L580.669,1407.203z
		 M590.615,1417.664l-3.636-0.631l-0.601,3.459l3.636,0.631L590.615,1417.664z M590.925,1415.527l2.264-13.035l-3.547-0.617
		l-2.264,13.035L590.925,1415.527z M599.465,1414.244l8.099-6.902l0.39-2.428l-11.374-1.828l-0.423,2.635l7.108,1.143l-8.217,6.885
		l-0.391,2.428l11.02,1.771l0.424-2.637L599.465,1414.244z M614.332,1412.027c0.302-2.23,1.563-3.512,3.317-3.275
		c1.755,0.236,2.336,1.527,2.068,3.52l-1.012,7.49l3.568,0.482l1.106-8.205c0.394-2.914-0.478-5.424-3.957-5.893
		c-1.991-0.27-3.67,0.504-4.559,1.928l0.289-2.143l-3.567-0.48l-1.77,13.109l3.566,0.482L614.332,1412.027z M638.716,1418.803
		l-0.646,5.904l-4.325-0.473c-2.713-0.299-3.846-1.537-3.641-3.416c0.223-2.029,1.574-2.785,4.287-2.49L638.716,1418.803z
		 M627.539,1407.59c0.551,0.754,0.536,1.719,0.472,4.52c-0.033,2.229,0.934,3.602,3.034,4.254c-2.329,0.047-4.356,1.484-4.667,4.318
		c-0.382,3.488,1.73,5.984,6.531,6.51l8.499,0.93l2.056-18.789l-3.669-0.402l-0.76,6.949l-4.413-0.482
		c-2.148-0.234-2.997-1.293-2.915-3.428c0.079-2.104-0.019-3.412-0.351-3.961L627.539,1407.59z M660.89,1405.838l-8.858,17.566
		l3.501,0.248l4.201-8.754l0.121,0.01l2.949,9.262l3.771,0.27l-4.533-13.646l2.38-4.703L660.89,1405.838z M678.788,1419.805
		c-0.416,1.631-1.475,2.928-3.452,2.824c-2.007-0.104-2.86-1.621-2.899-3.154L678.788,1419.805z M672.101,1416.123
		c0.588-1.471,1.674-2.166,3.442-2.074c1.947,0.102,3.403,1.561,3.422,3.512l-9.917-0.516l-0.066,1.289
		c-0.188,3.594,1.873,6.705,6.188,6.93c3.954,0.207,7.076-2.635,7.293-6.799s-2.583-6.924-6.656-7.135
		c-3.387-0.178-5.754,1.441-6.596,4.342L672.101,1416.123z M689.222,1431.152l0.625-18.891l-3.598-0.119l-0.625,18.891
		L689.222,1431.152z M705.197,1416.992c-0.175-3.244-2.783-4.797-6.232-4.869c-3.419-0.07-5.79,1.383-5.845,4.082
		c-0.05,2.49,1.575,3.693,4.355,4.199l2.51,0.473c0.957,0.168,1.43,0.598,1.414,1.318c-0.019,0.9-0.869,1.453-2.159,1.426
		c-1.89-0.037-2.894-0.809-3.103-2.314l-2.973,0.061c0.18,2.943,2.336,4.639,5.995,4.713c3.358,0.07,5.524-1.627,5.575-4.146
		c0.051-2.461-1.487-3.541-4.297-4.049l-2.094-0.402c-1.314-0.236-1.906-0.639-1.889-1.539c0.02-0.959,1.109-1.389,2.43-1.361
		c1.828,0.037,3.012,0.873,3.189,2.467L705.197,1416.992z M717.911,1420.516c-0.322,1.652-1.305,3.008-3.285,3.018
		c-2.01,0.01-2.947-1.457-3.074-2.986L717.911,1420.516z M711.024,1417.219c0.502-1.502,1.55-2.256,3.32-2.266
		c1.949-0.01,3.485,1.363,3.615,3.312l-9.93,0.049l0.007,1.291c0.017,3.6,2.252,6.588,6.571,6.566
		c3.961-0.02,6.916-3.033,6.896-7.203s-2.974-6.766-7.054-6.746c-3.391,0.018-5.661,1.768-6.337,4.711L711.024,1417.219z
		 M734.606,1431.119l3.447-0.127l3.149-14.016l0.12-0.004l3.986,13.754l3.746-0.137l-5.578-18.709l-4.106,0.15l-3.099,13.742
		l-0.121,0.004l-4.065-13.48l-4.137,0.152l-4.196,19.066l3.598-0.133l2.938-14.037l0.12-0.004L734.606,1431.119z M761.422,1410.789
		l-3.59,0.268l1.407,18.85l3.59-0.27l-0.611-8.197c0.719,1.57,2.43,2.736,4.764,2.562c3.918-0.293,5.723-3.525,5.433-7.414
		c-0.291-3.889-2.554-6.789-6.472-6.496c-2.334,0.174-3.854,1.58-4.334,3.211L761.422,1410.789z M761.865,1417.135
		c-0.181-2.424,1.176-4,3.21-4.15c2.244-0.168,3.533,1.391,3.719,3.873c0.188,2.514-0.855,4.246-3.1,4.414
		c-2.035,0.15-3.612-1.234-3.791-3.629L761.865,1417.135z M785.12,1415.797c0.221,2.209-0.77,3.756-2.591,3.938
		c-1.761,0.176-2.685-0.906-2.888-2.938l-0.75-7.492l-3.582,0.359l0.822,8.209c0.293,2.924,1.815,5.184,5.338,4.832
		c1.971-0.197,3.541-1.379,4.047-2.938l0.215,2.148l3.582-0.359l-1.316-13.164l-3.582,0.359L785.12,1415.797z M796.668,1413.531
		c-0.28-2.232,0.612-3.797,2.368-4.018s2.65,0.877,2.9,2.871l0.942,7.5l3.572-0.447l-1.032-8.217
		c-0.367-2.916-1.854-5.119-5.335-4.68c-1.995,0.25-3.419,1.426-3.913,3.031l-0.27-2.145l-3.571,0.449l1.649,13.127l3.572-0.449
		L796.668,1413.531z M821.093,1419.449l-3.647,0.551l0.524,3.471l3.648-0.551L821.093,1419.449z M820.711,1417.322l-1.979-13.082
		l-3.56,0.539l1.979,13.082L820.711,1417.322z M828.175,1397.686l-4.429,19.17l3.46-0.592l2-9.502l0.118-0.02l5.067,8.295
		l3.727-0.635l-7.646-12.178l1.192-5.135L828.175,1397.686z M848.692,1406.064c0.428,2.178-0.413,3.811-2.209,4.162
		c-1.736,0.342-2.758-0.65-3.15-2.65l-1.452-7.391l-3.532,0.695l1.59,8.094c0.567,2.887,2.297,4.992,5.771,4.311
		c1.942-0.383,3.394-1.707,3.753-3.307l0.416,2.119l3.533-0.693l-2.553-12.982l-3.531,0.695L848.692,1406.064z M865.756,1403.301
		c0.036,1.684-0.636,3.215-2.569,3.646c-1.961,0.436-3.188-0.797-3.639-2.264L865.756,1403.301z M858.326,1401.543
		c0.172-1.574,1.034-2.535,2.762-2.92c1.903-0.424,3.697,0.592,4.238,2.469l-9.693,2.158l0.28,1.26
		c0.783,3.514,3.602,5.959,7.818,5.02c3.865-0.859,6.113-4.434,5.205-8.504c-0.905-4.07-4.342-5.979-8.324-5.094
		c-3.309,0.738-5.157,2.932-5.191,5.951L858.326,1401.543z M882.547,1402.264c0.953,1.43,2.507,2.178,4.774,1.598
		c1.947-0.498,3.148-1.857,3.416-3.475l0.535,2.094l3.488-0.893l-3.277-12.816l-3.488,0.891l1.754,6.859
		c0.55,2.15-0.111,3.807-1.797,4.236c-1.686,0.432-2.615-0.539-3.12-2.514l-1.864-7.297l-3.488,0.893l1.754,6.859
		c0.549,2.15-0.111,3.805-1.797,4.236c-1.715,0.438-2.615-0.539-3.121-2.516l-1.864-7.295l-3.488,0.891l2.043,7.994
		c0.714,2.789,2.427,4.891,5.886,4.006C880.985,1405.482,882.235,1403.955,882.547,1402.264 M903.343,1401.377l-3.551,1.002
		l0.953,3.379l3.551-1.004L903.343,1401.377z M902.698,1399.314l-3.594-12.732l-3.465,0.977l3.594,12.734L902.698,1399.314z
		 M901.601,1385.932l11.111,7.828l-5.037,10.08l4.192-1.268l5.249-10.52l2.477,8.184l3.588-1.086l-5.472-18.092l-3.589,1.088
		l1.814,6.002l-1.285,2.486l-8.742-6.006L901.601,1385.932z M939.354,1382.229c0.225,1.668-0.273,3.266-2.146,3.908
		c-1.901,0.654-3.258-0.434-3.869-1.842L939.354,1382.229z M931.776,1381.311c-0.006-1.584,0.744-2.635,2.419-3.209
		c1.844-0.635,3.739,0.174,4.485,1.98l-9.391,3.225l0.419,1.221c1.169,3.404,4.243,5.52,8.329,4.117
		c3.745-1.285,5.58-5.088,4.225-9.031c-1.354-3.945-4.982-5.459-8.842-4.133c-3.206,1.102-4.797,3.486-4.494,6.492L931.776,1381.311
		z M937.265,1390.273l-1.445,4.748l3.66-1.258l0.226-4.328L937.265,1390.273z M946.744,1371.154l-0.377,14.217l3.298-1.201
		l0.107-9.873l0.113-0.041l6.461,7.482l3.551-1.295l-9.433-10.645L946.744,1371.154z M961.833,1379.465
		c0.482,0.164,1.175,0.119,1.93-0.178c1.702-0.668,2.483-2.457,2.383-4.029l0.92,2.348l3.351-1.316l-4.832-12.316l-3.351,1.316
		l2.389,6.088c0.876,2.234,0.186,3.922-1.546,4.604c-0.81,0.316-1.435,0.367-2.22,0.258L961.833,1379.465z M980.999,1366.25
		c0.326,1.65-0.072,3.277-1.902,4.033c-1.856,0.768-3.279-0.234-3.974-1.602L980.999,1366.25z M973.378,1365.799
		c-0.102-1.58,0.581-2.676,2.217-3.352c1.803-0.746,3.743-0.057,4.601,1.701l-9.177,3.797l0.494,1.191
		c1.375,3.326,4.574,5.248,8.566,3.598c3.659-1.514,5.256-5.422,3.662-9.275c-1.594-3.852-5.309-5.141-9.079-3.58
		c-3.132,1.295-4.574,3.775-4.088,6.756L973.378,1365.799z M996.726,1350.656l3.324,7.387l-8.508,3.828l-3.324-7.387l-3.42,1.539
		l7.756,17.234l3.42-1.539l-3.164-7.029l8.508-3.83l3.164,7.031l3.42-1.539l-7.756-17.234L996.726,1350.656z M1013.104,1342.889
		l-1.618,0.787c-0.552-1.131-0.29-1.826,0.817-2.432l-0.828-1.699c-2.537,1.301-3.011,3-1.906,5.266l1.682,3.451l3.614-1.76
		L1013.104,1342.889z M1021.188,1348.395c1.58,3.1,4.322,3.521,7.367,1.967c3.127-1.594,4.113-4.219,3.287-6.828l-3.049,1.219
		c0.319,1.285,0.006,2.455-1.331,3.137c-1.362,0.695-2.466,0.248-3.134-1.062l-0.137-0.268l2.906-2.291
		c2.4-1.896,3.741-3.758,2.597-6.004c-1.036-2.029-3.159-2.496-5.618-1.242c-1.737,0.885-2.973,2.426-2.946,4.129
		c-0.948-1.135-2.198-1.473-3.534-0.791c-1.07,0.545-1.533,1.221-1.838,1.879l0.873,1.711c0.266-0.338,0.545-0.582,0.866-0.744
		c0.508-0.26,0.978-0.129,1.292,0.486L1021.188,1348.395z M1023.062,1344.342c-0.967-1.898-0.338-3.836,1.345-4.693
		c1.016-0.518,1.876-0.352,2.284,0.451c0.6,1.176-0.267,1.922-1.506,2.924l-1.974,1.611L1023.062,1344.342z M1042.66,1335.584
		c1.056,1.953,0.737,3.762-0.871,4.633c-1.558,0.842-2.826,0.199-3.797-1.596l-3.582-6.623l-3.167,1.713l3.925,7.256
		c1.399,2.586,3.677,4.084,6.789,2.4c1.742-0.943,2.733-2.641,2.601-4.273l1.028,1.9l3.166-1.713l-6.294-11.637l-3.166,1.713
		L1042.66,1335.584z M1051.082,1332.57c1.729,3.02,4.487,3.309,7.455,1.609c3.046-1.744,3.903-4.414,2.952-6.98l-2.987,1.365
		c0.381,1.268,0.125,2.451-1.176,3.197c-1.328,0.76-2.452,0.367-3.183-0.91l-0.149-0.26l2.793-2.428
		c2.305-2.012,3.554-3.938,2.301-6.123c-1.132-1.979-3.276-2.342-5.671-0.971c-1.691,0.969-2.852,2.566-2.743,4.268
		c-1.002-1.086-2.267-1.365-3.569-0.619c-1.041,0.598-1.472,1.293-1.742,1.967l0.953,1.666c0.25-0.35,0.517-0.607,0.83-0.785
		c0.494-0.283,0.971-0.178,1.313,0.422L1051.082,1332.57z M1052.757,1328.432c-1.058-1.848-0.523-3.814,1.116-4.754
		c0.989-0.564,1.856-0.439,2.304,0.342c0.655,1.145-0.174,1.932-1.363,2.992l-1.893,1.705L1052.757,1328.432z M1074.024,1321.869
		c1.334,1.082,3.039,1.34,5.033,0.115c1.713-1.051,2.459-2.703,2.237-4.328l1.129,1.842l3.069-1.883l-6.917-11.277l-3.069,1.881
		l3.702,6.037c1.161,1.893,1.019,3.668-0.465,4.578s-2.657,0.256-3.724-1.482l-3.938-6.418l-3.068,1.883l3.701,6.033
		c1.161,1.895,1.02,3.67-0.465,4.58c-1.509,0.926-2.656,0.256-3.725-1.482l-3.937-6.418l-3.069,1.883l4.314,7.031
		c1.506,2.455,3.764,3.957,6.807,2.09C1073.483,1325.404,1074.228,1323.576,1074.024,1321.869 M1093.61,1314.891l-3.098,2.006
		l1.906,2.947l3.098-2.006L1093.61,1314.891z M1092.388,1313.111l-7.188-11.109l-3.021,1.957l7.186,11.107L1092.388,1313.111z
		 M1100.168,1300.57c1.239,1.842,1.097,3.674-0.421,4.695c-1.469,0.988-2.794,0.469-3.934-1.223l-4.202-6.248l-2.987,2.01
		l4.605,6.846c1.641,2.438,4.052,3.709,6.988,1.732c1.643-1.104,2.467-2.889,2.178-4.502l1.205,1.793l2.987-2.01l-7.386-10.979
		l-2.986,2.012L1100.168,1300.57z M1105.96,1296.062c2.375,3.354,6.391,4.039,9.744,1.664c3.33-2.357,4.016-6.373,1.641-9.727
		c-2.377-3.354-6.373-4.016-9.703-1.658C1104.287,1288.717,1103.584,1292.709,1105.96,1296.062 M1114.381,1290.098
		c1.457,2.057,1.532,4.135-0.255,5.4c-1.811,1.283-3.747,0.523-5.204-1.535c-1.438-2.031-1.514-4.109,0.298-5.393
		C1111.006,1287.305,1112.942,1288.066,1114.381,1290.098 M1125.968,1276.574c-1.539-0.912-3.639-0.918-5.492,0.461
		c-3.176,2.365-3.008,6.057-0.678,9.184c2.329,3.127,5.835,4.369,8.963,2.039c1.901-1.414,2.405-3.398,1.92-5.057l4.909,6.592
		l2.888-2.15l-11.291-15.156l-2.213,1.648L1125.968,1276.574z M1128.429,1280.127c1.433,1.926,1.174,3.988-0.462,5.207
		c-1.829,1.363-3.753,0.738-5.258-1.283c-1.487-1.998-1.535-4.02,0.294-5.381c1.637-1.219,3.669-0.9,5.12,1.049L1128.429,1280.127z
		 M1137.424,1264.492l5.691,14.475l-0.095,0.074l-9.24-11.662l-2.963,2.348l11.738,14.814l4.537-3.596l-5.453-13.211l0.07-0.057
		l11.779,8.199l4.632-3.672l-11.738-14.812l-2.728,2.162l9.242,11.662l-0.096,0.074l-12.861-8.793L1137.424,1264.492z
		 M1166.941,1250.344c0.827,1.465,0.96,3.135-0.539,4.428c-1.522,1.312-3.187,0.809-4.276-0.271L1166.941,1250.344z
		 M1159.564,1252.311c-0.595-1.469-0.289-2.723,1.051-3.879c1.477-1.273,3.537-1.227,4.9,0.17l-7.518,6.486l0.843,0.979
		c2.353,2.725,5.992,3.547,9.264,0.725c2.998-2.588,3.286-6.799,0.562-9.957c-2.724-3.156-6.655-3.213-9.744-0.547
		c-2.566,2.215-3.156,5.021-1.758,7.699L1159.564,1252.311z M1174.486,1250.533c0.511-0.016,1.143-0.297,1.747-0.838
		c1.363-1.221,1.472-3.168,0.83-4.607l1.68,1.879l2.683-2.4l-8.82-9.859l-2.684,2.4l4.36,4.873c1.601,1.789,1.542,3.613,0.155,4.854
		c-0.648,0.58-1.216,0.846-1.99,1.014L1174.486,1250.533z M1189.004,1239.836l3.921,1.846l2.838-2.631l-4.867-0.969
		L1189.004,1239.836z M1187.833,1231.471c0.88,1.434,1.072,3.098-0.38,4.443c-1.474,1.367-3.155,0.922-4.283-0.119
		L1187.833,1231.471z M1180.532,1233.699c-0.646-1.445-0.386-2.709,0.912-3.914c1.429-1.324,3.49-1.354,4.903-0.006l-7.281,6.752
		l0.877,0.945c2.447,2.641,6.116,3.33,9.282,0.395c2.904-2.693,3.043-6.912,0.207-9.969c-2.835-3.059-6.766-2.975-9.758-0.199
		c-2.484,2.305-2.974,5.131-1.48,7.756L1180.532,1233.699z M1200.813,1229.336l-2.66,2.557l2.432,2.531l2.661-2.557
		L1200.813,1229.336z M1199.273,1227.82l-9.167-9.539l-2.597,2.494l9.168,9.539L1199.273,1227.82z M1208.87,1226.338l-13.258-13.469
		l-2.566,2.523l13.258,13.471L1208.87,1226.338z M1205.168,1215.324c2.485,2.438,5.217,1.965,7.611-0.479
		c2.458-2.506,2.557-5.307,0.943-7.52l-2.503,2.125c0.711,1.119,0.786,2.326-0.264,3.396c-1.071,1.094-2.259,1.021-3.309-0.008
		l-0.215-0.211l2.026-3.096c1.672-2.562,2.351-4.754,0.551-6.52c-1.628-1.596-3.79-1.361-5.722,0.609
		c-1.365,1.393-2.047,3.246-1.479,4.852c-1.26-0.771-2.554-0.695-3.604,0.375c-0.84,0.857-1.065,1.645-1.143,2.367l1.371,1.344
		c0.145-0.404,0.331-0.725,0.584-0.982c0.398-0.406,0.887-0.432,1.38,0.051L1205.168,1215.324z M1205.654,1210.887
		c-1.521-1.49-1.541-3.527-0.218-4.877c0.798-0.814,1.667-0.93,2.309-0.299c0.943,0.924,0.359,1.906-0.497,3.25l-1.358,2.156
		L1205.654,1210.887z M1224.29,1198.758c1.577,0.68,3.288,0.463,4.876-1.256c1.363-1.477,1.632-3.27,0.978-4.773l1.587,1.465
		l2.442-2.645l-9.72-8.975l-2.442,2.645l5.201,4.803c1.631,1.506,1.977,3.254,0.796,4.533c-1.18,1.277-2.487,0.969-3.986-0.416
		l-5.532-5.107l-2.442,2.645l5.202,4.805c1.631,1.506,1.976,3.254,0.795,4.531c-1.2,1.301-2.487,0.971-3.986-0.414l-5.531-5.109
		l-2.442,2.645l6.062,5.598c2.114,1.953,4.695,2.785,7.117,0.162C1224.729,1202.307,1224.948,1200.344,1224.29,1198.758
		 M1234.188,1184.24c2.625,2.285,5.323,1.648,7.568-0.932c2.303-2.648,2.235-5.449,0.493-7.562l-2.372,2.271
		c0.776,1.072,0.924,2.275-0.06,3.406c-1.004,1.154-2.195,1.152-3.305,0.188l-0.227-0.195l1.839-3.213
		c1.516-2.656,2.062-4.885,0.161-6.539c-1.721-1.496-3.864-1.135-5.676,0.949c-1.279,1.471-1.85,3.359-1.188,4.93
		c-1.303-0.695-2.589-0.541-3.574,0.59c-0.786,0.906-0.965,1.705-1,2.432l1.449,1.26c0.12-0.414,0.288-0.744,0.525-1.016
		c0.374-0.43,0.858-0.484,1.38-0.031L1234.188,1184.24z M1234.407,1179.781c-1.607-1.398-1.749-3.43-0.508-4.855
		c0.748-0.859,1.607-1.025,2.287-0.436c0.995,0.867,0.471,1.881-0.304,3.273l-1.227,2.234L1234.407,1179.781z M1243.777,1159.207
		c-1.71,2.09-2.399,4.588-1.363,6.639l-2.158-1.768l-2.109,2.578l7.383,6.041l5.396-6.592l-2.159-1.768l-3.173,3.877
		c-1.515-1.938-1.464-4.416,0.228-6.482c2.337-2.855,5.777-2.986,8.912-0.422c3.063,2.51,3.631,5.844,1.445,8.512
		c-1.995,2.438-4.589,2.719-6.899,1.137l-2.202,2.928c3.938,2.721,8.254,2.182,11.713-2.043c3.363-4.109,2.917-9.863-1.587-13.549
		C1252.675,1154.588,1247.121,1155.121,1243.777,1159.207 M1258.124,1141.611l-2.452,3.186l3.187,2.451l2.451-3.184
		L1258.124,1141.611z M1271.334,1141.875l-8.563-6.432l-2.145,2.855l8.565,6.432l-2.126,2.83l2.015,1.514l2.126-2.832l1.103,0.83
		c0.984,0.736,1.367,1.625,0.701,2.514c-0.559,0.744-1.356,0.857-2.208,0.592l-0.788,2.297c2.022,0.807,3.816,0.314,5.258-1.604
		c1.783-2.375,1.437-4.961-1.034-6.816l-0.889-0.668l1.172-1.559l-2.016-1.512L1271.334,1141.875z M1270.501,1136.125
		c3.33,2.41,7.352,1.762,9.76-1.568c2.392-3.305,1.744-7.326-1.586-9.734c-3.331-2.408-7.328-1.744-9.718,1.561
		C1266.548,1129.713,1267.17,1133.717,1270.501,1136.125 M1276.548,1127.764c2.042,1.477,2.784,3.42,1.5,5.193
		c-1.3,1.799-3.378,1.703-5.42,0.227c-2.018-1.459-2.76-3.402-1.459-5.201C1272.452,1126.209,1274.53,1126.303,1276.548,1127.764
		 M1285.135,1126.818c0.493-0.135,1.04-0.561,1.498-1.229c1.037-1.508,0.682-3.426-0.283-4.672l2.077,1.428l2.038-2.967
		l-10.902-7.494l-2.039,2.967l5.39,3.705c1.978,1.359,2.352,3.145,1.299,4.678c-0.493,0.717-0.98,1.109-1.693,1.459
		L1285.135,1126.818z M1293.063,1103.383l-2.102,3.178c-2.663,4.029-2.283,7.59,0.996,9.758c3.278,2.166,6.677,1.104,9.34-2.926
		l4.152-6.281l-15.768-10.422l-2.051,3.104L1293.063,1103.383z M1295.616,1105.07l5.255,3.473l-2.034,3.078
		c-1.555,2.354-3.184,2.75-4.886,1.627c-1.702-1.125-1.925-2.748-0.37-5.1L1295.616,1105.07z M1301.664,1083.814
		c-2.398-1.482-4.063-0.502-5.136,1.232c-0.853,1.377-1.063,2.518-0.956,3.713l2.016,1.246c0.104-0.852,0.27-1.633,0.647-2.244
		c0.568-0.92,1.271-1.084,2.239-0.484l5.562,3.439l-1.894,3.062l2.144,1.326l1.893-3.062l3.113,1.924l1.152-1.861l-1.311-1.305
		c-0.888-0.902-1.26-1.555-0.76-2.762l0.346-0.846l-1.812-1.119l-0.994,1.605L1301.664,1083.814z M1316.312,1082.752l-1.884,3.174
		l3.019,1.791l1.884-3.172L1316.312,1082.752z M1314.423,1081.701l-11.375-6.754l-1.839,3.096l11.377,6.754L1314.423,1081.701z
		 M1319.208,1068.715c1.692,0.297,3.306-0.311,4.452-2.352c0.983-1.752,0.829-3.559-0.156-4.869l1.883,1.057l1.764-3.139
		l-11.537-6.477l-1.763,3.139l6.175,3.467c1.935,1.086,2.677,2.707,1.824,4.225c-0.852,1.518-2.194,1.52-3.974,0.521l-6.566-3.688
		l-1.762,3.141l6.173,3.465c1.937,1.088,2.679,2.707,1.826,4.225c-0.867,1.543-2.194,1.521-3.974,0.521l-6.566-3.686l-1.762,3.139
		l7.194,4.039c2.511,1.408,5.214,1.621,6.962-1.492C1320.458,1072.066,1320.216,1070.107,1319.208,1068.715 M1339.032,1020.666
		l0.125-0.271l26.82,1.311l3.582-7.762l-42.898-19.805l-3.615,7.832l24.991,11.535l-0.126,0.273l-29.832-1.051l-2.954,6.402
		l42.899,19.803l3.614-7.832L1339.032,1020.666z M1335.369,993.17l4.957-12.072l11.725,4.814l-3.675,8.951l7.077,2.904l3.675-8.949
		l10.753,4.416l-4.898,11.932l7.076,2.906l8.347-20.328l-43.709-17.945l-8.404,20.467L1335.369,993.17z M1341.233,957.641
		l37.247,13.447l-3.082,8.537l7.195,2.598l9.245-25.607l-7.195-2.598l-3.006,8.324l-37.247-13.449L1341.233,957.641z
		 M1371.14,919.309l-2.576-0.805c-9.02-2.822-15.052,0.635-17.425,8.223c-2.329,7.445,0.659,13.723,8.747,16.252
		c6.943,2.174,11.19-0.35,15.902-4.611l3.853-3.275c2.148-1.842,4.077-2.732,7.083-1.791c2.936,0.918,4.487,2.738,3.704,5.244
		c-0.896,2.863-3.446,3.48-7.525,2.203l-2.649-0.828l-2.439,7.803l2.575,0.807c8.661,2.709,14.685,0.035,17.125-7.768
		c2.262-7.23-1.294-13.451-8.81-15.801c-7.516-2.352-11.803,0.551-15.889,4.066l-3.526,2.984c-2.64,2.16-4.323,3.52-7.544,2.512
		c-3.006-0.939-4.37-2.859-3.521-5.58c0.941-3.006,3.867-3.82,7.732-2.611l2.72,0.852L1371.14,919.309z M1391.391,901.684
		c5.292,1.406,8.56,3.127,7.636,6.605c-0.924,3.48-4.615,3.354-9.907,1.947l-14.642-3.889c-5.293-1.404-8.56-3.127-7.636-6.605
		c0.924-3.48,4.615-3.354,9.907-1.947L1391.391,901.684z M1382.378,918.379c12.975,3.447,21.37,1.641,23.969-8.145
		c2.619-9.857-3.773-15.592-16.749-19.037l-6.089-1.617c-12.975-3.447-21.37-1.641-23.987,8.217
		c-2.6,9.785,3.793,15.52,16.768,18.965L1382.378,918.379z M1366.708,870.77l18.754,4.113l-1.896,8.645l7.473,1.639l1.896-8.643
		l12.454,2.73l-2.555,11.648l7.473,1.639l4.546-20.734l-46.152-10.121L1366.708,870.77z M1388.648,844.096l-0.427,2.361
		c-1.82,10.113,2.931,15.465,12.6,17.207s15.99-1.615,17.812-11.729l2.062-11.439l-46.501-8.379l-1.637,9.08L1388.648,844.096z
		 M1396.029,845.426l15.647,2.818l-0.266,1.477c-0.904,5.02-3.384,6.098-9.068,5.072c-5.609-1.01-7.483-2.871-6.58-7.891
		L1396.029,845.426z M1424.54,812.879l-46.826-6.322l-2.939,21.777l7.582,1.023l1.694-12.561l39.244,5.297L1424.54,812.879z
		 M1427.353,785.432l-47.031-4.543l-2.113,21.873l7.614,0.736l1.219-12.617l39.417,3.809L1427.353,785.432z M1412.908,760.104
		c5.466,0.32,9.011,1.354,8.801,4.947s-3.852,4.207-9.318,3.889l-15.124-0.885c-5.465-0.318-9.011-1.352-8.801-4.945
		c0.21-3.596,3.853-4.209,9.318-3.889L1412.908,760.104z M1407.414,778.264c13.402,0.785,21.266-2.662,21.857-12.77
		c0.595-10.184-6.814-14.523-20.217-15.307l-6.289-0.367c-13.401-0.783-21.267,2.664-21.861,12.846
		c-0.591,10.107,6.817,14.447,20.22,15.232L1407.414,778.264z M1382.461,737.221l47.169,10.564l0.067-8.625l-29.954-6.006
		l0.002-0.301l30.045-5.617l0.073-9.525l-47.327,9.833L1382.461,737.221z M1380.996,690.769c0.52,10.562,7.274,13.534,16.938,13.059
		l31.611-1.559l-0.468-9.513l-32.211,1.587c-5.169,0.254-8.057-0.429-8.23-3.949c-0.173-3.521,2.638-4.41,7.806-4.666l32.211-1.586
		l-0.469-9.514l-31.611,1.557C1386.909,676.662,1380.475,680.208,1380.996,690.769 M1408.099,670.167
		c12.836-1.285,19.194-6.293,18.193-16.293l-1.278-12.763l-47.015,4.707l1.278,12.762c1.001,10,8.225,13.648,21.061,12.363
		L1408.099,670.167z M1396.636,661.816c-6.567,0.658-9.717-0.686-10.158-5.088l-0.238-2.389l32.388-3.242l0.239,2.389
		c0.44,4.402-2.38,6.344-8.947,7L1396.636,661.816z M1374.756,622.491l0.591,4.083c-2.894,0.419-4.189-0.682-4.673-3.491
		l-4.305,0.623c1.084,6.437,4.291,8.7,10.081,7.86l8.758-1.269l-1.322-9.129L1374.756,622.491z M1381.718,617.07l-2.274-12.851
		l12.479-2.21l1.688,9.527l7.533-1.334l-1.688-9.527l11.447-2.027l2.249,12.703l7.532-1.334l-3.83-21.639l-46.527,8.239
		l3.857,21.786L1381.718,617.07z M1367.665,583.917l38.653-8.607l1.973,8.858l7.467-1.662l-5.917-26.573l-7.467,1.661l1.923,8.64
		l-38.653,8.605L1367.665,583.917z M1358.008,544.668l19.627-5.278l2.357,8.764l-19.628,5.279l2.415,8.98l45.629-12.271l-2.415-8.98
		l-18.614,5.006l-2.355-8.764l18.612-5.006l-2.415-8.98l-45.629,12.27L1358.008,544.668z M1378.821,505.406
		c5.21-1.682,8.724-2.028,9.807,1.326c1.106,3.426-1.993,5.057-7.203,6.738l-4.067,1.314l2.788,8.636l1.855-0.599
		c10.777-3.48,16.923-8.854,13.905-18.203c-3.134-9.707-11.399-11.137-24.174-7.012l-6.425,2.074
		c-12.774,4.125-18.643,10.117-15.509,19.823c3.02,9.351,11.147,10.115,21.924,6.636l1.856-0.6l-2.788-8.637l-4.068,1.313
		c-5.211,1.683-8.678,2.173-9.783-1.254c-1.083-3.354,1.969-5.128,7.18-6.812L1378.821,505.406z M1385.92,477.394l-44.496,15.897
		l3.13,8.758l44.495-15.897L1385.92,477.394z M1333.001,471.623l18.875-7.54l3.366,8.427l-18.874,7.54l3.45,8.638l43.878-17.528
		l-3.45-8.638l-17.899,7.151l-3.366-8.428l17.899-7.15l-3.45-8.637l-43.879,17.528L1333.001,471.623z M1349.13,430.191
		c4.979-2.276,8.428-3.029,9.896,0.177c1.497,3.274-1.392,5.254-6.37,7.532l-3.889,1.777l3.775,8.254l1.773-0.812
		c10.299-4.71,15.777-10.762,11.691-19.697c-4.243-9.275-12.617-9.734-24.826-4.15l-6.138,2.808
		c-12.209,5.584-17.339,12.219-13.096,21.495c4.086,8.935,12.248,8.748,22.547,4.037l1.772-0.812l-3.773-8.252l-3.888,1.778
		c-4.979,2.277-8.366,3.166-9.863-0.107c-1.466-3.206,1.358-5.322,6.338-7.6L1349.13,430.191z M1317.986,401.224l-2.405,1.227
		c-8.419,4.293-10.311,10.982-6.7,18.064c3.544,6.949,10.07,9.346,17.62,5.496c6.481-3.305,7.751-8.078,8.137-14.42l0.465-5.035
		c0.245-2.82,1-4.805,3.808-6.235c2.739-1.397,5.122-1.181,6.314,1.157c1.362,2.672-0.028,4.897-3.837,6.84l-2.472,1.261
		l3.714,7.282l2.405-1.227c8.084-4.122,10.518-10.246,6.804-17.529c-3.44-6.748-10.333-8.707-17.348-5.129
		c-7.017,3.577-8.049,8.65-8.509,14.021l-0.435,4.6c-0.375,3.389-0.627,5.538-3.633,7.071c-2.806,1.431-5.124,1.013-6.419-1.526
		c-1.431-2.806,0.091-5.434,3.699-7.273l2.539-1.295L1317.986,401.224z M1308.734,402.292l-6.416-11.364l11.037-6.231l4.757,8.425
		l6.662-3.761l-4.758-8.426l10.123-5.715l6.343,11.234l6.661-3.762l-10.804-19.135l-41.145,23.229l10.877,19.267L1308.734,402.292z
		 M1288.882,382.749l20.447-12.711l-6.692-10.765l-5.987,3.723l2.059,3.312l-0.764,0.475c-4.713,2.93-8.158,3.924-10.02,0.93
		c-1.86-2.994,0.515-5.707,5.229-8.637l12.93-8.038c4.65-2.89,8.016-4.011,9.916-0.954c1.901,3.059-0.673,5.452-5.323,8.343
		l-2.229,1.386l4.791,7.707l0.892-0.555c9.618-5.979,13.529-12.472,8.303-20.88c-5.267-8.472-13.711-7.991-25.111-0.903
		l-5.733,3.563c-11.4,7.088-15.767,14.129-11.095,21.646c1.9,3.058,5.044,4.988,8.529,4.059l-3.427,3.013L1288.882,382.749z
		 M1300.049,313.17l-39.044,26.612l12.376,18.158l6.322-4.31l-7.139-10.473l32.722-22.304L1300.049,313.17z M1277.317,303.972
		l0.179,0.241l-11.712,12.651l-4.032-5.413L1277.317,303.972z M1284.676,292.132l-43.896,20.165l5.106,6.857l9.346-4.53l5.6,7.52
		l-7.015,7.656l5.556,7.458l31.89-36.284L1284.676,292.132z M1269.847,273.206l-36.856,29.565l5.819,7.254l36.856-29.565
		L1269.847,273.206z M1241.394,277.871l-0.194-0.228l12.43-23.802l-5.547-6.506l-35.958,30.652l5.595,6.564l20.948-17.857
		l0.194,0.229l-13.454,26.646l4.574,5.365l35.958-30.652l-5.597-6.563L1241.394,277.871z M1219.389,240.102
		c3.993-3.746,7.184-5.608,9.646-2.983s0.403,5.69-3.59,9.437l-11.047,10.367c-3.993,3.746-7.183,5.608-9.646,2.983
		c-2.463-2.625-0.403-5.69,3.59-9.438L1219.389,240.102z M1228.788,256.583c9.789-9.186,12.699-17.265,5.771-24.649
		c-6.98-7.438-15.228-5.047-25.018,4.14l-4.594,4.311c-9.79,9.188-12.699,17.265-5.72,24.703c6.929,7.383,15.176,4.993,24.966-4.194
		L1228.788,256.583z M1206.064,204.057l-33.077,33.742l15.692,15.383l5.355-5.463l-9.051-8.872l27.721-28.279L1206.064,204.057z
		 M1177.134,199.374c3.666-4.066,6.69-6.188,9.363-3.777c2.674,2.411,0.876,5.637-2.79,9.703l-10.145,11.252
		c-3.666,4.066-6.69,6.188-9.363,3.777c-2.674-2.411-0.876-5.637,2.79-9.703L1177.134,199.374z M1187.874,215.015
		c8.989-9.971,11.215-18.264,3.696-25.044c-7.576-6.83-15.596-3.76-24.585,6.211l-4.219,4.679
		c-8.989,9.97-11.215,18.264-3.641,25.094c7.521,6.78,15.54,3.71,24.529-6.261L1187.874,215.015z M1148.491,215.564l10.132-26.114
		l19.68-10.544l-7.428-6.081l-20.983,11.9l14.25-17.411l-7.195-5.89l-29.928,36.563l7.195,5.891l7.078-8.648l6.566-3.64
		l-6.911,17.798L1148.491,215.564z M1116.646,158.58l8.438-11.668l1.337,0.966c4.012,2.901,3.914,5.978,1.19,9.746
		c-3.077,4.254-5.617,4.824-9.628,1.923L1116.646,158.58z M1116.074,189.45c0.45-2.543,2.049-4.626,5.261-9.708
		c3.186-4.916,4.184-8.729,0.771-12.585c4.373,2.144,9.14,1.055,13.447-4.9c4.877-6.747,4.561-13.732-3.705-19.709l-9.785-7.075
		l-27.687,38.288l7.414,5.361l10.548-14.585l1.58,1.142c3.282,2.373,2.578,5.011-0.036,9.137c-3.228,4.977-4.645,7.192-5.284,9.229
		L1116.074,189.45z M1095.138,164.988l-10.887-7.196l6.989-10.574l8.071,5.335l4.219-6.382l-8.072-5.335l6.41-9.698l10.762,7.113
		l4.219-6.382l-18.334-12.117l-26.053,39.419l18.458,12.199L1095.138,164.988z M1083.147,133.273
		c6.652-11.053,6.445-19.143-2.166-24.326l-10.987-6.614l-24.366,40.483l10.988,6.613c8.609,5.183,15.857,1.579,22.509-9.474
		L1083.147,133.273z M1069.599,137.46c-3.404,5.655-6.365,7.374-10.156,5.092l-2.057-1.238l16.786-27.888l2.056,1.238
		c3.791,2.282,3.658,5.703,0.254,11.358L1069.599,137.46z M1035.366,111.755l-0.266-0.139l2.616-26.724l-7.579-3.957l-21.871,41.884
		l7.646,3.992l12.74-24.399l0.266,0.139l-2.502,29.745l6.249,3.263l21.871-41.884l-7.646-3.992L1035.366,111.755z M1007.697,114.133
		l-11.815-5.541l5.383-11.476l8.76,4.109l3.248-6.926l-8.76-4.109l4.938-10.524l11.679,5.478l3.248-6.926l-19.896-9.332
		l-20.064,42.778l20.031,9.395L1007.697,114.133z M980.149,109.81l9.281-22.214l-11.697-4.886l-2.717,6.505l3.599,1.503
		l-0.347,0.831c-2.14,5.121-4.369,7.928-7.621,6.57c-3.254-1.359-2.893-4.947-0.752-10.068l5.869-14.049
		c2.109-5.052,4.2-7.917,7.522-6.529c3.321,1.387,2.614,4.831,0.504,9.883l-1.012,2.422l8.374,3.498l0.404-0.969
		c4.365-10.449,3.784-18.008-5.351-21.824c-9.204-3.845-15.803,1.445-20.978,13.832l-2.603,6.229
		c-5.175,12.387-4.647,20.655,3.521,24.067c3.32,1.387,7.002,1.137,9.301-1.642l-1.042,4.442L980.149,109.81z M954.965,91.216
		l-12.247-4.507l4.379-11.895l9.078,3.342l2.643-7.18l-9.079-3.341l4.015-10.91l12.105,4.456l2.643-7.18l-20.623-7.589
		L931.56,90.754l20.764,7.642L954.965,91.216z M922.582,66.78l-0.287-0.087l4.043-27.313l-6.669-2.041l-11.861,24.921l-0.287-0.088
		l4.045-27.312l-8.463-2.59l-6.224,47.508l8.319,2.546l11.359-24.054l0.287,0.088l-3.973,26.314l8.318,2.546l21.428-42.855
		l-8.176-2.502L922.582,66.78z M868.791,72.456l8.967-38.571l8.839,2.055l1.732-7.452l-26.518-6.164l-1.732,7.451l8.62,2.004
		l-8.966,38.572L868.791,72.456z M828.787,47.478l-0.513,2.651c-1.791,9.279,2.32,14.885,10.125,16.393
		c7.66,1.479,13.562-2.193,15.17-10.514c1.38-7.143-1.602-11.08-6.366-15.285l-3.687-3.461c-2.071-1.928-3.172-3.745-2.574-6.838
		c0.582-3.019,2.219-4.765,4.797-4.268c2.945,0.569,3.844,3.034,3.033,7.232l-0.526,2.724l8.026,1.551l0.513-2.651
		c1.721-8.91-1.611-14.596-9.638-16.146c-7.438-1.438-13.221,2.794-14.713,10.526c-1.494,7.732,1.871,11.666,5.822,15.332
		l3.359,3.17c2.443,2.382,3.982,3.901,3.343,7.215c-0.599,3.093-2.353,4.663-5.151,4.123c-3.093-0.597-4.229-3.414-3.461-7.391
		l0.541-2.798L828.787,47.478z M818.815,14.6l-7.5,46.651l9.183,1.476l7.499-46.651L818.815,14.6z M773.629,40.27l-0.293,2.684
		c-1.028,9.394,3.528,14.646,11.431,15.51c7.754,0.848,13.338-3.294,14.26-11.719c0.791-7.232-2.504-10.912-7.596-14.713
		l-3.955-3.149c-2.224-1.752-3.469-3.473-3.127-6.604c0.336-3.057,1.822-4.931,4.433-4.646c2.981,0.327,4.079,2.71,3.614,6.96
		l-0.301,2.758l8.125,0.889l0.295-2.684c0.986-9.021-2.8-14.414-10.927-15.304c-7.53-0.823-12.946,3.865-13.803,11.694
		c-0.856,7.828,2.819,11.474,7.058,14.805l3.606,2.884c2.63,2.174,4.289,3.563,3.922,6.918c-0.343,3.131-1.963,4.84-4.797,4.53
		c-3.132-0.342-4.494-3.057-4.054-7.083l0.311-2.833L773.629,40.27z M756.864,21.051l0.299,0.021l2.048,17.118l-6.735-0.437
		L756.864,21.051z M752.614,7.774l-13.085,46.501l8.532,0.553l2.605-10.053l9.355,0.607l1.285,10.304l9.281,0.602l-6.973-47.801
		L752.614,7.774z M739.11,26.763c0.263-12.897-3.947-19.81-13.995-20.015l-12.822-0.262l-0.964,47.241l12.822,0.261
		c10.048,0.205,14.535-6.529,14.8-19.427L739.11,26.763z M729.446,37.143c-0.135,6.599-1.846,9.564-6.27,9.474l-2.4-0.049
		l0.664-32.543l2.4,0.049c4.424,0.09,6.012,3.123,5.877,9.722L729.446,37.143z"/>
</g>
</svg>
