<?xml version="1.0" encoding="utf-8"?>
<!-- Generator: Adobe Illustrator 16.0.4, SVG Export Plug-In . SVG Version: 6.00 Build 0)  -->
<!DOCTYPE svg PUBLIC "-//W3C//DTD SVG 1.1//EN" "http://www.w3.org/Graphics/SVG/1.1/DTD/svg11.dtd">
<svg version="1.1" id="Ebene_1" xmlns="http://www.w3.org/2000/svg" xmlns:xlink="http://www.w3.org/1999/xlink" x="0px" y="0px"
	 width="1440px" height="1440px" viewBox="0 0 1440 1440" enable-background="new 0 0 1440 1440" xml:space="preserve">
<g>
	<defs>
		<rect id="SVGID_1_" x="430.831" y="12.971" width="997.169" height="1425.029"/>
	</defs>
	<clipPath id="SVGID_2_">
		<use xlink:href="#SVGID_1_"  overflow="visible"/>
	</clipPath>
	<path clip-path="url(#SVGID_2_)" fill="#231F20" d="M794.308,131.711"/>
</g>
<path fill="none" stroke="#231F20" d="M794.308,131.711"/>
<g>
	<defs>
		<rect id="SVGID_3_" x="430.831" y="12.971" width="997.169" height="1425.029"/>
	</defs>
	<clipPath id="SVGID_4_">
		<use xlink:href="#SVGID_3_"  overflow="visible"/>
	</clipPath>
	<path clip-path="url(#SVGID_4_)" fill="#231F20" d="M793.308,139.711"/>
</g>
<path fill="none" stroke="#231F20" d="M793.308,139.711"/>
<g>
	<defs>
		<rect id="SVGID_5_" x="432.688" y="6.486" width="997.175" height="1425.03"/>
	</defs>
	<clipPath id="SVGID_6_">
		<use xlink:href="#SVGID_5_"  overflow="visible"/>
	</clipPath>
	<path clip-path="url(#SVGID_6_)" fill="#231F20" d="M711.171,725.227"/>
</g>
<path fill="none" stroke="#231F20" d="M711.171,725.227"/>
<g>
	<defs>
		<rect id="SVGID_7_" x="432.688" y="6.486" width="997.175" height="1425.03"/>
	</defs>
	<clipPath id="SVGID_8_">
		<use xlink:href="#SVGID_7_"  overflow="visible"/>
	</clipPath>
	<path clip-path="url(#SVGID_8_)" fill="#231F20" d="M711.171,725.227"/>
</g>
<path fill="none" stroke="#231F20" d="M711.171,725.227"/>
<g>
	<defs>
		<rect id="SVGID_9_" x="432.688" y="6.486" width="997.175" height="1425.03"/>
	</defs>
	<clipPath id="SVGID_10_">
		<use xlink:href="#SVGID_9_"  overflow="visible"/>
	</clipPath>
	<path clip-path="url(#SVGID_10_)" fill="#0000FF" d="M591.315,1007.74l-1.682-0.723c0.524-1.146,1.147-1.303,2.356-0.85
		l0.733-1.711c-2.633-1.094-4.138-0.402-5.117,1.887l-1.36,3.172l3.64,1.561L591.315,1007.74z M598.411,1010.648l-1.699-0.68
		c0.495-1.16,1.114-1.332,2.334-0.91l0.689-1.727c-2.656-1.029-4.143-0.299-5.068,2.012l-1.281,3.205l3.678,1.469L598.411,1010.648z
		 M601.526,1015.791l10.762,3.848c1.136-2.906,3.402-7.289,4.734-9.586l-3.355-1.486c-0.908,0.758-2.18,1.195-3.762,0.631
		c-2.062-0.738-2.723-2.631-2.037-4.553c0.748-2.09,2.484-2.934,4.488-2.217c2.205,0.787,2.906,2.568,2.139,4.715l3.355,1.486
		c1.576-3.961,0.047-7.438-4.444-9.045c-3.899-1.393-7.519,0.084-8.882,3.898c-1.201,3.361-0.109,6.811,3.988,8.275
		c1.778,0.635,3.226,0.42,4.223-0.051c-0.452,0.729-1.611,2.992-1.953,3.857l-8.135-2.908L601.526,1015.791z M625.049,1020.119
		l2.199-7.607l6.11,1.766L625.049,1020.119z M620.587,1022.266l4.352,1.258l11.433-8l0.966-3.344l-9.222-2.666l1.266-4.381
		l-3.545-1.023l-1.266,4.381l-2.767-0.801l-0.867,2.996l2.767,0.801L620.587,1022.266z M639.313,1023.578l-1.774-0.443
		c0.333-1.215,0.922-1.469,2.188-1.217l0.449-1.805c-2.772-0.658-4.146,0.266-4.748,2.682l-0.834,3.348l3.842,0.957
		L639.313,1023.578z M651.376,1024.539l-3.465-0.725l2.793-13.332l-3.671-0.77l-3.888,18.557l2.703,0.566
		c1.08-1.795,2.439-2.43,5.023-1.889L651.376,1024.539z M684.974,1031.061l-3.674-0.342l-0.326,3.494l3.674,0.344L684.974,1031.061z
		 M685.116,1028.906l1.23-13.174l-3.584-0.334l-1.231,13.172L685.116,1028.906z M693.61,1026.822l7.338-7.707l0.136-2.455
		l-11.503-0.637l-0.146,2.666l7.188,0.398l-7.456,7.699l-0.136,2.457l11.143,0.615l0.147-2.666L693.61,1026.822z M713.503,1023.861
		c-0.011,2.219-1.156,3.654-2.986,3.646c-1.771-0.008-2.576-1.182-2.565-3.223l0.034-7.529l-3.6-0.016l-0.039,8.25
		c-0.013,2.938,1.267,5.344,4.807,5.361c1.979,0.01,3.664-1.004,4.33-2.502l-0.008,2.16l3.599,0.018l0.062-13.23l-3.601-0.016
		L713.503,1023.861z M731.08,1024.076c-0.231,1.666-1.142,3.072-3.118,3.188c-2.006,0.117-3.021-1.295-3.23-2.814L731.08,1024.076z
		 M724.026,1021.154c0.422-1.527,1.426-2.338,3.193-2.441c1.946-0.115,3.555,1.172,3.788,3.113l-9.913,0.582l0.076,1.287
		c0.211,3.594,2.604,6.459,6.916,6.205c3.953-0.232,6.742-3.4,6.497-7.564c-0.244-4.162-3.332-6.596-7.405-6.355
		c-3.384,0.197-5.558,2.068-6.074,5.045L724.026,1021.154z M748.05,1025.402c0.764,1.539,2.208,2.48,4.53,2.195
		c1.996-0.244,3.36-1.439,3.833-3.008l0.264,2.145l3.572-0.438l-1.607-13.133l-3.574,0.438l0.861,7.027
		c0.27,2.203-0.598,3.76-2.324,3.973c-1.728,0.211-2.525-0.869-2.772-2.895l-0.916-7.475l-3.573,0.438l0.86,7.027
		c0.271,2.205-0.597,3.76-2.324,3.973c-1.757,0.215-2.524-0.871-2.772-2.895l-0.914-7.475l-3.574,0.438l1.003,8.189
		c0.351,2.857,1.78,5.16,5.324,4.729C746.089,1028.393,747.524,1027.039,748.05,1025.402 M765.458,1020.398
		c0.682,3.412,3.206,4.561,6.561,3.891c3.441-0.689,5.101-2.947,5.014-5.684l-3.266,0.348c-0.041,1.322-0.66,2.365-2.131,2.658
		c-1.5,0.299-2.441-0.43-2.729-1.871l-0.058-0.295l3.418-1.416c2.823-1.178,4.619-2.607,4.125-5.078
		c-0.446-2.236-2.365-3.26-5.071-2.719c-1.912,0.383-3.519,1.529-3.954,3.176c-0.605-1.348-1.717-2.012-3.188-1.719
		c-1.178,0.236-1.808,0.76-2.279,1.312l0.377,1.883c0.348-0.254,0.683-0.412,1.035-0.482c0.56-0.111,0.978,0.141,1.112,0.818
		L765.458,1020.398z M768.36,1017.004c-0.418-2.09,0.712-3.783,2.566-4.154c1.117-0.223,1.899,0.172,2.075,1.055
		c0.259,1.295-0.776,1.775-2.241,2.404l-2.337,1.02L768.36,1017.004z M777.662,1009.287l10.838,8.203l-5.378,9.902l4.232-1.125
		l5.605-10.334l2.195,8.264l3.624-0.963l-4.851-18.268l-3.625,0.963l1.609,6.061l-1.369,2.441l-8.533-6.299L777.662,1009.287z
		 M813.681,1003.041l-0.961,1.846l-6.295-4.012l-3.865,1.395l8.358,5.404l-3.672,6.969l4.092-1.477l3.503-6.908l3.727,10.328
		l3.387-1.221l-6.414-17.779l-3.387,1.221L813.681,1003.041z M833.506,997.311c-1.616-3.877-5.366-5.303-9.131-3.73
		c-3.627,1.514-4.627,4.727-3.679,7.777l2.9-0.918c-0.525-1.961,0.014-3.551,1.842-4.312c1.826-0.762,3.666,0.062,4.718,2.582
		c1.063,2.547,0.356,4.434-1.472,5.197s-3.326,0.055-4.338-1.668l-2.715,1.361c1.502,2.818,4.489,4.367,8.115,2.854
		C833.513,1004.883,835.124,1001.186,833.506,997.311 M843.87,1002.059l-3.332,1.586l1.508,3.17l3.332-1.586L843.87,1002.059z
		 M842.888,1000.135l-5.686-11.945l-3.251,1.547l5.687,11.945L842.888,1000.135z M851.997,988.635
		c1.025,1.969,0.682,3.773-0.941,4.619c-1.57,0.818-2.828,0.156-3.772-1.654l-3.481-6.676l-3.191,1.664l3.813,7.316
		c1.36,2.605,3.613,4.139,6.753,2.502c1.756-0.916,2.773-2.598,2.664-4.232l0.999,1.914l3.192-1.664l-6.117-11.73l-3.191,1.664
		L851.997,988.635z M867.021,980.01c1.143,1.902,0.908,3.725-0.662,4.666c-1.516,0.912-2.813,0.326-3.864-1.422l-3.878-6.455
		l-3.086,1.855l4.25,7.07c1.514,2.521,3.855,3.912,6.89,2.09c1.697-1.02,2.612-2.76,2.405-4.385l1.111,1.852l3.086-1.855
		l-6.814-11.34l-3.085,1.855L867.021,980.01z M875.481,976.379c1.969,2.871,4.74,2.934,7.561,0.998
		c2.895-1.984,3.533-4.715,2.376-7.195l-2.866,1.602c0.482,1.234,0.324,2.434-0.912,3.283c-1.263,0.865-2.414,0.564-3.246-0.648
		l-0.17-0.246l2.586-2.646c2.135-2.193,3.223-4.213,1.797-6.291c-1.289-1.881-3.455-2.068-5.731-0.508
		c-1.608,1.104-2.634,2.791-2.387,4.477c-1.087-1-2.371-1.176-3.608-0.326c-0.988,0.678-1.361,1.408-1.578,2.1l1.086,1.584
		c0.221-0.369,0.467-0.646,0.764-0.85c0.47-0.324,0.953-0.254,1.344,0.314L875.481,976.379z M876.815,972.117
		c-1.205-1.756-0.832-3.758,0.726-4.826c0.94-0.646,1.815-0.59,2.324,0.152c0.747,1.088-0.017,1.938-1.116,3.094l-1.748,1.854
		L876.815,972.117z M894.142,966.047l8.929,3.279l3.321-2.521l-12.85-4.822l-4.406-5.809l-2.916,2.213l4.406,5.809l1.188,13.672
		l3.227-2.447L894.142,966.047z M908.683,944.252c-1.861-2.119-3.74-1.666-5.273-0.32c-1.217,1.07-1.751,2.098-1.997,3.273
		l1.563,1.779c0.35-0.785,0.734-1.482,1.275-1.957c0.811-0.713,1.531-0.666,2.283,0.189l4.316,4.912l-2.705,2.377l1.664,1.895
		l2.705-2.377l2.416,2.75l1.645-1.445l-0.873-1.631c-0.586-1.121-0.751-1.855,0.079-2.863l0.577-0.707l-1.405-1.6l-1.42,1.246
		L908.683,944.252z M922.888,947.453l-2.683,2.533l2.409,2.553l2.683-2.533L922.888,947.453z M921.36,945.924l-9.081-9.621
		l-2.617,2.473l9.082,9.619L921.36,945.924z M929.625,934.35c1.571,0.693,3.284,0.492,4.888-1.213
		c1.377-1.465,1.66-3.256,1.02-4.764l1.574,1.479l2.466-2.623l-9.64-9.061l-2.465,2.623l5.157,4.85
		c1.618,1.52,1.948,3.271,0.756,4.539s-2.497,0.947-3.983-0.451l-5.485-5.156l-2.466,2.623l5.158,4.85
		c1.617,1.52,1.947,3.271,0.756,4.539c-1.213,1.289-2.497,0.947-3.983-0.451l-5.485-5.158l-2.467,2.623l6.012,5.652
		c2.098,1.973,4.67,2.826,7.117,0.225C930.032,937.902,930.269,935.943,929.625,934.35 M942.526,889.016l7.098-10.951l10.637,6.893
		l-5.262,8.119l6.42,4.16l5.262-8.119l9.756,6.322l-7.016,10.824l6.42,4.162l11.951-18.441l-39.652-25.697l-12.033,18.568
		L942.526,889.016z M959.051,845.75l18.158,9.133l-4.078,8.107l-18.157-9.131l-4.179,8.307l42.211,21.232l4.179-8.309l-17.22-8.662
		l4.078-8.107l17.22,8.662l4.178-8.309l-42.211-21.23L959.051,845.75z M1000.411,828.117c5.132,1.906,8.105,3.811,6.878,7.115
		c-1.254,3.375-4.697,2.736-9.829,0.828l-4.008-1.488l-3.16,8.508l1.827,0.678c10.617,3.945,18.771,3.533,22.192-5.676
		c3.552-9.562-2.051-15.803-14.635-20.48l-6.326-2.35c-12.586-4.676-20.903-3.605-24.457,5.955
		c-3.422,9.211,2.486,14.846,13.103,18.789l1.828,0.68l3.159-8.506l-4.006-1.49c-5.133-1.906-8.157-3.67-6.904-7.045
		c1.228-3.305,4.723-2.805,9.855-0.898L1000.411,828.117z M1011.862,800.121l-0.072,0.291l-17.209-1.039l1.631-6.549
		L1011.862,800.121z M1026.456,805.145l-1.723,6.914l8.443,2.104l1.721-6.914L1026.456,805.145z M1028.647,796.34l-1.738,6.986
		l8.441,2.102l1.739-6.986L1028.647,796.34z M1025.685,798.307l-43.422-21.168l-2.065,8.297l9.427,4.357l-2.266,9.096l-10.368-0.57
		l-2.247,9.023l48.277,1.664L1025.685,798.307z M1032.31,760.098l-46.764-6.764l-3.146,21.748l7.572,1.096l1.813-12.545l39.192,5.67
		L1032.31,760.098z M986.453,737.598l19.171,1.061l-0.488,8.836l7.639,0.422l0.488-8.836l12.73,0.703l-0.658,11.906l7.639,0.424
		l1.17-21.193l-47.177-2.609L986.453,737.598z M1011.485,705.62l14.385-0.663l0.076,1.648c0.228,4.944-2.24,6.784-6.885,6.998
		c-5.246,0.242-7.272-1.391-7.5-6.336L1011.485,705.62z M986.974,724.393c2.271-1.23,4.896-1.277,10.873-1.928
		c5.83-0.57,9.436-2.162,10.327-7.233c1.046,4.757,4.865,7.809,12.207,7.471c8.316-0.383,13.585-4.982,13.115-15.17l-0.556-12.062
		l-47.199,2.176l0.421,9.141l17.981-0.829l0.09,1.948c0.186,4.046-2.316,5.137-7.172,5.661c-5.905,0.572-8.521,0.843-10.513,1.61
		L986.974,724.393z M992.742,692.238l-2.074-12.883l12.515-2.015l1.537,9.552l7.553-1.215l-1.537-9.553l11.477-1.848l2.051,12.736
		l7.553-1.215l-3.492-21.695l-46.649,7.508l3.515,21.844L992.742,692.238z M1014.995,640.333l0.674,2.537
		c1.155,4.349-1.113,6.038-4.592,6.962s-6.068,0.525-7.225-3.824l-0.672-2.537L1014.995,640.333z M997.044,648.126
		c1.174,4.421-0.89,6.289-4.805,7.329c-3.986,1.058-6.561,0.423-7.735-3.999l-0.751-2.827l12.54-3.33L997.044,648.126z
		 M993.661,664.312c6.088-1.617,9.049-5.662,8.62-11.369c1.991,4.283,6.516,6.418,12.097,4.936
		c7.178-1.906,11.239-6.477,8.717-15.973l-3.233-12.178l-45.667,12.129l3.291,12.395
		C979.989,663.675,985.687,666.429,993.661,664.312 M995.299,609.332c5.103-1.984,8.757-2.52,10.062,0.835
		c1.304,3.356-1.753,5.429-6.855,7.413l-14.12,5.49c-5.103,1.984-8.757,2.52-10.062-0.836c-1.304-3.354,1.752-5.428,6.854-7.412
		L995.299,609.332z M997.861,628.13c12.512-4.865,18.229-11.271,14.56-20.709c-3.697-9.507-12.24-10.369-24.752-5.504l-5.872,2.283
		c-12.513,4.865-18.229,11.271-14.532,20.779c3.668,9.437,12.213,10.299,24.725,5.434L997.861,628.13z M975.597,581.441
		l12.769-6.658l0.763,1.464c2.289,4.389,0.825,7.097-3.298,9.247c-4.655,2.428-7.183,1.8-9.47-2.59L975.597,581.441z
		 M961.269,608.79c1.541-2.072,3.903-3.22,9.051-6.326c5.048-2.971,7.647-5.935,6.322-10.909c2.95,3.874,7.7,5.035,14.217,1.637
		c7.383-3.85,10.226-10.237,5.51-19.282l-5.583-10.706l-41.896,21.846l4.229,8.113l15.961-8.322l0.901,1.729
		c1.873,3.592,0.062,5.636-4.121,8.156c-5.115,3.004-7.373,4.352-8.857,5.887L961.269,608.79z M952.931,577.262l-7.252-10.849
		l10.536-7.044l5.377,8.043l6.36-4.251l-5.377-8.043l9.665-6.461l7.169,10.725l6.359-4.252l-12.213-18.27l-39.281,26.26
		l12.296,18.395L952.931,577.262z M928.685,543.851l33.938-9.908l5.46-4.461l-15.09-18.469l-5.925,4.84l8.826,10.804l-34.349,9.759
		l-5.286,4.318l15.518,18.992l5.924-4.84L928.685,543.851z M907.61,531.96l27.806-28.195l6.462,6.371l5.371-5.447l-19.384-19.117
		l-5.372,5.447l6.302,6.215l-27.806,28.195L907.61,531.96z M880.569,508.74c8.281,6.574,14.971,3.457,20.986-4.12l19.678-24.788
		l-7.459-5.923l-20.053,25.259c-3.218,4.053-5.636,5.771-8.396,3.58c-2.76-2.191-1.576-4.891,1.643-8.943l20.051-25.258
		l-7.459-5.923l-19.68,24.789C873.864,494.99,872.287,502.165,880.569,508.74 M870.545,473.472l-0.255-0.156l4.471-26.478
		l-7.285-4.476l-24.733,40.261l7.351,4.514l14.406-23.452l0.256,0.156l-4.566,29.499l6.008,3.69l24.732-40.26l-7.35-4.516
		L870.545,473.472z M842.21,473.859l-11.798-5.577l5.418-11.46l8.747,4.136l3.27-6.916l-8.746-4.135l4.967-10.511l11.664,5.515
		l3.269-6.916l-19.866-9.392l-20.195,42.715l20.002,9.457L842.21,473.859z M812.013,426.284l2.471,0.884
		c4.238,1.516,4.343,4.34,3.131,7.73c-1.213,3.39-3.008,5.295-7.246,3.78l-2.471-0.883L812.013,426.284z M808.252,445.49
		c4.308,1.539,4.675,4.3,3.312,8.113c-1.389,3.883-3.373,5.644-7.68,4.104l-2.755-0.984l4.369-12.218L808.252,445.49z
		 M819.665,457.455c2.121-5.932,0.467-10.665-4.477-13.547c4.658,0.789,8.981-1.727,10.927-7.165
		c2.499-6.992,1.038-12.931-8.214-16.238l-11.863-4.242l-15.908,44.491l12.076,4.318
		C811.388,468.355,816.888,465.224,819.665,457.455 M777.849,449.671l-12.805-2.515l2.443-12.438l9.492,1.865l1.476-7.507
		l-9.494-1.864l2.241-11.406l12.658,2.485l1.474-7.507l-21.563-4.235l-9.105,46.364l21.71,4.264L777.849,449.671z M746.165,404.298
		l-5.582,46.919l9.234,1.099l5.582-46.918L746.165,404.298z M737.591,423.008c0.549-12.889-3.506-19.892-13.547-20.319
		l-12.812-0.547l-2.012,47.207l12.813,0.547c10.041,0.428,14.678-6.207,15.228-19.095L737.591,423.008z M727.7,433.171
		c-0.281,6.594-2.057,9.521-6.479,9.333l-2.397-0.103l1.385-32.521l2.397,0.103c4.422,0.188,5.942,3.256,5.662,9.85L727.7,433.171z"
		/>
</g>
</svg>
