<?xml version="1.0" encoding="utf-8"?>
<!-- Generator: Adobe Illustrator 16.0.4, SVG Export Plug-In . SVG Version: 6.00 Build 0)  -->
<!DOCTYPE svg PUBLIC "-//W3C//DTD SVG 1.1//EN" "http://www.w3.org/Graphics/SVG/1.1/DTD/svg11.dtd">
<svg version="1.1" id="Ebene_1" xmlns="http://www.w3.org/2000/svg" xmlns:xlink="http://www.w3.org/1999/xlink" x="0px" y="0px"
	 width="1440px" height="1440px" viewBox="0 0 1440 1440" enable-background="new 0 0 1440 1440" xml:space="preserve">
<g>
	<defs>
		<rect id="SVGID_1_" x="430.831" y="12.971" width="997.169" height="1425.029"/>
	</defs>
	<clipPath id="SVGID_2_">
		<use xlink:href="#SVGID_1_"  overflow="visible"/>
	</clipPath>
	<path clip-path="url(#SVGID_2_)" fill="#231F20" d="M794.308,131.711"/>
</g>
<path fill="none" stroke="#231F20" d="M794.308,131.711"/>
<g>
	<defs>
		<rect id="SVGID_3_" x="430.831" y="12.971" width="997.169" height="1425.029"/>
	</defs>
	<clipPath id="SVGID_4_">
		<use xlink:href="#SVGID_3_"  overflow="visible"/>
	</clipPath>
	<path clip-path="url(#SVGID_4_)" fill="#231F20" d="M793.308,139.711"/>
</g>
<path fill="none" stroke="#231F20" d="M793.308,139.711"/>
<g>
	<defs>
		<rect id="SVGID_5_" x="432.831" y="6" width="997.169" height="1425.029"/>
	</defs>
	<clipPath id="SVGID_6_">
		<use xlink:href="#SVGID_5_"  overflow="visible"/>
	</clipPath>
	<path clip-path="url(#SVGID_6_)" fill="#0000FF" d="M704.774,1362.186l-1.836-0.019c0.043-1.263,0.559-1.649,1.853-1.696
		l0.019-1.866c-2.857,0.002-3.983,1.225-4.008,3.722l-0.035,3.46l3.972,0.04L704.774,1362.186z M712.089,1362.222l-1.835-0.006
		c0.035-1.264,0.548-1.653,1.843-1.709l0.006-1.865c-2.857,0.02-3.976,1.249-3.985,3.746l-0.013,3.46l3.972,0.016L712.089,1362.222z
		 M716.517,1365.836l11.463-0.172c0.043-3.13,0.631-8.044,1.072-10.669l-3.674-0.216c-0.586,1.032-1.627,1.891-3.311,1.916
		c-2.197,0.033-3.484-1.513-3.514-3.559c-0.035-2.226,1.299-3.63,3.435-3.662c2.347-0.036,3.632,1.39,3.666,3.676l3.675,0.216
		c0.086-4.274-2.573-7.002-7.357-6.931c-4.15,0.062-7.029,2.724-6.969,6.785c0.055,3.58,2.294,6.436,6.656,6.369
		c1.895-0.028,3.178-0.74,3.949-1.534c-0.168,0.847-0.461,3.378-0.478,4.312l-8.664,0.13L716.517,1365.836z M740.802,1349.356
		l-2.894,2.544c-2.749,2.418-4.994,4.66-4.839,7.996c0.156,3.366,2.561,5.846,7.07,5.636c4.176-0.194,6.854-2.88,6.668-6.847
		c-0.026-0.57-0.145-1.168-0.293-1.764l-3.733,0.023c0.174,0.504,0.258,1.013,0.288,1.644c0.102,2.194-0.883,3.685-2.987,3.783
		c-2.044,0.095-3.004-1.125-3.085-2.868c-0.107-2.284,1.445-3.863,4.277-6.464l5.086-4.605l-0.116-2.523l-14.277,0.664l0.148,3.186
		L740.802,1349.356z M755.791,1360.616l-1.831,0.12c-0.053-1.264,0.432-1.688,1.719-1.832l-0.121-1.861
		c-2.851,0.217-3.881,1.521-3.718,4.012l0.226,3.453l3.964-0.259L755.791,1360.616z M766.694,1347.572l-2.795,2.651
		c-2.655,2.52-4.814,4.847-4.532,8.174c0.284,3.358,2.78,5.743,7.276,5.363c4.168-0.352,6.742-3.136,6.406-7.094
		c-0.048-0.569-0.189-1.161-0.359-1.751l-3.73,0.164c0.193,0.498,0.296,1.002,0.35,1.632c0.185,2.188-0.742,3.716-2.842,3.894
		c-2.039,0.172-3.044-1.011-3.191-2.75c-0.192-2.278,1.3-3.915,4.031-6.621l4.908-4.794l-0.213-2.518l-14.24,1.204l0.268,3.177
		L766.694,1347.572z M806.543,1354.986l-3.649,0.543l0.516,3.473l3.65-0.543L806.543,1354.986z M806.166,1352.859l-1.944-13.086
		l-3.562,0.529l1.944,13.086L806.166,1352.859z M814.035,1348.912l5.462-9.133l-0.408-2.426l-11.361,1.91l0.443,2.633l7.1-1.193
		l-5.58,9.151l0.408,2.427l11.006-1.852l-0.442-2.633L814.035,1348.912z M832.867,1341.97c0.423,2.179-0.421,3.81-2.218,4.159
		c-1.737,0.337-2.756-0.657-3.145-2.659l-1.436-7.392l-3.534,0.687l1.573,8.099c0.561,2.886,2.285,4.996,5.76,4.32
		c1.943-0.378,3.398-1.699,3.76-3.298l0.412,2.121l3.534-0.687l-2.522-12.987l-3.535,0.687L832.867,1341.97z M849.948,1339.262
		c0.033,1.684-0.643,3.214-2.576,3.641c-1.962,0.434-3.188-0.802-3.634-2.27L849.948,1339.262z M842.522,1337.491
		c0.175-1.575,1.039-2.533,2.767-2.915c1.903-0.42,3.696,0.598,4.233,2.476l-9.697,2.14l0.277,1.261
		c0.776,3.515,3.59,5.966,7.81,5.034c3.867-0.853,6.121-4.423,5.222-8.494c-0.898-4.072-4.332-5.987-8.316-5.107
		c-3.311,0.73-5.161,2.921-5.201,5.94L842.522,1337.491z M866.749,1338.241c0.952,1.429,2.504,2.18,4.771,1.604
		c1.949-0.495,3.151-1.853,3.422-3.469l0.531,2.093l3.489-0.887l-3.258-12.822l-3.489,0.887l1.744,6.861
		c0.546,2.152-0.117,3.806-1.803,4.235c-1.688,0.428-2.614-0.543-3.117-2.521l-1.854-7.298l-3.489,0.886l1.743,6.862
		c0.547,2.152-0.116,3.806-1.803,4.235c-1.716,0.436-2.615-0.543-3.117-2.521l-1.854-7.298l-3.49,0.886l2.032,7.996
		c0.709,2.791,2.42,4.896,5.88,4.017C865.183,1341.456,866.437,1339.93,866.749,1338.241 M883.001,1331.459
		c0.964,3.344,3.574,4.277,6.859,3.331c3.373-0.972,4.84-3.361,4.525-6.08l-3.226,0.617c0.069,1.323-0.46,2.412-1.902,2.827
		c-1.47,0.424-2.469-0.226-2.875-1.639l-0.083-0.288l3.289-1.696c2.717-1.407,4.387-2.98,3.688-5.402
		c-0.631-2.191-2.627-3.052-5.278-2.288c-1.874,0.54-3.379,1.816-3.677,3.494c-0.715-1.292-1.879-1.863-3.32-1.448
		c-1.152,0.333-1.736,0.907-2.16,1.497l0.531,1.845c0.325-0.28,0.646-0.467,0.992-0.566c0.548-0.158,0.984,0.06,1.176,0.723
		L883.001,1331.459z M885.61,1327.835c-0.59-2.047,0.396-3.829,2.212-4.353c1.096-0.315,1.907,0.013,2.157,0.877
		c0.365,1.269-0.627,1.836-2.034,2.584l-2.243,1.209L885.61,1327.835z M894.334,1319.335l11.253,7.624l-4.852,10.17l4.168-1.344
		l5.056-10.615l2.625,8.138l3.569-1.15l-5.801-17.988l-3.569,1.151l1.924,5.967l-1.239,2.512l-8.851-5.845L894.334,1319.335z
		 M930.409,1311.804l-0.955,1.849l-6.309-3.989l-3.861,1.407l8.379,5.375l-3.648,6.982l4.086-1.49l3.479-6.921l3.763,10.315
		l3.383-1.233l-6.477-17.756l-3.382,1.233L930.409,1311.804z M950.396,1306.301c-1.537-3.908-5.256-5.411-9.053-3.917
		c-3.656,1.439-4.723,4.63-3.838,7.699l2.919-0.858c-0.485-1.969,0.087-3.548,1.929-4.272c1.844-0.726,3.666,0.138,4.666,2.678
		c1.01,2.569,0.264,4.442-1.578,5.167c-1.844,0.725-3.326-0.014-4.303-1.757l-2.742,1.305c1.442,2.849,4.397,4.459,8.055,3.021
		C950.247,1313.871,951.933,1310.21,950.396,1306.301 M960.603,1311.501l-3.399,1.437l1.367,3.233l3.399-1.437L960.603,1311.501z
		 M959.706,1309.535l-5.15-12.187l-3.316,1.401l5.15,12.187L959.706,1309.535z M969.56,1298.529
		c0.902,2.028,0.446,3.808-1.226,4.552c-1.617,0.719-2.833-0.021-3.662-1.886l-3.062-6.879l-3.288,1.463l3.354,7.539
		c1.195,2.686,3.349,4.354,6.583,2.914c1.809-0.805,2.93-2.419,2.924-4.058l0.877,1.973l3.289-1.463l-5.377-12.088l-3.289,1.464
		L969.56,1298.529z M985.069,1291.313c0.953,2.007,0.541,3.796-1.112,4.581c-1.599,0.76-2.832,0.051-3.708-1.792l-3.23-6.802
		l-3.252,1.545l3.541,7.452c1.26,2.656,3.455,4.271,6.653,2.75c1.788-0.849,2.868-2.492,2.82-4.13l0.927,1.951l3.252-1.545
		l-5.678-11.949l-3.251,1.545L985.069,1291.313z M993.772,1288.636c1.591,3.095,4.332,3.508,7.375,1.945
		c3.121-1.604,4.099-4.231,3.265-6.838l-3.045,1.227c0.321,1.285,0.013,2.456-1.321,3.142c-1.361,0.698-2.466,0.255-3.138-1.053
		l-0.138-0.267l2.9-2.3c2.395-1.904,3.729-3.771,2.577-6.013c-1.042-2.027-3.167-2.487-5.622-1.226
		c-1.734,0.891-2.965,2.434-2.934,4.138c-0.951-1.13-2.202-1.465-3.536-0.78c-1.068,0.55-1.53,1.225-1.831,1.886l0.877,1.708
		c0.265-0.338,0.544-0.583,0.863-0.747c0.508-0.261,0.979-0.132,1.295,0.481L993.772,1288.636z M995.633,1284.577
		c-0.973-1.895-0.351-3.833,1.331-4.697c1.014-0.521,1.874-0.356,2.285,0.444c0.604,1.174-0.26,1.922-1.497,2.928l-1.968,1.619
		L995.633,1284.577z M1013.663,1280.927l8.34,4.575l3.66-1.997l-11.986-6.687l-3.49-6.399l-3.213,1.752l3.49,6.399l-0.865,13.698
		l3.556-1.939L1013.663,1280.927z M1027.908,1260.333l-3.095,1.84l9.66,16.245l3.094-1.84l-4.201-7.065
		c1.344,1.086,3.396,1.366,5.406,0.171c3.379-2.009,3.553-5.708,1.56-9.06c-1.993-3.353-5.312-4.94-8.688-2.931
		c-2.012,1.195-2.744,3.133-2.447,4.806L1027.908,1260.333z M1031.133,1265.814c-1.241-2.089-0.729-4.104,1.023-5.146
		c1.934-1.15,3.782-0.33,5.056,1.811c1.288,2.165,1.126,4.183-0.808,5.332c-1.755,1.042-3.784,0.504-5.011-1.559L1031.133,1265.814z
		 M1051.435,1254.143c1.192,1.872,1.004,3.699-0.539,4.684c-1.492,0.951-2.805,0.398-3.9-1.322l-4.045-6.352l-3.037,1.936
		l4.434,6.958c1.578,2.479,3.957,3.81,6.941,1.909c1.67-1.064,2.539-2.827,2.29-4.447l1.161,1.822l3.035-1.935l-7.107-11.159
		l-3.037,1.936L1051.435,1254.143z M1060.716,1246.933c-1.255-1.867-1.162-3.665,0.307-4.651c1.47-0.987,2.762-0.41,3.883,1.259
		l4.217,6.273l2.988-2.008l-4.619-6.872c-1.641-2.439-3.957-3.738-6.871-1.779c-1.668,1.121-2.411,2.812-2.13,4.468l-1.205-1.793
		l-2.988,2.008l7.38,10.981l2.988-2.009L1060.716,1246.933z M1079.004,1237.1c2.046,2.815,4.818,2.803,7.585,0.793
		c2.84-2.062,3.403-4.809,2.18-7.258l-2.821,1.679c0.516,1.221,0.39,2.426-0.824,3.307c-1.237,0.899-2.397,0.63-3.263-0.56
		l-0.176-0.242l2.514-2.717c2.074-2.249,3.107-4.297,1.626-6.336c-1.341-1.845-3.511-1.973-5.743-0.351
		c-1.578,1.146-2.559,2.858-2.266,4.538c-1.112-0.972-2.4-1.11-3.614-0.229c-0.972,0.706-1.324,1.444-1.521,2.144l1.129,1.554
		c0.209-0.375,0.447-0.659,0.738-0.871c0.461-0.335,0.947-0.28,1.352,0.278L1079.004,1237.1z M1080.222,1232.804
		c-1.252-1.723-0.934-3.735,0.596-4.846c0.922-0.67,1.797-0.64,2.326,0.09c0.775,1.067,0.037,1.938-1.031,3.122l-1.697,1.9
		L1080.222,1232.804z M1098.251,1220.91c1.359,1.756,1.339,3.592-0.107,4.712c-1.399,1.084-2.756,0.655-4.006-0.959l-4.608-5.954
		l-2.847,2.204l5.049,6.523c1.801,2.324,4.289,3.433,7.09,1.266c1.564-1.212,2.269-3.048,1.873-4.638l1.322,1.708l2.847-2.204
		l-8.099-10.461l-2.848,2.204L1098.251,1220.91z M1106.049,1216.536c2.196,2.698,4.964,2.534,7.617,0.377
		c2.722-2.215,3.135-4.988,1.78-7.366l-2.727,1.831c0.581,1.19,0.521,2.399-0.642,3.346c-1.187,0.966-2.36,0.761-3.288-0.38
		l-0.189-0.232l2.361-2.851c1.948-2.358,2.868-4.461,1.277-6.415c-1.439-1.769-3.613-1.779-5.754-0.037
		c-1.512,1.231-2.397,2.995-2.014,4.656c-1.164-0.909-2.459-0.979-3.621-0.031c-0.932,0.757-1.244,1.515-1.401,2.224l1.211,1.488
		c0.188-0.386,0.412-0.683,0.69-0.909c0.442-0.36,0.931-0.332,1.365,0.203L1106.049,1216.536z M1107.029,1212.179
		c-1.345-1.651-1.136-3.677,0.329-4.87c0.885-0.72,1.761-0.735,2.328-0.038c0.834,1.023,0.144,1.935-0.858,3.175l-1.59,1.99
		L1107.029,1212.179z M1127.004,1202.06c1.496,0.843,3.22,0.81,4.979-0.732c1.513-1.324,1.97-3.08,1.478-4.644l1.423,1.625
		l2.708-2.372l-8.717-9.952l-2.708,2.371l4.665,5.326c1.462,1.67,1.621,3.445,0.313,4.592c-1.31,1.146-2.578,0.701-3.922-0.834
		l-4.961-5.664l-2.707,2.372l4.664,5.326c1.463,1.67,1.621,3.445,0.312,4.591c-1.331,1.167-2.576,0.702-3.92-0.833l-4.961-5.663
		l-2.709,2.371l5.436,6.206c1.898,2.166,4.376,3.266,7.062,0.913C1127.065,1205.636,1127.49,1203.708,1127.004,1202.06
		 M1145.11,1191.855l-2.717,2.498l2.377,2.583l2.715-2.497L1145.11,1191.855z M1143.604,1190.307l-8.955-9.74l-2.649,2.438
		l8.954,9.739L1143.604,1190.307z M1149.211,1176.482c1.541,1.599,1.722,3.427,0.404,4.696c-1.274,1.229-2.669,0.95-4.086-0.518
		l-5.229-5.419l-2.591,2.5l5.729,5.937c2.041,2.115,4.637,2.947,7.184,0.489c1.425-1.375,1.926-3.276,1.359-4.813l1.5,1.555
		l2.591-2.5l-9.187-9.521l-2.591,2.499L1149.211,1176.482z M1154.118,1171.021c2.924,2.89,6.997,2.864,9.885-0.06
		c2.867-2.903,2.842-6.976-0.082-9.864s-6.975-2.842-9.843,0.061C1151.19,1164.082,1151.194,1168.134,1154.118,1171.021
		 M1161.37,1163.68c1.793,1.771,2.229,3.805,0.691,5.363c-1.561,1.579-3.6,1.168-5.393-0.604c-1.771-1.75-2.208-3.783-0.647-5.362
		C1157.56,1161.519,1159.599,1161.93,1161.37,1163.68 M1170.437,1148.204c-1.679-0.618-3.745-0.246-5.318,1.444
		c-2.697,2.899-1.867,6.499,0.989,9.156c2.855,2.656,6.527,3.245,9.184,0.389c1.614-1.734,1.753-3.777,0.975-5.319l6.02,5.598
		l2.452-2.636l-13.838-12.872l-1.881,2.021L1170.437,1148.204z M1173.497,1151.257c1.757,1.634,1.875,3.71,0.486,5.204
		c-1.554,1.669-3.559,1.402-5.404-0.314c-1.823-1.695-2.234-3.677-0.681-5.346c1.39-1.494,3.446-1.547,5.226,0.108
		L1173.497,1151.257z M1179.587,1134.18l8.287,13.163l-0.079,0.09l-11.251-9.737l-2.474,2.858l14.291,12.368l3.789-4.378
		l-7.818-11.963l0.059-0.068l13.1,5.861l3.868-4.47l-14.292-12.367l-2.277,2.631l11.251,9.738l-0.078,0.09l-14.274-6.244
		L1179.587,1134.18z M1205.983,1114.81c1.087,1.285,1.527,2.9,0.296,4.45c-1.251,1.573-2.981,1.387-4.253,0.528L1205.983,1114.81z
		 M1199.103,1118.116c-0.857-1.333-0.791-2.622,0.311-4.008c1.213-1.526,3.245-1.865,4.846-0.745l-6.178,7.772l1.01,0.803
		c2.818,2.24,6.548,2.369,9.236-1.013c2.464-3.1,1.963-7.292-1.301-9.887c-3.266-2.594-7.138-1.917-9.677,1.276
		c-2.108,2.654-2.166,5.522-0.294,7.892L1199.103,1118.116z M1213.547,1113.459c0.498-0.112,1.064-0.512,1.553-1.158
		c1.104-1.459,0.837-3.392-0.07-4.68l2.01,1.52l2.172-2.871l-10.55-7.981l-2.173,2.871l5.216,3.945
		c1.914,1.448,2.206,3.249,1.084,4.732c-0.525,0.694-1.031,1.063-1.758,1.379L1213.547,1113.459z M1225.76,1100.188l4.203,1.06
		l2.279-3.128l-4.962-0.017L1225.76,1100.188z M1223.005,1092.203c1.139,1.238,1.646,2.834,0.48,4.434
		c-1.185,1.624-2.919,1.51-4.227,0.706L1223.005,1092.203z M1216.267,1095.793c-0.911-1.295-0.898-2.585,0.144-4.016
		c1.148-1.576,3.165-2,4.812-0.948l-5.849,8.024l1.042,0.761c2.909,2.119,6.641,2.093,9.186-1.398
		c2.332-3.2,1.657-7.367-1.712-9.823c-3.37-2.457-7.211-1.618-9.613,1.68c-1.997,2.739-1.935,5.606,0.036,7.896L1216.267,1095.793z
		 M1235.337,1087.617l-2.12,3.021l2.873,2.017l2.12-3.021L1235.337,1087.617z M1233.535,1086.426l-10.83-7.601l-2.068,2.946
		l10.83,7.601L1233.535,1086.426z M1242.766,1082.943l-15.661-10.578l-2.016,2.982l15.662,10.579L1242.766,1082.943z
		 M1236.987,1072.899c2.918,1.896,5.503,0.893,7.366-1.976c1.911-2.943,1.454-5.708-0.564-7.557l-2.033,2.579
		c0.918,0.953,1.232,2.124,0.414,3.382c-0.833,1.283-2.013,1.445-3.245,0.645l-0.252-0.163l1.374-3.436
		c1.131-2.843,1.362-5.125-0.751-6.498c-1.912-1.243-3.983-0.586-5.488,1.729c-1.062,1.636-1.363,3.585-0.488,5.048
		c-1.389-0.508-2.641-0.177-3.458,1.081c-0.653,1.007-0.72,1.822-0.652,2.547l1.61,1.046c0.062-0.426,0.182-0.776,0.378-1.078
		c0.311-0.479,0.784-0.601,1.362-0.225L1236.987,1072.899z M1236.585,1068.453c-1.786-1.16-2.209-3.152-1.179-4.737
		c0.621-0.956,1.45-1.24,2.204-0.75c1.106,0.719,0.729,1.797,0.155,3.285l-0.903,2.382L1236.585,1068.453z M1252.461,1052.882
		c1.681,0.354,3.315-0.196,4.531-2.196c1.044-1.717,0.952-3.528,0.013-4.872l1.846,1.122l1.87-3.076l-11.303-6.873l-1.871,3.075
		l6.049,3.68c1.897,1.152,2.582,2.799,1.679,4.284c-0.904,1.487-2.247,1.443-3.99,0.384l-6.435-3.912l-1.869,3.075l6.049,3.679
		c1.896,1.154,2.582,2.799,1.678,4.286c-0.92,1.512-2.247,1.441-3.99,0.382l-6.434-3.912l-1.87,3.076l7.048,4.286
		c2.461,1.497,5.156,1.801,7.01-1.249C1253.594,1056.273,1253.42,1054.308,1252.461,1052.882 M1259.335,1036.551
		c3.036,1.701,5.549,0.529,7.22-2.455c1.716-3.062,1.078-5.792-1.058-7.504l-1.859,2.707c0.979,0.892,1.368,2.038,0.636,3.347
		c-0.748,1.335-1.914,1.576-3.197,0.857l-0.261-0.146l1.145-3.519c0.943-2.911,1.023-5.204-1.175-6.436
		c-1.989-1.113-4.014-0.322-5.363,2.086c-0.953,1.7-1.126,3.668-0.158,5.069c-1.417-0.416-2.645-0.004-3.378,1.306
		c-0.587,1.047-0.598,1.865-0.483,2.583l1.675,0.938c0.034-0.428,0.131-0.786,0.307-1.1c0.278-0.497,0.742-0.65,1.345-0.313
		L1259.335,1036.551z M1258.642,1032.14c-1.857-1.041-2.41-3.001-1.486-4.649c0.557-0.994,1.365-1.333,2.149-0.894
		c1.152,0.646,0.846,1.746,0.371,3.269l-0.746,2.436L1258.642,1032.14z M1263.626,1010.09c-1.249,2.394-1.414,4.981,0.018,6.777
		l-2.474-1.29l-1.539,2.952l8.459,4.41l3.939-7.554l-2.475-1.29l-2.315,4.442c-1.878-1.588-2.333-4.025-1.1-6.393
		c1.706-3.271,5.049-4.101,8.64-2.228c3.511,1.831,4.746,4.978,3.15,8.037c-1.457,2.793-3.938,3.596-6.523,2.519l-1.561,3.315
		c4.41,1.859,8.527,0.454,11.053-4.389c2.455-4.707,0.845-10.25-4.316-12.94C1271.396,1003.755,1266.067,1005.408,1263.626,1010.09
		 M1274.055,989.816l-1.729,3.63l3.629,1.729l1.73-3.629L1274.055,989.816z M1287.031,987.306l-9.722-4.491l-1.498,3.241
		l9.723,4.491l-1.485,3.214l2.288,1.058l1.485-3.215l1.253,0.579c1.116,0.517,1.677,1.304,1.212,2.312
		c-0.39,0.845-1.147,1.123-2.035,1.043l-0.288,2.412c2.146,0.362,3.797-0.494,4.805-2.672c1.244-2.696,0.363-5.152-2.441-6.448
		l-1.008-0.466l0.817-1.771l-2.288-1.057L1287.031,987.306z M1285.092,981.747c3.772,1.634,7.56,0.136,9.193-3.636
		c1.621-3.744,0.124-7.531-3.648-9.165c-3.771-1.634-7.53-0.123-9.152,3.619C1279.85,976.338,1281.321,980.113,1285.092,981.747
		 M1289.194,972.277c2.312,1.002,3.456,2.739,2.586,4.748c-0.883,2.037-2.933,2.393-5.245,1.391
		c-2.285-0.99-3.428-2.728-2.546-4.764C1284.86,971.642,1286.909,971.288,1289.194,972.277 M1297.317,969.667
		c0.454-0.235,0.898-0.765,1.208-1.515c0.696-1.692-0.055-3.493-1.259-4.509l2.33,0.96l1.371-3.329l-12.232-5.038l-1.371,3.328
		l6.047,2.491c2.22,0.914,2.96,2.581,2.252,4.301c-0.332,0.806-0.726,1.291-1.35,1.78L1297.317,969.667z M1300.109,944.926
		l-1.366,3.557c-1.732,4.51-0.592,7.902,3.076,9.312c3.669,1.409,6.759-0.361,8.49-4.87l2.699-7.029l-17.644-6.775l-1.334,3.473
		L1300.109,944.926z M1302.965,946.022l5.882,2.259l-1.322,3.444c-1.012,2.632-2.517,3.372-4.421,2.642
		c-1.904-0.731-2.472-2.268-1.46-4.899L1302.965,946.022z M1304.261,923.829c-2.668-0.915-4.073,0.41-4.734,2.34
		c-0.526,1.532-0.479,2.689-0.109,3.832l2.242,0.769c-0.088-0.854-0.1-1.651,0.133-2.333c0.352-1.021,0.999-1.339,2.077-0.969
		l6.186,2.122l-1.167,3.405l2.384,0.817l1.168-3.405l3.462,1.188l0.711-2.072l-1.567-0.98c-1.065-0.684-1.574-1.238-1.354-2.526
		l0.149-0.899l-2.014-0.691l-0.613,1.788L1304.261,923.829z M1318.325,919.55l-1.134,3.512l3.341,1.078l1.133-3.512L1318.325,919.55
		z M1316.251,918.943l-12.59-4.063l-1.106,3.426l12.591,4.064L1316.251,918.943z M1318.028,905.215
		c1.715-0.086,3.153-1.037,3.818-3.28c0.57-1.928,0.019-3.655-1.232-4.714l2.072,0.613l1.021-3.452l-12.685-3.757l-1.023,3.452
		l6.789,2.011c2.128,0.63,3.211,2.046,2.717,3.714s-1.804,1.969-3.76,1.39l-7.22-2.139l-1.022,3.452l6.789,2.011
		c2.128,0.63,3.211,2.046,2.717,3.714c-0.503,1.697-1.804,1.97-3.76,1.391l-7.22-2.139l-1.022,3.452l7.91,2.342
		c2.762,0.818,5.444,0.425,6.458-2.998C1319.989,908.205,1319.319,906.349,1318.028,905.215 M1330.995,846.497l14.105,2.895
		l-0.33,1.617c-0.995,4.849-3.841,6.026-8.396,5.091c-5.143-1.056-6.706-3.138-5.711-7.986L1330.995,846.497z M1302.62,858.666
		c2.503-0.635,5.06-0.034,11.013,0.805c5.79,0.883,9.677,0.227,11.789-4.471c-0.157,4.868,2.795,8.766,9.995,10.244
		c8.155,1.674,14.393-1.487,16.443-11.479l2.428-11.828l-46.285-9.5l-1.84,8.964l17.632,3.619l-0.392,1.91
		c-0.814,3.967-3.508,4.409-8.344,3.723c-5.864-0.896-8.466-1.277-10.586-1.023L1302.62,858.666z M1316.003,830.936l1.991-12.897
		l12.527,1.934l-1.478,9.562l7.562,1.167l1.476-9.562l11.489,1.773l-1.968,12.749l7.56,1.168l3.353-21.719l-46.695-7.209
		l-3.376,21.865L1316.003,830.936z M1314.521,784.809l20.202,2.229l-0.994,9.02l-20.203-2.228l-1.02,9.244l46.965,5.18l1.02-9.244
		l-19.159-2.113l0.995-9.02l19.159,2.113l1.02-9.244l-46.965-5.181L1314.521,784.809z M1348.062,755.604
		c5.467,0.294,8.87,1.229,8.682,4.749c-0.194,3.596-3.671,4.008-9.138,3.713l-4.27-0.229l-0.489,9.062l1.948,0.105
		c11.309,0.61,18.971-2.207,19.5-12.018c0.549-10.186-6.656-14.479-20.061-15.201l-6.741-0.364
		c-13.405-0.722-21.029,2.772-21.578,12.958c-0.529,9.81,6.787,13.434,18.095,14.044l1.947,0.104l0.489-9.062l-4.27-0.229
		c-5.467-0.296-8.88-1.08-8.686-4.675c0.189-3.52,3.675-4.083,9.142-3.789L1348.062,755.604z M1364.652,731.674l-47.243-0.771
		l-0.152,9.3l47.244,0.771L1364.652,731.674z M1333.416,702.385l-2.7,0.041c-9.449,0.143-14.096,5.312-13.977,13.262
		c0.118,7.799,4.919,12.827,13.393,12.699c7.274-0.109,10.519-3.833,13.661-9.355l2.635-4.315c1.464-2.423,3.018-3.871,6.167-3.919
		c3.074-0.046,5.118,1.199,5.158,3.823c0.045,3-2.184,4.384-6.459,4.448l-2.775,0.041l0.123,8.175l2.7-0.041
		c9.074-0.137,13.958-4.561,13.835-12.734c-0.113-7.575-5.437-12.37-13.311-12.252c-7.874,0.119-11.038,4.217-13.819,8.834
		l-2.415,3.937c-1.832,2.879-3.005,4.696-6.38,4.747c-3.148,0.048-5.046-1.35-5.089-4.198c-0.047-3.15,2.478-4.838,6.527-4.899
		l2.85-0.043L1333.416,702.385z M1316.432,689.218l24.001-1.876l-0.987-12.637l-7.028,0.55l0.304,3.888l-0.896,0.07
		c-5.533,0.432-9.049-0.271-9.324-3.785c-0.274-3.514,3.083-4.83,8.616-5.263l15.179-1.187c5.458-0.427,8.962,0.127,9.243,3.717
		c0.28,3.588-3.106,4.529-8.565,4.957l-2.616,0.205l0.708,9.047l1.046-0.082c11.291-0.883,17.752-4.849,16.979-14.719
		c-0.777-9.943-8.496-13.402-21.88-12.356l-6.729,0.526c-13.386,1.047-20.501,5.289-19.812,14.111
		c0.281,3.589,2.184,6.751,5.704,7.528l-4.428,1.099L1316.432,689.218z M1359.487,643.066l-46.934,5.465l1.076,9.238l46.934-5.466
		L1359.487,643.066z M1355.474,615.767l-46.69,7.243l3.368,21.715l7.56-1.172l-1.942-12.525l39.132-6.07L1355.474,615.767z
		 M1350.337,588.654l-46.383,9.011l4.191,21.571l7.509-1.459l-2.417-12.442l38.873-7.552L1350.337,588.654z M1328.998,568.136
		c5.314-1.315,9.007-1.379,9.872,2.116c0.864,3.495-2.432,5.16-7.747,6.475l-14.707,3.639c-5.313,1.314-9.007,1.379-9.872-2.116
		c-0.864-3.495,2.432-5.16,7.747-6.476L1328.998,568.136z M1329.133,587.109c13.032-3.225,19.522-8.848,17.09-18.677
		c-2.448-9.901-10.812-11.85-23.844-8.626l-6.116,1.514c-13.031,3.224-19.521,8.847-17.071,18.748
		c2.432,9.828,10.794,11.777,23.825,8.554L1329.133,587.109z M1348.205,568.947l1.711,6.916l8.445-2.09l-1.711-6.916
		L1348.205,568.947z M1346.025,560.138l1.729,6.989l8.446-2.089l-1.729-6.99L1346.025,560.138z M1293.617,556.729l48.205-3.58
		l-2.439-8.272l-30.409,2.946l-0.084-0.289l27.12-14.096l-2.693-9.136l-42.437,23.147L1293.617,556.729z M1277.419,508.148
		l19.051-7.084l3.163,8.506l-19.051,7.084l3.242,8.717l44.287-16.469l-3.242-8.717l-18.066,6.719l-3.163-8.506l18.066-6.718
		l-3.241-8.717l-44.287,16.468L1277.419,508.148z M1295.044,468.491c5.029-2.163,8.495-2.836,9.888,0.402
		c1.423,3.307-1.511,5.221-6.54,7.384l-3.927,1.689l3.585,8.337l1.791-0.771c10.404-4.474,16.021-10.399,12.139-19.425
		c-4.029-9.37-12.392-10.02-24.725-4.716l-6.201,2.666c-12.333,5.304-17.612,11.82-13.584,21.19
		c3.883,9.026,12.046,9.026,22.449,4.552l1.792-0.77l-3.585-8.337l-3.927,1.689c-5.03,2.162-8.437,2.974-9.859-0.333
		c-1.392-3.238,1.481-5.29,6.51-7.453L1295.044,468.491z M1299.278,439.692l-42.678,20.277l3.991,8.4l42.679-20.277
		L1299.278,439.692z M1258.282,427.317l-2.401,1.234c-8.406,4.319-10.277,11.015-6.644,18.086
		c3.563,6.938,10.098,9.315,17.636,5.441c6.471-3.324,7.726-8.101,8.093-14.445l0.448-5.036c0.237-2.82,0.987-4.808,3.788-6.247
		c2.736-1.406,5.119-1.197,6.319,1.138c1.37,2.668-0.014,4.897-3.816,6.851l-2.468,1.268l3.735,7.271l2.402-1.233
		c8.071-4.148,10.486-10.279,6.75-17.55c-3.462-6.738-10.359-8.675-17.364-5.076c-7.004,3.599-8.021,8.675-8.466,14.047l-0.419,4.6
		c-0.365,3.392-0.61,5.541-3.612,7.084c-2.802,1.439-5.12,1.029-6.423-1.506c-1.439-2.802,0.074-5.435,3.678-7.286l2.534-1.303
		L1258.282,427.317z M1232.93,415.915l33.912-20.449l4.687,7.772l6.551-3.951l-14.058-23.314l-6.552,3.95l4.569,7.579
		l-33.912,20.448L1232.93,415.915z M1222.802,369.819l-2.25,1.493c-7.875,5.222-8.994,12.084-4.6,18.71
		c4.311,6.5,11.066,8.139,18.13,3.455c6.063-4.021,6.782-8.908,6.444-15.253l-0.113-5.055c-0.077-2.829,0.449-4.887,3.074-6.628
		c2.562-1.7,4.954-1.756,6.404,0.431c1.658,2.5,0.53,4.869-3.032,7.232l-2.313,1.534l4.52,6.813l2.25-1.493
		c7.562-5.015,9.283-11.377,4.765-18.188c-4.187-6.313-11.256-7.474-17.819-3.122c-6.562,4.353-7.012,9.51-6.858,14.898l0.093,4.618
		c0.013,3.412,0.008,5.575-2.805,7.44c-2.625,1.741-4.976,1.59-6.552-0.785c-1.74-2.625-0.526-5.41,2.849-7.648l2.375-1.575
		L1222.802,369.819z M1239.955,340.716l-38.393,27.541l5.42,7.557l38.394-27.541L1239.955,340.716z M1210.669,323.811l0.188,0.233
		l-11.238,13.074l-4.229-5.261L1210.669,323.811z M1217.588,311.707l-43.125,21.766l5.356,6.665l9.172-4.87l5.873,7.307l-6.729,7.91
		l5.826,7.249l30.534-37.433L1217.588,311.707z M1183.372,309.849l-0.2-0.223l11.819-24.11l-5.711-6.364l-35.165,31.559l5.761,6.419
		l20.485-18.384l0.2,0.223l-12.771,26.98l4.708,5.247l35.166-31.559l-5.761-6.419L1183.372,309.849z M1165.208,273.064l0.211,0.213
		l-9.841,14.156l-4.745-4.801L1165.208,273.064z M1170.851,260.316l-40.67,26.066l6.01,6.082l8.625-5.784l6.592,6.668l-5.885,8.557
		l6.537,6.615l26.543-40.363L1170.851,260.316z M1142.149,233.611l-8.932-8.014l-31.556,35.168l6.085,5.46l19.686-21.938l0.223,0.2
		l-15.107,26.045l4.354,3.907l24.096-17.981l0.223,0.201l-19.685,21.938l6.419,5.76l31.557-35.168l-8.765-7.864l-22.251,16.713
		l-0.223-0.2L1142.149,233.611z M1120.345,215.364l-29.839,36.635l7.211,5.873l29.839-36.635L1120.345,215.364z M1093.358,225.858
		l-0.239-0.181l7.01-25.921l-6.817-5.158l-28.511,37.68l6.878,5.204l16.608-21.95l0.239,0.18l-7.397,28.92l5.622,4.253l28.51-37.68
		l-6.878-5.204L1093.358,225.858z M1063.521,193.699c3.063-4.536,5.763-7.058,8.746-5.043c2.982,2.015,1.651,5.46-1.414,9.997
		l-8.479,12.555c-3.063,4.536-5.763,7.058-8.746,5.043c-2.983-2.015-1.651-5.46,1.413-9.997L1063.521,193.699z M1076.332,207.694
		c7.515-11.125,8.563-19.648,0.174-25.315c-8.452-5.709-15.966-1.553-23.481,9.572l-3.525,5.221
		c-7.514,11.124-8.564,19.647-0.111,25.356c8.389,5.667,15.903,1.511,23.418-9.614L1076.332,207.694z M1040.617,169.158l2.251,1.351
		c3.859,2.315,3.408,5.106,1.556,8.193c-1.852,3.087-3.987,4.604-7.846,2.289l-2.251-1.35L1040.617,169.158z M1033.17,187.256
		c3.923,2.353,3.743,5.132,1.659,8.605c-2.122,3.537-4.412,4.875-8.335,2.521l-2.509-1.505l6.677-11.126L1033.17,187.256z
		 M1042.019,201.224c3.242-5.402,2.547-10.367-1.735-14.161c4.411,1.684,9.146,0.064,12.116-4.888
		c3.82-6.367,3.55-12.477-4.875-17.532l-10.805-6.482l-24.31,40.517l10.997,6.598
		C1031.769,210.292,1037.774,208.298,1042.019,201.224 M1009.685,143.527l-10.606-5.612l-22.099,41.764l7.227,3.823l13.785-26.053
		l0.265,0.141l-8.349,28.929l5.171,2.736l19.022-23.282l0.265,0.14l-13.785,26.053l7.624,4.034l22.098-41.764l-10.408-5.507
		l-17.541,21.605l-0.265-0.141L1009.685,143.527z M958.267,143.606l5.723-13.214l1.514,0.656c4.542,1.967,5.112,4.993,3.264,9.26
		c-2.086,4.817-4.444,5.921-8.986,3.954L958.267,143.606z M964.363,173.873c-0.109-2.581,1.004-4.96,3.044-10.615
		c2.05-5.487,2.203-9.425-1.961-12.455c4.732,1.151,9.152-0.94,12.074-7.684c3.309-7.639,1.494-14.392-7.866-18.446l-11.08-4.8
		l-18.781,43.357l8.397,3.637l7.154-16.518l1.789,0.775c3.717,1.61,3.598,4.337,1.936,8.93c-2.08,5.556-2.986,8.025-3.172,10.151
		L964.363,173.873z M929.634,125.97c1.932-5.123,3.975-8.2,7.342-6.93c3.369,1.27,2.871,4.93,0.939,10.053l-5.346,14.175
		c-1.932,5.123-3.975,8.201-7.342,6.93c-3.369-1.27-2.871-4.929-0.939-10.052L929.634,125.97z M945.336,136.62
		c4.737-12.561,3.787-21.095-5.687-24.668c-9.545-3.599-15.894,2.183-20.629,14.745l-2.224,5.895
		c-4.737,12.561-3.786,21.095,5.757,24.694c9.475,3.573,15.822-2.209,20.56-14.771L945.336,136.62z M886.802,127.461l-0.813,2.574
		c-2.849,9.011,0.591,15.053,8.171,17.449c7.438,2.351,13.724-0.617,16.279-8.698c2.191-6.938-0.317-11.191-4.566-15.916
		l-3.262-3.863c-1.836-2.154-2.721-4.085-1.771-7.089c0.928-2.932,2.754-4.478,5.256-3.687c2.86,0.904,3.469,3.457,2.182,7.533
		l-0.836,2.646l7.793,2.464l0.814-2.575c2.735-8.653,0.079-14.684-7.715-17.148c-7.223-2.283-13.454,1.254-15.827,8.763
		c-2.374,7.509,0.517,11.804,4.019,15.9l2.974,3.536c2.151,2.647,3.507,4.333,2.49,7.551c-0.95,3.004-2.873,4.362-5.591,3.503
		c-3.004-0.949-3.809-3.878-2.588-7.74l0.858-2.717L886.802,127.461z M858.481,119.772l-0.702,2.607
		c-2.462,9.123,1.229,15.014,8.905,17.085c7.53,2.033,13.686-1.2,15.895-9.383c1.895-7.023-0.793-11.167-5.239-15.707l-3.424-3.721
		c-1.926-2.073-2.892-3.965-2.071-7.006c0.801-2.969,2.561-4.592,5.094-3.908c2.897,0.782,3.615,3.306,2.5,7.433l-0.723,2.679
		l7.893,2.13l0.703-2.607c2.365-8.761-0.545-14.674-8.438-16.804c-7.314-1.973-13.389,1.825-15.439,9.428
		c-2.053,7.603,1.018,11.772,4.692,15.716l3.12,3.405c2.264,2.553,3.688,4.181,2.809,7.438c-0.82,3.041-2.685,4.48-5.437,3.738
		c-3.041-0.821-3.97-3.713-2.914-7.623l0.742-2.752L858.481,119.772z M853.004,127.403l-12.751-2.78l2.701-12.384l9.452,2.061
		l1.63-7.474l-9.453-2.062l2.477-11.358l12.604,2.748l1.63-7.475l-21.471-4.681l-10.066,46.165l21.617,4.714L853.004,127.403z
		 M814.254,127.377l3.28-18.917l8.72,1.512l1.308-7.538l-8.721-1.512l2.178-12.562l11.75,2.037l1.308-7.538l-20.913-3.626
		l-8.072,46.556L814.254,127.377z M786.642,91.809c0.701-5.43,1.98-8.894,5.551-8.433s3.928,4.137,3.226,9.567l-1.94,15.025
		c-0.701,5.43-1.98,8.894-5.551,8.433s-3.928-4.137-3.226-9.567L786.642,91.809z M804.372,98.561
		c1.72-13.314-1.168-21.401-11.209-22.698c-10.116-1.306-14.964,5.781-16.684,19.095l-0.808,6.248
		c-1.72,13.315,1.168,21.401,11.284,22.708c10.042,1.297,14.891-5.79,16.609-19.105L804.372,98.561z M754.162,94.688l1.044-14.362
		l1.645,0.119c4.938,0.359,6.474,3.028,6.137,7.665c-0.381,5.237-2.243,7.056-7.18,6.698L754.162,94.688z M769.903,121.249
		c-0.954-2.401-0.689-5.013-0.629-11.025c0.125-5.855-1.029-9.624-5.959-11.111c4.847-0.475,8.33-3.906,8.863-11.237
		c0.603-8.303-3.339-14.079-13.512-14.818l-12.044-0.876l-3.425,47.126l9.126,0.663l1.305-17.952l1.945,0.141
		c4.039,0.294,4.827,2.908,4.772,7.791c-0.131,5.932-0.17,8.561,0.355,10.629L769.903,121.249z M722.724,102.364l2.399,0.054
		c10.272,0.232,14.823-5.291,15.045-15.114c0.222-9.822-4.075-15.546-14.347-15.778l-11.622-0.262l-1.067,47.238l9.223,0.208
		L722.724,102.364z M722.894,94.866l0.358-15.896l1.5,0.034c5.099,0.115,6.547,2.398,6.417,8.172
		c-0.129,5.699-1.678,7.839-6.775,7.724L722.894,94.866z"/>
</g>
</svg>
