<?xml version="1.0" encoding="utf-8"?>
<!-- Generator: Adobe Illustrator 16.0.4, SVG Export Plug-In . SVG Version: 6.00 Build 0)  -->
<!DOCTYPE svg PUBLIC "-//W3C//DTD SVG 1.1//EN" "http://www.w3.org/Graphics/SVG/1.1/DTD/svg11.dtd">
<svg version="1.1" id="Ebene_1" xmlns="http://www.w3.org/2000/svg" xmlns:xlink="http://www.w3.org/1999/xlink" x="0px" y="0px"
	 width="1440px" height="1440px" viewBox="0 0 1440 1440" enable-background="new 0 0 1440 1440" xml:space="preserve">
<g>
	<defs>
		<rect id="SVGID_1_" x="430.831" y="12.971" width="997.169" height="1425.029"/>
	</defs>
	<clipPath id="SVGID_2_">
		<use xlink:href="#SVGID_1_"  overflow="visible"/>
	</clipPath>
	<path clip-path="url(#SVGID_2_)" fill="#231F20" d="M794.308,131.711"/>
</g>
<path fill="none" stroke="#231F20" d="M794.308,131.711"/>
<g>
	<defs>
		<rect id="SVGID_3_" x="430.831" y="12.971" width="997.169" height="1425.029"/>
	</defs>
	<clipPath id="SVGID_4_">
		<use xlink:href="#SVGID_3_"  overflow="visible"/>
	</clipPath>
	<path clip-path="url(#SVGID_4_)" fill="#231F20" d="M793.308,139.711"/>
</g>
<path fill="none" stroke="#231F20" d="M793.308,139.711"/>
<g>
	<defs>
		<rect id="SVGID_5_" x="432.688" y="6.486" width="997.175" height="1425.03"/>
	</defs>
	<clipPath id="SVGID_6_">
		<use xlink:href="#SVGID_5_"  overflow="visible"/>
	</clipPath>
	<path clip-path="url(#SVGID_6_)" fill="#231F20" d="M711.171,725.227"/>
</g>
<path fill="none" stroke="#231F20" d="M711.171,725.227"/>
<g>
	<defs>
		<rect id="SVGID_7_" x="432.688" y="6.486" width="997.175" height="1425.03"/>
	</defs>
	<clipPath id="SVGID_8_">
		<use xlink:href="#SVGID_7_"  overflow="visible"/>
	</clipPath>
	<path clip-path="url(#SVGID_8_)" fill="#231F20" d="M711.171,725.227"/>
</g>
<path fill="none" stroke="#231F20" d="M711.171,725.227"/>
<g>
	<defs>
		<rect id="SVGID_9_" x="432.688" y="6.486" width="997.175" height="1425.03"/>
	</defs>
	<clipPath id="SVGID_10_">
		<use xlink:href="#SVGID_9_"  overflow="visible"/>
	</clipPath>
	<path clip-path="url(#SVGID_10_)" fill="#0000FF" d="M1177.636,1057.553l-1.064,1.488c-1.007-0.76-1.027-1.4-0.325-2.484
		l-1.512-1.084c-1.635,2.336-1.282,3.953,0.743,5.404l2.805,2.008l2.305-3.219L1177.636,1057.553z M1181.83,1051.592l-1.047,1.5
		c-1.017-0.744-1.045-1.387-0.356-2.479l-1.524-1.064c-1.606,2.354-1.233,3.969,0.809,5.393l2.83,1.975l2.267-3.248
		L1181.83,1051.592z M1187.517,1049.756l6.363-9.494c-2.541-1.812-6.235-5.082-8.136-6.936l-2.263,2.891
		c0.514,1.066,0.627,2.406-0.31,3.801c-1.219,1.82-3.217,1.998-4.911,0.863c-1.844-1.238-2.238-3.127-1.053-4.896
		c1.303-1.943,3.201-2.188,5.096-0.918l2.262-2.891c-3.455-2.496-7.201-1.865-9.857,2.098c-2.305,3.438-1.757,7.309,1.607,9.564
		c2.965,1.986,6.577,1.771,8.999-1.842c1.052-1.57,1.196-3.025,0.983-4.107c0.598,0.617,2.508,2.295,3.264,2.836l-4.812,7.178
		L1187.517,1049.756z M1188.06,1020.051l0.44,3.816c0.419,3.625,0.982,6.738,3.805,8.508c2.847,1.783,6.243,1.221,8.633-2.594
		c2.214-3.533,1.534-7.252-1.821-9.354c-0.483-0.303-1.04-0.545-1.612-0.762l-2.102,3.072c0.512,0.145,0.976,0.363,1.51,0.699
		c1.856,1.162,2.52,2.816,1.404,4.596c-1.083,1.729-2.629,1.822-4.104,0.898c-1.933-1.211-2.344-3.379-2.867-7.176l-0.884-6.785
		l-2.135-1.338l-7.566,12.076l2.695,1.688L1188.06,1020.051z M1206.116,1013.465l-0.933,1.574c-1.069-0.668-1.145-1.307-0.538-2.445
		l-1.601-0.949c-1.427,2.467-0.935,4.049,1.207,5.318l2.969,1.76l2.019-3.408L1206.116,1013.465z M1210.623,1002.217l-1.749,3.078
		l-11.842-6.729l-1.853,3.262l16.485,9.365l1.363-2.4c-1.38-1.578-1.57-3.064-0.266-5.361L1210.623,1002.217z M1210.199,962.406
		l13.139,14.643l1.507-3.17l-6.627-7.1l0.053-0.107l9.701,0.621l1.62-3.414l-14.359-0.742l-3.516-3.928L1210.199,962.406z
		 M1229.728,950.521c1.379,0.965,2.218,2.412,1.424,4.227c-0.807,1.842-2.527,2.104-3.977,1.6L1229.728,950.521z M1223.92,955.477
		c-1.169-1.068-1.435-2.332-0.724-3.953c0.782-1.785,2.66-2.633,4.494-1.961l-3.985,9.096l1.183,0.518
		c3.297,1.445,6.936,0.617,8.67-3.34c1.589-3.627,0.032-7.553-3.786-9.227c-3.82-1.674-7.391-0.027-9.028,3.709
		c-1.36,3.105-0.682,5.893,1.734,7.703L1223.92,955.477z M1232.452,935.061l0.725,1.951l-7.197,1.979l-1.558,3.805l9.614-2.578
		l2.708,7.398l1.649-4.025l-2.776-7.232l10.16,4.162l1.365-3.332l-17.49-7.164l-1.364,3.332L1232.452,935.061z M1246.669,923.582
		l-1.262,3.307l-12.725-4.857l-1.337,3.504l17.714,6.762l0.983-2.578c-1.604-1.352-2.017-2.793-1.076-5.26L1246.669,923.582z
		 M1247.48,899.908c-3.976-1.355-7.526,0.51-8.843,4.371c-1.268,3.721,0.478,6.598,3.391,7.906l1.232-2.781
		c-1.814-0.902-2.649-2.359-2.011-4.234c0.64-1.875,2.476-2.707,5.06-1.826c2.612,0.891,3.559,2.672,2.92,4.545
		c-0.639,1.875-2.161,2.529-4.122,2.145l-0.779,2.938c3.107,0.74,6.246-0.471,7.514-4.191
		C1253.158,904.918,1251.456,901.264,1247.48,899.908 M1258.039,895.518l-1.105,3.52l3.348,1.053l1.106-3.521L1258.039,895.518z
		 M1255.96,894.928l-12.622-3.967l-1.079,3.436l12.622,3.965L1255.96,894.928z M1256.722,891.914
		c0.427-0.281,0.814-0.855,1.044-1.633c0.517-1.756-0.417-3.469-1.721-4.354l2.417,0.713l1.018-3.453l-12.691-3.738l-1.017,3.453
		l6.272,1.848c2.304,0.678,3.213,2.26,2.688,4.045c-0.245,0.834-0.587,1.357-1.157,1.91L1256.722,891.914z M1250.854,876.604
		l2.709-10.082l4.809,1.293l-2.07,7.705l2.984,0.803l2.07-7.707l4.433,1.191l-2.638,9.822l3.013,0.809l3.597-13.385l-18.254-4.904
		l-3.666,13.646L1250.854,876.604z M1258.738,845.896c-2.752-0.617-4.004,0.855-4.45,2.846c-0.354,1.58-0.181,2.727,0.312,3.82
		l2.312,0.52c-0.181-0.84-0.28-1.631-0.123-2.334c0.237-1.053,0.847-1.439,1.958-1.189l6.382,1.43l-0.788,3.514l2.459,0.551
		l0.788-3.512l3.571,0.801l0.479-2.137l-1.664-0.805c-1.136-0.561-1.7-1.057-1.623-2.361l0.051-0.912l-2.079-0.467l-0.413,1.846
		L1258.738,845.896z M1272.232,840.301l-0.766,3.609l3.435,0.727l0.765-3.609L1272.232,840.301z M1270.106,839.91l-12.943-2.738
		l-0.746,3.521l12.944,2.74L1270.106,839.91z M1270.406,825.748c1.694-0.283,3.015-1.393,3.417-3.697
		c0.346-1.98-0.401-3.633-1.765-4.541l2.128,0.371l0.619-3.547l-13.033-2.275l-0.619,3.547l6.974,1.217
		c2.188,0.383,3.425,1.664,3.126,3.379s-1.565,2.162-3.574,1.812l-7.418-1.295l-0.619,3.545l6.974,1.219
		c2.187,0.381,3.425,1.664,3.126,3.377c-0.304,1.744-1.565,2.164-3.575,1.812l-7.418-1.295l-0.619,3.547l8.127,1.418
		c2.837,0.496,5.457-0.205,6.071-3.721C1272.698,828.492,1271.819,826.725,1270.406,825.748 M1276.416,765.666l14.357,1.113
		l-0.128,1.646c-0.383,4.934-3.06,6.457-7.695,6.098c-5.234-0.406-7.045-2.277-6.662-7.213L1276.416,765.666z M1249.778,781.275
		c2.405-0.941,5.017-0.664,11.028-0.572c5.854,0.152,9.63-0.982,11.14-5.906c0.451,4.85,3.866,8.35,11.194,8.918
		c8.3,0.645,14.095-3.27,14.884-13.438l0.935-12.039l-47.108-3.656l-0.708,9.123l17.945,1.393l-0.15,1.943
		c-0.313,4.039-2.932,4.812-7.814,4.734c-5.931-0.16-8.56-0.213-10.631,0.305L1249.778,781.275z M1259.649,750.607l0.388-13.045
		l12.669,0.377l-0.287,9.67l7.647,0.229l0.287-9.67l11.62,0.346l-0.384,12.893l7.646,0.229l0.653-21.965l-47.229-1.404
		l-0.657,22.115L1259.649,750.607z M1292.052,705.63l0.064,2.623c0.108,4.5-2.491,5.612-6.09,5.699
		c-3.6,0.088-6.023-0.904-6.132-5.403l-0.063-2.624L1292.052,705.63z M1272.778,709.02c0.111,4.574-2.333,5.908-6.382,6.006
		c-4.123,0.1-6.479-1.119-6.589-5.692l-0.07-2.924l12.971-0.313L1272.778,709.02z M1265.712,723.971
		c6.299-0.152,10.121-3.396,11.035-9.043c0.938,4.628,4.838,7.76,10.612,7.622c7.422-0.18,12.439-3.676,12.203-13.499l-0.305-12.596
		l-47.235,1.138l0.309,12.821C1252.566,720.16,1257.464,724.17,1265.712,723.971 M1284.709,675.789l0.025,0.299l-16.626,4.563
		l-0.567-6.727L1284.709,675.789z M1297.209,669.617l-47.927-6.045l0.718,8.521l10.328,1.086l0.787,9.342l-10,2.8l0.781,9.268
		l46.239-13.984L1297.209,669.617z M1246.241,642.406l20.114-2.925l1.305,8.981l-20.113,2.925l1.339,9.203l46.758-6.8l-1.338-9.203
		l-19.074,2.773l-1.307-8.98l19.074-2.773l-1.338-9.204l-46.758,6.8L1246.241,642.406z M1279.709,604.067l0.52,2.573
		c0.889,4.411-1.477,5.96-5.005,6.671c-3.529,0.712-6.09,0.157-6.979-4.254l-0.519-2.573L1279.709,604.067z M1261.319,610.759
		c0.904,4.484-1.271,6.224-5.24,7.025c-4.043,0.814-6.575,0.024-7.479-4.461l-0.578-2.867l12.719-2.564L1261.319,610.759z
		 M1256.961,626.71c6.177-1.245,9.376-5.104,9.294-10.825c1.728,4.396,6.115,6.8,11.776,5.659c7.278-1.469,11.61-5.785,9.668-15.416
		l-2.491-12.352l-46.316,9.34l2.535,12.572C1243.354,625.248,1248.874,628.341,1256.961,626.71 M1245.23,597.125l-3.278-12.631
		l12.27-3.184l2.43,9.365l7.405-1.922l-2.431-9.365l11.252-2.92l3.24,12.486l7.405-1.922l-5.521-21.27l-45.734,11.868l5.557,21.416
		L1245.23,597.125z M1273.408,550.524l-45.267,13.543l2.665,8.91l45.268-13.543L1273.408,550.524z M1264.709,524.388l-44.736,15.206
		l7.071,20.806l7.243-2.462l-4.079-12l37.494-12.745L1264.709,524.388z M1231.9,509.018l-0.117-0.276l18.982-18.992l-3.347-7.867
		l-43.481,18.488l3.375,7.938l25.33-10.771l0.118,0.277l-20.812,21.398l2.759,6.488l43.482-18.488l-3.375-7.938L1231.9,509.018z
		 M1208.971,493.199l-5.773-11.705l11.367-5.606l4.28,8.677l6.86-3.385l-4.28-8.676l10.427-5.144l5.706,11.569l6.86-3.385
		l-9.721-19.707l-42.375,20.902l9.787,19.842L1208.971,493.199z M1205.402,453.994l-0.146-0.263l16.858-20.901l-4.163-7.467
		l-41.272,23.002l4.198,7.533l24.043-13.4l0.146,0.263l-18.42,23.489l3.432,6.158l41.273-23.002l-4.199-7.535L1205.402,453.994z
		 M1209.306,411.585l-40.22,24.799l4.881,7.916l40.22-24.801L1209.306,411.585z M1173.233,428.55l-7.267-10.84l10.529-7.058
		l5.387,8.037l6.355-4.259l-5.387-8.037l9.656-6.472l7.183,10.716l6.354-4.259l-12.234-18.255l-39.25,26.306l12.317,18.379
		L1173.233,428.55z M1134.558,387.9l15.978-12.563l5.61,7.133l-15.977,12.563l5.748,7.312l37.142-29.208l-5.749-7.311
		l-15.151,11.916l-5.61-7.135l15.152-11.915l-5.749-7.31l-37.142,29.208L1134.558,387.9z M1138.087,343.476
		c4.104-3.624,7.188-5.345,9.521-2.703c2.383,2.699,0.194,5.432-3.91,9.057l-3.204,2.83l6.006,6.802l1.463-1.291
		c8.488-7.496,11.976-14.878,5.473-22.242c-6.752-7.646-14.898-5.654-24.963,3.231l-5.059,4.469
		c-10.062,8.886-13.048,16.724-6.296,24.369c6.503,7.365,14.261,4.817,22.749-2.679l1.461-1.291l-6.007-6.802l-3.204,2.83
		c-4.104,3.623-7.087,5.457-9.47,2.759c-2.333-2.642-0.244-5.487,3.86-9.112L1138.087,343.476z M1133.113,314.775l-34.207,32.596
		l6.416,6.732l34.207-32.595L1133.113,314.775z M1089.044,314.811l-1.884,1.937c-6.59,6.772-6.229,13.716-0.53,19.26
		c5.59,5.439,12.541,5.609,18.45-0.467c5.073-5.213,4.74-10.142,3.065-16.271l-1.182-4.916c-0.674-2.749-0.597-4.872,1.6-7.13
		c2.145-2.204,4.471-2.766,6.352-0.936c2.15,2.093,1.549,4.646-1.433,7.711l-1.935,1.988l5.859,5.701l1.882-1.936
		c6.329-6.504,6.663-13.086,0.804-18.786c-5.43-5.282-12.584-4.919-18.076,0.725c-5.491,5.645-4.838,10.78-3.545,16.013l1.068,4.494
		c0.735,3.332,1.188,5.447-1.165,7.865c-2.196,2.258-4.526,2.608-6.567,0.621c-2.258-2.197-1.664-5.175,1.162-8.078l1.986-2.043
		L1089.044,314.811z M1061.279,312.197l25.399-30.381l6.963,5.821l4.906-5.869l-20.887-17.463l-4.906,5.869l6.789,5.677
		l-25.4,30.381L1061.279,312.197z M1060.374,251.154l-28.693,37.54l17.459,13.345l4.646-6.077l-10.071-7.697l24.049-31.462
		L1060.374,251.154z M1030.808,250.017c3.104-4.509,5.826-7.007,8.791-4.965c2.965,2.041,1.604,5.474-1.502,9.984l-8.59,12.478
		c-3.105,4.51-5.826,7.008-8.791,4.966c-2.966-2.041-1.604-5.474,1.5-9.984L1030.808,250.017z M1043.495,264.124
		c7.613-11.058,8.738-19.57,0.398-25.312c-8.401-5.784-15.951-1.694-23.564,9.364l-3.572,5.189
		c-7.613,11.058-8.738,19.57-0.336,25.355c8.338,5.741,15.889,1.651,23.502-9.407L1043.495,264.124z M985.882,258.588l10.472-17.42
		l7.778,4.675l-10.472,17.42l7.972,4.791l24.34-40.497l-7.971-4.791l-9.929,16.52l-7.778-4.675l9.93-16.52l-7.971-4.791
		l-24.342,40.498L985.882,258.588z M967.099,222.829l-0.27-0.134l2.092-26.77l-7.654-3.808l-21.045,42.305l7.723,3.841
		l12.259-24.644l0.269,0.133l-1.918,29.789l6.312,3.14l21.044-42.305l-7.722-3.842L967.099,222.829z M946.452,185.584
		l-19.225,43.162l8.494,3.784l19.226-43.162L946.452,185.584z M923.005,226.787l8.854-22.387l-11.787-4.662l-2.593,6.555
		l3.627,1.435l-0.331,0.837c-2.042,5.161-4.218,8.01-7.495,6.714c-3.277-1.297-2.984-4.891-0.943-10.052l5.6-14.158
		c2.014-5.091,4.05-7.996,7.398-6.672c3.346,1.324,2.705,4.781,0.691,9.872l-0.967,2.441l8.439,3.338l0.387-0.976
		c4.166-10.531,3.44-18.077-5.766-21.719c-9.275-3.669-15.773,1.746-20.711,14.23l-2.482,6.277
		c-4.938,12.484-4.252,20.74,3.978,23.995c3.349,1.324,7.022,1.004,9.269-1.818l-0.957,4.46L923.005,226.787z M900.263,167.765
		l-15.512,44.632l8.785,3.053l15.51-44.632L900.263,167.765z M878.349,186.842l-0.286-0.086l-2.446-26.74l-8.188-2.465
		l-13.619,45.245l8.259,2.486l7.935-26.357l0.286,0.087l3.125,29.686l6.751,2.032l13.621-45.244l-8.259-2.487L878.349,186.842z
		 M838.978,167.11c1.262-5.327,2.895-8.64,6.397-7.811c3.503,0.83,3.476,4.523,2.214,9.851l-3.49,14.742
		c-1.262,5.328-2.895,8.641-6.397,7.811s-3.478-4.523-2.215-9.85L838.978,167.11z M855.911,175.668
		c3.094-13.063,1.062-21.406-8.79-23.74c-9.926-2.35-15.483,4.195-18.577,17.259l-1.453,6.13
		c-3.093,13.064-1.061,21.406,8.864,23.757c9.853,2.334,15.41-4.212,18.505-17.275L855.911,175.668z M848.484,150.401l6.933,1.642
		l2.006-8.465l-6.934-1.642L848.484,150.401z M839.653,148.31l7.007,1.659l2.005-8.466l-7.007-1.659L839.653,148.31z
		 M821.632,195.088l-3.826-27.748l12.082-18.776l-9.446-1.707l-12.563,20.594l4.002-22.141l-9.152-1.654l-8.403,46.496l9.151,1.654
		l1.988-10.997l3.971-6.37l2.603,18.915L821.632,195.088z M781.095,180.605l-12.975-1.397l1.357-12.603l9.619,1.036l0.818-7.606
		l-9.619-1.036l1.244-11.558l12.826,1.381l0.818-7.606l-21.848-2.352l-5.059,46.978l21.997,2.369L781.095,180.605z M747.509,137.74
		l-3.375,47.129l9.276,0.664l3.375-47.129L747.509,137.74z M740.763,156.989c0.384-12.895-3.762-19.846-13.807-20.145l-12.82-0.381
		l-1.403,47.229l12.819,0.381c10.045,0.299,14.597-6.394,14.979-19.288L740.763,156.989z M731.003,167.278
		c-0.195,6.597-1.935,9.547-6.357,9.415l-2.399-0.071l0.968-32.536l2.399,0.072c4.423,0.131,5.983,3.179,5.787,9.776
		L731.003,167.278z"/>
</g>
</svg>
