<?xml version="1.0" encoding="utf-8"?>
<!-- Generator: Adobe Illustrator 16.0.4, SVG Export Plug-In . SVG Version: 6.00 Build 0)  -->
<!DOCTYPE svg PUBLIC "-//W3C//DTD SVG 1.1//EN" "http://www.w3.org/Graphics/SVG/1.1/DTD/svg11.dtd">
<svg version="1.1" id="Ebene_1" xmlns="http://www.w3.org/2000/svg" xmlns:xlink="http://www.w3.org/1999/xlink" x="0px" y="0px"
	 width="1440px" height="1440px" viewBox="0 0 1440 1440" enable-background="new 0 0 1440 1440" xml:space="preserve">
<g>
	<defs>
		<rect id="SVGID_1_" x="430.831" y="12.971" width="997.169" height="1425.029"/>
	</defs>
	<clipPath id="SVGID_2_">
		<use xlink:href="#SVGID_1_"  overflow="visible"/>
	</clipPath>
	<path clip-path="url(#SVGID_2_)" fill="#231F20" d="M794.308,131.711"/>
</g>
<path fill="none" stroke="#231F20" d="M794.308,131.711"/>
<g>
	<defs>
		<rect id="SVGID_3_" x="430.831" y="12.971" width="997.169" height="1425.029"/>
	</defs>
	<clipPath id="SVGID_4_">
		<use xlink:href="#SVGID_3_"  overflow="visible"/>
	</clipPath>
	<path clip-path="url(#SVGID_4_)" fill="#231F20" d="M793.308,139.711"/>
</g>
<path fill="none" stroke="#231F20" d="M793.308,139.711"/>
<g>
	<defs>
		<rect id="SVGID_5_" x="432.688" y="6.486" width="997.175" height="1425.03"/>
	</defs>
	<clipPath id="SVGID_6_">
		<use xlink:href="#SVGID_5_"  overflow="visible"/>
	</clipPath>
	<path clip-path="url(#SVGID_6_)" fill="#231F20" d="M711.171,725.227"/>
</g>
<path fill="none" stroke="#231F20" d="M711.171,725.227"/>
<g>
	<defs>
		<rect id="SVGID_7_" x="432.688" y="6.486" width="997.175" height="1425.03"/>
	</defs>
	<clipPath id="SVGID_8_">
		<use xlink:href="#SVGID_7_"  overflow="visible"/>
	</clipPath>
	<path clip-path="url(#SVGID_8_)" fill="#231F20" d="M711.171,725.227"/>
</g>
<path fill="none" stroke="#231F20" d="M711.171,725.227"/>
<g>
	<defs>
		<rect id="SVGID_9_" x="432.688" y="6.486" width="997.175" height="1425.03"/>
	</defs>
	<clipPath id="SVGID_10_">
		<use xlink:href="#SVGID_9_"  overflow="visible"/>
	</clipPath>
	<path clip-path="url(#SVGID_10_)" fill="#0000FF" d="M906.559,1044.295l-1.565,0.949c-0.627-1.094-0.393-1.691,0.68-2.412
		l-0.964-1.59c-2.423,1.502-2.734,3.129-1.443,5.258l1.788,2.951l3.387-2.051L906.559,1044.295z M912.757,1040.447l-1.553,0.967
		c-0.641-1.084-0.416-1.686,0.647-2.418l-0.983-1.578c-2.403,1.533-2.694,3.164-1.377,5.277l1.824,2.928l3.361-2.096
		L912.757,1040.447z M918.087,1034.012c-1.194-1.764-0.875-3.646,1.013-4.926c1.913-1.295,3.78-0.893,4.974,0.871
		c1.162,1.715,0.858,3.621-1.029,4.9C921.181,1036.119,919.231,1035.701,918.087,1034.012 M915.489,1023.488
		c1.689-1.145,3.207-0.83,4.397,0.5l2.856-2.043c-2.326-2.846-5.656-3.162-8.887-0.975c-4.445,3.012-4.277,7.967-0.996,12.812
		c3.297,4.869,7.627,6.393,11.898,3.5c3.527-2.389,4.466-6.141,2.245-9.418c-2.069-3.057-5.603-3.779-9.005-1.475
		c-2.062,1.396-2.83,3.365-2.51,5.178C913.336,1028.279,913.006,1025.17,915.489,1023.488 M937.157,1021.457l-2.854,2.094
		l-8.058-10.98l-3.022,2.219l11.216,15.285l2.225-1.631c-0.614-2.006-0.18-3.441,1.949-5.002L937.157,1021.457z M943.805,1018.344
		l-1.448,1.119c-0.746-1.016-0.58-1.637,0.402-2.473l-1.137-1.473c-2.237,1.768-2.363,3.42-0.84,5.391l2.109,2.729l3.133-2.422
		L943.805,1018.344z M951.774,1009.738l-2.746,2.234l-8.597-10.564l-2.907,2.367l11.967,14.707l2.141-1.744
		c-0.714-1.971-0.352-3.426,1.695-5.094L951.774,1009.738z M977.973,987.822l-2.616,2.602l2.475,2.49l2.617-2.604L977.973,987.822z
		 M976.407,986.334l-9.33-9.381l-2.553,2.539l9.329,9.379L976.407,986.334z M980.638,978.049l-1.212-10.57l-1.798-1.68l-7.862,8.42
		l1.952,1.824l4.913-5.264l1.13,10.658l1.798,1.68l7.616-8.156l-1.951-1.822L980.638,978.049z M991.547,960.512
		c1.694,1.434,2.058,3.234,0.876,4.631c-1.143,1.352-2.559,1.215-4.117-0.104l-5.749-4.861l-2.325,2.748l6.299,5.328
		c2.246,1.898,4.912,2.463,7.197-0.24c1.278-1.512,1.584-3.453,0.865-4.926l1.65,1.396l2.324-2.75l-10.102-8.543l-2.325,2.748
		L991.547,960.512z M1003.34,947.121c1.11,1.264,1.58,2.871,0.377,4.443c-1.222,1.596-2.954,1.441-4.242,0.607L1003.34,947.121z
		 M996.52,950.553c-0.881-1.316-0.838-2.605,0.237-4.012c1.186-1.549,3.211-1.926,4.833-0.836l-6.035,7.887l1.024,0.783
		c2.859,2.188,6.591,2.248,9.216-1.182c2.407-3.146,1.829-7.328-1.482-9.861c-3.312-2.535-7.171-1.787-9.651,1.455
		c-2.06,2.691-2.063,5.559-0.147,7.895L996.52,950.553z M1015.653,935.041c1.656,0.451,3.32-0.004,4.65-1.928
		c1.143-1.654,1.156-3.469,0.297-4.865l1.777,1.229l2.047-2.963l-10.885-7.52l-2.047,2.963l5.824,4.023
		c1.827,1.262,2.416,2.945,1.426,4.377c-0.988,1.432-2.326,1.309-4.006,0.148l-6.194-4.279l-2.046,2.961l5.824,4.025
		c1.826,1.262,2.414,2.943,1.426,4.375c-1.006,1.457-2.327,1.311-4.006,0.15l-6.194-4.279l-2.047,2.961l6.788,4.689
		c2.369,1.637,5.041,2.098,7.07-0.84C1016.587,938.492,1016.528,936.52,1015.653,935.041 M1023.616,918.516
		c2.977,1.803,5.527,0.717,7.299-2.209c1.816-3.004,1.271-5.754-0.805-7.537l-1.951,2.645c0.949,0.924,1.3,2.082,0.523,3.365
		c-0.793,1.309-1.966,1.512-3.224,0.75l-0.257-0.156l1.264-3.479c1.04-2.877,1.197-5.166-0.959-6.471
		c-1.95-1.18-4.001-0.457-5.43,1.904c-1.01,1.668-1.248,3.627-0.327,5.061c-1.403-0.463-2.646-0.092-3.421,1.191
		c-0.622,1.027-0.661,1.846-0.571,2.564l1.644,0.994c0.047-0.426,0.156-0.779,0.344-1.088c0.295-0.488,0.763-0.625,1.354-0.268
		L1023.616,918.516z M1023.071,914.084c-1.821-1.102-2.309-3.08-1.33-4.697c0.591-0.975,1.41-1.285,2.18-0.818
		c1.13,0.682,0.786,1.771,0.26,3.277l-0.827,2.41L1023.071,914.084z M1023.934,901.52l13.375-2.424l3.646,10.662l2.039-3.875
		l-3.811-11.123l7.567,3.98l1.745-3.32l-16.729-8.797l-1.744,3.32l5.549,2.918l0.871,2.662l-10.414,2.014L1023.934,901.52z
		 M1044.395,870.107l0.679,1.967l-7.241,1.809l-1.647,3.768l9.672-2.352l2.533,7.461l1.743-3.986l-2.604-7.295l10.06,4.4
		l1.442-3.299l-17.315-7.574l-1.442,3.299L1044.395,870.107z M1054.192,851.582c-3.906-1.545-7.543,0.145-9.043,3.941
		c-1.445,3.652,0.16,6.611,3.008,8.059l1.365-2.719c-1.771-0.99-2.533-2.484-1.806-4.326s2.603-2.584,5.142-1.58
		c2.566,1.014,3.426,2.838,2.697,4.68s-2.279,2.422-4.22,1.943l-0.919,2.895c3.066,0.893,6.261-0.168,7.705-3.822
		C1059.622,856.857,1058.098,853.125,1054.192,851.582 M1064.95,847.311l-1.232,3.477l3.309,1.174l1.232-3.477L1064.95,847.311z
		 M1062.895,846.645l-12.469-4.422l-1.203,3.395l12.47,4.42L1062.895,846.645z M1061.346,831.506
		c2.118,0.668,3.149,2.188,2.601,3.934c-0.533,1.688-1.892,2.109-3.838,1.496l-7.183-2.262l-1.081,3.436l7.87,2.477
		c2.804,0.883,5.481,0.373,6.544-3.004c0.594-1.889,0.126-3.797-1.107-4.877l2.061,0.648l1.082-3.434l-12.62-3.973l-1.081,3.434
		L1061.346,831.506z M1066.065,814.52c2.146,0.564,3.248,2.033,2.782,3.805c-0.45,1.711-1.788,2.195-3.761,1.678l-7.282-1.916
		l-0.916,3.48l7.979,2.1c2.843,0.748,5.492,0.111,6.393-3.312c0.504-1.914-0.055-3.799-1.338-4.818l2.089,0.549l0.916-3.48
		l-12.794-3.367l-0.916,3.482L1066.065,814.52z M1069.62,805.717c3.404,0.725,5.457-1.139,6.168-4.484
		c0.729-3.434-0.688-5.852-3.235-6.854l-0.974,3.137c1.199,0.561,1.912,1.541,1.6,3.008c-0.318,1.496-1.361,2.072-2.799,1.768
		l-0.293-0.064l0.05-3.699c0.037-3.059-0.565-5.273-3.03-5.797c-2.229-0.475-3.93,0.883-4.504,3.58
		c-0.404,1.908,0.014,3.838,1.354,4.891c-1.478,0.021-2.528,0.781-2.84,2.248c-0.25,1.174-0.019,1.959,0.304,2.609l1.878,0.4
		c-0.096-0.42-0.107-0.791-0.033-1.143c0.118-0.559,0.516-0.842,1.191-0.697L1069.62,805.717z M1067.651,801.709
		c-2.084-0.443-3.192-2.15-2.8-3.998c0.237-1.117,0.908-1.678,1.789-1.492c1.291,0.275,1.324,1.418,1.322,3.012l0.011,2.549
		L1067.651,801.709z M1076.108,784.777l8.73-3.773l0.671-4.115l-12.636,5.355l-7.195-1.174l-0.589,3.613l7.194,1.174l10.281,9.092
		l0.651-3.996L1076.108,784.777z M1071.958,758.018c-2.805-0.285-3.874,1.324-4.081,3.355c-0.164,1.611,0.144,2.727,0.763,3.756
		l2.357,0.24c-0.278-0.812-0.471-1.586-0.398-2.303c0.11-1.074,0.669-1.529,1.803-1.414l6.506,0.664l-0.364,3.58l2.507,0.256
		l0.365-3.582l3.641,0.371l0.223-2.178l-1.748-0.602c-1.193-0.422-1.813-0.848-1.892-2.152l-0.058-0.91l-2.119-0.217l-0.192,1.881
		L1071.958,758.018z M1084.628,750.469l-0.286,3.68l3.5,0.271l0.285-3.678L1084.628,750.469z M1082.47,750.363l-13.191-1.025
		l-0.277,3.59l13.189,1.023L1082.47,750.363z M1080.792,735.936c1.635-0.521,2.783-1.809,2.851-4.148
		c0.06-2.008-0.917-3.537-2.397-4.24l2.16,0.062l0.104-3.6l-13.225-0.385l-0.104,3.6l7.077,0.205
		c2.219,0.064,3.628,1.156,3.578,2.896c-0.051,1.738-1.24,2.365-3.279,2.305l-7.527-0.219l-0.104,3.598l7.077,0.207
		c2.219,0.064,3.628,1.156,3.577,2.895c-0.051,1.77-1.239,2.365-3.278,2.307l-7.526-0.219l-0.105,3.598l8.247,0.24
		c2.879,0.084,5.37-0.984,5.475-4.553C1083.452,738.324,1082.329,736.701,1080.792,735.936 M1052.968,694.144l23.872-3.121
		l-1.644-12.568l-6.99,0.914l0.505,3.867l-0.892,0.117c-5.504,0.719-9.051,0.199-9.509-3.295c-0.457-3.496,2.828-4.984,8.331-5.705
		l15.098-1.974c5.428-0.71,8.955-0.339,9.422,3.231c0.468,3.568-2.865,4.686-8.295,5.396l-2.603,0.34l1.177,8.999l1.041-0.137
		c11.229-1.468,17.476-5.764,16.191-15.581c-1.293-9.89-9.182-12.942-22.492-11.203l-6.693,0.875
		c-13.312,1.741-20.197,6.349-19.05,15.123c0.468,3.57,2.53,6.628,6.087,7.222l-4.363,1.327L1052.968,694.144z M1068.557,649.634
		l-0.065-0.293l22.154-15.173l-1.84-8.351l-46.143,10.17l1.855,8.423l26.881-5.925l0.064,0.293l-24.395,17.205l1.518,6.884
		l46.143-10.169l-1.857-8.424L1068.557,649.634z M1036.804,619.969c3.298,10.048,10.598,11.124,19.79,8.107l30.072-9.871
		l-2.972-9.05l-30.641,10.058c-4.917,1.614-7.882,1.72-8.982-1.63c-1.099-3.35,1.375-4.951,6.291-6.564l30.643-10.059l-2.971-9.05
		l-30.071,9.871C1038.77,604.799,1033.506,609.921,1036.804,619.969 M1062.036,572.439l1.035,2.412
		c1.775,4.135-0.223,6.135-3.53,7.556c-3.308,1.42-5.929,1.401-7.703-2.733l-1.036-2.412L1062.036,572.439z M1045.409,582.76
		c1.805,4.204,0.033,6.353-3.688,7.95c-3.79,1.627-6.43,1.373-8.233-2.831l-1.154-2.688l11.922-5.119L1045.409,582.76z
		 M1044.415,599.267c5.789-2.486,8.13-6.92,6.876-12.502c2.593,3.947,7.38,5.401,12.686,3.123c6.823-2.93,10.179-8.043,6.302-17.07
		l-4.971-11.578l-43.418,18.641l5.061,11.785C1030.796,600.625,1036.835,602.521,1044.415,599.267 M1057.618,545.886l-42.151,21.35
		l4.202,8.297l42.15-21.35L1057.618,545.886z M1021.007,560.961l-6.479-11.329l11.004-6.292l4.803,8.399l6.641-3.799l-4.803-8.397
		l10.091-5.771l6.404,11.197l6.641-3.798l-10.909-19.075l-41.017,23.455l10.983,19.207L1021.007,560.961z M1012.457,513.407
		l11.923-8.074l0.925,1.366c2.776,4.099,1.632,6.957-2.219,9.563c-4.347,2.944-6.929,2.609-9.704-1.489L1012.457,513.407z
		 M1001.349,542.214c1.295-2.234,3.51-3.645,8.268-7.32c4.677-3.528,6.92-6.769,5.033-11.561c3.375,3.512,8.227,4.122,14.312,0.001
		c6.893-4.668,8.988-11.34,3.268-19.786l-6.77-9.998l-39.124,26.494l5.131,7.576l14.903-10.094l1.094,1.615
		c2.271,3.354,0.706,5.59-3.162,8.572c-4.738,3.571-6.827,5.167-8.125,6.861L1001.349,542.214z M971.579,502.054l15.602-13.025
		l5.816,6.967l-15.603,13.025l5.96,7.139l36.271-30.28l-5.96-7.14l-14.796,12.353l-5.816-6.966l14.796-12.354l-5.96-7.139
		l-36.271,30.28L971.579,502.054z M973.696,458.411c3.883-3.861,6.857-5.763,9.344-3.263c2.537,2.553,0.515,5.41-3.367,9.271
		l-3.031,3.016l6.399,6.434l1.382-1.375c8.031-7.986,11.074-15.561,4.146-22.528c-7.192-7.231-15.207-4.761-24.727,4.705
		l-4.786,4.761c-9.519,9.465-12.034,17.467-4.842,24.699c6.928,6.967,14.521,3.965,22.551-4.021l1.382-1.375l-6.398-6.435
		l-3.031,3.015c-3.882,3.86-6.752,5.867-9.29,3.315c-2.485-2.5-0.567-5.464,3.313-9.325L973.696,458.411z M934.239,443.431
		l-1.744,2.062c-6.103,7.215-5.26,14.116,0.812,19.25c5.955,5.036,12.9,4.722,18.373-1.749c4.698-5.555,4.022-10.447,1.925-16.445
		l-1.52-4.822c-0.864-2.694-0.936-4.817,1.099-7.223c1.986-2.348,4.267-3.07,6.271-1.376c2.291,1.937,1.869,4.526-0.892,7.791
		l-1.792,2.119l6.242,5.278l1.744-2.062c5.859-6.929,5.734-13.517-0.507-18.796c-5.784-4.893-12.896-4.031-17.982,1.98
		c-5.085,6.014-4.075,11.092-2.423,16.223l1.38,4.408c0.966,3.271,1.565,5.35-0.614,7.927c-2.035,2.405-4.334,2.917-6.51,1.077
		c-2.404-2.035-2.018-5.047,0.598-8.139l1.84-2.178L934.239,443.431z M927.099,448.788l-10.554-7.677l7.456-10.25l7.824,5.69
		l4.5-6.186l-7.824-5.691l6.838-9.401l10.432,7.588l4.5-6.187L932.5,403.749l-27.794,38.211l17.893,13.015L927.099,448.788z
		 M908.675,397.359l2.229,1.386c3.821,2.376,3.328,5.16,1.426,8.217c-1.9,3.058-4.06,4.541-7.881,2.165l-2.229-1.386
		L908.675,397.359z M900.942,415.335c3.885,2.416,3.66,5.191,1.521,8.63c-2.178,3.503-4.488,4.806-8.373,2.39l-2.484-1.545
		l6.852-11.019L900.942,415.335z M909.569,429.443c3.325-5.351,2.709-10.325-1.513-14.188c4.384,1.754,9.144,0.209,12.192-4.695
		c3.92-6.306,3.746-12.418-4.598-17.606l-10.699-6.653l-24.949,40.127l10.892,6.771
		C899.175,438.347,905.212,436.449,909.569,429.443 M877.243,424.867l10.69-21.571l-11.356-5.629l-3.131,6.317l3.494,1.731
		l-0.398,0.808c-2.465,4.972-4.871,7.629-8.029,6.064c-3.158-1.566-2.566-5.123-0.102-10.096l6.761-13.641
		c2.431-4.905,4.703-7.631,7.928-6.031c3.226,1.598,2.298,4.988-0.133,9.895l-1.166,2.352l8.131,4.031l0.468-0.941
		c5.028-10.147,4.936-17.728-3.936-22.123c-8.938-4.43-15.863,0.424-21.825,12.451l-2.998,6.049
		c-5.962,12.027-5.967,20.312,1.964,24.242c3.225,1.6,6.914,1.586,9.387-1.037l-1.326,4.365L877.243,424.867z M854.497,405.163
		l-12.078-4.943l4.801-11.729l8.954,3.664l2.897-7.08l-8.953-3.664l4.402-10.76l11.939,4.887l2.896-7.08l-20.337-8.324
		l-17.897,43.73l20.477,8.38L854.497,405.163z M823.543,380.177l-0.287-0.087l3.938-27.327l-6.679-2.015l-11.764,24.966
		l-0.287-0.087l3.938-27.328l-8.474-2.557l-6.04,47.532l8.33,2.514l11.268-24.098l0.287,0.086l-3.873,26.33l8.33,2.514
		l21.262-42.939l-8.186-2.47L823.543,380.177z M779.364,381.193l-12.881-2.102l2.041-12.509l9.549,1.558l1.23-7.552l-9.548-1.557
		l1.87-11.474l12.732,2.076l1.23-7.55l-21.688-3.537l-7.604,46.634l21.836,3.562L779.364,381.193z M746.983,336.712l-4.791,47.006
		l9.252,0.943l4.791-47.006L746.983,336.712z M739.153,355.627c0.53-12.889-3.535-19.887-13.576-20.301l-12.814-0.528l-1.945,47.21
		l12.814,0.528c10.042,0.414,14.669-6.227,15.2-19.116L739.153,355.627z M729.276,365.804c-0.272,6.594-2.045,9.524-6.466,9.342
		l-2.397-0.099l1.34-32.522l2.398,0.099c4.42,0.183,5.945,3.248,5.674,9.842L729.276,365.804z"/>
</g>
</svg>
