<?xml version="1.0" encoding="utf-8"?>
<!-- Generator: Adobe Illustrator 16.0.4, SVG Export Plug-In . SVG Version: 6.00 Build 0)  -->
<!DOCTYPE svg PUBLIC "-//W3C//DTD SVG 1.1//EN" "http://www.w3.org/Graphics/SVG/1.1/DTD/svg11.dtd">
<svg version="1.1" id="Ebene_1" xmlns="http://www.w3.org/2000/svg" xmlns:xlink="http://www.w3.org/1999/xlink" x="0px" y="0px"
	 width="1440px" height="1440px" viewBox="0 0 1440 1440" enable-background="new 0 0 1440 1440" xml:space="preserve">
<g>
	<defs>
		<rect id="SVGID_1_" x="430.831" y="12.971" width="997.169" height="1425.029"/>
	</defs>
	<clipPath id="SVGID_2_">
		<use xlink:href="#SVGID_1_"  overflow="visible"/>
	</clipPath>
	<path clip-path="url(#SVGID_2_)" fill="#231F20" d="M794.308,131.711"/>
</g>
<path fill="none" stroke="#231F20" d="M794.308,131.711"/>
<g>
	<defs>
		<rect id="SVGID_3_" x="430.831" y="12.971" width="997.169" height="1425.029"/>
	</defs>
	<clipPath id="SVGID_4_">
		<use xlink:href="#SVGID_3_"  overflow="visible"/>
	</clipPath>
	<path clip-path="url(#SVGID_4_)" fill="#231F20" d="M793.308,139.711"/>
</g>
<path fill="none" stroke="#231F20" d="M793.308,139.711"/>
<g>
	<defs>
		<rect id="SVGID_5_" x="432.688" y="6.486" width="997.175" height="1425.03"/>
	</defs>
	<clipPath id="SVGID_6_">
		<use xlink:href="#SVGID_5_"  overflow="visible"/>
	</clipPath>
	<path clip-path="url(#SVGID_6_)" fill="#231F20" d="M711.171,725.227"/>
</g>
<path fill="none" stroke="#231F20" d="M711.171,725.227"/>
<g>
	<defs>
		<rect id="SVGID_7_" x="432.688" y="6.486" width="997.175" height="1425.03"/>
	</defs>
	<clipPath id="SVGID_8_">
		<use xlink:href="#SVGID_7_"  overflow="visible"/>
	</clipPath>
	<path clip-path="url(#SVGID_8_)" fill="#231F20" d="M711.171,725.227"/>
</g>
<path fill="none" stroke="#231F20" d="M711.171,725.227"/>
<g>
	<defs>
		<rect id="SVGID_9_" x="432.688" y="6.486" width="997.175" height="1425.03"/>
	</defs>
	<clipPath id="SVGID_10_">
		<use xlink:href="#SVGID_9_"  overflow="visible"/>
	</clipPath>
	<path clip-path="url(#SVGID_10_)" fill="#0000FF" d="M539.34,729.688l-0.03-1.83c1.261,0.01,1.659,0.514,1.739,1.803l1.861-0.031
		c-0.076-2.85-1.324-3.939-3.814-3.898l-3.449,0.057l0.063,3.959L539.34,729.688z M539.71,737.75l-0.098-1.826
		c1.26-0.039,1.678,0.451,1.807,1.736l1.856-0.102c-0.183-2.844-1.47-3.887-3.956-3.752l-3.445,0.186l0.212,3.953L539.71,737.75z
		 M553.216,749.516l-2.797-2.635c-2.655-2.502-5.092-4.521-8.39-4.055c-3.327,0.471-5.562,3.09-4.932,7.545
		c0.584,4.129,3.499,6.533,7.42,5.98c0.565-0.08,1.146-0.254,1.723-0.457l-0.372-3.705c-0.484,0.221-0.98,0.352-1.604,0.439
		c-2.169,0.307-3.742-0.531-4.036-2.609c-0.285-2.02,0.836-3.088,2.56-3.332c2.258-0.318,3.969,1.074,6.816,3.643l5.047,4.619
		l2.495-0.354l-1.996-14.111l-3.147,0.447L553.216,749.516z M553.831,763.898c1.709-0.461,2.965,0.629,3.449,2.426
		c0.602,2.23-0.175,3.963-2.498,4.682l0.815,3.602c4.055-1.092,5.834-4.523,4.608-9.07c-1.115-4.143-3.869-6.291-7.084-5.426
		c-2.317,0.625-3.562,2.576-3.315,4.994c-0.7-1.674-2.716-2.934-4.976-2.326c-3.158,0.852-4.669,3.775-3.545,7.947
		c1.161,4.316,4.731,6.15,8.498,5.135l-0.8-3.543c-2.347,0.633-4.181-0.178-4.75-2.293c-0.539-2,0.297-3.279,1.919-3.717
		c1.854-0.5,2.924,0.703,3.337,2.238c0.181,0.666,0.328,1.217,0.371,1.609l2.724-0.734c-0.19-0.477-0.36-0.99-0.508-1.541
		C551.569,765.998,552.093,764.367,553.831,763.898 M550.079,785.156l-0.625-1.721c1.195-0.4,1.736-0.055,2.232,1.139l1.748-0.637
		c-1-2.668-2.534-3.293-4.875-2.443l-3.243,1.178l1.351,3.723L550.079,785.156z M553.759,795.066l7.191-3.316l2.664,5.775
		L553.759,795.066z M549.216,793.098l1.897,4.115l13.531,3.406l3.16-1.459l-4.021-8.717l4.141-1.91l-1.547-3.352l-4.14,1.91
		l-1.207-2.615l-2.833,1.309l1.206,2.613L549.216,793.098z M583.142,829.592c-2.619,2.291-2.357,5.051-0.105,7.625
		c2.312,2.643,5.096,2.957,7.426,1.518l-1.928-2.658c-1.169,0.623-2.38,0.605-3.367-0.523c-1.008-1.152-0.844-2.332,0.264-3.299
		l0.225-0.197l2.932,2.258c2.428,1.863,4.562,2.707,6.457,1.047c1.717-1.502,1.649-3.674-0.168-5.752
		c-1.283-1.467-3.078-2.289-4.725-1.846c0.867-1.197,0.891-2.492-0.098-3.621c-0.79-0.902-1.559-1.188-2.272-1.32l-1.444,1.264
		c0.393,0.176,0.697,0.387,0.934,0.658c0.376,0.43,0.363,0.918-0.155,1.371L583.142,829.592z M587.529,830.416
		c1.604-1.402,3.636-1.266,4.88,0.156c0.752,0.857,0.799,1.732,0.121,2.326c-0.992,0.869-1.928,0.211-3.203-0.746l-2.046-1.518
		L587.529,830.416z M605.497,846.842c2.049-2.521,1.156-5.424-1.354-7.791c-2.488-2.346-5.219-2.861-7.072-0.896
		c-1.708,1.812-1.311,3.795,0.411,6.037l1.545,2.033c0.597,0.77,0.657,1.404,0.163,1.928c-0.618,0.654-1.62,0.492-2.559-0.393
		c-1.375-1.297-1.603-2.541-0.748-3.797l-2.243-1.951c-1.843,2.303-1.382,5.006,1.282,7.518c2.445,2.305,5.188,2.5,6.916,0.666
		c1.688-1.787,1.273-3.623-0.469-5.885l-1.281-1.703c-0.816-1.059-0.985-1.754-0.368-2.408c0.659-0.697,1.754-0.285,2.714,0.621
		c1.331,1.256,1.648,2.668,0.711,3.969L605.497,846.842z M604.165,859.902l-2.861-2.332l-2.217,2.723l2.86,2.33L604.165,859.902z
		 M605.481,858.189l8.355-10.258l-2.791-2.273l-8.355,10.258L605.481,858.189z M608.536,867.615l11.211-15.217l-2.898-2.135
		l-11.21,15.217L608.536,867.615z M622.943,862.021c1.198-1.904,2.879-2.549,4.377-1.605c1.498,0.941,1.494,2.357,0.425,4.059
		l-4.025,6.4l3.047,1.916l4.408-7.008c1.565-2.49,1.812-5.135-1.159-7.004c-1.702-1.07-3.55-1.062-4.948-0.135l1.15-1.828
		l-3.047-1.918l-7.045,11.199l3.047,1.918L622.943,862.021z M642.272,877.881c-0.127,1.713,0.637,3.258,2.781,4.197
		c1.841,0.805,3.623,0.473,4.83-0.637l-0.866,1.979l3.298,1.443l5.305-12.119l-3.298-1.443l-2.839,6.486
		c-0.891,2.033-2.429,2.932-4.023,2.232c-1.594-0.697-1.729-2.033-0.912-3.902l3.021-6.898l-3.298-1.443l-2.839,6.486
		c-0.89,2.033-2.431,2.932-4.024,2.234c-1.621-0.711-1.729-2.035-0.91-3.904l3.019-6.898l-3.298-1.441l-3.309,7.557
		c-1.154,2.639-1.097,5.35,2.174,6.781C639.062,879.455,640.987,879.021,642.272,877.881 M661.067,882.617
		c-0.943,3.35,0.785,5.52,4.077,6.445c3.379,0.951,5.883-0.309,7.048-2.785l-3.066-1.176c-0.639,1.162-1.662,1.809-3.106,1.402
		c-1.472-0.414-1.979-1.492-1.581-2.906l0.081-0.289l3.688,0.289c3.051,0.236,5.299-0.223,5.981-2.648
		c0.618-2.195-0.626-3.979-3.283-4.727c-1.877-0.527-3.829-0.236-4.965,1.035c0.072-1.477-0.616-2.574-2.06-2.98
		c-1.156-0.324-1.955-0.145-2.625,0.135l-0.521,1.848c0.425-0.068,0.795-0.057,1.142,0.041c0.549,0.154,0.807,0.57,0.619,1.234
		L661.067,882.617z M665.193,880.912c0.577-2.051,2.353-3.049,4.173-2.535c1.098,0.309,1.615,1.016,1.371,1.881
		c-0.357,1.271-1.499,1.23-3.09,1.125l-2.543-0.154L665.193,880.912z M686.565,884.449l-1.75,1.125l-3.475-6.607l-4.049-0.707
		l4.576,8.84l-6.646,4.23l4.285,0.748l6.47-4.262l-1.89,10.818l3.545,0.619l3.254-18.619l-3.547-0.619L686.565,884.449z
		 M698.976,887.537c0.133-2.246,1.297-3.621,3.064-3.516c1.767,0.105,2.443,1.348,2.324,3.354l-0.447,7.547l3.594,0.213l0.49-8.266
		c0.174-2.936-0.883-5.371-4.388-5.58c-2.006-0.119-3.622,0.777-4.401,2.264l0.127-2.156l-3.592-0.213l-0.785,13.207l3.595,0.213
		L698.976,887.537z M721.956,881.479l-3.35,15.189l-0.119,0.01l-1.168-14.834l-3.768,0.295l1.481,18.842l5.773-0.453l2.84-14.006
		l0.09-0.008l5.204,13.373l5.893-0.463l-1.482-18.842l-3.469,0.271l1.166,14.836l-0.119,0.01l-5.773-14.473L721.956,881.479z
		 M747.275,886.414c0.864,3.371,3.446,4.381,6.759,3.531c3.4-0.871,4.937-3.217,4.702-5.943l-3.243,0.521
		c0.03,1.324-0.531,2.396-1.984,2.77c-1.481,0.381-2.461-0.299-2.825-1.723l-0.075-0.291l3.338-1.598
		c2.758-1.326,4.473-2.85,3.848-5.291c-0.567-2.209-2.537-3.129-5.211-2.443c-1.889,0.484-3.432,1.717-3.777,3.385
		c-0.678-1.314-1.823-1.918-3.276-1.545c-1.163,0.299-1.763,0.854-2.204,1.432l0.477,1.859c0.334-0.271,0.66-0.447,1.009-0.537
		c0.552-0.141,0.983,0.09,1.153,0.758L747.275,886.414z M749.99,882.869c-0.528-2.064,0.509-3.816,2.339-4.285
		c1.105-0.283,1.907,0.066,2.131,0.939c0.328,1.279-0.681,1.816-2.109,2.523l-2.278,1.141L749.99,882.869z M767.8,874.846
		c-0.963-2.65-2.877-2.914-4.795-2.219c-1.522,0.553-2.395,1.316-3.051,2.32l0.807,2.229c0.611-0.605,1.225-1.115,1.9-1.359
		c1.016-0.369,1.67-0.062,2.059,1.01l2.229,6.146l-3.384,1.229l0.859,2.367l3.384-1.227l1.248,3.441l2.059-0.748l-0.219-1.834
		c-0.138-1.26-0.024-2.002,1.117-2.641l0.795-0.447l-0.726-2.002l-1.777,0.645L767.8,874.846z M775.253,877.465
		c1.457,3.16,4.18,3.688,7.285,2.256c3.188-1.471,4.275-4.053,3.553-6.693l-3.094,1.098c0.267,1.297-0.092,2.453-1.453,3.082
		c-1.391,0.639-2.476,0.148-3.09-1.186l-0.127-0.271l2.995-2.176c2.472-1.801,3.886-3.609,2.83-5.896
		c-0.955-2.07-3.06-2.621-5.565-1.465c-1.771,0.816-3.065,2.307-3.105,4.01c-0.902-1.17-2.139-1.557-3.501-0.928
		c-1.09,0.502-1.58,1.158-1.91,1.805l0.806,1.744c0.277-0.328,0.567-0.561,0.894-0.711c0.519-0.238,0.983-0.09,1.272,0.537
		L775.253,877.465z M777.284,873.488c-0.892-1.936-0.188-3.846,1.529-4.637c1.035-0.477,1.887-0.275,2.264,0.541
		c0.553,1.199-0.342,1.908-1.619,2.861l-2.035,1.533L777.284,873.488z M798.251,864.855c0.565,1.586,0.41,3.252-1.289,4.27
		c-1.724,1.033-3.276,0.25-4.166-1L798.251,864.855z M790.647,865.529c-0.334-1.549,0.182-2.73,1.7-3.641
		c1.673-1.002,3.694-0.604,4.799,1.006l-8.519,5.104l0.664,1.107c1.85,3.088,5.295,4.52,9.002,2.299
		c3.396-2.033,4.402-6.135,2.26-9.711s-6.006-4.305-9.506-2.209c-2.908,1.742-3.971,4.406-3.051,7.283L790.647,865.529z
		 M797.876,873.16l-0.431,4.943l3.32-1.99l-0.677-4.279L797.876,873.16z M819.667,859.324l-3.558,2.754
		c-1.778,1.379-3.162,1.158-4.024,0.045c-0.864-1.115-0.711-2.486,1.067-3.863l3.558-2.756L819.667,859.324z M811.171,856.189
		c-1.852,1.434-3.377,1.324-4.351,0.068c-0.955-1.234-0.659-2.715,1.19-4.148l3.795-2.938l3.158,4.08L811.171,856.189z
		 M803.546,858.301c1.653,2.135,3.971,2.236,6.031,1.172c-1.412,1.51-1.632,3.578-0.326,5.262c1.892,2.443,4.754,2.807,8.524-0.113
		l6.642-5.145l-11.574-14.941l-7.021,5.438C802.337,852.672,801.544,855.715,803.546,858.301 M827.533,835.045
		c-2.004-1.984-3.847-1.402-5.282,0.049c-1.139,1.15-1.6,2.213-1.764,3.402l1.686,1.668c0.293-0.809,0.627-1.531,1.135-2.043
		c0.759-0.768,1.48-0.771,2.291,0.029l4.648,4.602l-2.531,2.559l1.791,1.771l2.531-2.559l2.603,2.574l1.54-1.557l-0.984-1.564
		c-0.663-1.078-0.879-1.799-0.121-2.863l0.526-0.744l-1.515-1.498l-1.328,1.342L827.533,835.045z M842.108,836.775l-2.434,2.775
		l2.64,2.312l2.433-2.773L842.108,836.775z M840.444,835.396l-9.947-8.723l-2.373,2.707l9.947,8.723L840.444,835.396z
		 M847.863,821.996c1.654,0.461,3.32,0.016,4.661-1.902c1.152-1.646,1.178-3.461,0.326-4.861l1.77,1.238l2.064-2.949l-10.84-7.584
		l-2.064,2.949l5.801,4.059c1.819,1.273,2.397,2.959,1.399,4.385c-0.997,1.426-2.334,1.295-4.006,0.127l-6.169-4.318l-2.064,2.951
		l5.801,4.059c1.819,1.271,2.397,2.957,1.399,4.385c-1.015,1.449-2.334,1.295-4.006,0.125l-6.17-4.316l-2.063,2.949l6.76,4.73
		c2.359,1.65,5.028,2.127,7.076-0.799C848.775,825.453,848.729,823.479,847.863,821.996 M844.917,770.307l23.405,5.637l2.968-12.322
		l-6.854-1.65l-0.914,3.791l-0.874-0.211c-5.396-1.299-8.522-3.055-7.696-6.482c0.824-3.426,4.424-3.639,9.82-2.34l14.802,3.564
		c5.323,1.281,8.484,2.891,7.642,6.391c-0.844,3.5-4.355,3.35-9.678,2.068l-2.553-0.615l-2.124,8.822l1.021,0.246
		c11.011,2.65,18.381,0.877,20.697-8.748c2.336-9.697-3.935-15.373-16.986-18.516l-6.562-1.58
		c-13.052-3.143-21.131-1.309-23.203,7.297c-0.843,3.498-0.011,7.094,3.098,8.922l-4.551-0.324L844.917,770.307z M873.968,734.246
		l0.007-0.301l25.11-9.512l0.184-8.548l-47.239-1.016l-0.185,8.623l27.518,0.592l-0.006,0.301l-27.768,10.955l-0.151,7.047
		l47.239,1.016l0.186-8.623L873.968,734.246z M879.277,689.551c5.377-1.033,9.068-0.901,9.747,2.634
		c0.68,3.535-2.701,5.025-8.078,6.057l-14.878,2.858c-5.376,1.033-9.067,0.901-9.747-2.634c-0.679-3.535,2.701-5.025,8.078-6.057
		L879.277,689.551z M878.411,708.505c13.186-2.533,19.963-7.807,18.053-17.749c-1.924-10.017-10.172-12.404-23.356-9.872
		l-6.187,1.189c-13.185,2.531-19.961,7.805-18.039,17.821c1.91,9.943,10.16,12.33,23.344,9.798L878.411,708.505z M852.229,655.595
		l-2.503,1.012c-8.762,3.541-11.23,10.04-8.252,17.411c2.923,7.231,9.215,10.188,17.072,7.013c6.744-2.726,8.428-7.369,9.365-13.654
		l0.901-4.975c0.491-2.787,1.418-4.699,4.338-5.88c2.851-1.153,5.206-0.729,6.19,1.704c1.123,2.782-0.457,4.877-4.42,6.479
		l-2.572,1.041l3.062,7.578l2.504-1.012c8.414-3.4,11.373-9.289,8.31-16.867c-2.839-7.023-9.533-9.576-16.834-6.625
		c-7.302,2.951-8.774,7.914-9.702,13.225l-0.833,4.543c-0.67,3.345-1.108,5.464-4.237,6.729c-2.92,1.18-5.193,0.562-6.261-2.08
		c-1.181-2.92,0.565-5.406,4.319-6.924l2.644-1.068L852.229,655.595z M829.679,621.635l-2.174,1.603
		c-7.607,5.605-8.385,12.515-3.668,18.914c4.627,6.278,11.457,7.582,18.278,2.553c5.857-4.316,6.333-9.232,5.681-15.553
		l-0.362-5.043c-0.218-2.822,0.206-4.904,2.741-6.772c2.476-1.825,4.861-2,6.42,0.112c1.779,2.416,0.769,4.838-2.672,7.373
		l-2.234,1.647l4.85,6.581l2.174-1.602c7.306-5.385,8.709-11.823,3.859-18.404c-4.494-6.098-11.613-6.907-17.951-2.235
		c-6.341,4.673-6.533,9.847-6.113,15.22l0.322,4.607c0.18,3.407,0.282,5.568-2.435,7.57c-2.535,1.869-4.89,1.835-6.581-0.461
		c-1.869-2.534-0.795-5.377,2.465-7.778l2.294-1.69L829.679,621.635z M828.136,603.566l8.482-18.186l-7.063-6.501l-12.782,29.722
		l-11.327,12.307l6.622,6.095l11.327-12.306l28.563-15.195l-6.731-6.197L828.136,603.566z M793.548,611.035l21.494-33.258
		l7.621,4.926l4.152-6.426L803.949,561.5l-4.151,6.425l7.433,4.803l-21.494,33.26L793.548,611.035z M773.169,598.779l15.424-36.473
		l8.359,3.535l2.979-7.046l-25.075-10.604l-2.98,7.047l8.151,3.446l-15.424,36.472L773.169,598.779z M759.906,584.667l-12.647-3.216
		l3.123-12.284l9.377,2.384l1.885-7.414l-9.377-2.384l2.863-11.267l12.504,3.178l1.884-7.414l-21.297-5.414l-11.642,45.793
		l21.442,5.451L759.906,584.667z M721.204,545.061l2.618,0.189c4.489,0.323,5.347,3.017,5.089,6.606
		c-0.259,3.592-1.478,5.909-5.967,5.586l-2.617-0.188L721.204,545.061z M722.732,564.572c4.563,0.328,5.657,2.889,5.367,6.929
		c-0.298,4.114-1.735,6.341-6.298,6.013l-2.918-0.21l0.932-12.942L722.732,564.572z M736.937,573.039
		c0.452-6.284-2.41-10.4-7.945-11.852c4.698-0.488,8.189-4.072,8.604-9.833c0.533-7.405-2.467-12.735-12.266-13.44l-12.568-0.904
		l-3.393,47.128l12.793,0.921C731.886,585.758,736.345,581.267,736.937,573.039"/>
</g>
</svg>
