<?xml version="1.0" encoding="utf-8"?>
<!-- Generator: Adobe Illustrator 16.0.4, SVG Export Plug-In . SVG Version: 6.00 Build 0)  -->
<!DOCTYPE svg PUBLIC "-//W3C//DTD SVG 1.1//EN" "http://www.w3.org/Graphics/SVG/1.1/DTD/svg11.dtd">
<svg version="1.1" id="Ebene_1" xmlns="http://www.w3.org/2000/svg" xmlns:xlink="http://www.w3.org/1999/xlink" x="0px" y="0px"
	 width="1440px" height="1440px" viewBox="0 0 1440 1440" enable-background="new 0 0 1440 1440" xml:space="preserve">
<g>
	<defs>
		<rect id="SVGID_1_" x="430.831" y="12.971" width="997.169" height="1425.029"/>
	</defs>
	<clipPath id="SVGID_2_">
		<use xlink:href="#SVGID_1_"  overflow="visible"/>
	</clipPath>
	<path clip-path="url(#SVGID_2_)" fill="#231F20" d="M794.308,131.711"/>
</g>
<path fill="none" stroke="#231F20" d="M794.308,131.711"/>
<path fill="none" stroke="#231F20" d="M793.308,139.711"/>
<g>
	<defs>
		<rect id="SVGID_3_" x="432.688" y="6.486" width="997.175" height="1425.03"/>
	</defs>
	<clipPath id="SVGID_4_">
		<use xlink:href="#SVGID_3_"  overflow="visible"/>
	</clipPath>
	<path clip-path="url(#SVGID_4_)" fill="#231F20" d="M711.171,725.227"/>
</g>
<path fill="none" stroke="#231F20" d="M711.171,725.227"/>
<g>
	<defs>
		<rect id="SVGID_5_" x="432.688" y="6.486" width="997.175" height="1425.03"/>
	</defs>
	<clipPath id="SVGID_6_">
		<use xlink:href="#SVGID_5_"  overflow="visible"/>
	</clipPath>
	<path clip-path="url(#SVGID_6_)" fill="#231F20" d="M711.171,725.227"/>
</g>
<path fill="none" stroke="#231F20" d="M711.171,725.227"/>
<g>
	<defs>
		<rect id="SVGID_7_" x="711" y="267.514" width="444.402" height="835.33"/>
	</defs>
	<clipPath id="SVGID_8_">
		<use xlink:href="#SVGID_7_"  overflow="visible"/>
	</clipPath>
	<path clip-path="url(#SVGID_8_)" fill="#0000FF" d="M1066.078,987.514l-1.102,1.463c-0.988-0.781-0.993-1.426-0.264-2.49
		l-1.486-1.119c-1.691,2.293-1.376,3.92,0.611,5.418l2.756,2.078l2.384-3.164L1066.078,987.514z M1070.58,981.297l-1.064,1.488
		c-1.007-0.758-1.027-1.398-0.326-2.482l-1.513-1.084c-1.634,2.336-1.279,3.955,0.745,5.404l2.807,2.006l2.305-3.221
		L1070.58,981.297z M1072.922,973.684c-1.762-1.195-2.163-3.062-0.883-4.947c1.297-1.912,3.18-2.23,4.942-1.033
		c1.713,1.162,2.138,3.045,0.858,4.932C1076.576,974.496,1074.609,974.83,1072.922,973.684 M1066.611,964.871
		c1.146-1.688,2.67-1.959,4.271-1.162l1.896-2.955c-3.214-1.783-6.425-0.844-8.615,2.383c-3.015,4.443-1.021,8.986,3.819,12.271
		c4.866,3.301,9.452,3.115,12.349-1.156c2.393-3.525,1.875-7.355-1.401-9.58c-3.054-2.072-6.604-1.434-8.912,1.967
		c-1.397,2.061-1.382,4.174-0.413,5.738C1066.386,970.121,1064.928,967.354,1066.611,964.871 M1086.033,955.016l-1.877,3
		l-11.547-7.223l-1.988,3.178l16.071,10.059l1.464-2.34c-1.312-1.637-1.438-3.131-0.037-5.367L1086.033,955.016z M1091.127,949.725
		l-0.934,1.574c-1.068-0.668-1.144-1.305-0.539-2.445l-1.6-0.947c-1.426,2.467-0.934,4.049,1.209,5.316l2.969,1.76l2.018-3.408
		L1091.127,949.725z M1095.315,939.197l-1.766,3.068l-11.804-6.795l-1.871,3.25l16.433,9.459l1.377-2.393
		c-1.372-1.586-1.554-3.074-0.237-5.363L1095.315,939.197z M1112.115,909.941l-1.562,3.344l3.181,1.484l1.561-3.344
		L1112.115,909.941z M1110.133,909.082l-11.987-5.598l-1.524,3.262l11.988,5.598L1110.133,909.082z M1111.189,900.191l-4.654-9.568
		l-2.252-0.988l-4.621,10.555l2.446,1.07l2.888-6.596l4.605,9.678l2.253,0.988l4.476-10.225l-2.446-1.07L1111.189,900.191z
		 M1115.598,880.32c2.064,0.816,2.984,2.406,2.312,4.107c-0.65,1.646-2.037,1.971-3.934,1.221l-7.003-2.768l-1.323,3.348
		l7.674,3.031c2.733,1.082,5.439,0.764,6.74-2.527c0.729-1.844,0.396-3.779-0.756-4.945l2.009,0.795l1.323-3.35l-12.305-4.861
		l-1.322,3.348L1115.598,880.32z M1122.424,863.854c1.455,0.844,2.414,2.217,1.775,4.09c-0.646,1.902-2.339,2.311-3.826,1.93
		L1122.424,863.854z M1117.058,869.283c-1.256-0.967-1.628-2.201-1.058-3.877c0.629-1.848,2.429-2.85,4.312-2.334l-3.199,9.398
		l1.221,0.416c3.408,1.16,6.963,0.025,8.355-4.062c1.276-3.75-0.607-7.529-4.554-8.871c-3.948-1.344-7.366,0.598-8.681,4.459
		c-1.092,3.209-0.181,5.928,2.381,7.529L1117.058,869.283z M1130.313,848.514c1.714-0.1,3.146-1.061,3.793-3.311
		c0.556-1.93-0.01-3.654-1.269-4.703l2.076,0.598l0.996-3.461l-12.716-3.656l-0.995,3.459l6.805,1.957
		c2.133,0.613,3.227,2.021,2.746,3.693c-0.481,1.672-1.789,1.982-3.75,1.418l-7.235-2.082l-0.996,3.461l6.804,1.957
		c2.135,0.613,3.228,2.021,2.746,3.693c-0.488,1.701-1.787,1.982-3.748,1.418l-7.236-2.082l-0.996,3.461l7.929,2.281
		c2.769,0.795,5.446,0.381,6.435-3.051C1132.299,851.488,1131.613,849.637,1130.313,848.514 M1132.738,830.67
		c3.387,0.801,5.48-1.016,6.269-4.344c0.808-3.416-0.556-5.865-3.079-6.926l-1.044,3.113c1.186,0.588,1.875,1.584,1.53,3.045
		c-0.353,1.488-1.408,2.039-2.838,1.701l-0.293-0.068l0.135-3.697c0.107-3.059-0.444-5.285-2.897-5.865
		c-2.219-0.525-3.948,0.791-4.584,3.479c-0.448,1.896-0.075,3.836,1.241,4.918c-1.477-0.012-2.544,0.723-2.891,2.182
		c-0.275,1.168-0.062,1.959,0.244,2.617l1.869,0.441c-0.086-0.42-0.09-0.791-0.007-1.143c0.131-0.553,0.535-0.828,1.206-0.67
		L1132.738,830.67z M1130.86,826.619c-2.073-0.492-3.143-2.225-2.708-4.064c0.264-1.107,0.947-1.654,1.823-1.447
		c1.284,0.303,1.292,1.445,1.254,3.039l-0.048,2.549L1130.86,826.619z M1127.733,814.777l12.138-6.119l6.521,9.189l0.855-4.295
		l-6.811-9.584l8.385,1.668l0.732-3.678l-18.536-3.689l-0.731,3.678l6.148,1.225l1.591,2.305l-9.415,4.887L1127.733,814.777z
		 M1138.354,779.086l1.188,1.707l-6.478,3.711l-0.562,4.072l8.67-4.893l4.466,6.49l0.594-4.311l-4.491-6.311l10.877,1.498
		l0.491-3.566l-18.723-2.578l-0.491,3.564L1138.354,779.086z M1142.59,758.305c-4.184-0.373-7.192,2.279-7.555,6.344
		c-0.351,3.914,2.026,6.295,5.168,6.877l0.539-2.994c-1.979-0.447-3.135-1.666-2.959-3.639c0.176-1.971,1.764-3.215,4.483-2.973
		c2.748,0.246,4.09,1.752,3.913,3.725c-0.176,1.973-1.5,2.969-3.496,3.061l-0.061,3.037c3.193-0.016,5.957-1.938,6.306-5.852
		C1149.293,761.826,1146.772,758.68,1142.59,758.305 M1151.842,751.545l-0.241,3.682l3.502,0.23l0.241-3.682L1151.842,751.545z
		 M1149.682,751.465l-13.201-0.865l-0.234,3.594l13.201,0.863L1149.682,751.465z M1144.179,737.598
		c2.218,0.092,3.608,1.289,3.534,3.119c-0.074,1.768-1.276,2.529-3.315,2.445l-7.522-0.312l-0.149,3.598l8.243,0.34
		c2.938,0.123,5.389-1.066,5.535-4.604c0.082-1.979-0.867-3.699-2.34-4.422l2.158,0.09l0.15-3.596l-13.219-0.549l-0.149,3.596
		L1144.179,737.598z M1144.317,719.965c2.22-0.014,3.667,1.117,3.679,2.947c0.012,1.77-1.153,2.586-3.193,2.6l-7.53,0.047
		l0.022,3.602l8.25-0.053c2.94-0.02,5.332-1.324,5.31-4.865c-0.013-1.98-1.043-3.652-2.548-4.303l2.16-0.014l-0.023-3.6
		l-13.229,0.084l0.023,3.6L1144.317,719.965z M1145.551,710.828c3.477-0.148,5.001-2.464,4.855-5.881
		c-0.148-3.507-2.125-5.495-4.841-5.83l-0.161,3.278c1.301,0.245,2.235,1.018,2.299,2.516c0.064,1.529-0.802,2.346-2.271,2.409
		l-0.3,0.012l-0.873-3.596c-0.727-2.973-1.862-4.967-4.379-4.859c-2.278,0.096-3.586,1.833-3.469,4.591
		c0.082,1.948,0.967,3.712,2.527,4.397c-1.425,0.39-2.253,1.386-2.189,2.885c0.051,1.199,0.471,1.902,0.944,2.452l1.919-0.081
		c-0.197-0.382-0.302-0.738-0.316-1.098c-0.025-0.569,0.289-0.943,0.979-0.973L1145.551,710.828z M1142.645,707.437
		c-2.128,0.091-3.627-1.287-3.707-3.176c-0.049-1.139,0.462-1.852,1.361-1.89c1.318-0.056,1.635,1.042,2.031,2.587l0.645,2.465
		L1142.645,707.437z M1146.711,689.244l7.584-5.741l-0.326-4.157l-11.001,8.206l-7.269,0.571l0.287,3.648l7.268-0.57l12.147,6.389
		l-0.317-4.038L1146.711,689.244z M1136.347,664.229c-2.793,0.391-3.447,2.208-3.165,4.229c0.225,1.604,0.789,2.616,1.635,3.467
		l2.348-0.327c-0.465-0.723-0.836-1.428-0.936-2.142c-0.148-1.069,0.285-1.646,1.414-1.802l6.477-0.905l0.498,3.566l2.496-0.35
		l-0.498-3.564l3.625-0.507l-0.303-2.169l-1.841-0.167c-1.259-0.127-1.963-0.392-2.349-1.641l-0.273-0.871l-2.109,0.295l0.262,1.872
		L1136.347,664.229z M1147.016,654.24l0.555,3.647l3.471-0.527l-0.556-3.648L1147.016,654.24z M1144.89,654.623l-13.08,1.988
		l0.541,3.559l13.08-1.987L1144.89,654.623z M1140.031,640.939c1.475-0.881,2.301-2.395,1.838-4.688
		c-0.398-1.97-1.695-3.239-3.297-3.588l2.118-0.428l-0.713-3.529l-12.968,2.621l0.713,3.527l6.939-1.401
		c2.176-0.44,3.795,0.304,4.141,2.01c0.344,1.705-0.672,2.584-2.671,2.988l-7.382,1.491l0.713,3.528l6.941-1.401
		c2.176-0.44,3.795,0.304,4.139,2.01c0.351,1.735-0.672,2.584-2.67,2.988l-7.381,1.49l0.713,3.529l8.086-1.634
		c2.822-0.571,5.009-2.175,4.302-5.675C1143.164,642.662,1141.703,641.335,1140.031,640.939 M1103.664,605.409l22.838-7.62
		l-4.012-12.023l-6.688,2.231l1.234,3.699l-0.854,0.284c-5.265,1.758-8.847,1.925-9.961-1.42c-1.116-3.344,1.823-5.432,7.089-7.188
		l14.443-4.819c5.193-1.731,8.727-2.042,9.865,1.373c1.141,3.415-1.92,5.147-7.112,6.88l-2.49,0.831l2.872,8.608l0.996-0.332
		c10.742-3.584,16.054-8.993,12.921-18.384c-3.157-9.462-11.481-10.954-24.218-6.706l-6.402,2.137
		c-12.734,4.248-18.615,10.085-15.814,18.479c1.14,3.414,3.748,6.023,7.354,5.928l-4.031,2.135L1103.664,605.409z M1110.183,558.047
		l-0.119-0.276l18.851-19.12l-3.399-7.846l-43.354,18.786l3.43,7.914l25.256-10.943l0.119,0.274l-20.663,21.542l2.803,6.469
		l43.354-18.787l-3.43-7.914L1110.183,558.047z M1073.107,533.582c4.922,9.36,12.299,9.21,20.862,4.708l28.015-14.728l-4.433-8.432
		l-28.545,15.007c-4.581,2.408-7.487,3.005-9.128-0.116c-1.641-3.119,0.533-5.109,5.113-7.518l28.547-15.007l-4.434-8.431
		l-28.014,14.728C1072.527,518.295,1068.187,524.221,1073.107,533.582 M1090.086,482.417l1.393,2.224
		c2.389,3.814,0.723,6.098-2.329,8.009c-3.051,1.91-5.642,2.296-8.03-1.519l-1.395-2.225L1090.086,482.417z M1075.24,495.167
		c2.428,3.877,1.008,6.271-2.425,8.421c-3.496,2.19-6.144,2.343-8.571-1.534l-1.554-2.478l10.996-6.888L1075.24,495.167z
		 M1076.791,511.629c5.338-3.344,6.972-8.084,4.875-13.408c3.168,3.503,8.121,4.205,13.016,1.14
		c6.292-3.941,8.822-9.51,3.607-17.835l-6.689-10.679l-40.042,25.083l6.808,10.869
		C1063.541,515.062,1069.799,516.009,1076.791,511.629 M1080.562,455.418l-38.378,27.563l5.425,7.553l38.379-27.563
		L1080.562,455.418z M1045.723,474.599l-8.141-10.2l9.908-7.905l6.034,7.562l5.979-4.771l-6.034-7.563l9.087-7.251l8.046,10.084
		l5.979-4.771l-13.707-17.178l-36.933,29.472l13.8,17.294L1045.723,474.599z M1030.143,428.597l10.665-9.676l1.108,1.222
		c3.326,3.667,2.597,6.658-0.848,9.782c-3.889,3.527-6.492,3.561-9.818-0.105L1030.143,428.597z M1023.209,458.683
		c0.966-2.395,2.961-4.104,7.152-8.412c4.131-4.152,5.896-7.678,3.354-12.155c3.836,3.001,8.724,2.92,14.168-2.019
		c6.166-5.593,7.299-12.494,0.445-20.048l-8.113-8.943l-34.996,31.746l6.148,6.777l13.332-12.094l1.31,1.444
		c2.721,3,1.487,5.435-1.921,8.933c-4.188,4.203-6.031,6.078-7.077,7.938L1023.209,458.683z M987.979,422.358l13.979-14.756
		l6.586,6.242l-13.978,14.754l6.751,6.397l32.496-34.301l-6.751-6.396l-13.256,13.992l-6.588-6.241l13.256-13.993l-6.751-6.396
		l-32.496,34.301L987.979,422.358z M984.511,378.282c3.456-4.246,6.215-6.449,8.948-4.223c2.793,2.272,1.08,5.327-2.377,9.573
		l-2.697,3.315l7.037,5.729l1.232-1.512c7.148-8.783,9.381-16.636,1.762-22.838c-7.91-6.439-15.623-3.143-24.098,7.269l-4.261,5.236
		c-8.476,10.411-10.138,18.632-2.226,25.071c7.619,6.201,14.854,2.421,22.004-6.362l1.23-1.512l-7.037-5.729l-2.699,3.315
		c-3.457,4.247-6.1,6.544-8.892,4.271c-2.733-2.225-1.138-5.374,2.318-9.621L984.511,378.282z M943.076,366.9l-1.545,2.215
		c-5.402,7.754-3.918,14.546,2.604,19.091c6.399,4.459,13.284,3.498,18.13-3.455c4.159-5.969,3.031-10.778,0.382-16.554
		l-1.964-4.659c-1.111-2.603-1.38-4.71,0.421-7.294c1.759-2.523,3.961-3.456,6.115-1.955c2.461,1.715,2.282,4.333-0.161,7.84
		l-1.586,2.277l6.707,4.674l1.543-2.216c5.188-7.445,4.449-13.994-2.258-18.667c-6.215-4.331-13.217-2.81-17.719,3.651
		s-3.022,11.423-0.898,16.376l1.785,4.261c1.267,3.167,2.057,5.181,0.128,7.95c-1.802,2.585-4.042,3.308-6.38,1.679
		c-2.586-1.801-2.481-4.836-0.165-8.159l1.629-2.338L943.076,366.9z M935.811,372.519l-11.23-6.649l6.459-10.907l8.324,4.93
		l3.897-6.583l-8.325-4.929l5.922-10.004l11.102,6.572l3.896-6.582l-18.908-11.196l-24.072,40.659l19.037,11.272L935.811,372.519z
		 M912.379,322.567l2.337,1.196c4.005,2.052,3.743,4.867,2.102,8.071c-1.641,3.204-3.67,4.862-7.675,2.81l-2.336-1.197
		L912.379,322.567z M906.162,341.123c4.071,2.086,4.078,4.87,2.231,8.475c-1.881,3.671-4.076,5.159-8.147,3.074l-2.604-1.334
		l5.915-11.548L906.162,341.123z M915.927,354.467c2.872-5.608,1.846-10.515-2.681-14.014c4.514,1.386,9.129-0.548,11.761-5.688
		c3.385-6.609,2.706-12.687-6.038-17.166l-11.215-5.744l-21.541,42.054l11.414,5.847
		C906.306,364.202,912.166,361.81,915.927,354.467 M880.849,351.55l9.387-22.17l-11.672-4.942l-2.749,6.492l3.592,1.521
		l-0.352,0.829c-2.163,5.111-4.406,7.907-7.652,6.533s-2.867-4.961-0.703-10.071l5.936-14.021c2.134-5.041,4.238-7.897,7.554-6.493
		c3.315,1.403,2.593,4.844,0.457,9.885l-1.022,2.418l8.355,3.538l0.41-0.967c4.415-10.429,3.87-17.99-5.247-21.85
		c-9.185-3.889-15.81,1.37-21.044,13.732l-2.632,6.216c-5.234,12.363-4.744,20.633,3.405,24.083c3.314,1.404,6.998,1.171,9.31-1.596
		l-1.063,4.436L880.849,351.55z M857.181,333.502l-12.354-4.206l4.086-11.998l9.158,3.118l2.467-7.242l-9.16-3.118l3.748-11.005
		l12.211,4.158l2.466-7.242l-20.804-7.082l-15.228,44.729l20.944,7.131L857.181,333.502z M824.471,310.16l-0.291-0.073l2.6-27.487
		l-6.768-1.687l-10.532,25.51l-0.291-0.072l2.599-27.487l-8.586-2.141l-3.713,47.77l8.441,2.104l10.078-24.618l0.291,0.072
		l-2.582,26.487l8.441,2.104l19.141-43.925l-8.297-2.067L824.471,310.16z M780.646,313.027l-12.928-1.78l1.729-12.557l9.584,1.32
		l1.043-7.578l-9.584-1.32l1.586-11.517l12.779,1.76l1.044-7.578l-21.771-2.998l-6.445,46.808l21.918,3.019L780.646,313.027z
		 M747.472,269.227l-4.208,47.062l9.263,0.829l4.208-47.063L747.472,269.227z M740.072,288.351
		c0.533-12.889-3.529-19.889-13.572-20.305l-12.813-0.531l-1.957,47.209l12.813,0.531c10.041,0.417,14.67-6.222,15.205-19.111
		L740.072,288.351z M730.191,298.524c-0.273,6.594-2.046,9.523-6.467,9.34l-2.398-0.099l1.349-32.522l2.397,0.099
		c4.422,0.183,5.945,3.249,5.672,9.843L730.191,298.524z"/>
</g>
</svg>
