<?xml version="1.0" encoding="utf-8"?>
<!-- Generator: Adobe Illustrator 16.0.4, SVG Export Plug-In . SVG Version: 6.00 Build 0)  -->
<!DOCTYPE svg PUBLIC "-//W3C//DTD SVG 1.1//EN" "http://www.w3.org/Graphics/SVG/1.1/DTD/svg11.dtd">
<svg version="1.1" id="Ebene_1" xmlns="http://www.w3.org/2000/svg" xmlns:xlink="http://www.w3.org/1999/xlink" x="0px" y="0px"
	 width="1440px" height="1440px" viewBox="0 0 1440 1440" enable-background="new 0 0 1440 1440" xml:space="preserve">
<g>
	<defs>
		<rect id="SVGID_1_" x="430.831" y="12.971" width="997.169" height="1425.029"/>
	</defs>
	<clipPath id="SVGID_2_">
		<use xlink:href="#SVGID_1_"  overflow="visible"/>
	</clipPath>
	<path clip-path="url(#SVGID_2_)" fill="#231F20" d="M794.308,131.711"/>
</g>
<path fill="none" stroke="#231F20" d="M794.308,131.711"/>
<g>
	<defs>
		<rect id="SVGID_3_" x="430.831" y="12.971" width="997.169" height="1425.029"/>
	</defs>
	<clipPath id="SVGID_4_">
		<use xlink:href="#SVGID_3_"  overflow="visible"/>
	</clipPath>
	<path clip-path="url(#SVGID_4_)" fill="#231F20" d="M793.308,139.711"/>
</g>
<path fill="none" stroke="#231F20" d="M793.308,139.711"/>
<g>
	<defs>
		<rect id="SVGID_5_" x="432.688" y="6.486" width="997.175" height="1425.03"/>
	</defs>
	<clipPath id="SVGID_6_">
		<use xlink:href="#SVGID_5_"  overflow="visible"/>
	</clipPath>
	<path clip-path="url(#SVGID_6_)" fill="#231F20" d="M711.171,725.227"/>
</g>
<path fill="none" stroke="#231F20" d="M711.171,725.227"/>
<g>
	<defs>
		<rect id="SVGID_7_" x="432.688" y="6.486" width="997.175" height="1425.03"/>
	</defs>
	<clipPath id="SVGID_8_">
		<use xlink:href="#SVGID_7_"  overflow="visible"/>
	</clipPath>
	<path clip-path="url(#SVGID_8_)" fill="#231F20" d="M711.171,725.227"/>
</g>
<path fill="none" stroke="#231F20" d="M711.171,725.227"/>
<g>
	<defs>
		<rect id="SVGID_9_" x="432.688" y="6.486" width="997.175" height="1425.03"/>
	</defs>
	<clipPath id="SVGID_10_">
		<use xlink:href="#SVGID_9_"  overflow="visible"/>
	</clipPath>
	<path clip-path="url(#SVGID_10_)" fill="#0000FF" d="M704.632,1362.672l-1.836-0.02c0.043-1.262,0.559-1.648,1.853-1.695
		l0.019-1.865c-2.857,0.002-3.983,1.223-4.008,3.721l-0.035,3.459l3.972,0.041L704.632,1362.672z M711.946,1362.709l-1.835-0.008
		c0.035-1.264,0.548-1.652,1.843-1.709l0.006-1.865c-2.858,0.021-3.977,1.25-3.985,3.746l-0.013,3.461l3.971,0.016L711.946,1362.709
		z M716.374,1366.322l11.463-0.172c0.043-3.131,0.631-8.045,1.072-10.668l-3.674-0.217c-0.586,1.033-1.627,1.891-3.311,1.916
		c-2.197,0.033-3.484-1.514-3.516-3.559c-0.033-2.227,1.301-3.631,3.437-3.662c2.347-0.035,3.632,1.391,3.666,3.676l3.675,0.217
		c0.086-4.275-2.572-7.004-7.357-6.932c-4.15,0.062-7.029,2.725-6.969,6.785c0.055,3.58,2.293,6.436,6.656,6.369
		c1.895-0.027,3.178-0.74,3.949-1.533c-0.168,0.846-0.461,3.377-0.477,4.311l-8.664,0.129L716.374,1366.322z M740.659,1349.844
		l-2.894,2.545c-2.749,2.416-4.994,4.66-4.839,7.996c0.156,3.365,2.561,5.844,7.068,5.635c4.178-0.195,6.855-2.881,6.67-6.848
		c-0.026-0.57-0.145-1.168-0.293-1.764l-3.733,0.023c0.174,0.504,0.258,1.012,0.287,1.643c0.103,2.195-0.882,3.688-2.986,3.785
		c-2.044,0.094-3.004-1.127-3.085-2.869c-0.107-2.285,1.446-3.863,4.277-6.465l5.087-4.604l-0.117-2.525l-14.276,0.664l0.147,3.186
		L740.659,1349.844z M755.661,1361.102l-1.832,0.121c-0.053-1.264,0.433-1.688,1.719-1.832l-0.121-1.861
		c-2.85,0.217-3.881,1.52-3.717,4.012l0.226,3.453l3.963-0.26L755.661,1361.102z M766.564,1348.059l-2.796,2.65
		c-2.654,2.52-4.814,4.846-4.532,8.174c0.283,3.357,2.78,5.744,7.277,5.363c4.168-0.352,6.739-3.135,6.405-7.094
		c-0.047-0.57-0.188-1.162-0.359-1.75l-3.73,0.164c0.193,0.496,0.297,1.002,0.35,1.631c0.186,2.189-0.742,3.717-2.842,3.895
		c-2.039,0.172-3.045-1.012-3.191-2.75c-0.191-2.279,1.3-3.914,4.03-6.621l4.909-4.793l-0.213-2.52l-14.24,1.203l0.268,3.178
		L766.564,1348.059z M806.413,1355.473l-3.65,0.543l0.516,3.471l3.65-0.541L806.413,1355.473z M806.036,1353.346l-1.945-13.086
		l-3.561,0.527l1.944,13.086L806.036,1353.346z M813.905,1349.396l5.461-9.131l-0.408-2.426l-11.36,1.908l0.442,2.635l7.101-1.195
		l-5.58,9.152l0.408,2.426l11.006-1.85l-0.442-2.633L813.905,1349.396z M832.736,1342.455c0.423,2.18-0.421,3.811-2.218,4.158
		c-1.736,0.338-2.755-0.656-3.145-2.658l-1.436-7.393l-3.533,0.688l1.572,8.098c0.561,2.887,2.285,4.996,5.76,4.32
		c1.943-0.377,3.398-1.697,3.76-3.297l0.412,2.121l3.534-0.688l-2.522-12.986l-3.534,0.686L832.736,1342.455z M849.817,1339.746
		c0.033,1.684-0.642,3.215-2.576,3.643c-1.963,0.432-3.188-0.803-3.634-2.271L849.817,1339.746z M842.392,1337.977
		c0.175-1.576,1.038-2.533,2.768-2.916c1.903-0.42,3.694,0.598,4.232,2.477l-9.697,2.141l0.278,1.26
		c0.776,3.514,3.59,5.965,7.81,5.035c3.866-0.854,6.119-4.424,5.221-8.496s-4.332-5.986-8.315-5.107
		c-3.312,0.73-5.162,2.92-5.202,5.941L842.392,1337.977z M866.618,1338.725c0.951,1.43,2.504,2.182,4.772,1.605
		c1.948-0.496,3.151-1.854,3.421-3.471l0.532,2.094l3.489-0.887l-3.258-12.822l-3.49,0.887l1.744,6.861
		c0.547,2.152-0.117,3.807-1.803,4.234c-1.688,0.43-2.615-0.541-3.117-2.52l-1.854-7.299l-3.49,0.887l1.744,6.863
		c0.547,2.152-0.116,3.807-1.803,4.234c-1.715,0.436-2.614-0.543-3.116-2.521l-1.854-7.297l-3.49,0.887l2.033,7.996
		c0.709,2.791,2.42,4.895,5.879,4.016C865.053,1341.939,866.305,1340.414,866.618,1338.725 M882.87,1331.943
		c0.963,3.344,3.574,4.277,6.86,3.33c3.373-0.971,4.839-3.359,4.524-6.078l-3.225,0.617c0.068,1.322-0.462,2.41-1.902,2.826
		c-1.471,0.424-2.469-0.227-2.877-1.639l-0.082-0.289l3.289-1.695c2.717-1.406,4.387-2.98,3.688-5.402
		c-0.631-2.189-2.627-3.053-5.278-2.289c-1.875,0.541-3.381,1.818-3.678,3.494c-0.716-1.291-1.879-1.861-3.32-1.447
		c-1.153,0.332-1.736,0.906-2.16,1.496l0.531,1.846c0.325-0.281,0.646-0.467,0.992-0.566c0.547-0.158,0.985,0.059,1.176,0.723
		L882.87,1331.943z M885.479,1328.318c-0.589-2.045,0.396-3.828,2.212-4.352c1.095-0.314,1.908,0.014,2.157,0.877
		c0.365,1.27-0.627,1.836-2.034,2.584l-2.243,1.209L885.479,1328.318z M894.204,1319.818l11.252,7.625l-4.853,10.17l4.169-1.344
		l5.057-10.615l2.623,8.137l3.569-1.15l-5.801-17.988l-3.569,1.152l1.926,5.967l-1.24,2.512l-8.852-5.846L894.204,1319.818z
		 M930.277,1312.287l-0.954,1.85l-6.309-3.99l-3.861,1.408l8.379,5.375l-3.648,6.982l4.087-1.49l3.479-6.922l3.762,10.316
		l3.382-1.234l-6.476-17.756l-3.383,1.234L930.277,1312.287z M950.265,1306.785c-1.538-3.908-5.256-5.412-9.053-3.918
		c-3.657,1.439-4.723,4.631-3.838,7.699l2.918-0.857c-0.483-1.969,0.088-3.549,1.931-4.273c1.842-0.725,3.665,0.139,4.664,2.678
		c1.011,2.57,0.265,4.443-1.578,5.168c-1.842,0.725-3.326-0.014-4.302-1.758l-2.743,1.305c1.444,2.85,4.397,4.459,8.056,3.021
		C950.116,1314.355,951.803,1310.693,950.265,1306.785 M960.472,1311.984l-3.398,1.436l1.365,3.234l3.398-1.436L960.472,1311.984z
		 M959.575,1310.02l-5.15-12.188l-3.316,1.402l5.15,12.186L959.575,1310.02z M969.429,1299.014c0.902,2.027,0.447,3.807-1.225,4.551
		c-1.617,0.719-2.834-0.021-3.662-1.885l-3.062-6.879l-3.29,1.463l3.354,7.537c1.195,2.686,3.35,4.355,6.584,2.916
		c1.81-0.805,2.93-2.42,2.923-4.059l0.878,1.975l3.29-1.465l-5.378-12.088l-3.29,1.463L969.429,1299.014z M984.938,1291.799
		c0.953,2.004,0.541,3.795-1.112,4.578c-1.598,0.762-2.832,0.053-3.707-1.791l-3.231-6.801l-3.252,1.545l3.541,7.451
		c1.262,2.656,3.457,4.27,6.653,2.75c1.789-0.85,2.869-2.492,2.821-4.129l0.927,1.951l3.252-1.545l-5.678-11.951l-3.252,1.545
		L984.938,1291.799z M993.642,1289.119c1.59,3.096,4.332,3.508,7.374,1.945c3.122-1.605,4.099-4.232,3.267-6.838l-3.047,1.227
		c0.323,1.285,0.014,2.455-1.32,3.141c-1.36,0.699-2.467,0.256-3.138-1.053l-0.137-0.266l2.899-2.299
		c2.394-1.906,3.729-3.771,2.576-6.014c-1.041-2.027-3.166-2.486-5.621-1.227c-1.734,0.891-2.966,2.434-2.934,4.139
		c-0.951-1.131-2.203-1.465-3.537-0.779c-1.066,0.549-1.529,1.225-1.831,1.885l0.878,1.707c0.264-0.338,0.543-0.582,0.863-0.746
		c0.508-0.262,0.979-0.133,1.294,0.482L993.642,1289.119z M995.503,1285.061c-0.975-1.895-0.352-3.834,1.33-4.697
		c1.014-0.521,1.873-0.355,2.285,0.445c0.604,1.174-0.261,1.92-1.498,2.928l-1.968,1.617L995.503,1285.061z M1013.532,1281.41
		l8.34,4.574l3.66-1.996l-11.986-6.688l-3.491-6.398l-3.213,1.752l3.491,6.4l-0.866,13.697l3.556-1.939L1013.532,1281.41z
		 M1027.776,1260.816l-3.094,1.84l9.659,16.244l3.095-1.84l-4.202-7.064c1.345,1.084,3.396,1.365,5.407,0.17
		c3.378-2.008,3.552-5.707,1.559-9.059c-1.992-3.354-5.311-4.941-8.688-2.932c-2.012,1.195-2.745,3.133-2.448,4.807
		L1027.776,1260.816z M1031.001,1266.299c-1.241-2.09-0.729-4.105,1.024-5.146c1.933-1.15,3.782-0.33,5.056,1.809
		c1.287,2.166,1.125,4.184-0.809,5.334c-1.754,1.041-3.783,0.504-5.011-1.559L1031.001,1266.299z M1051.303,1254.625
		c1.192,1.873,1.005,3.699-0.538,4.684c-1.493,0.951-2.805,0.398-3.9-1.322l-4.047-6.35l-3.035,1.934l4.432,6.959
		c1.58,2.479,3.957,3.811,6.943,1.908c1.67-1.064,2.538-2.826,2.289-4.447l1.161,1.822l3.036-1.934l-7.107-11.158l-3.037,1.934
		L1051.303,1254.625z M1060.585,1247.416c-1.256-1.867-1.162-3.666,0.307-4.652c1.469-0.988,2.761-0.41,3.882,1.258l4.218,6.275
		l2.987-2.008l-4.619-6.873c-1.64-2.439-3.958-3.736-6.87-1.779c-1.669,1.121-2.412,2.812-2.131,4.467l-1.205-1.791l-2.988,2.008
		l7.381,10.98l2.988-2.01L1060.585,1247.416z M1078.872,1237.582c2.045,2.816,4.818,2.805,7.584,0.793
		c2.84-2.062,3.404-4.809,2.182-7.258l-2.822,1.68c0.516,1.221,0.389,2.424-0.824,3.307c-1.238,0.898-2.397,0.629-3.262-0.561
		l-0.177-0.242l2.514-2.717c2.074-2.248,3.107-4.297,1.626-6.336c-1.34-1.844-3.51-1.973-5.742-0.352
		c-1.578,1.146-2.559,2.861-2.266,4.539c-1.114-0.971-2.402-1.111-3.615-0.229c-0.971,0.705-1.324,1.443-1.521,2.143l1.129,1.553
		c0.21-0.375,0.448-0.658,0.739-0.871c0.461-0.334,0.945-0.279,1.352,0.279L1078.872,1237.582z M1080.089,1233.285
		c-1.252-1.723-0.934-3.732,0.596-4.844c0.923-0.67,1.798-0.639,2.327,0.088c0.776,1.068,0.037,1.939-1.031,3.123l-1.696,1.9
		L1080.089,1233.285z M1098.12,1221.393c1.358,1.756,1.338,3.592-0.108,4.713c-1.4,1.082-2.757,0.654-4.005-0.959l-4.61-5.955
		l-2.846,2.203l5.05,6.523c1.8,2.326,4.289,3.434,7.088,1.268c1.566-1.213,2.27-3.047,1.873-4.639l1.323,1.709l2.846-2.203
		l-8.098-10.463l-2.847,2.203L1098.12,1221.393z M1105.917,1217.018c2.197,2.699,4.963,2.537,7.617,0.377
		c2.723-2.215,3.135-4.988,1.779-7.365l-2.727,1.83c0.582,1.191,0.522,2.4-0.642,3.346c-1.187,0.967-2.36,0.762-3.286-0.379
		l-0.19-0.232l2.36-2.85c1.949-2.359,2.869-4.461,1.278-6.416c-1.438-1.768-3.612-1.777-5.754-0.037
		c-1.513,1.23-2.397,2.996-2.015,4.656c-1.164-0.91-2.457-0.979-3.621-0.031c-0.932,0.758-1.243,1.514-1.401,2.223l1.212,1.488
		c0.189-0.385,0.411-0.682,0.691-0.908c0.441-0.359,0.929-0.332,1.365,0.203L1105.917,1217.018z M1106.897,1212.662
		c-1.345-1.652-1.137-3.678,0.329-4.871c0.885-0.721,1.761-0.736,2.329-0.039c0.833,1.025,0.143,1.936-0.86,3.176l-1.59,1.99
		L1106.897,1212.662z M1126.872,1202.541c1.496,0.844,3.22,0.811,4.98-0.732c1.512-1.324,1.968-3.08,1.477-4.643l1.422,1.625
		l2.709-2.373l-8.717-9.951l-2.709,2.371l4.666,5.326c1.463,1.67,1.621,3.445,0.312,4.592s-2.576,0.701-3.92-0.834l-4.963-5.664
		l-2.707,2.371l4.664,5.326c1.464,1.67,1.623,3.445,0.313,4.592c-1.332,1.168-2.575,0.701-3.921-0.832l-4.961-5.664l-2.708,2.371
		l5.437,6.205c1.896,2.166,4.375,3.266,7.061,0.914C1126.933,1206.117,1127.357,1204.189,1126.872,1202.541 M1144.979,1192.338
		l-2.717,2.496l2.376,2.584l2.716-2.496L1144.979,1192.338z M1143.473,1190.787l-8.955-9.738l-2.649,2.438l8.955,9.738
		L1143.473,1190.787z M1149.079,1176.965c1.541,1.598,1.721,3.426,0.403,4.695c-1.274,1.23-2.669,0.951-4.085-0.518l-5.229-5.418
		l-2.592,2.498l5.729,5.938c2.041,2.115,4.636,2.947,7.185,0.488c1.424-1.373,1.924-3.275,1.358-4.812l1.499,1.555l2.591-2.5
		l-9.187-9.521l-2.59,2.5L1149.079,1176.965z M1153.985,1171.504c2.924,2.889,6.997,2.863,9.885-0.061
		c2.867-2.904,2.843-6.975-0.082-9.865c-2.924-2.887-6.975-2.842-9.843,0.062
		C1151.058,1164.564,1151.062,1168.615,1153.985,1171.504 M1161.237,1164.162c1.793,1.771,2.23,3.805,0.691,5.363
		c-1.561,1.578-3.6,1.166-5.393-0.605c-1.771-1.748-2.208-3.781-0.647-5.361C1157.428,1162,1159.467,1162.412,1161.237,1164.162
		 M1170.304,1148.686c-1.678-0.619-3.745-0.246-5.318,1.445c-2.697,2.898-1.867,6.498,0.989,9.154
		c2.854,2.656,6.528,3.246,9.184,0.391c1.614-1.734,1.753-3.777,0.976-5.32l6.019,5.598l2.452-2.635l-13.838-12.873l-1.88,2.021
		L1170.304,1148.686z M1173.364,1151.738c1.758,1.635,1.875,3.711,0.485,5.203c-1.553,1.67-3.558,1.404-5.403-0.314
		c-1.822-1.695-2.233-3.676-0.681-5.346c1.389-1.492,3.447-1.545,5.226,0.109L1173.364,1151.738z M1179.453,1134.66l8.287,13.164
		l-0.078,0.09l-11.252-9.736l-2.473,2.857l14.291,12.369l3.789-4.379l-7.818-11.963l0.06-0.068l13.099,5.861l3.867-4.469
		l-14.291-12.369l-2.277,2.633l11.251,9.736l-0.078,0.092l-14.274-6.244L1179.453,1134.66z M1205.851,1115.291
		c1.086,1.285,1.527,2.9,0.295,4.449c-1.251,1.574-2.979,1.387-4.252,0.529L1205.851,1115.291z M1198.969,1118.598
		c-0.856-1.334-0.79-2.621,0.311-4.008c1.213-1.527,3.246-1.865,4.848-0.746l-6.18,7.773l1.011,0.803
		c2.817,2.24,6.548,2.369,9.235-1.014c2.464-3.1,1.964-7.291-1.301-9.885c-3.264-2.596-7.137-1.918-9.675,1.275
		c-2.11,2.654-2.166,5.521-0.294,7.891L1198.969,1118.598z M1213.413,1113.939c0.498-0.111,1.064-0.512,1.554-1.158
		c1.104-1.459,0.836-3.391-0.07-4.68l2.009,1.52l2.172-2.871l-10.55-7.98l-2.172,2.871l5.215,3.945
		c1.914,1.447,2.206,3.248,1.084,4.732c-0.524,0.693-1.029,1.064-1.758,1.379L1213.413,1113.939z M1225.627,1100.668l4.202,1.061
		l2.28-3.129l-4.963-0.016L1225.627,1100.668z M1222.872,1092.684c1.139,1.238,1.646,2.834,0.48,4.434
		c-1.184,1.625-2.92,1.51-4.227,0.707L1222.872,1092.684z M1216.134,1096.273c-0.911-1.295-0.899-2.584,0.143-4.016
		c1.149-1.576,3.165-1.998,4.812-0.947l-5.85,8.023l1.043,0.762c2.909,2.119,6.642,2.092,9.186-1.398
		c2.333-3.201,1.658-7.367-1.712-9.824s-7.211-1.617-9.614,1.68c-1.997,2.74-1.934,5.607,0.036,7.896L1216.134,1096.273z
		 M1235.203,1088.098l-2.119,3.021l2.874,2.016l2.118-3.02L1235.203,1088.098z M1233.401,1086.906l-10.829-7.6l-2.067,2.945
		l10.829,7.602L1233.401,1086.906z M1242.633,1083.426l-15.662-10.58l-2.015,2.982l15.661,10.58L1242.633,1083.426z
		 M1236.854,1073.381c2.918,1.896,5.503,0.893,7.366-1.977c1.912-2.943,1.455-5.709-0.564-7.557l-2.033,2.58
		c0.918,0.953,1.232,2.123,0.415,3.381c-0.834,1.283-2.014,1.445-3.245,0.645l-0.252-0.162l1.373-3.436
		c1.132-2.844,1.362-5.127-0.751-6.5c-1.911-1.242-3.983-0.584-5.487,1.729c-1.062,1.637-1.364,3.586-0.489,5.051
		c-1.388-0.51-2.64-0.178-3.458,1.08c-0.653,1.006-0.719,1.822-0.652,2.545l1.61,1.047c0.062-0.426,0.182-0.775,0.379-1.078
		c0.311-0.479,0.783-0.6,1.362-0.225L1236.854,1073.381z M1236.451,1068.934c-1.785-1.16-2.209-3.152-1.179-4.736
		c0.621-0.957,1.45-1.242,2.204-0.75c1.107,0.719,0.729,1.797,0.156,3.285l-0.904,2.381L1236.451,1068.934z M1252.327,1053.363
		c1.682,0.354,3.315-0.197,4.531-2.197c1.044-1.717,0.952-3.527,0.013-4.871l1.847,1.121l1.87-3.074l-11.305-6.875l-1.87,3.076
		l6.05,3.678c1.896,1.154,2.582,2.799,1.678,4.287c-0.904,1.486-2.247,1.441-3.99,0.383l-6.434-3.914l-1.87,3.076l6.049,3.68
		c1.897,1.152,2.582,2.799,1.677,4.285c-0.919,1.512-2.246,1.441-3.988,0.383l-6.435-3.914l-1.87,3.076l7.049,4.287
		c2.46,1.496,5.154,1.801,7.01-1.25C1253.461,1056.754,1253.286,1054.787,1252.327,1053.363 M1259.201,1037.031
		c3.036,1.701,5.55,0.529,7.221-2.455c1.715-3.061,1.078-5.791-1.059-7.504l-1.859,2.707c0.979,0.893,1.367,2.039,0.635,3.348
		c-0.747,1.334-1.914,1.574-3.196,0.857l-0.262-0.148l1.146-3.518c0.942-2.91,1.023-5.203-1.175-6.434
		c-1.99-1.115-4.015-0.324-5.363,2.084c-0.952,1.701-1.126,3.668-0.157,5.068c-1.417-0.414-2.646-0.002-3.379,1.307
		c-0.587,1.047-0.599,1.865-0.483,2.584l1.675,0.938c0.033-0.428,0.131-0.787,0.308-1.1c0.277-0.498,0.741-0.652,1.344-0.314
		L1259.201,1037.031z M1258.509,1032.621c-1.859-1.041-2.411-3.002-1.488-4.65c0.557-0.994,1.366-1.332,2.151-0.893
		c1.151,0.645,0.845,1.744,0.37,3.268l-0.745,2.436L1258.509,1032.621z M1263.491,1010.57c-1.248,2.395-1.413,4.982,0.02,6.777
		l-2.475-1.291l-1.54,2.953l8.46,4.41l3.939-7.555l-2.474-1.289l-2.317,4.443c-1.878-1.59-2.333-4.025-1.098-6.395
		c1.706-3.271,5.048-4.1,8.639-2.227c3.511,1.83,4.746,4.979,3.15,8.037c-1.456,2.793-3.939,3.596-6.524,2.52l-1.559,3.314
		c4.409,1.859,8.525,0.453,11.051-4.387c2.455-4.709,0.845-10.252-4.315-12.943
		C1271.262,1004.234,1265.934,1005.889,1263.491,1010.57 M1273.921,990.297l-1.729,3.631l3.629,1.729l1.729-3.629L1273.921,990.297z
		 M1286.897,987.787l-9.723-4.492l-1.497,3.24l9.722,4.492l-1.484,3.213l2.287,1.057l1.485-3.213l1.253,0.578
		c1.116,0.518,1.677,1.305,1.212,2.312c-0.39,0.844-1.146,1.123-2.035,1.043l-0.288,2.412c2.146,0.361,3.798-0.494,4.805-2.672
		c1.245-2.697,0.363-5.152-2.441-6.449l-1.008-0.465l0.818-1.771l-2.288-1.057L1286.897,987.787z M1284.958,982.227
		c3.771,1.635,7.559,0.137,9.192-3.635c1.621-3.744,0.123-7.531-3.647-9.164c-3.771-1.635-7.531-0.125-9.153,3.619
		C1279.716,976.818,1281.187,980.594,1284.958,982.227 M1289.06,972.758c2.312,1.002,3.456,2.738,2.586,4.748
		c-0.883,2.037-2.932,2.393-5.245,1.391c-2.285-0.99-3.428-2.729-2.546-4.764C1284.726,972.121,1286.774,971.768,1289.06,972.758
		 M1297.183,970.146c0.454-0.234,0.898-0.764,1.208-1.514c0.697-1.691-0.054-3.494-1.258-4.51l2.33,0.961l1.371-3.33l-12.232-5.037
		l-1.372,3.328l6.047,2.49c2.22,0.914,2.96,2.582,2.252,4.301c-0.331,0.807-0.726,1.291-1.35,1.781L1297.183,970.146z
		 M1299.974,945.406l-1.365,3.557c-1.731,4.51-0.593,7.902,3.076,9.311c3.669,1.41,6.759-0.361,8.49-4.869l2.7-7.029l-17.645-6.775
		l-1.334,3.473L1299.974,945.406z M1302.831,946.502l5.881,2.26l-1.322,3.443c-1.011,2.633-2.516,3.373-4.421,2.643
		c-1.904-0.732-2.472-2.268-1.461-4.9L1302.831,946.502z M1304.127,924.309c-2.668-0.914-4.074,0.41-4.736,2.34
		c-0.525,1.533-0.479,2.689-0.109,3.832l2.242,0.77c-0.088-0.855-0.099-1.652,0.134-2.334c0.351-1.021,0.998-1.338,2.077-0.969
		l6.187,2.123l-1.168,3.404l2.384,0.818l1.168-3.404l3.462,1.186l0.71-2.072l-1.566-0.98c-1.065-0.684-1.573-1.236-1.354-2.525
		l0.149-0.9l-2.015-0.691l-0.613,1.789L1304.127,924.309z M1318.189,920.029l-1.133,3.512l3.34,1.078l1.134-3.512L1318.189,920.029z
		 M1316.115,919.424l-12.59-4.064l-1.105,3.426l12.59,4.064L1316.115,919.424z M1317.893,905.695
		c1.715-0.086,3.154-1.037,3.819-3.281c0.57-1.928,0.019-3.654-1.232-4.713l2.071,0.613l1.021-3.453l-12.685-3.756l-1.022,3.451
		l6.788,2.012c2.129,0.629,3.211,2.045,2.717,3.713c-0.493,1.668-1.803,1.969-3.759,1.391l-7.22-2.139l-1.023,3.451l6.789,2.012
		c2.129,0.629,3.211,2.045,2.718,3.713c-0.503,1.697-1.804,1.971-3.76,1.391l-7.22-2.139l-1.023,3.451l7.911,2.344
		c2.762,0.818,5.444,0.424,6.457-2.998C1319.854,908.686,1319.185,906.828,1317.893,905.695 M1330.859,846.977l14.106,2.895
		l-0.332,1.617c-0.995,4.848-3.839,6.027-8.395,5.092c-5.143-1.057-6.707-3.139-5.711-7.986L1330.859,846.977z M1302.483,859.146
		c2.504-0.635,5.061-0.035,11.013,0.805c5.791,0.883,9.679,0.227,11.79-4.471c-0.156,4.867,2.795,8.766,9.995,10.244
		c8.154,1.674,14.393-1.488,16.443-11.48l2.428-11.828l-46.286-9.5l-1.839,8.965l17.632,3.617l-0.392,1.912
		c-0.814,3.967-3.508,4.408-8.344,3.723c-5.864-0.896-8.466-1.277-10.585-1.023L1302.483,859.146z M1315.867,831.414l1.991-12.896
		l12.526,1.934l-1.477,9.562l7.562,1.168l1.476-9.562l11.489,1.773l-1.969,12.75l7.561,1.166l3.354-21.717l-46.697-7.209
		l-3.376,21.865L1315.867,831.414z M1314.385,785.289l20.203,2.229l-0.995,9.02l-20.203-2.227l-1.02,9.244l46.966,5.18l1.02-9.244
		l-19.159-2.113l0.995-9.021l19.159,2.115l1.019-9.244l-46.965-5.182L1314.385,785.289z M1347.926,756.084
		c5.467,0.295,8.871,1.23,8.682,4.75c-0.194,3.594-3.672,4.008-9.138,3.713l-4.27-0.23l-0.488,9.062l1.947,0.105
		c11.309,0.609,18.972-2.207,19.5-12.018c0.55-10.186-6.655-14.48-20.061-15.203l-6.741-0.363
		c-13.405-0.723-21.029,2.771-21.578,12.957c-0.528,9.811,6.786,13.436,18.096,14.045l1.946,0.105l0.489-9.062l-4.269-0.229
		c-5.468-0.297-8.881-1.08-8.687-4.676c0.19-3.52,3.675-4.084,9.142-3.789L1347.926,756.084z M1364.516,732.154l-47.244-0.771
		l-0.151,9.299l47.243,0.771L1364.516,732.154z M1333.279,702.865l-2.7,0.041c-9.448,0.143-14.097,5.312-13.977,13.261
		c0.117,7.8,4.918,12.828,13.392,12.701c7.275-0.109,10.52-3.834,13.661-9.356l2.635-4.316c1.465-2.422,3.019-3.87,6.168-3.918
		c3.074-0.046,5.118,1.198,5.157,3.823c0.045,3-2.184,4.383-6.458,4.447l-2.774,0.042l0.123,8.174l2.7-0.041
		c9.073-0.137,13.956-4.561,13.834-12.735c-0.114-7.574-5.437-12.369-13.311-12.251c-7.874,0.119-11.038,4.217-13.819,8.834
		l-2.416,3.937c-1.832,2.879-3.005,4.696-6.379,4.747c-3.149,0.049-5.046-1.349-5.089-4.198c-0.047-3.15,2.478-4.838,6.527-4.899
		l2.85-0.043L1333.279,702.865z M1316.295,689.698l24.001-1.877l-0.987-12.636l-7.029,0.549l0.305,3.889l-0.897,0.07
		c-5.533,0.432-9.049-0.271-9.324-3.785c-0.273-3.514,3.083-4.83,8.616-5.263l15.179-1.187c5.459-0.427,8.962,0.127,9.243,3.715
		c0.28,3.59-3.105,4.531-8.564,4.959l-2.617,0.205l0.707,9.047l1.047-0.082c11.291-0.883,17.751-4.849,16.979-14.719
		c-0.777-9.945-8.496-13.404-21.88-12.356l-6.729,0.526c-13.385,1.045-20.501,5.289-19.812,14.111
		c0.281,3.589,2.184,6.75,5.704,7.528l-4.427,1.099L1316.295,689.698z M1359.35,643.546l-46.933,5.465l1.075,9.238l46.934-5.466
		L1359.35,643.546z M1355.337,616.247l-46.692,7.243l3.369,21.715l7.559-1.173l-1.942-12.524l39.133-6.07L1355.337,616.247z
		 M1350.198,589.134l-46.383,9.011l4.191,21.571l7.51-1.459l-2.418-12.442l38.874-7.552L1350.198,589.134z M1328.859,568.616
		c5.314-1.315,9.007-1.379,9.872,2.116c0.864,3.495-2.432,5.16-7.747,6.475l-14.707,3.639c-5.313,1.314-9.007,1.379-9.872-2.116
		c-0.863-3.495,2.433-5.16,7.747-6.476L1328.859,568.616z M1328.994,587.589c13.032-3.225,19.522-8.848,17.091-18.677
		c-2.449-9.901-10.812-11.85-23.845-8.626l-6.115,1.514c-13.032,3.224-19.522,8.847-17.072,18.748
		c2.431,9.828,10.794,11.777,23.826,8.554L1328.994,587.589z M1348.066,569.427l1.711,6.916l8.445-2.09l-1.711-6.916
		L1348.066,569.427z M1345.887,560.618l1.729,6.989l8.446-2.089l-1.73-6.99L1345.887,560.618z M1293.479,557.21l48.205-3.582
		l-2.439-8.272l-30.408,2.946l-0.084-0.289l27.119-14.096l-2.693-9.136l-42.437,23.147L1293.479,557.21z M1277.28,508.628
		l19.051-7.084l3.162,8.506l-19.05,7.084l3.241,8.718l44.287-16.47l-3.241-8.715l-18.065,6.717l-3.164-8.506l18.066-6.718
		l-3.241-8.717l-44.288,16.468L1277.28,508.628z M1294.904,468.972c5.03-2.163,8.495-2.838,9.889,0.402
		c1.422,3.307-1.511,5.221-6.54,7.383l-3.928,1.689l3.585,8.337l1.791-0.771c10.404-4.475,16.021-10.399,12.139-19.426
		c-4.029-9.371-12.392-10.02-24.725-4.716l-6.2,2.666c-12.334,5.304-17.613,11.82-13.584,21.19
		c3.882,9.025,12.046,9.025,22.449,4.552l1.791-0.771l-3.585-8.336l-3.927,1.688c-5.03,2.163-8.436,2.975-9.858-0.332
		c-1.393-3.238,1.48-5.29,6.511-7.453L1294.904,468.972z M1299.139,440.171l-42.677,20.278l3.99,8.399l42.679-20.276
		L1299.139,440.171z M1258.143,427.798l-2.401,1.233c-8.405,4.319-10.277,11.015-6.645,18.086
		c3.564,6.938,10.099,9.315,17.637,5.441c6.471-3.324,7.727-8.101,8.093-14.445l0.447-5.036c0.238-2.82,0.988-4.808,3.789-6.247
		c2.735-1.405,5.119-1.196,6.319,1.138c1.371,2.668-0.014,4.897-3.816,6.852l-2.468,1.268l3.736,7.272l2.401-1.233
		c8.071-4.148,10.486-10.279,6.75-17.551c-3.462-6.738-10.358-8.675-17.364-5.076c-7.004,3.6-8.021,8.676-8.466,14.047l-0.419,4.601
		c-0.365,3.392-0.609,5.541-3.611,7.084c-2.803,1.438-5.121,1.028-6.424-1.507c-1.439-2.801,0.074-5.435,3.678-7.285l2.533-1.303
		L1258.143,427.798z M1232.79,416.396l33.911-20.449l4.687,7.771l6.552-3.949l-14.059-23.315l-6.552,3.95l4.57,7.579l-33.912,20.448
		L1232.79,416.396z M1222.662,370.3l-2.25,1.492c-7.876,5.224-8.994,12.086-4.601,18.711c4.311,6.5,11.068,8.139,18.13,3.455
		c6.063-4.021,6.782-8.908,6.444-15.253l-0.113-5.055c-0.076-2.83,0.449-4.888,3.074-6.629c2.562-1.699,4.955-1.756,6.406,0.432
		c1.657,2.5,0.528,4.868-3.034,7.231l-2.312,1.533l4.519,6.813l2.25-1.492c7.562-5.016,9.284-11.377,4.766-18.189
		c-4.187-6.313-11.257-7.474-17.819-3.122c-6.562,4.353-7.013,9.511-6.858,14.898l0.093,4.618c0.012,3.411,0.007,5.575-2.806,7.44
		c-2.625,1.74-4.976,1.59-6.55-0.786c-1.741-2.625-0.528-5.409,2.847-7.647l2.375-1.576L1222.662,370.3z M1239.814,341.198
		l-38.393,27.541l5.421,7.558l38.393-27.541L1239.814,341.198z M1210.528,324.292l0.188,0.233l-11.238,13.074l-4.229-5.261
		L1210.528,324.292z M1217.447,312.189l-43.125,21.766l5.356,6.665l9.172-4.87l5.873,7.308l-6.729,7.909l5.826,7.25l30.534-37.434
		L1217.447,312.189z M1183.231,310.331l-0.2-0.223l11.819-24.11l-5.711-6.364l-35.165,31.559l5.761,6.419l20.485-18.384l0.2,0.223
		l-12.771,26.98l4.709,5.246l35.166-31.558l-5.761-6.42L1183.231,310.331z M1165.067,273.546l0.211,0.213l-9.841,14.156
		l-4.745-4.801L1165.067,273.546z M1170.711,260.798l-40.671,26.067l6.011,6.081l8.625-5.784l6.59,6.668l-5.883,8.557l6.536,6.615
		l26.542-40.362L1170.711,260.798z M1142.009,234.094l-8.932-8.014l-31.556,35.168l6.084,5.459l19.685-21.938l0.225,0.2
		l-15.107,26.046l4.354,3.907l24.095-17.981l0.224,0.2l-19.686,21.938l6.42,5.76l31.556-35.167l-8.764-7.864l-22.252,16.712
		l-0.224-0.2L1142.009,234.094z M1120.204,215.846l-29.84,36.636l7.211,5.873l29.84-36.636L1120.204,215.846z M1093.218,226.341
		l-0.239-0.181l7.009-25.921l-6.818-5.158l-28.51,37.679l6.879,5.204l16.607-21.95l0.24,0.181l-7.398,28.919l5.622,4.254
		l28.511-37.68l-6.879-5.204L1093.218,226.341z M1063.378,194.183c3.064-4.537,5.764-7.059,8.746-5.044
		c2.983,2.015,1.652,5.46-1.412,9.997l-8.48,12.555c-3.064,4.536-5.763,7.058-8.746,5.043c-2.984-2.015-1.652-5.46,1.412-9.997
		L1063.378,194.183z M1076.19,208.176c7.514-11.124,8.564-19.647,0.174-25.314c-8.453-5.709-15.966-1.553-23.48,9.572l-3.526,5.22
		c-7.515,11.125-8.565,19.648-0.112,25.357c8.391,5.667,15.904,1.511,23.418-9.614L1076.19,208.176z M1040.476,169.642l2.251,1.35
		c3.858,2.315,3.408,5.106,1.556,8.193c-1.852,3.087-3.986,4.605-7.846,2.29l-2.251-1.351L1040.476,169.642z M1033.028,187.739
		c3.924,2.354,3.743,5.132,1.659,8.605c-2.122,3.537-4.412,4.875-8.335,2.521l-2.508-1.505l6.675-11.126L1033.028,187.739z
		 M1041.878,201.707c3.24-5.402,2.547-10.367-1.737-14.161c4.412,1.685,9.146,0.064,12.117-4.888
		c3.819-6.367,3.55-12.476-4.875-17.531l-10.806-6.483l-24.309,40.517l10.997,6.598
		C1031.626,210.776,1037.634,208.782,1041.878,201.707 M1009.542,144.011l-10.605-5.613l-22.098,41.765l7.226,3.823l13.785-26.053
		l0.265,0.14l-8.349,28.929l5.171,2.736l19.021-23.282l0.266,0.142l-13.785,26.053l7.624,4.034l22.097-41.765l-10.406-5.507
		l-17.541,21.605l-0.266-0.14L1009.542,144.011z M958.124,144.09l5.724-13.214l1.514,0.656c4.542,1.967,5.111,4.993,3.263,9.26
		c-2.086,4.817-4.444,5.921-8.986,3.953L958.124,144.09z M964.221,174.357c-0.108-2.581,1.004-4.96,3.045-10.615
		c2.05-5.487,2.203-9.426-1.961-12.455c4.731,1.15,9.151-0.939,12.073-7.684c3.31-7.639,1.494-14.392-7.865-18.446l-11.081-4.8
		l-18.78,43.357l8.396,3.637l7.154-16.517l1.789,0.775c3.717,1.61,3.598,4.337,1.936,8.93c-2.08,5.556-2.986,8.024-3.172,10.151
		L964.221,174.357z M929.491,126.454c1.933-5.123,3.975-8.2,7.342-6.93c3.369,1.27,2.871,4.93,0.939,10.053l-5.346,14.175
		c-1.932,5.123-3.973,8.201-7.342,6.931c-3.368-1.271-2.871-4.93-0.938-10.053L929.491,126.454z M945.193,137.104
		c4.737-12.561,3.787-21.095-5.687-24.668c-9.545-3.598-15.893,2.184-20.629,14.745l-2.223,5.895
		c-4.738,12.561-3.787,21.096,5.756,24.694c9.475,3.573,15.823-2.209,20.56-14.771L945.193,137.104z M886.659,127.945l-0.812,2.574
		c-2.85,9.011,0.59,15.053,8.171,17.45c7.437,2.351,13.724-0.618,16.278-8.699c2.193-6.937-0.317-11.191-4.565-15.916l-3.263-3.863
		c-1.836-2.153-2.721-4.085-1.771-7.088c0.928-2.932,2.754-4.479,5.256-3.687c2.86,0.904,3.471,3.456,2.182,7.532l-0.836,2.646
		l7.795,2.464l0.812-2.574c2.736-8.653,0.08-14.684-7.715-17.148c-7.223-2.283-13.454,1.253-15.826,8.762
		c-2.375,7.509,0.516,11.805,4.02,15.901l2.972,3.535c2.153,2.647,3.507,4.334,2.49,7.552c-0.949,3.004-2.873,4.362-5.591,3.503
		c-3.004-0.95-3.809-3.878-2.588-7.74l0.859-2.717L886.659,127.945z M858.341,120.257l-0.704,2.606
		c-2.462,9.124,1.231,15.015,8.905,17.086c7.531,2.032,13.687-1.201,15.895-9.383c1.895-7.024-0.793-11.167-5.238-15.707
		l-3.425-3.721c-1.926-2.073-2.891-3.965-2.071-7.006c0.803-2.969,2.561-4.592,5.094-3.908c2.897,0.781,3.615,3.305,2.5,7.433
		l-0.723,2.679l7.894,2.13l0.702-2.607c2.365-8.761-0.545-14.674-8.438-16.804c-7.312-1.974-13.388,1.825-15.439,9.428
		c-2.051,7.603,1.018,11.772,4.692,15.715l3.12,3.406c2.264,2.553,3.689,4.18,2.809,7.439c-0.82,3.041-2.685,4.48-5.436,3.737
		c-3.042-0.82-3.97-3.712-2.915-7.622l0.743-2.752L858.341,120.257z M852.861,127.888l-12.751-2.78l2.701-12.384l9.452,2.061
		l1.63-7.474l-9.453-2.061l2.477-11.358l12.604,2.748l1.63-7.475l-21.471-4.681l-10.066,46.165l21.617,4.714L852.861,127.888z
		 M814.111,127.863l3.28-18.918l8.72,1.512l1.308-7.538l-8.721-1.512l2.178-12.562l11.75,2.037l1.308-7.537l-20.913-3.627
		l-8.072,46.556L814.111,127.863z M786.499,92.295c0.701-5.43,1.98-8.895,5.551-8.434s3.928,4.137,3.226,9.567l-1.94,15.026
		c-0.701,5.429-1.98,8.895-5.551,8.433c-3.57-0.461-3.928-4.137-3.226-9.567L786.499,92.295z M804.229,99.047
		c1.721-13.315-1.168-21.401-11.209-22.698c-10.115-1.307-14.964,5.78-16.684,19.095l-0.807,6.248
		c-1.721,13.314,1.168,21.401,11.283,22.707c10.042,1.297,14.891-5.79,16.609-19.104L804.229,99.047z M754.02,95.174l1.044-14.362
		l1.645,0.119c4.938,0.359,6.474,3.027,6.137,7.665c-0.381,5.236-2.243,7.056-7.18,6.697L754.02,95.174z M769.761,121.735
		c-0.954-2.401-0.689-5.013-0.628-11.025c0.125-5.856-1.03-9.625-5.96-11.111c4.847-0.475,8.33-3.906,8.863-11.237
		c0.603-8.303-3.338-14.079-13.513-14.819l-12.043-0.875l-3.425,47.126l9.126,0.663l1.305-17.953l1.945,0.142
		c4.039,0.293,4.827,2.907,4.772,7.791c-0.131,5.931-0.17,8.56,0.355,10.629L769.761,121.735z M722.581,102.85l2.399,0.054
		c10.272,0.232,14.823-5.291,15.045-15.114c0.222-9.822-4.075-15.546-14.347-15.778l-11.622-0.262l-1.067,47.238l9.223,0.208
		L722.581,102.85z M722.751,95.352l0.358-15.896l1.5,0.034c5.099,0.115,6.548,2.399,6.417,8.172
		c-0.129,5.699-1.678,7.839-6.775,7.724L722.751,95.352z"/>
</g>
</svg>
