<?xml version="1.0" encoding="utf-8"?>
<!-- Generator: Adobe Illustrator 16.0.4, SVG Export Plug-In . SVG Version: 6.00 Build 0)  -->
<!DOCTYPE svg PUBLIC "-//W3C//DTD SVG 1.1//EN" "http://www.w3.org/Graphics/SVG/1.1/DTD/svg11.dtd">
<svg version="1.1" id="Ebene_1" xmlns="http://www.w3.org/2000/svg" xmlns:xlink="http://www.w3.org/1999/xlink" x="0px" y="0px"
	 width="1440px" height="1440px" viewBox="0 0 1440 1440" enable-background="new 0 0 1440 1440" xml:space="preserve">
<g>
	<defs>
		<rect id="SVGID_1_" x="430.831" y="12.971" width="997.169" height="1425.029"/>
	</defs>
	<clipPath id="SVGID_2_">
		<use xlink:href="#SVGID_1_"  overflow="visible"/>
	</clipPath>
	<path clip-path="url(#SVGID_2_)" fill="#231F20" d="M794.308,131.711"/>
</g>
<path fill="none" stroke="#231F20" d="M794.308,131.711"/>
<g>
	<defs>
		<rect id="SVGID_3_" x="430.831" y="12.971" width="997.169" height="1425.029"/>
	</defs>
	<clipPath id="SVGID_4_">
		<use xlink:href="#SVGID_3_"  overflow="visible"/>
	</clipPath>
	<path clip-path="url(#SVGID_4_)" fill="#231F20" d="M793.308,139.711"/>
</g>
<path fill="none" stroke="#231F20" d="M793.308,139.711"/>
<g>
	<defs>
		<rect id="SVGID_5_" x="432.688" y="6.486" width="997.175" height="1425.03"/>
	</defs>
	<clipPath id="SVGID_6_">
		<use xlink:href="#SVGID_5_"  overflow="visible"/>
	</clipPath>
	<path clip-path="url(#SVGID_6_)" fill="#231F20" d="M711.171,725.227"/>
</g>
<path fill="none" stroke="#231F20" d="M711.171,725.227"/>
<g>
	<defs>
		<rect id="SVGID_7_" x="432.688" y="6.486" width="997.175" height="1425.03"/>
	</defs>
	<clipPath id="SVGID_8_">
		<use xlink:href="#SVGID_7_"  overflow="visible"/>
	</clipPath>
	<path clip-path="url(#SVGID_8_)" fill="#231F20" d="M711.171,725.227"/>
</g>
<path fill="none" stroke="#231F20" d="M711.171,725.227"/>
<g>
	<defs>
		<rect id="SVGID_9_" x="432.688" y="6.486" width="997.175" height="1425.03"/>
	</defs>
	<clipPath id="SVGID_10_">
		<use xlink:href="#SVGID_9_"  overflow="visible"/>
	</clipPath>
	<path clip-path="url(#SVGID_10_)" fill="#0000FF" d="M911.802,1118.203l-1.635,0.826c-0.541-1.139-0.261-1.717,0.863-2.352
		l-0.838-1.66c-2.531,1.311-2.967,2.908-1.846,5.133l1.556,3.078l3.535-1.783L911.802,1118.203z M918.278,1114.846l-1.623,0.846
		c-0.555-1.131-0.283-1.713,0.833-2.361l-0.858-1.65c-2.515,1.344-2.931,2.947-1.781,5.156l1.595,3.061l3.512-1.83L918.278,1114.846
		z M925.151,1111.383c1.346-5.373,0.521-10.643-2.523-16.33l-3.597,1.99c2.952,5.396,4.649,10.32,2.817,16.922l1.322,2.391
		l12.1-6.697l-1.641-2.967L925.151,1111.383z M934.595,1094.256c-0.935-1.504-0.254-3.021,1.326-4.004
		c1.963-1.219,3.844-0.975,5.203,1.041l3.215-1.818c-2.218-3.568-6.016-4.281-10.017-1.795c-3.644,2.264-4.905,5.52-3.147,8.348
		c1.267,2.039,3.494,2.668,5.738,1.732c-1.402,1.154-2.025,3.449-0.79,5.436c1.726,2.779,4.962,3.381,8.63,1.102
		c3.797-2.359,4.523-6.307,2.465-9.619l-3.162,1.787c1.283,2.064,1.035,4.055-0.824,5.211c-1.758,1.092-3.227,0.662-4.113-0.764
		c-1.013-1.631-0.17-3.004,1.18-3.842c0.586-0.365,1.07-0.666,1.434-0.82l-1.488-2.395c-0.402,0.318-0.844,0.631-1.329,0.93
		C937.259,1095.814,935.544,1095.785,934.595,1094.256 M954.771,1093.178l-1.53,1.006c-0.666-1.07-0.454-1.676,0.591-2.434
		l-1.021-1.555c-2.365,1.59-2.617,3.227-1.25,5.307l1.894,2.885l3.31-2.174L954.771,1093.178z M957.489,1076.717l-1.098,3.682
		c-1.043,3.498-1.752,6.582,0.145,9.316c1.915,2.764,5.26,3.584,8.957,1.02c3.426-2.377,4.266-6.062,2.01-9.316
		c-0.324-0.469-0.74-0.91-1.182-1.334l-3.143,1.996c0.414,0.334,0.754,0.719,1.113,1.236c1.248,1.799,1.205,3.582-0.52,4.777
		c-1.678,1.162-3.135,0.641-4.126-0.791c-1.3-1.873-0.822-4.027,0.192-7.725l1.859-6.584l-1.436-2.07l-11.711,8.119l1.812,2.613
		L957.489,1076.717z M996.036,1062.471l-2.837,2.361l2.244,2.697l2.837-2.359L996.036,1062.471z M994.609,1060.85l-8.46-10.172
		l-2.768,2.303l8.459,10.172L994.609,1060.85z M990.854,1040.098l6.236,18.658l2.642-2.311l-3.259-9.148l0.092-0.078l8.654,4.428
		l2.846-2.488l-12.883-6.389l-1.663-5.002L990.854,1040.098z M1012.95,1035.938c1.543,1.596,1.723,3.424,0.407,4.695
		c-1.272,1.229-2.669,0.951-4.086-0.518l-5.231-5.416l-2.59,2.502l5.732,5.934c2.041,2.115,4.638,2.945,7.184,0.486
		c1.424-1.377,1.924-3.277,1.355-4.814l1.502,1.553l2.589-2.5l-9.191-9.518l-2.589,2.502L1012.95,1035.938z M1025.906,1024.076
		c0.961,1.381,1.248,3.031-0.124,4.459c-1.395,1.449-3.098,1.1-4.284,0.125L1025.906,1024.076z M1018.744,1026.721
		c-0.728-1.408-0.54-2.684,0.687-3.961c1.352-1.404,3.406-1.551,4.896-0.285l-6.883,7.156l0.93,0.895
		c2.595,2.496,6.296,2.975,9.291-0.141c2.745-2.854,2.64-7.072-0.364-9.965c-3.006-2.889-6.926-2.58-9.754,0.361
		c-2.35,2.445-2.676,5.293-1.035,7.828L1018.744,1026.721z M1039.52,1013.459c1.596,0.635,3.3,0.369,4.837-1.395
		c1.32-1.516,1.537-3.316,0.84-4.801l1.629,1.42l2.365-2.715l-9.975-8.691l-2.365,2.715l5.338,4.652
		c1.674,1.457,2.068,3.195,0.926,4.508c-1.143,1.311-2.459,1.039-3.997-0.301l-5.676-4.947l-2.366,2.715l5.338,4.65
		c1.674,1.459,2.069,3.197,0.926,4.508c-1.162,1.336-2.459,1.041-3.996-0.299l-5.677-4.947l-2.366,2.715l6.221,5.42
		c2.171,1.893,4.775,2.648,7.119-0.043C1040.06,1016.994,1040.222,1015.027,1039.52,1013.459 M1056.241,1000.533l-2.32,2.869
		l2.728,2.207l2.321-2.869L1056.241,1000.533z M1054.524,999.221l-10.285-8.32l-2.266,2.797l10.285,8.322L1054.524,999.221z
		 M1046.087,988.709l13.59-0.266l1.903,11.105l2.63-3.502l-1.994-11.588l6.838,5.133l2.25-2.998l-15.115-11.346l-2.251,3
		l5.015,3.762l0.438,2.768l-10.603,0.332L1046.087,988.709z M1074.366,962.729c1.195,1.184,1.775,2.754,0.686,4.404
		c-1.107,1.68-2.847,1.645-4.189,0.902L1074.366,962.729z M1067.802,966.625c-0.971-1.252-1.018-2.541-0.043-4.018
		c1.074-1.627,3.069-2.145,4.763-1.17l-5.47,8.287l1.076,0.711c3.004,1.982,6.73,1.783,9.11-1.822
		c2.183-3.305,1.313-7.436-2.166-9.734c-3.479-2.297-7.278-1.279-9.524,2.123c-1.869,2.83-1.673,5.691,0.4,7.887L1067.802,966.625z
		 M1077.621,970.375l1.751,4.645l2.133-3.23l-2.463-3.566L1077.621,970.375z M1073.554,949.172l8.58,11.342l1.826-2.996
		l-6.078-7.781l0.062-0.104l9.717,1.812l1.967-3.227l-14.014-2.43L1073.554,949.172z M1090.722,945.975
		c0.479-0.18,0.984-0.652,1.382-1.357c0.896-1.596,0.368-3.475-0.706-4.627l2.197,1.232l1.763-3.139l-11.537-6.475l-1.763,3.139
		l5.703,3.201c2.094,1.174,2.627,2.918,1.718,4.541c-0.427,0.758-0.878,1.193-1.554,1.604L1090.722,945.975z M1097.2,923.465
		c1.303,1.064,2.032,2.57,1.105,4.32c-0.942,1.775-2.676,1.908-4.084,1.299L1097.2,923.465z M1091.04,927.975
		c-1.086-1.154-1.257-2.434-0.428-3.996c0.913-1.723,2.85-2.43,4.628-1.621l-4.651,8.773l1.141,0.604
		c3.18,1.686,6.871,1.131,8.894-2.688c1.855-3.498,0.597-7.527-3.089-9.48c-3.684-1.953-7.367-0.578-9.277,3.027
		c-1.588,2.994-1.119,5.824,1.155,7.811L1091.04,927.975z M1099.203,901.029l7.33,3.449l-3.972,8.441l-7.329-3.447l-1.597,3.393
		l17.103,8.045l1.597-3.393l-6.978-3.281l3.972-8.443l6.977,3.281l1.596-3.393l-17.102-8.045L1099.203,901.029z M1110.647,882.482
		c-2.619-1.045-4.09,0.209-4.846,2.102c-0.601,1.506-0.611,2.664-0.299,3.822l2.201,0.879c-0.045-0.857-0.018-1.654,0.249-2.322
		c0.401-1.004,1.063-1.287,2.122-0.863l6.074,2.426l-1.336,3.342l2.34,0.936l1.336-3.344l3.398,1.357l0.812-2.033l-1.516-1.057
		c-1.031-0.736-1.51-1.314-1.228-2.592l0.195-0.891l-1.978-0.791l-0.701,1.756L1110.647,882.482z M1124.952,878.734l-1.286,3.459
		l3.289,1.223l1.287-3.457L1124.952,878.734z M1122.907,878.037l-12.4-4.613l-1.254,3.375l12.399,4.613L1122.907,878.037z
		 M1125.325,864.086c1.717-0.029,3.186-0.932,3.923-3.152c0.634-1.908,0.138-3.654-1.079-4.754l2.051,0.682l1.134-3.416
		l-12.556-4.168l-1.135,3.416l6.721,2.23c2.106,0.699,3.143,2.15,2.595,3.801c-0.55,1.652-1.867,1.91-3.804,1.268l-7.146-2.373
		l-1.134,3.418l6.72,2.23c2.107,0.697,3.143,2.148,2.596,3.801c-0.559,1.68-1.867,1.908-3.804,1.266l-7.146-2.371l-1.135,3.416
		l7.83,2.6c2.733,0.906,5.428,0.6,6.553-2.789C1127.188,867.139,1126.578,865.262,1125.325,864.086 M1134.8,811.707l0.058-0.295
		l26.344-5.195l1.606-8.396l-46.409-8.873l-1.62,8.471l27.035,5.17l-0.057,0.293l-29.205,6.178l-1.323,6.924l46.41,8.873
		l1.618-8.473L1134.8,811.707z M1152.771,774.1l-0.035,0.297l-17.202,1.154l0.786-6.703L1152.771,774.1z M1166.25,770.545
		l-45.758-15.484l-0.995,8.49l9.903,3.125l-1.093,9.312l-10.356,0.748l-1.083,9.238l48.098-4.48L1166.25,770.545z M1121.165,733.975
		l39.599,0.297l-0.067,9.074l7.649,0.057l0.203-27.224l-7.649-0.057l-0.066,8.849l-39.599-0.297L1121.165,733.975z
		 M1120.515,700.915l19.173-1.032l0.475,8.838l7.64-0.412l-0.476-8.836l12.731-0.687l0.641,11.908l7.639-0.411l-1.141-21.194
		l-47.182,2.54L1120.515,700.915z M1117.247,673.304c1.35,10.488,8.316,12.92,17.912,11.687l31.391-4.037l-1.215-9.448
		l-31.986,4.114c-5.133,0.66-8.064,0.205-8.514-3.291s2.281-4.604,7.413-5.265l31.987-4.112l-1.215-9.447l-31.391,4.037
		C1122.033,658.776,1115.898,662.816,1117.247,673.304 M1157.929,626.888l-46.398,8.93l4.152,21.578l7.513-1.445l-2.396-12.446
		l38.887-7.483L1157.929,626.888z M1115.454,619.957l-3.58-12.55l12.189-3.478l2.654,9.305l7.356-2.1l-2.655-9.304l11.18-3.188
		l3.539,12.404l7.356-2.099l-6.028-21.132l-45.438,12.963l6.07,21.275L1115.454,619.957z M1142.056,572.16l-44.726,15.236
		l2.999,8.804l44.727-15.237L1142.056,572.16z M1121.56,572.855c11.923-4.924,16.57-11.549,12.736-20.838l-4.896-11.854
		l-43.675,18.033l4.896,11.854c3.836,9.288,11.804,10.704,23.728,5.781L1121.56,572.855z M1108.177,568.156
		c-6.1,2.52-9.502,2.139-11.19-1.951l-0.916-2.218l30.086-12.423l0.916,2.218c1.688,4.09-0.455,6.76-6.556,9.278L1108.177,568.156z
		 M1075.662,537.566l35.122-18.295l4.191,8.049l6.785-3.534l-12.576-24.146l-6.785,3.535l4.088,7.848l-35.121,18.294
		L1075.662,537.566z M1097.404,480.297l-40.444,24.429l11.362,18.811l6.548-3.955l-6.554-10.85l33.897-20.475L1097.404,480.297z
		 M1074.492,469.48l0.171,0.246l-12.135,12.246l-3.846-5.547L1074.492,469.48z M1087.896,461.828l4.06,5.855l7.149-4.957
		l-4.06-5.855L1087.896,461.828z M1082.726,454.371l4.102,5.916l7.15-4.957l-4.104-5.917L1082.726,454.371z M1082.248,457.894
		l-44.555,18.666l4.872,7.025l9.492-4.209l5.343,7.704l-7.271,7.414l5.299,7.644l33.102-35.184L1082.248,457.894z M1024.013,460.107
		l15.627-12.995l5.803,6.978l-15.627,12.996l5.945,7.15l36.33-30.213l-5.947-7.15l-14.819,12.325l-5.803-6.978l14.819-12.324
		l-5.946-7.151l-36.329,30.213L1024.013,460.107z M1024.062,391.667l-8.65-8.317l-32.75,34.06l5.893,5.666l20.431-21.246
		l0.216,0.208l-15.997,25.508l4.218,4.055l24.7-17.139l0.216,0.208l-20.43,21.246l6.217,5.978l32.75-34.059l-8.486-8.161
		l-22.815,15.935l-0.216-0.207L1024.062,391.667z M967.8,406.291c8.222,6.651,14.938,3.596,21.024-3.925l19.908-24.604l-7.405-5.992
		l-20.285,25.072c-3.255,4.022-5.688,5.719-8.43,3.502c-2.74-2.218-1.531-4.904,1.725-8.928l20.285-25.07l-7.404-5.992
		l-19.908,24.604C961.224,392.48,959.579,399.638,967.8,406.291 M955.501,395.73l8.057-26.827l18.795-12.052l-7.883-5.481
		l-19.987,13.506l12.845-18.473l-7.636-5.31l-26.974,38.795l7.636,5.309l6.379-9.176l6.261-4.142l-5.498,18.283L955.501,395.73z
		 M945.091,332.327l-24.592,40.346l7.941,4.841l24.592-40.347L945.091,332.327z M920.591,318.638l-22.629,41.479l19.291,10.525
		l3.663-6.715l-11.127-6.071l18.966-34.763L920.591,318.638z M894.863,314.655l2.39,1.089c4.094,1.867,3.961,4.691,2.467,7.967
		s-3.444,5.023-7.539,3.157l-2.389-1.089L894.863,314.655z M889.498,333.474c4.163,1.898,4.296,4.68,2.616,8.364
		c-1.711,3.753-3.836,5.341-7.999,3.442l-2.661-1.213l5.383-11.807L889.498,333.474z M899.862,346.36
		c2.613-5.732,1.365-10.589-3.318-13.876c4.573,1.178,9.094-0.965,11.49-6.219c3.08-6.756,2.125-12.797-6.814-16.873l-11.465-5.227
		l-19.601,42.993l11.669,5.319C890.695,356.523,896.439,353.867,899.862,346.36 M852.612,341.167
		c9.911,3.688,15.305-1.347,18.679-10.415l11.037-29.663l-8.927-3.321l-11.246,30.226c-1.805,4.851-3.572,7.233-6.875,6.004
		c-3.305-1.229-3.014-4.161-1.209-9.012l11.246-30.226l-8.928-3.322l-11.036,29.664C841.98,330.168,842.701,337.478,852.612,341.167
		 M824.618,314.24l2.305,0.674c9.86,2.885,15.688-1.271,18.446-10.7c2.759-9.43,0.091-16.071-9.771-18.957l-11.157-3.264
		l-13.269,45.349l8.854,2.592L824.618,314.24z M826.724,307.042l4.466-15.26l1.44,0.421c4.894,1.432,5.701,4.014,4.08,9.555
		c-1.601,5.471-3.65,7.137-8.546,5.705L826.724,307.042z M775.253,303.498l-0.508,2.653c-1.775,9.28,2.348,14.88,10.156,16.373
		c7.661,1.465,13.557-2.218,15.148-10.543c1.366-7.146-1.623-11.077-6.396-15.272l-3.692-3.455
		c-2.074-1.924-3.179-3.739-2.586-6.833c0.576-3.02,2.209-4.77,4.787-4.277c2.947,0.564,3.85,3.027,3.047,7.226l-0.521,2.726
		l8.03,1.535l0.506-2.652c1.705-8.913-1.639-14.592-9.668-16.128c-7.44-1.422-13.215,2.819-14.693,10.554
		c-1.479,7.735,1.893,11.663,5.852,15.321l3.366,3.164c2.447,2.377,3.989,3.893,3.356,7.207c-0.592,3.095-2.344,4.668-5.143,4.134
		c-3.095-0.591-4.236-3.406-3.476-7.384l0.535-2.8L775.253,303.498z M758.617,283.475l0.298,0.031l1.363,17.188l-6.713-0.705
		L758.617,283.475z M754.9,270.038L739.97,315.98l8.504,0.893l3.005-9.939l9.323,0.979l0.873,10.348l9.25,0.972l-5.06-48.041
		L754.9,270.038z M739.865,288.352c0.411-12.893-3.719-19.853-13.765-20.173l-12.818-0.409l-1.505,47.226l12.817,0.409
		c10.045,0.319,14.611-6.363,15.022-19.256L739.865,288.352z M730.083,298.621c-0.21,6.598-1.955,9.542-6.378,9.402l-2.399-0.077
		l1.039-32.533l2.397,0.076c4.423,0.141,5.978,3.192,5.767,9.789L730.083,298.621z"/>
</g>
</svg>
