<?xml version="1.0" encoding="utf-8"?>
<!-- Generator: Adobe Illustrator 16.0.4, SVG Export Plug-In . SVG Version: 6.00 Build 0)  -->
<!DOCTYPE svg PUBLIC "-//W3C//DTD SVG 1.1//EN" "http://www.w3.org/Graphics/SVG/1.1/DTD/svg11.dtd">
<svg version="1.1" id="Ebene_1" xmlns="http://www.w3.org/2000/svg" xmlns:xlink="http://www.w3.org/1999/xlink" x="0px" y="0px"
	 width="1440px" height="1440px" viewBox="0 0 1440 1440" enable-background="new 0 0 1440 1440" xml:space="preserve">
<g>
	<defs>
		<rect id="SVGID_1_" x="430.831" y="12.971" width="997.169" height="1425.029"/>
	</defs>
	<clipPath id="SVGID_2_">
		<use xlink:href="#SVGID_1_"  overflow="visible"/>
	</clipPath>
	<path clip-path="url(#SVGID_2_)" fill="#231F20" d="M794.308,131.711"/>
</g>
<path fill="none" stroke="#231F20" d="M794.308,131.711"/>
<path fill="none" stroke="#231F20" d="M793.308,139.711"/>
<g>
	<defs>
		<rect id="SVGID_3_" x="432.688" y="6.486" width="997.175" height="1425.03"/>
	</defs>
	<clipPath id="SVGID_4_">
		<use xlink:href="#SVGID_3_"  overflow="visible"/>
	</clipPath>
	<path clip-path="url(#SVGID_4_)" fill="#231F20" d="M711.171,725.227"/>
</g>
<path fill="none" stroke="#231F20" d="M711.171,725.227"/>
<g>
	<defs>
		<rect id="SVGID_5_" x="432.688" y="6.486" width="997.175" height="1425.03"/>
	</defs>
	<clipPath id="SVGID_6_">
		<use xlink:href="#SVGID_5_"  overflow="visible"/>
	</clipPath>
	<path clip-path="url(#SVGID_6_)" fill="#231F20" d="M711.171,725.227"/>
</g>
<path fill="none" stroke="#231F20" d="M711.171,725.227"/>
<g>
	<defs>
		<rect id="SVGID_7_" x="711" y="267.514" width="444.402" height="835.33"/>
	</defs>
	<clipPath id="SVGID_8_">
		<use xlink:href="#SVGID_7_"  overflow="visible"/>
	</clipPath>
	<path clip-path="url(#SVGID_8_)" fill="#0000FF" d="M714.959,1099.178l-1.83,0.018c0.018-1.262,0.525-1.656,1.814-1.727
		l-0.017-1.859c-2.851,0.055-3.948,1.295-3.927,3.783l0.031,3.451l3.959-0.037L714.959,1099.178z M722.25,1099.041l-1.83,0.041
		c0.003-1.262,0.505-1.662,1.793-1.75l-0.04-1.859c-2.849,0.09-3.933,1.346-3.878,3.834l0.074,3.449l3.959-0.086L722.25,1099.041z
		 M730.337,1098.943c3.533-4.268,5.063-9.377,4.771-15.82l-4.103,0.244c0.335,6.141-0.26,11.314-4.763,16.48l0.162,2.725
		l13.806-0.818l-0.2-3.385L730.337,1098.943z M746.25,1087.605c-0.194-1.76,1.076-2.836,2.925-3.037
		c2.296-0.254,3.888,0.777,4.244,3.184l3.685-0.256c-0.461-4.174-3.58-6.457-8.261-5.941c-4.264,0.471-6.808,2.863-6.442,6.174
		c0.263,2.385,2,3.914,4.429,4.039c-1.763,0.436-3.315,2.236-3.06,4.562c0.358,3.25,3.018,5.189,7.312,4.717
		c4.442-0.488,6.801-3.736,6.374-7.613l-3.624,0.248c0.266,2.416-0.815,4.105-2.993,4.346c-2.057,0.225-3.195-0.797-3.38-2.467
		c-0.21-1.906,1.142-2.781,2.723-2.955c0.687-0.076,1.253-0.139,1.646-0.121l-0.307-2.803c-0.502,0.115-1.035,0.203-1.602,0.268
		C747.98,1090.162,746.447,1089.395,746.25,1087.605 M764.913,1095.297l-1.813,0.246c-0.141-1.252,0.312-1.707,1.584-1.941
		l-0.252-1.842c-2.82,0.412-3.754,1.781-3.419,4.248l0.464,3.418l3.924-0.533L764.913,1095.297z M774.691,1081.453l-2.541,2.881
		c-2.416,2.736-4.354,5.236-3.78,8.518c0.577,3.309,3.268,5.457,7.7,4.684c4.108-0.717,6.418-3.709,5.735-7.611
		c-0.098-0.561-0.29-1.137-0.511-1.707l-3.689,0.492c0.234,0.477,0.381,0.969,0.49,1.59c0.376,2.158-0.41,3.756-2.479,4.117
		c-2.01,0.352-3.113-0.734-3.412-2.449c-0.393-2.246,0.945-4.002,3.418-6.932l4.451-5.193l-0.434-2.482l-14.037,2.453l0.547,3.133
		L774.691,1081.453z M816.012,1084.34l-3.552,1l0.951,3.379l3.552-1L816.012,1084.34z M815.369,1082.277l-3.582-12.736l-3.467,0.975
		l3.584,12.736L815.369,1082.277z M820.516,1061.705l-1.65,19.604l3.342-1.078l0.625-9.689l0.113-0.037l6.199,7.488l3.598-1.16
		l-9.307-10.963l0.449-5.25L820.516,1061.705z M842.497,1066.676c0.788,2.076,0.231,3.826-1.479,4.477
		c-1.654,0.627-2.826-0.18-3.55-2.088l-2.67-7.041l-3.367,1.277l2.927,7.713c1.041,2.75,3.099,4.537,6.408,3.281
		c1.852-0.703,3.061-2.252,3.146-3.889l0.766,2.02l3.366-1.277l-4.69-12.369l-3.367,1.277L842.497,1066.676z M859.08,1060.842
		c0.339,1.648-0.047,3.277-1.871,4.049c-1.852,0.783-3.28-0.209-3.987-1.572L859.08,1060.842z M851.456,1060.451
		c-0.115-1.58,0.56-2.682,2.19-3.369c1.795-0.76,3.742-0.086,4.612,1.664l-9.146,3.867l0.502,1.188
		c1.402,3.316,4.615,5.215,8.595,3.533c3.647-1.543,5.214-5.463,3.59-9.303c-1.624-3.842-5.349-5.102-9.106-3.512
		c-3.123,1.32-4.545,3.812-4.035,6.787L851.456,1060.451z M876.011,1056.098c1.233,1.197,2.91,1.602,5.004,0.557
		c1.8-0.896,2.687-2.479,2.608-4.115l0.963,1.932l3.223-1.605l-5.904-11.84l-3.221,1.605l3.158,6.336
		c0.991,1.988,0.694,3.744-0.863,4.521c-1.558,0.775-2.67,0.023-3.58-1.803l-3.359-6.738l-3.223,1.605l3.16,6.336
		c0.989,1.988,0.692,3.744-0.865,4.521c-1.584,0.789-2.67,0.023-3.58-1.801l-3.359-6.74l-3.223,1.605l3.682,7.385
		c1.285,2.576,3.402,4.27,6.598,2.678C875.162,1059.572,876.062,1057.814,876.011,1056.098 M896.695,1050.215l-3.217,1.807
		l1.721,3.061l3.217-1.809L896.695,1050.215z M895.585,1048.361l-6.483-11.533l-3.138,1.764l6.483,11.533L895.585,1048.361z
		 M891.636,1035.471l12.729,4.766l-2.326,11.025l3.736-2.285l2.42-11.506l4.463,7.293l3.199-1.957l-9.865-16.121l-3.199,1.957
		l3.273,5.35l-0.615,2.73l-9.977-3.602L891.636,1035.471z M927.615,1021.35c0.693,1.533,0.678,3.207-0.932,4.361
		c-1.632,1.174-3.244,0.521-4.234-0.652L927.615,1021.35z M920.093,1022.652c-0.461-1.516-0.046-2.738,1.392-3.77
		c1.584-1.139,3.633-0.91,4.867,0.605l-8.065,5.791l0.752,1.047c2.1,2.926,5.653,4.066,9.161,1.547
		c3.217-2.309,3.88-6.479,1.447-9.865c-2.432-3.387-6.342-3.793-9.656-1.414c-2.754,1.979-3.59,4.721-2.437,7.512L920.093,1022.652z
		 M927.929,1029.656l-0.021,4.963l3.145-2.256l-1.029-4.211L927.929,1029.656z M931.812,1008.221l4.144,13.607l2.748-2.186
		l-3.024-9.398l0.094-0.074l8.496,5.051l2.961-2.352l-12.317-7.111L931.812,1008.221z M949.033,1011.127
		c0.512-0.002,1.15-0.273,1.765-0.799c1.392-1.189,1.542-3.135,0.933-4.586l1.637,1.914l2.736-2.342l-8.602-10.053l-2.734,2.342
		l4.252,4.969c1.56,1.824,1.461,3.646,0.047,4.855c-0.66,0.566-1.233,0.818-2.012,0.971L949.033,1011.127z M962.995,991.926
		c0.875,1.438,1.061,3.102-0.396,4.441c-1.479,1.361-3.16,0.91-4.283-0.135L962.995,991.926z M955.686,994.129
		c-0.641-1.449-0.377-2.713,0.926-3.912c1.435-1.32,3.494-1.342,4.903,0.012l-7.306,6.727l0.874,0.949
		c2.438,2.648,6.103,3.352,9.282,0.426c2.912-2.682,3.066-6.9,0.242-9.969s-6.754-2.996-9.756-0.234
		c-2.494,2.297-2.994,5.121-1.511,7.752L955.686,994.129z M972.418,971.227l5.834,5.619l-6.473,6.719l-5.834-5.617l-2.602,2.699
		l13.613,13.111l2.602-2.699l-5.554-5.35l6.474-6.719l5.553,5.348l2.601-2.701l-13.612-13.111L972.418,971.227z M989.22,957.34
		c-2.146-1.832-3.938-1.117-5.264,0.436c-1.052,1.232-1.435,2.326-1.511,3.523l1.803,1.539c0.232-0.828,0.515-1.572,0.982-2.121
		c0.701-0.82,1.42-0.877,2.287-0.137l4.973,4.248l-2.338,2.736l1.918,1.637l2.336-2.738l2.785,2.377l1.422-1.666l-1.096-1.488
		c-0.742-1.025-1.01-1.729-0.332-2.846l0.471-0.781l-1.619-1.385l-1.229,1.439L989.22,957.34z M1003.923,958.34l-2.328,2.861
		l2.724,2.215l2.328-2.861L1003.923,958.34z M1002.21,957.021l-10.263-8.348l-2.272,2.793l10.263,8.348L1002.21,957.021z
		 M1009.015,944.209c1.642,0.502,3.319,0.098,4.707-1.785c1.193-1.619,1.263-3.432,0.446-4.852l1.738,1.281l2.136-2.898
		l-10.649-7.85l-2.137,2.898l5.7,4.201c1.786,1.316,2.323,3.016,1.291,4.416c-1.033,1.4-2.366,1.238-4.009,0.027l-6.062-4.467
		l-2.136,2.898l5.699,4.201c1.787,1.316,2.324,3.016,1.291,4.416c-1.051,1.426-2.365,1.238-4.008,0.027l-6.062-4.467l-2.136,2.898
		l6.642,4.895c2.318,1.709,4.974,2.25,7.093-0.623C1009.842,947.688,1009.844,945.715,1009.015,944.209 M1033.786,896.438
		l0.139-0.266l26.728,2.584l3.947-7.582l-41.908-21.822l-3.983,7.65l24.413,12.711l-0.139,0.266l-29.748-2.467l-3.256,6.254
		l41.91,21.82l3.983-7.65L1033.786,896.438z M1061.67,864.619l-0.111,0.277l-16.896-3.43l2.528-6.258L1061.67,864.619z
		 M1075.611,864.754l-40.041-27.025l-3.203,7.928l8.726,5.631l-3.514,8.691l-10.187-2.016l-3.486,8.623l47.572,8.389
		L1075.611,864.754z M1040.777,820.08l38.108,10.766l-2.467,8.732l7.362,2.08l7.4-26.199l-7.361-2.08l-2.406,8.516l-38.109-10.764
		L1040.777,820.08z M1047.906,790.564l18.855,3.623l-1.669,8.691l7.513,1.443l1.67-8.691l12.521,2.404l-2.249,11.711l7.512,1.443
		l4.004-20.844l-46.401-8.914L1047.906,790.564z M1051.445,762.992c-1.223,10.504,4.953,14.545,14.562,15.662l31.438,3.654
		l1.102-9.461l-32.035-3.725c-5.14-0.598-7.876-1.746-7.468-5.248c0.407-3.5,3.323-3.916,8.465-3.318l32.034,3.725l1.1-9.461
		l-31.438-3.656C1059.594,750.047,1052.666,752.488,1051.445,762.992 M1101.561,727.152l-47.231-1.354l-0.63,21.967l7.647,0.219
		l0.363-12.67l39.584,1.133L1101.561,727.152z M1061.746,711.366l-0.938-13.017l12.643-0.91l0.695,9.65l7.629-0.549l-0.694-9.65
		l11.595-0.835l0.926,12.867l7.631-0.549l-1.578-21.918l-47.127,3.392l1.588,22.068L1061.746,711.366z M1097.349,668.84
		l-46.819,6.36l1.25,9.216l46.82-6.36L1097.349,668.84z M1077.388,666.905c12.647-2.542,18.482-8.151,16.502-18.005l-2.526-12.573
		l-46.324,9.309l2.527,12.574c1.979,9.853,9.527,12.772,22.174,10.23L1077.388,666.905z M1065.158,659.722
		c-6.471,1.301-9.736,0.274-10.608-4.063l-0.473-2.354l31.911-6.413l0.474,2.354c0.872,4.338-1.744,6.547-8.215,7.847
		L1065.158,659.722z M1040.001,627.411l37.837-11.685l2.678,8.671l7.309-2.257l-8.032-26.013l-7.31,2.257l2.611,8.456
		l-37.837,11.684L1040.001,627.411z M1072.104,576.446l-43.966,17.307l8.05,20.448l7.117-2.803l-4.642-11.794l36.847-14.505
		L1072.104,576.446z M1051.229,561.534l0.131,0.27l-13.892,10.21l-2.937-6.078L1051.229,561.534z M1065.66,556.061l3.1,6.415
		l7.833-3.783l-3.099-6.416L1065.66,556.061z M1061.713,547.889l3.132,6.483l7.834-3.784l-3.133-6.483L1061.713,547.889z
		 M1060.693,551.297l-46.916,11.505l3.719,7.698l10.031-2.681l4.08,8.441l-8.338,6.192l4.047,8.374l38.172-29.604L1060.693,551.297z
		 M1002.876,544.397l17.466-10.394l4.641,7.798l-17.465,10.395l4.756,7.991l40.604-24.162l-4.756-7.992l-16.564,9.856l-4.641-7.798
		l16.564-9.857l-4.757-7.991l-40.604,24.163L1002.876,544.397z M1012.998,477.549l-7.465-9.396l-36.994,29.395l5.086,6.4
		l23.077-18.336l0.187,0.234l-19.252,23.151l3.641,4.58l26.763-13.697l0.187,0.235l-23.078,18.336l5.366,6.753l36.994-29.395
		l-7.325-9.219l-24.734,12.755l-0.187-0.234L1012.998,477.549z M955.555,485.342c7.438,7.517,14.451,5.22,21.328-1.585
		l22.498-22.261l-6.7-6.771l-22.924,22.685c-3.678,3.64-6.285,5.058-8.765,2.552c-2.479-2.505-0.98-5.043,2.697-8.683l22.926-22.685
		l-6.7-6.77l-22.498,22.261C950.54,470.89,948.117,477.826,955.555,485.342 M944.592,473.381l10.674-25.897l19.896-10.132
		l-7.3-6.233l-21.229,11.46l14.612-17.11l-7.073-6.039l-30.684,35.933l7.072,6.038l7.258-8.497l6.64-3.503l-7.281,17.649
		L944.592,473.381z M940.031,409l-28.033,38.035l7.486,5.518l28.033-38.036L940.031,409z M916.84,393.219l-26.188,39.329
		l18.291,12.179l4.24-6.368l-10.551-7.024l21.948-32.961L916.84,393.219z M890.959,387.084l2.298,1.267
		c3.94,2.174,3.593,4.979,1.854,8.131c-1.738,3.153-3.816,4.747-7.758,2.574l-2.298-1.267L890.959,387.084z M884.176,405.441
		c4.008,2.209,3.928,4.992,1.973,8.538c-1.992,3.612-4.231,5.033-8.237,2.823l-2.562-1.412l6.266-11.361L884.176,405.441z
		 M893.529,419.078c3.041-5.518,2.166-10.453-2.252-14.089c4.471,1.522,9.142-0.27,11.931-5.326
		c3.585-6.502,3.092-12.599-5.511-17.342l-11.034-6.084l-22.816,41.376l11.229,6.192
		C883.615,428.513,889.545,426.301,893.529,419.078 M846.631,410.711c9.706,4.197,15.355-0.551,19.195-9.431l12.562-29.05
		l-8.742-3.78l-12.801,29.6c-2.054,4.75-3.943,7.038-7.178,5.639c-3.236-1.398-2.793-4.312-0.739-9.062l12.802-29.601l-8.742-3.781
		l-12.563,29.05C836.585,399.175,836.925,406.513,846.631,410.711 M821.801,383.155l2.275,0.764
		c9.74,3.269,15.726-0.656,18.852-9.97c3.126-9.315,0.721-16.055-9.02-19.324l-11.021-3.699l-15.033,44.794l8.744,2.936
		L821.801,383.155z M824.188,376.044l5.059-15.074l1.422,0.478c4.835,1.622,5.541,4.232,3.704,9.707
		c-1.813,5.404-3.929,6.989-8.763,5.366L824.188,376.044z M773.339,370.901l-0.573,2.638c-2.01,9.234,1.969,14.936,9.736,16.626
		c7.622,1.659,13.609-1.874,15.412-10.155c1.547-7.109-1.342-11.115-6.006-15.43l-3.604-3.547c-2.025-1.976-3.084-3.818-2.414-6.896
		c0.654-3.005,2.331-4.713,4.896-4.154c2.931,0.638,3.771,3.123,2.863,7.3l-0.592,2.712l7.989,1.738l0.574-2.638
		c1.929-8.867-1.269-14.629-9.257-16.368c-7.401-1.61-13.281,2.483-14.957,10.178c-1.674,7.695,1.598,11.707,5.463,15.465
		l3.283,3.248c2.387,2.438,3.891,3.993,3.172,7.291c-0.67,3.078-2.461,4.606-5.245,4.001c-3.078-0.67-4.147-3.512-3.286-7.47
		l0.605-2.785L773.339,370.901z M758.324,350.743l0.298,0.038l0.958,17.214l-6.695-0.863L758.324,350.743z M754.924,337.222
		L738.919,382.8l8.479,1.093l3.237-9.867l9.298,1.198l0.631,10.365l9.225,1.188l-3.93-48.147L754.924,337.222z M739.646,355.418
		c0.529-12.889-3.537-19.887-13.578-20.3l-12.813-0.527l-1.942,47.21l12.813,0.527c10.042,0.413,14.669-6.227,15.198-19.116
		L739.646,355.418z M729.77,365.596c-0.271,6.594-2.043,9.524-6.466,9.342l-2.397-0.099l1.339-32.522l2.397,0.099
		c4.422,0.182,5.946,3.247,5.676,9.841L729.77,365.596z"/>
</g>
</svg>
