<?xml version="1.0" encoding="utf-8"?>
<!-- Generator: Adobe Illustrator 16.0.4, SVG Export Plug-In . SVG Version: 6.00 Build 0)  -->
<!DOCTYPE svg PUBLIC "-//W3C//DTD SVG 1.1//EN" "http://www.w3.org/Graphics/SVG/1.1/DTD/svg11.dtd">
<svg version="1.1" id="Ebene_1" xmlns="http://www.w3.org/2000/svg" xmlns:xlink="http://www.w3.org/1999/xlink" x="0px" y="0px"
	 width="1440px" height="1440px" viewBox="0 0 1440 1440" enable-background="new 0 0 1440 1440" xml:space="preserve">
<g>
	<defs>
		<rect id="SVGID_1_" x="430.831" y="12.971" width="997.169" height="1425.029"/>
	</defs>
	<clipPath id="SVGID_2_">
		<use xlink:href="#SVGID_1_"  overflow="visible"/>
	</clipPath>
	<path clip-path="url(#SVGID_2_)" fill="#231F20" d="M794.308,131.711"/>
</g>
<path fill="none" stroke="#231F20" d="M794.308,131.711"/>
<g>
	<defs>
		<rect id="SVGID_3_" x="430.831" y="12.971" width="997.169" height="1425.029"/>
	</defs>
	<clipPath id="SVGID_4_">
		<use xlink:href="#SVGID_3_"  overflow="visible"/>
	</clipPath>
	<path clip-path="url(#SVGID_4_)" fill="#231F20" d="M793.308,139.711"/>
</g>
<path fill="none" stroke="#231F20" d="M793.308,139.711"/>
<g>
	<defs>
		<rect id="SVGID_5_" x="432.688" y="6.486" width="997.175" height="1425.03"/>
	</defs>
	<clipPath id="SVGID_6_">
		<use xlink:href="#SVGID_5_"  overflow="visible"/>
	</clipPath>
	<path clip-path="url(#SVGID_6_)" fill="#231F20" d="M711.171,725.227"/>
</g>
<path fill="none" stroke="#231F20" d="M711.171,725.227"/>
<g>
	<defs>
		<rect id="SVGID_7_" x="432.688" y="6.486" width="997.175" height="1425.03"/>
	</defs>
	<clipPath id="SVGID_8_">
		<use xlink:href="#SVGID_7_"  overflow="visible"/>
	</clipPath>
	<path clip-path="url(#SVGID_8_)" fill="#231F20" d="M711.171,725.227"/>
</g>
<path fill="none" stroke="#231F20" d="M711.171,725.227"/>
<g>
	<defs>
		<rect id="SVGID_9_" x="432.688" y="6.486" width="997.175" height="1425.03"/>
	</defs>
	<clipPath id="SVGID_10_">
		<use xlink:href="#SVGID_9_"  overflow="visible"/>
	</clipPath>
	<path clip-path="url(#SVGID_10_)" fill="#0000FF" d="M531.136,885.275l-1.212-1.371c0.965-0.811,1.595-0.688,2.493,0.24l1.395-1.23
		c-1.909-2.117-3.565-2.135-5.432-0.486l-2.587,2.281l2.621,2.971L531.136,885.275z M536.305,890.92l-1.244-1.342
		c0.944-0.834,1.577-0.725,2.498,0.182l1.364-1.266c-1.959-2.07-3.616-2.049-5.442-0.355l-2.531,2.346l2.692,2.904L536.305,890.92z
		 M555.265,887.793c-3.383-3.236-6.828-3.627-9.131-1.221c-1.68,1.756-1.648,4.109-0.506,5.867c-1.929-0.807-3.705-0.555-5.22,1.027
		c-2.26,2.361-1.57,5.764,1.291,8.502c2.86,2.736,6.289,3.277,8.55,0.914c1.514-1.582,1.688-3.367,0.797-5.258
		c1.827,1.084,4.159,0.99,5.84-0.766C559.188,894.453,558.667,891.049,555.265,887.793 M549.29,894.035
		c-1.669-1.598-1.938-3.225-0.631-4.59c1.286-1.344,2.986-1.213,4.655,0.385s1.876,3.289,0.59,4.633
		C552.597,895.828,550.96,895.631,549.29,894.035 M543.607,899.975c-1.388-1.328-1.634-2.893-0.327-4.26
		c1.203-1.256,2.777-1.078,4.164,0.248c1.344,1.287,1.591,2.852,0.388,4.109C546.525,901.438,544.951,901.26,543.607,899.975
		 M562.685,902.184c1.113-1.377,2.771-1.234,4.218-0.064c1.796,1.451,2.187,3.309,0.728,5.256l2.776,2.436
		c2.64-3.268,2.063-7.088-1.601-10.047c-3.336-2.697-6.825-2.818-8.918-0.229c-1.51,1.867-1.371,4.178,0.25,5.99
		c-1.551-0.945-3.922-0.779-5.393,1.041c-2.055,2.543-1.561,5.797,1.799,8.512c3.478,2.811,7.444,2.197,9.896-0.836l-2.729-2.398
		c-1.527,1.891-3.488,2.312-5.191,0.936c-1.609-1.301-1.687-2.83-0.631-4.135c1.207-1.494,2.779-1.15,4.017-0.15
		c0.537,0.434,0.979,0.793,1.246,1.084l1.772-2.193c-0.435-0.273-0.873-0.59-1.316-0.947
		C562.089,905.211,561.554,903.582,562.685,902.184 M571.031,921.137l-1.478-1.08c0.77-1,1.412-1.014,2.488-0.301l1.098-1.5
		c-2.316-1.658-3.939-1.322-5.41,0.688l-2.037,2.783l3.195,2.34L571.031,921.137z M588.101,918.072l-3.821,0.393
		c-3.631,0.373-6.752,0.896-8.556,3.695c-1.819,2.826-1.301,6.23,2.482,8.666c3.506,2.258,7.232,1.627,9.377-1.703
		c0.309-0.479,0.559-1.031,0.782-1.602l-3.046-2.141c-0.15,0.51-0.376,0.971-0.717,1.5c-1.186,1.842-2.85,2.484-4.614,1.348
		c-1.715-1.105-1.789-2.652-0.847-4.115c1.234-1.916,3.408-2.301,7.213-2.777l6.795-0.797l1.365-2.117l-11.98-7.719l-1.722,2.674
		L588.101,918.072z M618.974,940.484c-1.293,3.23,0.193,5.57,3.369,6.842c3.258,1.305,5.881,0.32,7.304-2.02l-2.925-1.494
		c-0.758,1.086-1.844,1.621-3.237,1.062c-1.42-0.568-1.81-1.693-1.263-3.059l0.11-0.279l3.638,0.682
		c3.009,0.559,5.293,0.342,6.229-1.998c0.847-2.117-0.2-4.021-2.762-5.049c-1.81-0.725-3.782-0.641-5.048,0.5
		c0.229-1.459-0.338-2.623-1.731-3.182c-1.114-0.445-1.927-0.35-2.624-0.145l-0.713,1.781c0.43-0.021,0.796,0.029,1.131,0.162
		c0.529,0.213,0.74,0.652,0.484,1.293L618.974,940.484z M623.259,939.227c0.791-1.979,2.664-2.779,4.418-2.076
		c1.059,0.424,1.498,1.182,1.164,2.016c-0.492,1.227-1.623,1.064-3.193,0.791l-2.512-0.424L623.259,939.227z M637.873,948.186
		c0.464-1.457,1.597-1.947,2.911-1.527c1.286,0.408,1.928,1.463,1.462,2.92c-0.464,1.459-1.596,1.949-2.882,1.539
		C638.05,950.697,637.409,949.645,637.873,948.186 M646.892,940.133c-0.291,0.914-1.152,1.051-2.067,0.76l-4.202-1.338
		c-1.143-0.365-1.729-0.898-1.465-1.729c0.391-1.229,2.402-1.217,4.918-0.416C646.105,938.057,647.257,938.99,646.892,940.133
		 M634.386,947.076c-0.228,0.713-0.236,1.436-0.066,2.088c-0.73,0.02-1.596-0.131-2.282-0.35l-0.874,2.744
		c1.372,0.438,2.885,0.037,3.918-0.736c0.801,1.043,2.104,1.898,3.647,2.391c3.315,1.057,6.206,0.182,7.063-2.506
		c0.437-1.371,0.135-2.695-0.716-3.785c1.384-0.094,2.457-0.697,2.822-1.84c0.327-1.029,0.019-2.135-1.007-2.871
		c1.55,0.273,2.871-0.314,3.279-1.6c0.748-2.344-1.943-4.178-5.431-5.287c-3.916-1.248-7.994-1.098-8.995,2.045
		c-0.646,2.031,0.301,4,3.102,4.893l5.031,1.604c0.943,0.299,1.196,0.789,1.014,1.361c-0.127,0.4-0.428,0.65-0.805,0.752
		c-0.701-0.57-1.599-1.014-2.627-1.342C638.144,943.58,635.224,944.445,634.386,947.076 M654.675,953.033
		c0.357-1.488,1.451-2.059,2.793-1.738c1.312,0.314,2.027,1.32,1.672,2.809c-0.357,1.486-1.45,2.057-2.764,1.744
		C655.034,955.525,654.318,954.521,654.675,953.033 M663.082,944.342c-0.224,0.936-1.073,1.133-2.007,0.908l-4.288-1.027
		c-1.167-0.279-1.79-0.77-1.588-1.615c0.302-1.254,2.308-1.391,4.875-0.775C662.146,942.328,663.362,943.176,663.082,944.342
		 M651.116,952.18c-0.175,0.729-0.132,1.449,0.086,2.088c-0.727,0.072-1.602-0.014-2.301-0.182l-0.672,2.801
		c1.4,0.336,2.88-0.174,3.854-1.02c0.877,0.98,2.236,1.738,3.812,2.117c3.384,0.811,6.203-0.273,6.861-3.014
		c0.336-1.402-0.062-2.699-0.99-3.725c1.373-0.195,2.4-0.875,2.68-2.041c0.252-1.051-0.137-2.131-1.213-2.791
		c1.566,0.16,2.84-0.521,3.154-1.834c0.574-2.393-2.244-4.023-5.803-4.877c-3.996-0.959-8.053-0.512-8.822,2.697
		c-0.496,2.072,0.593,3.967,3.451,4.654l5.135,1.229c0.963,0.232,1.25,0.701,1.111,1.285c-0.099,0.408-0.38,0.68-0.75,0.807
		c-0.738-0.516-1.666-0.893-2.717-1.145C654.608,948.42,651.759,949.496,651.116,952.18 M668.435,955.484
		c-0.559,3.436,1.4,5.396,4.775,5.947c3.465,0.564,5.812-0.969,6.69-3.561l-3.179-0.822c-0.504,1.225-1.448,1.982-2.928,1.74
		c-1.511-0.246-2.136-1.26-1.9-2.709l0.049-0.297l3.699-0.127c3.057-0.109,5.24-0.818,5.645-3.305
		c0.367-2.25-1.068-3.883-3.793-4.326c-1.925-0.314-3.832,0.195-4.818,1.586c-0.094-1.475-0.901-2.488-2.381-2.73
		c-1.186-0.191-1.959,0.076-2.594,0.43l-0.309,1.895c0.414-0.115,0.783-0.145,1.139-0.088c0.562,0.092,0.865,0.475,0.754,1.156
		L668.435,955.484z M672.343,953.326c0.342-2.102,1.996-3.293,3.861-2.988c1.125,0.184,1.719,0.826,1.574,1.717
		c-0.212,1.301-1.352,1.389-2.943,1.465l-2.545,0.133L672.343,953.326z M691.685,963.305l2.902,0.219l3.053-8.617l0.119,0.008
		l2.094,9.002l3.56,0.268l-3.198-13.506l-3.5-0.264l-3.047,8.527l-0.119-0.01l-1.742-8.885l-3.469-0.26l-5.178,12.879l3.262,0.244
		l3.381-8.592l0.119,0.01L691.685,963.305z M716.705,957.875c0.029,2.221-1.093,3.674-2.923,3.699
		c-1.77,0.021-2.594-1.137-2.62-3.178l-0.097-7.529l-3.6,0.047l0.105,8.248c0.038,2.941,1.357,5.324,4.898,5.279
		c1.979-0.025,3.646-1.068,4.287-2.576l0.101,7.83l3.599-0.047l-0.24-18.898l-3.601,0.047L716.705,957.875z M737.855,955.975
		c-0.37-4.186-3.513-6.678-7.577-6.316c-3.914,0.346-5.838,3.107-5.855,6.301l3.041,0.002c0.092-2.025,1.086-3.379,3.059-3.555
		c1.972-0.174,3.477,1.168,3.718,3.887c0.243,2.75-1.002,4.336-2.974,4.512c-1.973,0.174-3.188-0.953-3.631-2.902l-3,0.477
		c0.58,3.143,2.959,5.521,6.875,5.174C735.574,963.193,738.226,960.156,737.855,955.975 M757.298,953.059
		c-0.746-4.498-4.621-6.41-9.416-5.615c-4.203,0.695-7.041,3.203-6.433,6.873c0.5,3.02,2.506,4.48,6.289,4.553l3.536,0.053
		c1.74,0.045,2.796,0.357,3.021,1.719c0.266,1.598-0.815,2.781-3.006,3.145c-2.545,0.422-4.424-0.635-4.964-3.162l-3.384,0.684
		c0.746,4.133,3.916,6.193,8.799,5.385c4.352-0.723,6.73-3.428,6.15-6.92c-0.51-3.078-2.786-4.342-5.775-4.395l-3.66-0.062
		c-2.017-0.062-3.23-0.408-3.465-1.828c-0.26-1.568,1.068-2.732,3.376-3.113c2.604-0.432,4.922,0.521,5.55,3.398L757.298,953.059z
		 M777.759,945.449c-1.082-3.062-4.022-3.818-7.352-2.914c-3.301,0.898-5.165,2.959-4.456,5.566c0.653,2.4,2.552,3.098,5.362,2.799
		l2.542-0.254c0.966-0.109,1.538,0.172,1.728,0.865c0.237,0.869-0.424,1.639-1.669,1.979c-1.823,0.496-3.005,0.039-3.63-1.346
		l-2.835,0.895c1.003,2.775,3.55,3.793,7.081,2.832c3.243-0.881,4.841-3.119,4.18-5.551c-0.645-2.375-2.426-2.979-5.266-2.672
		l-2.12,0.203c-1.329,0.145-2.011-0.074-2.247-0.943c-0.252-0.926,0.672-1.645,1.946-1.99c1.766-0.48,3.137-0.014,3.756,1.465
		L777.759,945.449z M787.886,953.699l-3.508,1.148l1.092,3.336l3.506-1.148L787.886,953.699z M787.157,951.666l-4.111-12.576
		l-3.422,1.119l4.111,12.576L787.157,951.666z M790.024,950.531c0.48,0.176,1.172,0.143,1.932-0.137
		c1.717-0.633,2.533-2.406,2.465-3.98l0.873,2.365l3.377-1.248l-4.584-12.41l-3.377,1.246l2.266,6.135
		c0.832,2.252,0.106,3.928-1.639,4.57c-0.815,0.303-1.44,0.342-2.224,0.215L790.024,950.531z M809.199,936.33
		c0.897,2.031,0.438,3.809-1.235,4.549c-1.619,0.717-2.832-0.027-3.658-1.893l-3.045-6.887l-3.293,1.457l3.336,7.545
		c1.189,2.688,3.34,4.361,6.578,2.93c1.811-0.801,2.935-2.414,2.932-4.051l3.167,7.16l3.292-1.455l-7.645-17.287l-3.291,1.457
		L809.199,936.33z M833.944,926c-2.809-5.098-8.333-6.609-13.037-4.02c-4.889,2.691-5.915,7.23-3.889,11.594l3.226-1.604
		c-1.124-2.602-0.767-5.436,2.255-7.1c2.943-1.621,6.104-0.484,8.028,3.01c1.925,3.496,1.196,6.775-1.747,8.396
		c-3.021,1.664-5.607,0.451-7.205-1.889l-3.081,1.867c2.591,4.02,6.99,5.604,11.878,2.91C835.076,936.576,836.751,931.1,833.944,926
		 M844.905,911.129c-1.625-2.305-3.541-2.055-5.209-0.879c-1.324,0.934-1.965,1.898-2.334,3.041l1.365,1.938
		c0.43-0.744,0.888-1.398,1.476-1.812c0.884-0.623,1.595-0.5,2.25,0.434l3.769,5.346l-2.942,2.074l1.452,2.059l2.941-2.074
		l2.109,2.992l1.79-1.262l-0.694-1.713c-0.463-1.18-0.549-1.926,0.385-2.84l0.648-0.643l-1.227-1.74l-1.545,1.09L844.905,911.129z
		 M858.714,915.822l-2.936,2.234l2.125,2.793l2.938-2.234L858.714,915.822z M857.358,914.141l-8.012-10.529l-2.865,2.18
		l8.012,10.529L857.358,914.141z M866.957,903.143c1.499,0.836,3.224,0.795,4.978-0.754c1.507-1.33,1.957-3.086,1.459-4.648
		l1.43,1.619l2.698-2.383l-8.755-9.918l-2.699,2.383l4.686,5.307c1.469,1.666,1.635,3.439,0.33,4.592
		c-1.304,1.15-2.572,0.711-3.924-0.818l-4.982-5.646l-2.699,2.385l4.686,5.307c1.469,1.664,1.635,3.438,0.33,4.59
		c-1.327,1.172-2.572,0.711-3.923-0.818l-4.983-5.645l-2.699,2.383l5.459,6.186c1.906,2.158,4.39,3.248,7.065,0.885
		C867.032,906.719,867.449,904.787,866.957,903.143 M905.089,841.699l-2.234-1.516c-7.82-5.307-14.594-3.738-19.057,2.84
		c-4.381,6.455-3.334,13.328,3.68,18.086c6.02,4.086,10.813,2.896,16.556,0.178l4.636-2.021c2.588-1.145,4.691-1.439,7.299,0.33
		c2.543,1.727,3.504,3.918,2.029,6.092c-1.684,2.48-4.304,2.336-7.842-0.066l-2.296-1.557l-4.591,6.764l2.234,1.518
		c7.51,5.096,14.049,4.273,18.639-2.49c4.254-6.27,2.646-13.25-3.87-17.672c-6.517-4.422-11.459-2.881-16.386-0.695l-4.238,1.838
		c-3.152,1.305-5.156,2.121-7.948,0.227c-2.606-1.77-3.358-4-1.758-6.359c1.769-2.607,4.805-2.541,8.155-0.266l2.359,1.6
		L905.089,841.699z M891.995,832.215l21.521,10.793l5.682-11.33l-6.302-3.16l-1.749,3.486l-0.805-0.404
		c-4.961-2.488-7.607-4.906-6.027-8.057s5.135-2.543,10.096-0.055l13.609,6.826c4.894,2.453,7.609,4.738,5.994,7.955
		c-1.613,3.219-5,2.275-9.895-0.18l-2.346-1.176l-4.068,8.111l0.938,0.471c10.123,5.076,17.705,5.02,22.143-3.83
		c4.473-8.918-0.35-15.865-12.35-21.885l-6.034-3.025c-12.001-6.018-20.285-6.062-24.252,1.85c-1.614,3.217-1.619,6.908,0.993,9.393
		l-4.357-1.348L891.995,832.215z M952.449,813.473l-44.073-17.033l-3.353,8.674l44.073,17.033L952.449,813.473z M933.785,790.793
		l0.077-0.289l26.646-3.32l2.194-8.264l-45.666-12.131l-2.214,8.336l26.602,7.066l-0.076,0.291l-29.568,4.096l-1.811,6.812
		l45.666,12.133l2.215-8.336L933.785,790.793z M950.647,751.164c5.432,0.68,8.902,1.945,8.455,5.518
		c-0.447,3.57-4.121,3.943-9.555,3.264l-15.033-1.881c-5.432-0.68-8.901-1.945-8.455-5.518c0.447-3.572,4.121-3.943,9.555-3.266
		L950.647,751.164z M943.966,768.92c13.32,1.668,21.396-1.252,22.653-11.299c1.267-10.121-5.841-14.939-19.162-16.607l-6.251-0.781
		c-13.32-1.668-21.396,1.252-22.662,11.373c-1.258,10.047,5.85,14.867,19.17,16.533L943.966,768.92z M968.284,758.812l-0.885,7.068
		l8.633,1.082l0.884-7.07L968.284,758.812z M969.41,749.809l-0.894,7.143l8.633,1.08l0.895-7.143L969.41,749.809z M920.996,739.9
		l26.513-9.041l20.732,8.287l-0.123-9.6l-22.609-8.412l22.498-0.287l-0.119-9.3l-47.246,0.604l0.119,9.299l11.174-0.143l7.011,2.686
		l-18.073,6.156L920.996,739.9z M930.519,669.81l-2.65,0.509c-9.281,1.78-12.96,7.68-11.462,15.487
		c1.47,7.66,7.072,11.779,15.396,10.182c7.144-1.371,9.692-5.602,11.828-11.587l1.846-4.707c1.021-2.64,2.299-4.336,5.393-4.931
		c3.02-0.578,5.249,0.291,5.743,2.869c0.565,2.946-1.39,4.696-5.588,5.502l-2.726,0.523l1.541,8.028l2.651-0.509
		c8.912-1.711,12.954-6.916,11.413-14.943c-1.428-7.439-7.502-11.238-15.236-9.754s-10.138,6.07-12.074,11.1l-1.695,4.297
		c-1.305,3.152-2.145,5.146-5.458,5.782c-3.095,0.593-5.204-0.453-5.741-3.252c-0.594-3.093,1.6-5.194,5.577-5.958l2.799-0.537
		L930.519,669.81z M921.745,670.666l-3.898-12.453l12.097-3.787l2.89,9.232l7.301-2.286l-2.891-9.233l11.094-3.473l3.854,12.312
		l7.301-2.285l-6.565-20.972l-45.092,14.117l6.61,21.113L921.745,670.666z M932.603,639.173c11.73-5.363,16.13-12.158,11.951-21.297
		l-5.334-11.664l-42.972,19.647l5.333,11.664c4.18,9.14,12.195,10.258,23.928,4.894L932.603,639.173z M919.056,634.977
		c-6.004,2.745-9.418,2.491-11.258-1.532l-0.998-2.184l29.603-13.534l0.998,2.182c1.84,4.024-0.202,6.772-6.204,9.517
		L919.056,634.977z M895.243,609.218l-7.52-10.666l10.361-7.303l5.574,7.908l6.252-4.406l-5.574-7.908l9.502-6.697l7.433,10.544
		l6.253-4.408l-12.66-17.961l-38.621,27.222l12.747,18.084L895.243,609.218z M869.689,587.997l29.368-26.563l6.088,6.729
		l5.674-5.131l-18.264-20.19l-5.672,5.131l5.936,6.563l-29.369,26.563L869.689,587.997z M851.773,569.65l25.618-30.197l6.92,5.871
		l4.949-5.834l-20.76-17.611l-4.949,5.832l6.748,5.727l-25.619,30.197L851.773,569.65z M843.24,552.314l-10.798-7.327l7.117-10.488
		l8.005,5.433l4.296-6.33l-8.006-5.434l6.527-9.619l10.674,7.244l4.295-6.33l-18.184-12.34l-26.529,39.1l18.308,12.423
		L843.24,552.314z M819.714,522.757l-0.271-0.131l8.235-26.353l-6.271-3.052l-15.587,22.775l-0.269-0.132l8.235-26.353l-7.958-3.873
		l-13.525,45.967l7.822,3.806l14.959-21.997l0.27,0.131l-8.012,25.379l7.822,3.806l27.823-39.009l-7.688-3.74L819.714,522.757z
		 M775.103,517.261l-12.652-3.195l3.104-12.289l9.381,2.37l1.873-7.417l-9.379-2.37l2.848-11.271l12.507,3.159l1.874-7.417
		l-21.307-5.383l-11.573,45.811l21.451,5.42L775.103,517.261z M746.823,470.753l-7.602,46.633l9.18,1.496l7.602-46.634
		L746.823,470.753z M737.943,489.107c0.644-12.885-3.361-19.917-13.399-20.418l-12.809-0.639l-2.355,47.19l12.811,0.64
		c10.037,0.5,14.722-6.1,15.365-18.983L737.943,489.107z M727.979,499.198c-0.329,6.592-2.126,9.506-6.546,9.285l-2.397-0.119
		l1.622-32.51l2.396,0.12c4.42,0.22,5.918,3.299,5.59,9.891L727.979,499.198z"/>
</g>
</svg>
