<?xml version="1.0" encoding="utf-8"?>
<!-- Generator: Adobe Illustrator 16.0.4, SVG Export Plug-In . SVG Version: 6.00 Build 0)  -->
<!DOCTYPE svg PUBLIC "-//W3C//DTD SVG 1.1//EN" "http://www.w3.org/Graphics/SVG/1.1/DTD/svg11.dtd">
<svg version="1.1" id="Ebene_1" xmlns="http://www.w3.org/2000/svg" xmlns:xlink="http://www.w3.org/1999/xlink" x="0px" y="0px"
	 width="1440px" height="1440px" viewBox="0 0 1440 1440" enable-background="new 0 0 1440 1440" xml:space="preserve">
<g>
	<defs>
		<rect id="SVGID_1_" x="430.831" y="12.971" width="997.169" height="1425.029"/>
	</defs>
	<clipPath id="SVGID_2_">
		<use xlink:href="#SVGID_1_"  overflow="visible"/>
	</clipPath>
	<path clip-path="url(#SVGID_2_)" fill="#231F20" d="M794.308,131.711"/>
</g>
<path fill="none" stroke="#231F20" d="M794.308,131.711"/>
<g>
	<defs>
		<rect id="SVGID_3_" x="430.831" y="12.971" width="997.169" height="1425.029"/>
	</defs>
	<clipPath id="SVGID_4_">
		<use xlink:href="#SVGID_3_"  overflow="visible"/>
	</clipPath>
	<path clip-path="url(#SVGID_4_)" fill="#231F20" d="M793.308,139.711"/>
</g>
<path fill="none" stroke="#231F20" d="M793.308,139.711"/>
<g>
	<defs>
		<rect id="SVGID_5_" x="432.688" y="6.486" width="997.175" height="1425.03"/>
	</defs>
	<clipPath id="SVGID_6_">
		<use xlink:href="#SVGID_5_"  overflow="visible"/>
	</clipPath>
	<path clip-path="url(#SVGID_6_)" fill="#231F20" d="M711.171,725.227"/>
</g>
<path fill="none" stroke="#231F20" d="M711.171,725.227"/>
<g>
	<defs>
		<rect id="SVGID_7_" x="432.688" y="6.486" width="997.175" height="1425.03"/>
	</defs>
	<clipPath id="SVGID_8_">
		<use xlink:href="#SVGID_7_"  overflow="visible"/>
	</clipPath>
	<path clip-path="url(#SVGID_8_)" fill="#231F20" d="M711.171,725.227"/>
</g>
<path fill="none" stroke="#231F20" d="M711.171,725.227"/>
<g>
	<defs>
		<rect id="SVGID_9_" x="432.688" y="6.486" width="997.175" height="1425.03"/>
	</defs>
	<clipPath id="SVGID_10_">
		<use xlink:href="#SVGID_9_"  overflow="visible"/>
	</clipPath>
	<g clip-path="url(#SVGID_10_)">
		<defs>
			<rect id="SVGID_11_" x="530.82" y="6" width="882.111" height="1360.398"/>
		</defs>
		<clipPath id="SVGID_12_">
			<use xlink:href="#SVGID_11_"  overflow="visible"/>
		</clipPath>
		<path clip-path="url(#SVGID_12_)" fill="#231F20" d="M706.662,724.957"/>
	</g>
	<path clip-path="url(#SVGID_10_)" fill="none" stroke="#231F20" d="M706.662,724.957"/>
	<g clip-path="url(#SVGID_10_)">
		<defs>
			<rect id="SVGID_13_" x="530.82" y="6" width="882.111" height="1360.398"/>
		</defs>
		<clipPath id="SVGID_14_">
			<use xlink:href="#SVGID_13_"  overflow="visible"/>
		</clipPath>
		<path clip-path="url(#SVGID_14_)" fill="#231F20" d="M706.662,724.957"/>
	</g>
	<path clip-path="url(#SVGID_10_)" fill="none" stroke="#231F20" d="M706.662,724.957"/>
	<g clip-path="url(#SVGID_10_)">
		<defs>
			<rect id="SVGID_15_" x="535.32" y="6.486" width="882.111" height="1360.399"/>
		</defs>
		<clipPath id="SVGID_16_">
			<use xlink:href="#SVGID_15_"  overflow="visible"/>
		</clipPath>
		<path clip-path="url(#SVGID_16_)" fill="#0000FF" d="M859.18,1210.914l-1.75,0.531c-0.338-1.215,0.037-1.734,1.254-2.168
			l-0.539-1.779c-2.719,0.857-3.424,2.355-2.701,4.738l1.004,3.301l3.789-1.15L859.18,1210.914z M866.332,1208.674l-1.744,0.555
			c-0.354-1.211,0.016-1.736,1.227-2.184l-0.562-1.773c-2.707,0.891-3.393,2.4-2.639,4.773l1.043,3.287l3.773-1.197
			L866.332,1208.674z M873.984,1206.406c2.25-5.061,2.342-10.395,0.32-16.52l-3.885,1.342c1.98,5.822,2.805,10.965-0.133,17.156
			l0.891,2.58l13.072-4.52l-1.107-3.203L873.984,1206.406z M885.76,1191.447c-0.631-1.652,0.328-3.014,2.066-3.678
			c2.158-0.822,3.959-0.225,4.908,2.012l3.502-1.174c-1.498-3.924-5.09-5.346-9.492-3.668c-4.008,1.529-5.865,4.486-4.678,7.596
			c0.855,2.244,2.922,3.285,5.303,2.793c-1.596,0.867-2.645,3-1.811,5.188c1.166,3.055,4.229,4.262,8.264,2.723
			c4.178-1.594,5.641-5.33,4.25-8.975l-3.445,1.154c0.867,2.27,0.246,4.178-1.801,4.957c-1.934,0.738-3.293,0.037-3.893-1.533
			c-0.684-1.793,0.404-2.98,1.891-3.545c0.645-0.246,1.178-0.451,1.562-0.533l-1.004-2.635c-0.455,0.238-0.949,0.459-1.482,0.662
			C888.078,1193.484,886.402,1193.131,885.76,1191.447 M906.225,1194.008l-1.693,0.695c-0.451-1.178-0.127-1.732,1.043-2.277
			l-0.707-1.721c-2.625,1.111-3.184,2.67-2.238,4.975l1.312,3.189l3.662-1.504L906.225,1194.008z M915.803,1179.879
			c0.859,1.949,0.209,3.744-1.879,4.664c-2.111,0.932-3.877,0.199-4.736-1.748c-0.834-1.895-0.195-3.719,1.891-4.637
			C913.137,1177.252,914.982,1178.012,915.803,1179.879 M916.473,1190.697c-1.865,0.822-3.303,0.242-4.234-1.279l-3.176,1.498
			c1.777,3.215,4.996,4.123,8.566,2.551c4.914-2.166,5.635-7.074,3.277-12.426c-2.371-5.383-6.359-7.658-11.08-5.576
			c-3.898,1.717-5.494,5.24-3.896,8.863c1.488,3.377,4.834,4.723,8.596,3.064c2.277-1.004,3.387-2.805,3.395-4.645
			C919.451,1186.369,919.219,1189.486,916.473,1190.697 M953.807,1171.439l-3.254,1.74l1.654,3.094l3.254-1.738L953.807,1171.439z
			 M952.736,1169.562l-6.236-11.668l-3.174,1.697l6.234,11.668L952.736,1169.562z M958.934,1163.07l2.006-10.451l-1.213-2.139
			l-10.021,5.682l1.318,2.324l6.262-3.553l-2.109,10.51l1.213,2.141l9.707-5.506l-1.316-2.322L958.934,1163.07z M973.912,1159.916
			l-3.162,1.9l1.807,3.008l3.162-1.898L973.912,1159.916z M972.748,1158.096l-6.812-11.34l-3.086,1.852l6.812,11.342
			L972.748,1158.096z M979.434,1141.354c-1.467-1.023-3.561-1.186-5.512,0.053c-3.342,2.125-3.447,5.816-1.355,9.109
			c2.09,3.291,5.494,4.789,8.787,2.699c2-1.271,2.65-3.213,2.287-4.902l4.408,6.939l3.039-1.932l-10.135-15.953l-2.33,1.48
			L979.434,1141.354z M981.623,1145.08c1.287,2.025,0.877,4.064-0.846,5.158c-1.924,1.223-3.797,0.457-5.148-1.67
			c-1.334-2.102-1.232-4.121,0.693-5.344c1.721-1.094,3.725-0.625,5.027,1.426L981.623,1145.08z M990.006,1141.523
			c1.957,2.879,4.729,2.953,7.557,1.029c2.902-1.973,3.551-4.699,2.404-7.186l-2.871,1.59c0.477,1.236,0.312,2.436-0.928,3.279
			c-1.266,0.859-2.416,0.555-3.242-0.662l-0.17-0.248l2.598-2.637c2.145-2.182,3.24-4.197,1.822-6.281
			c-1.281-1.885-3.445-2.082-5.729-0.529c-1.613,1.096-2.646,2.777-2.406,4.465c-1.082-1.006-2.365-1.186-3.605-0.342
			c-0.992,0.676-1.367,1.402-1.588,2.096l1.08,1.586c0.223-0.367,0.469-0.645,0.768-0.846c0.471-0.32,0.955-0.25,1.342,0.32
			L990.006,1141.523z M991.357,1137.268c-1.199-1.76-0.818-3.762,0.746-4.824c0.941-0.641,1.816-0.582,2.322,0.162
			c0.742,1.092-0.023,1.939-1.129,3.088l-1.754,1.848L991.357,1137.268z M1009.83,1125.783c1.316,1.787,1.25,3.623-0.223,4.709
			c-1.426,1.049-2.771,0.586-3.98-1.057l-4.465-6.064l-2.898,2.133l4.891,6.645c1.742,2.369,4.203,3.537,7.055,1.439
			c1.594-1.174,2.342-2.992,1.986-4.592l4.641,6.307l2.898-2.133l-11.201-15.223l-2.9,2.133L1009.83,1125.783z M1023.633,1111.699
			c-2.189-2.4-5.191-1.951-7.906,0.18c-2.691,2.109-3.605,4.734-1.939,6.859c1.537,1.959,3.559,1.861,6.031,0.492l2.24-1.225
			c0.85-0.477,1.486-0.441,1.93,0.125c0.557,0.709,0.248,1.676-0.768,2.471c-1.486,1.168-2.752,1.207-3.867,0.176l-2.262,1.928
			c2.004,2.164,4.744,2.111,7.623-0.148c2.645-2.074,3.246-4.758,1.689-6.74c-1.518-1.936-3.395-1.799-5.891-0.412l-1.873,1.014
			c-1.17,0.648-1.881,0.713-2.438,0.006c-0.592-0.756-0.021-1.777,1.018-2.592c1.439-1.131,2.885-1.232,4.031-0.111
			L1023.633,1111.699z M1030.432,1108.35c-1.453-1.717-1.559-3.514-0.209-4.658c1.352-1.143,2.699-0.711,3.998,0.822l4.885,5.771
			l2.748-2.326l-5.35-6.32c-1.898-2.244-4.346-3.277-7.025-1.01c-1.533,1.299-2.086,3.062-1.623,4.676l-1.396-1.65l-2.748,2.326
			l8.547,10.1l2.748-2.326L1030.432,1108.35z M1042.965,1089.234l6.676,14.049l-0.088,0.08l-10.023-10.996l-2.795,2.547
			l12.732,13.969l4.279-3.902l-6.352-12.801l0.066-0.061l12.316,7.365l4.367-3.982l-12.732-13.967l-2.572,2.346l10.025,10.996
			l-0.09,0.08l-13.439-7.885L1042.965,1089.234z M1060.217,1065.68l7.736,18.088l2.445-2.518l-3.994-8.852l0.084-0.086l8.986,3.707
			l2.633-2.713l-13.359-5.318l-2.066-4.848L1060.217,1065.68z M1082.525,1060.699c0.996,1.357,1.324,2.998-0.01,4.459
			c-1.355,1.484-3.068,1.18-4.279,0.236L1082.525,1060.699z M1075.434,1063.525c-0.764-1.387-0.609-2.67,0.586-3.975
			c1.314-1.441,3.365-1.641,4.887-0.412l-6.699,7.33l0.953,0.871c2.658,2.428,6.371,2.811,9.285-0.377
			c2.67-2.926,2.459-7.141-0.621-9.953c-3.078-2.812-6.988-2.402-9.74,0.609c-2.287,2.504-2.539,5.361-0.834,7.854
			L1075.434,1063.525z M1092.775,1047.604c1.693,1.436,2.053,3.236,0.869,4.631c-1.146,1.352-2.562,1.211-4.117-0.109l-5.74-4.873
			l-2.33,2.744l6.289,5.34c2.24,1.902,4.906,2.473,7.197-0.227c1.279-1.51,1.59-3.451,0.875-4.924l1.645,1.398l2.33-2.746
			l-10.084-8.562l-2.33,2.744L1092.775,1047.604z M1103.656,1034.25c1.734,1.385,2.148,3.174,1.008,4.604
			c-1.105,1.383-2.525,1.287-4.119,0.014l-5.885-4.697l-2.246,2.812l6.447,5.146c2.299,1.836,4.979,2.324,7.188-0.441
			c1.234-1.549,1.486-3.498,0.727-4.949l1.688,1.348l2.246-2.812l-10.34-8.256l-2.246,2.812L1103.656,1034.25z M1110.34,1027.898
			c2.797,2.072,5.439,1.229,7.475-1.518c2.09-2.822,1.803-5.609-0.1-7.578l-2.186,2.449c0.855,1.008,1.098,2.193,0.205,3.4
			c-0.91,1.229-2.1,1.32-3.279,0.445l-0.242-0.18l1.582-3.346c1.305-2.768,1.676-5.031-0.35-6.531
			c-1.832-1.357-3.941-0.828-5.584,1.389c-1.16,1.566-1.58,3.496-0.797,5.008c-1.355-0.592-2.625-0.338-3.52,0.867
			c-0.713,0.965-0.828,1.775-0.807,2.5l1.543,1.145c0.088-0.422,0.229-0.764,0.443-1.053c0.34-0.459,0.818-0.551,1.373-0.141
			L1110.34,1027.898z M1110.213,1023.436c-1.711-1.268-2.012-3.283-0.887-4.801c0.68-0.916,1.523-1.148,2.248-0.613
			c1.059,0.787,0.615,1.838-0.047,3.289l-1.049,2.322L1110.213,1023.436z M1127.504,1015.973l-2.125,3.016l2.869,2.021l2.125-3.018
			L1127.504,1015.973z M1125.703,1014.777l-10.816-7.619l-2.072,2.943l10.816,7.619L1125.703,1014.777z M1120.826,998.428
			l11.67,16.625l2.068-3.129l-8.924-12.51l0.066-0.1l15.041,3.246l2.166-3.279l-19.889-4.182L1120.826,998.428z M1143.66,976.812
			c1.25,1.127,1.904,2.666,0.893,4.369c-1.025,1.729-2.764,1.777-4.141,1.1L1143.66,976.812z M1137.287,981.02
			c-1.029-1.205-1.137-2.49-0.234-4.012c0.996-1.678,2.965-2.289,4.703-1.396l-5.072,8.539l1.109,0.658
			c3.096,1.838,6.811,1.461,9.014-2.252c2.023-3.406,0.961-7.492-2.625-9.621s-7.33-0.934-9.414,2.574
			c-1.73,2.916-1.398,5.764,0.777,7.857L1137.287,981.02z M1155.625,970.727l-1.789,3.227l3.07,1.701l1.789-3.227L1155.625,970.727z
			 M1153.707,969.73l-11.572-6.412l-1.744,3.148l11.57,6.414L1153.707,969.73z M1155.059,966.936
			c0.475-0.189,0.971-0.674,1.35-1.389c0.857-1.615,0.287-3.482-0.812-4.609l2.225,1.182l1.689-3.18l-11.686-6.205l-1.688,3.18
			l5.775,3.066c2.119,1.127,2.695,2.859,1.822,4.502c-0.408,0.768-0.848,1.213-1.516,1.639L1155.059,966.936z M1157.793,951.938
			c3.121,1.539,5.568,0.238,7.082-2.83c1.553-3.146,0.773-5.84-1.449-7.438l-1.715,2.801c1.023,0.838,1.473,1.963,0.809,3.309
			c-0.678,1.371-1.828,1.674-3.146,1.023l-0.27-0.133l0.961-3.574c0.789-2.955,0.75-5.25-1.51-6.365
			c-2.045-1.008-4.025-0.113-5.248,2.363c-0.861,1.748-0.932,3.721,0.107,5.07c-1.436-0.342-2.641,0.135-3.305,1.48
			c-0.531,1.076-0.5,1.893-0.35,2.604l1.723,0.85c0.012-0.43,0.09-0.791,0.25-1.115c0.252-0.51,0.707-0.688,1.324-0.383
			L1157.793,951.938z M1156.871,947.568c-1.91-0.943-2.564-2.871-1.729-4.566c0.504-1.023,1.295-1.402,2.102-1.004
			c1.184,0.584,0.934,1.699,0.539,3.244l-0.617,2.473L1156.871,947.568z M1160.723,925.982l11.773,10.164l-0.047,0.109
			l-13.607-6.021l-1.529,3.455l17.281,7.65l2.344-5.295l-10.975-9.154l0.037-0.082l14.24,1.773l2.391-5.404l-17.283-7.648
			l-1.406,3.184l13.605,6.02l-0.049,0.111l-15.475-1.797L1160.723,925.982z M1179.314,899.215c2.074,0.789,3.016,2.365,2.365,4.076
			c-0.627,1.654-2.008,1.996-3.916,1.271l-7.039-2.674l-1.277,3.367l7.713,2.928c2.748,1.043,5.449,0.691,6.705-2.619
			c0.703-1.852,0.346-3.783-0.822-4.934l2.021,0.768l1.277-3.367l-12.369-4.695l-1.277,3.365L1179.314,899.215z M1183.75,891.137
			c3.297,1.117,5.553-0.492,6.652-3.73c1.129-3.324,0.004-5.893-2.408-7.186l-1.336,3c1.125,0.699,1.717,1.756,1.236,3.176
			c-0.492,1.449-1.596,1.898-2.986,1.426l-0.285-0.096l0.484-3.67c0.396-3.033,0.057-5.303-2.33-6.113
			c-2.158-0.73-4.004,0.416-4.893,3.029c-0.627,1.848-0.438,3.811,0.771,5.014c-1.471-0.15-2.604,0.48-3.084,1.9
			c-0.385,1.135-0.248,1.943-0.004,2.627l1.816,0.617c-0.045-0.428-0.014-0.797,0.102-1.139c0.184-0.539,0.611-0.773,1.264-0.553
			L1183.75,891.137z M1182.266,886.926c-2.018-0.686-2.92-2.51-2.311-4.301c0.365-1.078,1.098-1.559,1.951-1.27
			c1.25,0.424,1.148,1.562,0.961,3.145l-0.289,2.531L1182.266,886.926z M1191.004,866.932c1.48,0.797,2.482,2.139,1.902,4.033
			c-0.59,1.922-2.268,2.381-3.766,2.047L1191.004,866.932z M1185.807,872.525c-1.283-0.928-1.693-2.15-1.176-3.844
			c0.572-1.865,2.338-2.924,4.238-2.467l-2.908,9.494l1.234,0.379c3.441,1.053,6.961-0.191,8.225-4.322
			c1.16-3.785-0.838-7.504-4.826-8.725c-3.986-1.223-7.344,0.824-8.539,4.727c-0.99,3.242,0.004,5.932,2.613,7.451L1185.807,872.525
			z M1204.631,858.938l-11.623-3.107c-2.666-0.711-3.662-2.096-3.074-4.299c0.598-2.23,2.436-2.951,5.119-2.42l0.785-3.516
			c-4.639-1.117-7.816,0.891-8.947,5.123c-1.092,4.086,0.309,7.441,4.916,8.674l11.855,3.168L1204.631,858.938z M1200.154,826.98
			c2.17,0.469,3.336,1.889,2.949,3.678c-0.375,1.73-1.689,2.273-3.684,1.844l-7.359-1.594l-0.762,3.52l8.064,1.744
			c2.873,0.621,5.492-0.131,6.24-3.592c0.418-1.936-0.225-3.793-1.551-4.756l7.654,1.656l0.76-3.52l-18.473-3.996l-0.76,3.52
			L1200.154,826.98z M1199.273,811.924c-2.773-0.514-3.971,1.006-4.342,3.012c-0.293,1.592-0.076,2.73,0.457,3.805l2.33,0.432
			c-0.213-0.832-0.342-1.619-0.211-2.326c0.197-1.062,0.791-1.471,1.912-1.264l6.43,1.189l-0.652,3.539l2.477,0.459l0.654-3.541
			l3.6,0.666l0.398-2.154l-1.693-0.738c-1.154-0.52-1.738-0.994-1.711-2.301l0.018-0.912l-2.096-0.387l-0.344,1.857
			L1199.273,811.924z M1212.537,805.621l-0.605,3.641l3.463,0.576l0.605-3.641L1212.537,805.621z M1210.396,805.326l-13.051-2.168
			l-0.59,3.551l13.051,2.17L1210.396,805.326z M1212.15,793.5l0.389-2.885l-8.418-3.559l0.016-0.119l9.109-1.555l0.479-3.537
			l-13.674,2.391l-0.469,3.479l8.328,3.547l-0.016,0.119l-8.973,1.209l-0.465,3.447l12.547,5.936l0.439-3.24l-8.375-3.887
			l0.016-0.119L1212.15,793.5z M1234.527,742.928l-47.207-2.018l-0.398,9.291l47.207,2.018L1234.527,742.928z M1212.869,719.22
			l14.398-0.094l0.012,1.648c0.033,4.952-2.506,6.694-7.156,6.725c-5.25,0.033-7.211-1.68-7.244-6.629L1212.869,719.22z
			 M1187.635,737.014c2.318-1.143,4.943-1.084,10.941-1.498c5.848-0.338,9.512-1.787,10.604-6.82
			c0.857,4.795,4.555,7.996,11.904,7.947c8.324-0.055,13.771-4.441,13.703-14.641l-0.08-12.075l-47.248,0.311l0.061,9.151l18-0.119
			l0.012,1.952c0.025,4.049-2.518,5.041-7.391,5.373c-5.922,0.338-8.547,0.506-10.566,1.193L1187.635,737.014z M1185.672,691.789
			c0.727,10.55,7.537,13.39,17.189,12.727l31.574-2.169l-0.652-9.503l-32.174,2.21c-5.162,0.354-8.062-0.273-8.305-3.789
			c-0.24-3.517,2.551-4.461,7.713-4.815l32.176-2.21l-0.654-9.503l-31.576,2.169
			C1191.312,677.568,1184.947,681.238,1185.672,691.789 M1184.092,668.228l39.262-5.173l1.186,8.997l7.584-0.999l-3.557-26.992
			l-7.584,0.999l1.156,8.775l-39.262,5.172L1184.092,668.228z M1226.076,630.507l-46.529,8.223l1.619,9.158l46.529-8.224
			L1226.076,630.507z M1214.297,610.33l0.57,2.562c0.979,4.394-1.355,5.987-4.869,6.771c-3.514,0.781-6.086,0.278-7.064-4.114
			l-0.568-2.562L1214.297,610.33z M1196.045,617.389c0.994,4.466-1.145,6.248-5.098,7.128c-4.027,0.896-6.572,0.156-7.566-4.31
			l-0.637-2.854l12.666-2.819L1196.045,617.389z M1192.008,633.424c6.15-1.369,9.271-5.291,9.074-11.01
			c1.816,4.359,6.25,6.677,11.887,5.422c7.248-1.612,11.492-6.016,9.359-15.605l-2.738-12.299l-46.121,10.266l2.785,12.519
			C1178.373,632.232,1183.955,635.216,1192.008,633.424 M1211.006,569.637l-3.414-11.504l-45.297,13.443l2.326,7.836l28.258-8.385
			l0.084,0.287l-26.506,14.282l1.664,5.608l29.943-2.707l0.084,0.289l-28.258,8.386l2.455,8.268l45.299-13.442l-3.352-11.289
			l-27.709,2.591l-0.084-0.287L1211.006,569.637z M1183.82,540.706c5.113-1.952,8.771-2.464,10.055,0.9
			c1.283,3.363-1.785,5.417-6.902,7.369l-14.152,5.4c-5.117,1.952-8.773,2.464-10.059-0.899c-1.281-3.364,1.787-5.418,6.902-7.37
			L1183.82,540.706z M1186.262,559.521c12.543-4.785,18.301-11.156,14.691-20.616c-3.635-9.53-12.174-10.447-24.717-5.661
			l-5.887,2.246c-12.543,4.785-18.301,11.156-14.664,20.686c3.609,9.46,12.146,10.376,24.689,5.591L1186.262,559.521z
			 M1149.697,539.188l21.906-9.986l-5.258-11.534l-6.414,2.925l1.617,3.548l-0.818,0.374c-5.051,2.302-8.594,2.846-10.057-0.362
			c-1.461-3.207,1.242-5.594,6.291-7.896l13.855-6.315c4.98-2.271,8.463-2.951,9.955,0.324c1.494,3.276-1.365,5.321-6.348,7.592
			l-2.389,1.089l3.764,8.258l0.957-0.436c10.305-4.697,15.016-10.637,10.908-19.645c-4.137-9.076-12.574-9.681-24.789-4.113
			l-6.141,2.8c-12.217,5.569-17.449,11.992-13.777,20.045c1.492,3.276,4.363,5.594,7.938,5.118l-3.783,2.549L1149.697,539.188z
			 M1129.365,498.833c5.043,9.296,12.418,9.049,20.922,4.436l27.82-15.091l-4.541-8.373l-28.348,15.378
			c-4.549,2.467-7.447,3.101-9.129,0.003c-1.68-3.099,0.467-5.117,5.016-7.585l28.348-15.377l-4.541-8.372l-27.82,15.091
			C1128.586,483.557,1124.324,489.539,1129.365,498.833 M1133.607,454.742l12.203-7.645l0.877,1.398
			c2.627,4.195,1.383,7.01-2.559,9.479c-4.449,2.788-7.018,2.361-9.645-1.833L1133.607,454.742z M1121.484,483.137
			c1.373-2.187,3.637-3.518,8.521-7.021c4.799-3.36,7.156-6.519,5.441-11.375c3.248,3.63,8.074,4.412,14.303,0.509
			c7.055-4.42,9.385-11.013,3.969-19.657l-6.412-10.232l-40.039,25.087l4.857,7.754l15.254-9.557l1.035,1.652
			c2.15,3.432,0.508,5.612-3.465,8.455c-4.861,3.4-7.006,4.921-8.363,6.568L1121.484,483.137z M1098.926,448.422l19.211-14.509
			l-7.639-10.115l-5.625,4.249l2.35,3.112l-0.719,0.542c-4.428,3.345-7.768,4.646-9.893,1.833s-0.004-5.73,4.424-9.075l12.15-9.175
			c4.369-3.299,7.619-4.72,9.789-1.847s-0.178,5.49-4.547,8.79l-2.094,1.582l5.469,7.242l0.838-0.633
			c9.037-6.825,12.346-13.646,6.379-21.546c-6.012-7.96-14.379-6.718-25.092,1.373l-5.385,4.068
			c-10.715,8.09-14.424,15.498-9.092,22.56c2.17,2.873,5.475,4.512,8.861,3.271l-3.139,3.31L1098.926,448.422z M1090.969,402.174
			l-0.195-0.227l12.221-23.909l-5.604-6.458l-35.688,30.966l5.652,6.514l20.789-18.038l0.197,0.226l-13.221,26.763l4.619,5.325
			l35.689-30.966l-5.652-6.514L1090.969,402.174z M1085.928,359.717l-34.129,32.676l6.432,6.718l34.129-32.677L1085.928,359.717z
			 M1049.834,390.11l11.996-25.312l20.391-9.091l-6.969-6.603l-21.789,10.35l15.475-16.333l-6.75-6.397l-32.498,34.3l6.75,6.396
			l7.686-8.112l6.812-3.155l-8.182,17.251L1049.834,390.11z M1009.967,354.5l12.07-14.932l6.883,5.563l4.809-5.949l-6.883-5.563
			l8.016-9.916l9.273,7.496l4.809-5.95l-16.506-13.342l-29.703,36.747L1009.967,354.5z M1002.547,309.916
			c3.18-4.457,5.941-6.909,8.873-4.818c2.93,2.091,1.51,5.501-1.668,9.958l-8.799,12.333c-3.18,4.457-5.943,6.908-8.873,4.818
			c-2.93-2.091-1.512-5.501,1.668-9.958L1002.547,309.916z M1014.996,324.232c7.797-10.929,9.064-19.422,0.822-25.302
			c-8.305-5.923-15.92-1.961-23.719,8.968l-3.658,5.129c-7.795,10.929-9.064,19.422-0.762,25.345
			c8.244,5.88,15.861,1.918,23.658-9.011L1014.996,324.232z M979.311,298.754c6.586-11.091,6.33-19.181-2.311-24.312l-11.027-6.549
			l-24.127,40.626l11.029,6.549c8.641,5.131,15.865,1.484,22.453-9.606L979.311,298.754z M965.785,303.021
			c-3.371,5.675-6.32,7.412-10.125,5.153l-2.064-1.226l16.621-27.987l2.064,1.226c3.805,2.259,3.689,5.681,0.32,11.356
			L965.785,303.021z M939.854,282.334l-0.268-0.134l2.164-26.764l-7.645-3.829l-21.16,42.247l7.713,3.863l12.326-24.611l0.268,0.134
			l-1.998,29.783l6.303,3.157l21.16-42.247l-7.713-3.862L939.854,282.334z M912.125,285.091l-11.996-5.138l4.99-11.652l8.895,3.81
			l3.012-7.032l-8.895-3.81l4.578-10.685l11.859,5.079l3.012-7.032l-20.201-8.653l-18.604,43.433l20.338,8.712L912.125,285.091z
			 M884.471,281.633l8.143-22.656l-11.928-4.287l-2.385,6.635l3.67,1.319l-0.305,0.847c-1.877,5.223-3.961,8.14-7.279,6.947
			c-3.316-1.192-3.137-4.794-1.26-10.017l5.148-14.327c1.852-5.153,3.795-8.12,7.184-6.903c3.387,1.218,2.855,4.693,1.004,9.845
			l-0.887,2.471l8.539,3.069l0.355-0.988c3.83-10.658,2.867-18.177-6.449-21.525c-9.389-3.374-15.711,2.244-20.25,14.877
			l-2.283,6.353c-4.541,12.634-3.594,20.864,4.734,23.857c3.387,1.218,7.051,0.781,9.205-2.11l-0.814,4.488L884.471,281.633z
			 M858.266,264.259l-12.523-3.671l3.566-12.164l9.283,2.722l2.152-7.341l-9.283-2.721l3.27-11.156l12.379,3.629l2.152-7.341
			l-21.088-6.182l-13.293,45.342l21.232,6.224L858.266,264.259z M820.621,213.334l-10.824,45.993l21.393,5.034l1.752-7.446
			l-12.338-2.904l9.07-38.547L820.621,213.334z M797.092,249.039l-12.885-2.062l2.002-12.516l9.553,1.528l1.209-7.554l-9.555-1.528
			l1.838-11.479l12.738,2.038l1.207-7.554L781.5,206.44l-7.463,46.656l21.846,3.495L797.092,249.039z M750.907,250.686l1.985-20.228
			l9.031,0.886l-1.984,20.228l9.256,0.908l4.613-47.024l-9.256-0.908l-1.881,19.183l-9.033-0.886l1.883-19.183l-9.256-0.908
			l-4.613,47.023L750.907,250.686z M728.672,249.372l1.205-39.582l9.07,0.276l0.232-7.646l-27.213-0.828l-0.232,7.647l8.846,0.269
			l-1.203,39.581L728.672,249.372z"/>
	</g>
</g>
</svg>
