<?xml version="1.0" encoding="utf-8"?>
<!-- Generator: Adobe Illustrator 16.0.4, SVG Export Plug-In . SVG Version: 6.00 Build 0)  -->
<!DOCTYPE svg PUBLIC "-//W3C//DTD SVG 1.1//EN" "http://www.w3.org/Graphics/SVG/1.1/DTD/svg11.dtd">
<svg version="1.1" id="Ebene_1" xmlns="http://www.w3.org/2000/svg" xmlns:xlink="http://www.w3.org/1999/xlink" x="0px" y="0px"
	 width="1440px" height="1440px" viewBox="0 0 1440 1440" enable-background="new 0 0 1440 1440" xml:space="preserve">
<g>
	<defs>
		<rect id="SVGID_1_" x="430.831" y="12.971" width="997.169" height="1425.029"/>
	</defs>
	<clipPath id="SVGID_2_">
		<use xlink:href="#SVGID_1_"  overflow="visible"/>
	</clipPath>
	<path clip-path="url(#SVGID_2_)" fill="#231F20" d="M794.308,131.711"/>
</g>
<path fill="none" stroke="#231F20" d="M794.308,131.711"/>
<g>
	<defs>
		<rect id="SVGID_3_" x="430.831" y="12.971" width="997.169" height="1425.029"/>
	</defs>
	<clipPath id="SVGID_4_">
		<use xlink:href="#SVGID_3_"  overflow="visible"/>
	</clipPath>
	<path clip-path="url(#SVGID_4_)" fill="#231F20" d="M793.308,139.711"/>
</g>
<path fill="none" stroke="#231F20" d="M793.308,139.711"/>
<g>
	<defs>
		<rect id="SVGID_5_" x="432.688" y="6.486" width="997.175" height="1425.03"/>
	</defs>
	<clipPath id="SVGID_6_">
		<use xlink:href="#SVGID_5_"  overflow="visible"/>
	</clipPath>
	<path clip-path="url(#SVGID_6_)" fill="#231F20" d="M711.171,725.227"/>
</g>
<path fill="none" stroke="#231F20" d="M711.171,725.227"/>
<g>
	<defs>
		<rect id="SVGID_7_" x="432.688" y="6.486" width="997.175" height="1425.03"/>
	</defs>
	<clipPath id="SVGID_8_">
		<use xlink:href="#SVGID_7_"  overflow="visible"/>
	</clipPath>
	<path clip-path="url(#SVGID_8_)" fill="#231F20" d="M711.171,725.227"/>
</g>
<path fill="none" stroke="#231F20" d="M711.171,725.227"/>
<g>
	<defs>
		<rect id="SVGID_9_" x="432.688" y="6.486" width="997.175" height="1425.03"/>
	</defs>
	<clipPath id="SVGID_10_">
		<use xlink:href="#SVGID_9_"  overflow="visible"/>
	</clipPath>
	<g clip-path="url(#SVGID_10_)">
		<defs>
			<rect id="SVGID_11_" x="530.82" y="6" width="882.111" height="1360.398"/>
		</defs>
		<clipPath id="SVGID_12_">
			<use xlink:href="#SVGID_11_"  overflow="visible"/>
		</clipPath>
		<path clip-path="url(#SVGID_12_)" fill="#231F20" d="M706.662,724.957"/>
	</g>
	<path clip-path="url(#SVGID_10_)" fill="none" stroke="#231F20" d="M706.662,724.957"/>
	<g clip-path="url(#SVGID_10_)">
		<defs>
			<rect id="SVGID_13_" x="530.82" y="6" width="882.111" height="1360.398"/>
		</defs>
		<clipPath id="SVGID_14_">
			<use xlink:href="#SVGID_13_"  overflow="visible"/>
		</clipPath>
		<path clip-path="url(#SVGID_14_)" fill="#231F20" d="M706.662,724.957"/>
	</g>
	<path clip-path="url(#SVGID_10_)" fill="none" stroke="#231F20" d="M706.662,724.957"/>
	<g clip-path="url(#SVGID_10_)">
		<defs>
			<rect id="SVGID_15_" x="535.32" y="6.486" width="882.111" height="1360.399"/>
		</defs>
		<clipPath id="SVGID_16_">
			<use xlink:href="#SVGID_15_"  overflow="visible"/>
		</clipPath>
		<path clip-path="url(#SVGID_16_)" fill="#0000FF" d="M880.115,1133.035l-1.691,0.695c-0.451-1.178-0.129-1.73,1.043-2.277
			l-0.709-1.721c-2.623,1.111-3.184,2.672-2.234,4.975l1.311,3.191l3.664-1.508L880.115,1133.035z M886.836,1130.193l-1.684,0.719
			c-0.467-1.172-0.15-1.73,1.014-2.291l-0.73-1.711c-2.609,1.145-3.148,2.711-2.172,5.002l1.354,3.174l3.643-1.553L886.836,1130.193
			z M893.963,1127.285c1.758-5.254,1.342-10.572-1.256-16.477l-3.738,1.707c2.525,5.607,3.838,10.648,1.502,17.09l1.135,2.482
			l12.58-5.744l-1.408-3.082L893.963,1127.285z M904.455,1111.051c-0.795-1.58,0.02-3.031,1.682-3.867
			c2.062-1.039,3.916-0.629,5.088,1.504l3.363-1.525c-1.887-3.752-5.605-4.803-9.812-2.686c-3.832,1.93-5.381,5.059-3.885,8.033
			c1.08,2.145,3.242,2.971,5.561,2.24c-1.5,1.023-2.326,3.252-1.273,5.342c1.469,2.922,4.639,3.812,8.498,1.871
			c3.992-2.01,5.068-5.877,3.314-9.361l-3.309,1.498c1.092,2.172,0.668,4.131-1.289,5.115c-1.85,0.932-3.273,0.371-4.027-1.129
			c-0.863-1.717,0.1-3.006,1.52-3.721c0.615-0.311,1.127-0.566,1.502-0.689l-1.27-2.518c-0.428,0.283-0.896,0.551-1.406,0.809
			C906.971,1112.842,905.266,1112.66,904.455,1111.051 M924.93,1111.469l-1.604,0.883c-0.582-1.117-0.324-1.705,0.777-2.381
			l-0.9-1.629c-2.48,1.404-2.857,3.018-1.654,5.197l1.666,3.02l3.467-1.912L924.93,1111.469z M928.918,1095.283l-1.377,3.588
			c-1.309,3.406-2.254,6.426-0.57,9.301c1.695,2.9,4.967,3.977,8.85,1.703c3.6-2.105,4.721-5.715,2.721-9.133
			c-0.287-0.492-0.668-0.965-1.074-1.422l-3.287,1.748c0.387,0.365,0.697,0.775,1.016,1.318c1.105,1.891,0.926,3.664-0.887,4.725
			c-1.76,1.029-3.174,0.396-4.053-1.105c-1.15-1.969-0.51-4.08,0.785-7.688l2.361-6.422l-1.273-2.176l-12.299,7.195l1.605,2.746
			L928.918,1095.283z M968.502,1084.113l-3.008,2.135l2.031,2.863l3.008-2.137L968.502,1084.113z M967.203,1082.387l-7.654-10.791
			l-2.936,2.084l7.654,10.789L967.203,1082.387z M965.068,1061.43l4.789,19.082l2.811-2.102l-2.547-9.371l0.096-0.07l8.291,5.076
			l3.027-2.264l-12.355-7.357l-1.277-5.113L965.068,1061.43z M987.256,1059.221c1.395,1.727,1.412,3.564-0.012,4.713
			c-1.377,1.111-2.742,0.711-4.023-0.877l-4.73-5.857l-2.801,2.262l5.184,6.418c1.848,2.287,4.357,3.344,7.111,1.121
			c1.541-1.244,2.207-3.094,1.779-4.676l1.355,1.682l2.801-2.262l-8.311-10.293l-2.801,2.262L987.256,1059.221z M1001.314,1048.211
			c0.854,1.451,1.014,3.117-0.463,4.438c-1.5,1.338-3.172,0.859-4.281-0.201L1001.314,1048.211z M993.973,1050.303
			c-0.619-1.459-0.334-2.717,0.984-3.896c1.455-1.297,3.516-1.287,4.904,0.088l-7.408,6.613l0.859,0.961
			c2.398,2.686,6.053,3.445,9.273,0.568c2.955-2.637,3.174-6.854,0.396-9.963c-2.777-3.111-6.709-3.1-9.752-0.383
			c-2.529,2.258-3.072,5.074-1.629,7.727L993.973,1050.303z M1015.746,1038.707c1.543,0.754,3.262,0.617,4.93-1.025
			c1.432-1.41,1.783-3.189,1.201-4.721l1.516,1.539l2.564-2.527l-9.285-9.424l-2.564,2.527l4.969,5.043
			c1.559,1.58,1.82,3.344,0.582,4.564c-1.24,1.221-2.531,0.852-3.963-0.602l-5.285-5.365l-2.564,2.527l4.969,5.043
			c1.559,1.582,1.822,3.344,0.582,4.564c-1.26,1.244-2.531,0.852-3.963-0.602l-5.285-5.363l-2.564,2.527l5.791,5.877
			c2.021,2.051,4.561,3.002,7.104,0.498C1016.018,1042.273,1016.328,1040.322,1015.746,1038.707 M1033.441,1027.119l-2.533,2.684
			l2.553,2.408l2.533-2.684L1033.441,1027.119z M1031.828,1025.68l-9.625-9.076l-2.471,2.619l9.625,9.076L1031.828,1025.68z
			 M1024.252,1014.594l13.57,0.764l1.061,11.219l2.887-3.295l-1.113-11.703l6.43,5.633l2.473-2.82l-14.215-12.455l-2.473,2.82
			l4.717,4.133l0.227,2.791l-10.596-0.471L1024.252,1014.594z M1054.34,991.129c1.088,1.285,1.527,2.9,0.297,4.451
			c-1.25,1.574-2.979,1.387-4.252,0.531L1054.34,991.129z M1047.459,994.439c-0.857-1.332-0.791-2.621,0.309-4.008
			c1.213-1.527,3.246-1.867,4.848-0.748l-6.176,7.777l1.012,0.801c2.818,2.238,6.549,2.365,9.234-1.018
			c2.463-3.102,1.961-7.293-1.307-9.885c-3.266-2.594-7.137-1.914-9.674,1.281c-2.107,2.654-2.164,5.523-0.291,7.891
			L1047.459,994.439z M1056.912,999.033l1.34,4.779l2.406-3.031l-2.141-3.77L1056.912,999.033z M1054.744,977.33l7.703,11.957
			l2.047-2.85l-5.477-8.217l0.07-0.098l9.553,2.537l2.205-3.07l-13.791-3.475L1054.744,977.33z M1071.904,975.717
			c0.492-0.135,1.037-0.562,1.494-1.23c1.031-1.514,0.668-3.432-0.301-4.672l2.082,1.42l2.029-2.975l-10.93-7.455l-2.029,2.975
			l5.404,3.686c1.982,1.352,2.361,3.137,1.314,4.672c-0.49,0.721-0.979,1.113-1.689,1.463L1071.904,975.717z M1080.338,953.525
			c1.221,1.158,1.832,2.717,0.777,4.391c-1.072,1.701-2.811,1.703-4.17,0.988L1080.338,953.525z M1073.857,957.559
			c-0.998-1.23-1.072-2.52-0.127-4.016c1.039-1.65,3.023-2.207,4.736-1.268l-5.297,8.398l1.092,0.688
			c3.045,1.92,6.766,1.643,9.07-2.012c2.113-3.35,1.16-7.461-2.369-9.686c-3.525-2.225-7.303-1.131-9.479,2.32
			c-1.807,2.867-1.553,5.725,0.566,7.877L1073.857,957.559z M1084.086,931.342l7.051,3.988l-4.594,8.121l-7.051-3.988l-1.846,3.264
			l16.451,9.307l1.846-3.266l-6.711-3.795l4.594-8.121l6.711,3.797l1.846-3.266l-16.449-9.305L1084.086,931.342z M1101.451,913.066
			c1.994,0.977,2.785,2.633,1.982,4.277c-0.779,1.588-2.186,1.803-4.018,0.906l-6.764-3.311l-1.582,3.234l7.41,3.625
			c2.641,1.293,5.363,1.189,6.918-1.99c0.871-1.779,0.693-3.736-0.363-4.988l7.033,3.441l1.582-3.232l-16.977-8.309l-1.582,3.234
			L1101.451,913.066z M1104.221,898.125c-2.576-1.148-4.096,0.047-4.926,1.912c-0.66,1.479-0.717,2.637-0.449,3.807l2.166,0.965
			c-0.012-0.859,0.047-1.654,0.34-2.312c0.439-0.986,1.113-1.244,2.154-0.779l5.973,2.662l-1.465,3.287l2.301,1.027l1.467-3.289
			l3.342,1.49l0.893-2l-1.475-1.115c-1-0.775-1.457-1.373-1.123-2.637l0.23-0.885l-1.947-0.867l-0.768,1.727L1104.221,898.125z
			 M1118.656,894.941l-1.42,3.404l3.238,1.354l1.422-3.406L1118.656,894.941z M1116.641,894.164l-12.209-5.096l-1.387,3.32
			l12.209,5.098L1116.641,894.164z M1121.152,882.92l1.025-2.723l-7.412-5.352l0.043-0.111l9.227,0.52l1.256-3.342l-13.861-0.725
			l-1.234,3.285l7.326,5.318l-0.043,0.113l-9.016-0.826l-1.225,3.258l10.904,8.588l1.15-3.061l-7.295-5.66l0.043-0.113
			L1121.152,882.92z M1106.344,835.342l23.385,5.729l3.014-12.312l-6.846-1.676l-0.928,3.787l-0.875-0.213
			c-5.391-1.322-8.51-3.088-7.67-6.514c0.838-3.424,4.438-3.621,9.828-2.303l14.787,3.623c5.318,1.301,8.475,2.924,7.617,6.42
			c-0.855,3.498-4.367,3.332-9.686,2.029l-2.551-0.623l-2.156,8.812l1.018,0.25c11,2.695,18.377,0.949,20.732-8.666
			c2.373-9.689-3.875-15.389-16.914-18.582l-6.557-1.605c-13.041-3.195-21.127-1.391-23.23,7.205
			c-0.857,3.496-0.039,7.094,3.061,8.934l-4.549-0.34L1106.344,835.342z M1137.076,799.844l0.049-0.297l26.23-5.744l1.43-8.428
			l-46.584-7.904l-1.441,8.504l27.137,4.604l-0.051,0.297l-29.068,6.783l-1.18,6.951l46.584,7.902l1.443-8.504L1137.076,799.844z
			 M1166.461,768.412l-46.977-5.074l-0.998,9.246l46.977,5.074L1166.461,768.412z M1120.973,740.137l20.303,0.951l-0.424,9.064
			l-20.303-0.949l-0.436,9.289l47.199,2.209l0.434-9.291l-19.254-0.9l0.424-9.064l19.254,0.9l0.436-9.291l-47.199-2.207
			L1120.973,740.137z M1121.248,720.865l39.586-1.062l0.242,9.073l7.648-0.205l-0.73-27.217l-7.646,0.206l0.236,8.846l-39.586,1.063
			L1121.248,720.865z M1153.834,687.051l0.027,0.299l-16.604,4.639l-0.6-6.724L1153.834,687.051z M1166.309,680.823l-47.955-5.828
			l0.756,8.516l10.334,1.04l0.83,9.338l-9.988,2.846l0.822,9.264l46.176-14.193L1166.309,680.823z M1125.461,671.551l-1.961-12.9
			l12.531-1.905l1.453,9.565l7.564-1.15l-1.455-9.565l11.492-1.747l1.939,12.754l7.562-1.149l-3.303-21.726l-46.713,7.101
			l3.326,21.874L1125.461,671.551z M1134.586,624.129l14.033-3.229l0.371,1.609c1.109,4.823-0.99,7.076-5.521,8.118
			c-5.115,1.177-7.402-0.067-8.514-4.891L1134.586,624.129z M1113.832,646.987c2.014-1.617,4.588-2.134,10.352-3.843
			c5.635-1.604,8.896-3.816,8.867-8.965c1.879,4.492,6.184,6.812,13.346,5.164c8.115-1.867,12.475-7.332,10.188-17.273
			l-2.707-11.768l-46.047,10.59l2.053,8.918l17.541-4.035l0.438,1.9c0.906,3.947-1.359,5.469-6.043,6.854
			c-5.707,1.62-8.232,2.354-10.055,3.467L1113.832,646.987z M1139.561,588.309l0.779,2.508c1.338,4.297-0.857,6.078-4.295,7.148
			s-6.041,0.78-7.379-3.516l-0.779-2.508L1139.561,588.309z M1121.953,596.852c1.359,4.369-0.625,6.322-4.492,7.525
			c-3.938,1.227-6.537,0.699-7.896-3.669l-0.869-2.793l12.389-3.856L1121.953,596.852z M1119.254,613.166
			c6.016-1.872,8.803-6.038,8.135-11.721c2.17,4.195,6.779,6.137,12.295,4.421c7.088-2.206,10.955-6.944,8.035-16.325l-3.744-12.031
			l-45.115,14.041l3.811,12.245C1105.568,613.105,1111.377,615.618,1119.254,613.166 M1114.588,554.685l15.213-13.088l-3.766-8.831
			l-23.875,21.836l-15.385,6.559l3.529,8.278l15.385-6.559l32.287-2.104l-3.588-8.417L1114.588,554.685z M1116.475,513.734
			l-42.207,21.24l9.879,19.63l6.834-3.439l-5.699-11.322l35.375-17.802L1116.475,513.734z M1096.264,517.248
			c11.135-6.514,14.83-13.715,9.754-22.39l-6.475-11.07l-40.785,23.858l6.477,11.07c5.074,8.675,13.162,8.984,24.297,2.47
			L1096.264,517.248z M1082.363,514.43c-5.697,3.333-9.119,3.424-11.354-0.396l-1.211-2.071l28.096-16.436l1.211,2.072
			c2.234,3.819,0.479,6.758-5.219,10.091L1082.363,514.43z M1067.588,475.378l11.848-8.186l0.938,1.358
			c2.814,4.073,1.697,6.941-2.129,9.584c-4.318,2.985-6.904,2.674-9.719-1.399L1067.588,475.378z M1056.75,504.288
			c1.273-2.247,3.477-3.678,8.199-7.397c4.643-3.572,6.857-6.833,4.926-11.607c3.406,3.48,8.264,4.045,14.311-0.133
			c6.85-4.732,8.881-11.423,3.084-19.815l-6.865-9.935l-38.873,26.858l5.201,7.528l14.809-10.231l1.109,1.604
			c2.301,3.332,0.758,5.584-3.082,8.602c-4.705,3.614-6.779,5.23-8.061,6.936L1056.75,504.288z M1056.467,445.805l0.188,0.233
			l-11.209,13.1l-4.24-5.252L1056.467,445.805z M1063.355,433.685l-43.074,21.866l5.371,6.652l9.162-4.891l5.889,7.294l-6.711,7.925
			l5.844,7.236l30.447-37.504L1063.355,433.685z M1006.645,441.073l14.824-13.905l6.209,6.618l-14.824,13.906l6.363,6.783
			l34.461-32.326l-6.363-6.783l-14.057,13.187l-6.209-6.619l14.059-13.187l-6.363-6.783l-34.461,32.326L1006.645,441.073z
			 M981.449,395.459l-1.779,2.031c-6.229,7.108-5.506,14.022,0.473,19.262c5.867,5.14,12.816,4.948,18.4-1.426
			c4.795-5.472,4.207-10.376,2.215-16.41l-1.436-4.848c-0.818-2.71-0.852-4.833,1.225-7.202c2.027-2.313,4.32-2.996,6.295-1.266
			c2.256,1.977,1.787,4.559-1.029,7.774l-1.828,2.088l6.148,5.387l1.779-2.031c5.98-6.825,5.971-13.415-0.178-18.802
			c-5.697-4.993-12.824-4.257-18.014,1.666s-4.27,11.018-2.705,16.176l1.301,4.432c0.908,3.288,1.471,5.377-0.754,7.915
			c-2.076,2.37-4.383,2.841-6.527,0.962c-2.369-2.076-1.928-5.081,0.74-8.127l1.879-2.143L981.449,395.459z M989.736,362.75
			l-29.379,37.005l7.283,5.783l29.381-37.006L989.736,362.75z M964.25,368.322c7.141-10.743,7.295-18.835-1.072-24.399l-10.682-7.1
			l-26.158,39.35l10.682,7.1c8.369,5.563,15.77,2.287,22.912-8.456L964.25,368.322z M950.525,371.897
			c-3.654,5.496-6.689,7.081-10.373,4.632l-2-1.329l18.02-27.107l1.998,1.328c3.686,2.45,3.4,5.862-0.254,11.358L950.525,371.897z
			 M923.699,351.692l-0.262-0.144l9.541-25.909l-6.111-3.361l-16.705,21.969l-0.262-0.145l9.541-25.908l-7.754-4.265l-15.805,45.232
			l7.623,4.193l16.037-21.223l0.264,0.145l-9.27,24.946l7.623,4.193l29.736-37.57l-7.492-4.121L923.699,351.692z M885.773,320.284
			c2.229-5,4.449-7.953,7.736-6.487c3.289,1.466,2.576,5.09,0.348,10.09l-6.168,13.838c-2.23,5.001-4.449,7.953-7.736,6.487
			c-3.289-1.465-2.576-5.09-0.348-10.09L885.773,320.284z M900.824,331.837c5.465-12.262,5.018-20.837-4.23-24.959
			c-9.316-4.152-15.992,1.247-21.457,13.509l-2.566,5.754c-5.465,12.262-5.018,20.837,4.299,24.99
			c9.248,4.122,15.924-1.277,21.391-13.539L900.824,331.837z M853.32,313.954l4.908-13.538l1.551,0.562
			c4.652,1.687,5.406,4.673,3.82,9.044c-1.789,4.936-4.074,6.181-8.729,4.494L853.32,313.954z M861.25,343.793
			c-0.266-2.569,0.699-5.011,2.393-10.78c1.711-5.602,1.625-9.543-2.717-12.313c4.795,0.86,9.078-1.495,11.584-8.406
			c2.836-7.826,0.613-14.456-8.977-17.932l-11.352-4.115l-16.104,44.421l8.604,3.119l6.133-16.923l1.834,0.665
			c3.807,1.38,3.854,4.109,2.475,8.795c-1.736,5.673-2.49,8.191-2.545,10.325L861.25,343.793z M823.361,298.611
			c1.43-5.285,3.055-8.42,6.457-7.5c3.475,0.94,3.154,4.427,1.725,9.712l-1.115,4.127l8.76,2.37l0.51-1.883
			c2.955-10.932,1.801-19.014-7.684-21.579c-9.846-2.663-15.549,3.486-19.055,16.445l-1.762,6.517
			c-3.506,12.959-1.678,21.145,8.168,23.807c9.484,2.566,14.555-3.832,17.512-14.765l0.51-1.882l-8.762-2.369l-1.115,4.126
			c-1.43,5.286-2.91,8.459-6.385,7.52c-3.402-0.921-3.227-4.447-1.797-9.731L823.361,298.611z M794.145,316.034l-12.84-2.338
			l2.271-12.47l9.518,1.733l1.369-7.526l-9.518-1.733l2.082-11.437l12.693,2.311l1.369-7.526l-21.619-3.937l-8.465,46.486
			l21.768,3.963L794.145,316.034z M747.894,316.997l2.183-20.208l9.022,0.975l-2.183,20.207l9.246,0.999l5.074-46.977l-9.246-0.999
			l-2.07,19.164l-9.022-0.975l2.07-19.163l-9.246-0.999l-5.074,46.977L747.894,316.997z M728.658,315.752l1.367-39.576l9.07,0.313
			l0.264-7.646l-27.209-0.94l-0.264,7.646l8.845,0.305l-1.366,39.577L728.658,315.752z"/>
	</g>
</g>
</svg>
