<?xml version="1.0" encoding="utf-8"?>
<!-- Generator: Adobe Illustrator 16.0.4, SVG Export Plug-In . SVG Version: 6.00 Build 0)  -->
<!DOCTYPE svg PUBLIC "-//W3C//DTD SVG 1.1//EN" "http://www.w3.org/Graphics/SVG/1.1/DTD/svg11.dtd">
<svg version="1.1" id="Ebene_1" xmlns="http://www.w3.org/2000/svg" xmlns:xlink="http://www.w3.org/1999/xlink" x="0px" y="0px"
	 width="1440px" height="1440px" viewBox="0 0 1440 1440" enable-background="new 0 0 1440 1440" xml:space="preserve">
<g>
	<defs>
		<rect id="SVGID_1_" x="430.831" y="12.971" width="997.169" height="1425.029"/>
	</defs>
	<clipPath id="SVGID_2_">
		<use xlink:href="#SVGID_1_"  overflow="visible"/>
	</clipPath>
	<path clip-path="url(#SVGID_2_)" fill="#231F20" d="M794.308,131.711"/>
</g>
<path fill="none" stroke="#231F20" d="M794.308,131.711"/>
<g>
	<defs>
		<rect id="SVGID_3_" x="430.831" y="12.971" width="997.169" height="1425.029"/>
	</defs>
	<clipPath id="SVGID_4_">
		<use xlink:href="#SVGID_3_"  overflow="visible"/>
	</clipPath>
	<path clip-path="url(#SVGID_4_)" fill="#231F20" d="M793.308,139.711"/>
</g>
<path fill="none" stroke="#231F20" d="M793.308,139.711"/>
<g>
	<defs>
		<rect id="SVGID_5_" x="432.688" y="6.486" width="997.175" height="1425.03"/>
	</defs>
	<clipPath id="SVGID_6_">
		<use xlink:href="#SVGID_5_"  overflow="visible"/>
	</clipPath>
	<path clip-path="url(#SVGID_6_)" fill="#231F20" d="M711.171,725.227"/>
</g>
<path fill="none" stroke="#231F20" d="M711.171,725.227"/>
<g>
	<defs>
		<rect id="SVGID_7_" x="432.688" y="6.486" width="997.175" height="1425.03"/>
	</defs>
	<clipPath id="SVGID_8_">
		<use xlink:href="#SVGID_7_"  overflow="visible"/>
	</clipPath>
	<path clip-path="url(#SVGID_8_)" fill="#231F20" d="M711.171,725.227"/>
</g>
<path fill="none" stroke="#231F20" d="M711.171,725.227"/>
<g>
	<defs>
		<rect id="SVGID_9_" x="432.688" y="6.486" width="997.175" height="1425.03"/>
	</defs>
	<clipPath id="SVGID_10_">
		<use xlink:href="#SVGID_9_"  overflow="visible"/>
	</clipPath>
	<g clip-path="url(#SVGID_10_)">
		<defs>
			<rect id="SVGID_11_" x="530.82" y="6" width="882.111" height="1360.398"/>
		</defs>
		<clipPath id="SVGID_12_">
			<use xlink:href="#SVGID_11_"  overflow="visible"/>
		</clipPath>
		<path clip-path="url(#SVGID_12_)" fill="#231F20" d="M706.662,724.957"/>
	</g>
	<path clip-path="url(#SVGID_10_)" fill="none" stroke="#231F20" d="M706.662,724.957"/>
	<g clip-path="url(#SVGID_10_)">
		<defs>
			<rect id="SVGID_13_" x="530.82" y="6" width="882.111" height="1360.398"/>
		</defs>
		<clipPath id="SVGID_14_">
			<use xlink:href="#SVGID_13_"  overflow="visible"/>
		</clipPath>
		<path clip-path="url(#SVGID_14_)" fill="#231F20" d="M706.662,724.957"/>
	</g>
	<path clip-path="url(#SVGID_10_)" fill="none" stroke="#231F20" d="M706.662,724.957"/>
	<g clip-path="url(#SVGID_10_)">
		<defs>
			<rect id="SVGID_15_" x="535.32" y="6.486" width="882.111" height="1360.399"/>
		</defs>
		<clipPath id="SVGID_16_">
			<use xlink:href="#SVGID_15_"  overflow="visible"/>
		</clipPath>
		<path clip-path="url(#SVGID_16_)" fill="#0000FF" d="M1242.031,940.402l-0.689,1.695c-1.156-0.502-1.326-1.123-0.895-2.34
			l-1.723-0.701c-1.047,2.652-0.326,4.143,1.98,5.082l3.195,1.301l1.492-3.668L1242.031,940.402z M1244.719,933.635l-0.67,1.703
			c-1.16-0.488-1.338-1.107-0.922-2.328l-1.73-0.68c-1.014,2.662-0.277,4.145,2.041,5.057l3.211,1.26l1.449-3.686L1244.719,933.635z
			 M1249.814,930.533l3.984-10.713c-2.895-1.172-7.246-3.496-9.525-4.854l-1.529,3.336c0.746,0.918,1.168,2.195,0.582,3.77
			c-0.762,2.053-2.664,2.689-4.574,1.979c-2.082-0.773-2.904-2.52-2.162-4.518c0.814-2.191,2.604-2.871,4.74-2.076l1.529-3.336
			c-3.941-1.625-7.438-0.143-9.1,4.328c-1.443,3.883-0.012,7.52,3.785,8.93c3.346,1.246,6.809,0.195,8.324-3.881
			c0.658-1.771,0.461-3.223,0.002-4.225c0.727,0.461,2.973,1.648,3.834,2l-3.012,8.1L1249.814,930.533z M1243.455,901.404
			l1.338,3.604c1.27,3.422,2.557,6.311,5.719,7.357c3.189,1.055,6.354-0.299,7.768-4.572c1.311-3.959-0.234-7.408-3.996-8.652
			c-0.541-0.178-1.139-0.281-1.746-0.355l-1.311,3.484c0.533,0.018,1.035,0.121,1.633,0.318c2.08,0.688,3.117,2.137,2.457,4.131
			c-0.641,1.938-2.119,2.395-3.77,1.85c-2.166-0.717-3.082-2.725-4.494-6.289l-2.473-6.379l-2.391-0.791l-4.475,13.529l3.018,0.998
			L1243.455,901.404z M1259.457,890.932l-0.543,1.748c-1.195-0.402-1.416-1.006-1.092-2.254l-1.775-0.553
			c-0.816,2.73,0.027,4.154,2.406,4.895l3.295,1.023l1.176-3.781L1259.457,890.932z M1261.246,878.77l-0.971,3.406l-13.1-3.727
			l-1.025,3.607l18.236,5.186l0.756-2.654c-1.717-1.205-2.254-2.605-1.531-5.146L1261.246,878.77z M1251.557,840.32l16.162,11.217
			l0.734-3.434l-8.084-5.379l0.025-0.117l9.582-1.633l0.791-3.695l-14.145,2.59l-4.326-3.012L1251.557,840.32z M1267.793,824.254
			c1.562,0.621,2.713,1.838,2.357,3.785c-0.361,1.977-1.975,2.629-3.5,2.471L1267.793,824.254z M1263.281,830.414
			c-1.383-0.771-1.932-1.939-1.613-3.68c0.35-1.92,1.982-3.176,3.922-2.943l-1.783,9.768l1.268,0.232
			c3.541,0.646,6.893-0.998,7.668-5.248c0.711-3.896-1.705-7.357-5.809-8.105c-4.102-0.75-7.197,1.674-7.93,5.688
			c-0.609,3.336,0.691,5.891,3.461,7.098L1263.281,830.414z M1266.859,808.459l1.164,1.725l-6.527,3.621l-0.617,4.062l8.734-4.773
			l4.377,6.551l0.654-4.301l-4.404-6.373l10.855,1.648l0.541-3.559l-18.688-2.836l-0.539,3.559L1266.859,808.459z M1278.02,793.963
			l-0.447,3.512l-13.51-1.721l-0.475,3.719l18.809,2.396l0.35-2.738c-1.877-0.936-2.619-2.238-2.285-4.857L1278.02,793.963z
			 M1273.307,770.779c-4.182-0.381-7.195,2.268-7.564,6.33c-0.355,3.914,2.018,6.299,5.156,6.887l0.543-2.992
			c-1.977-0.451-3.131-1.672-2.951-3.645c0.18-1.971,1.77-3.211,4.488-2.965c2.748,0.252,4.088,1.758,3.908,3.73
			s-1.506,2.967-3.502,3.055l-0.066,3.037c3.195-0.01,5.959-1.928,6.316-5.842C1280.006,774.312,1277.49,771.162,1273.307,770.779
			 M1282.582,764.225l-0.27,3.68l3.5,0.254l0.27-3.68L1282.582,764.225z M1280.424,764.127l-13.195-0.965l-0.264,3.59l13.195,0.965
			L1280.424,764.127z M1280.449,761.02c0.352-0.371,0.598-1.018,0.643-1.826c0.1-1.828-1.201-3.281-2.674-3.844l2.516,0.139
			l0.199-3.594l-13.211-0.729l-0.197,3.596l6.529,0.359c2.396,0.131,3.646,1.463,3.543,3.318c-0.047,0.869-0.26,1.459-0.688,2.127
			L1280.449,761.02z M1271.236,747.352l0.264-10.436l4.979,0.125l-0.201,7.977l3.088,0.078l0.201-7.977l4.59,0.115l-0.258,10.166
			l3.119,0.08l0.352-13.855l-18.895-0.477l-0.357,14.125L1271.236,747.352z M1275.441,713.014c2.221-0.037,3.68,1.079,3.709,2.91
			c0.029,1.77-1.127,2.598-3.166,2.633l-7.529,0.123l0.059,3.6l8.25-0.137c2.939-0.047,5.318-1.377,5.26-4.917
			c-0.033-1.98-1.08-3.643-2.592-4.279l7.83-0.129l-0.061-3.6l-18.896,0.312l0.059,3.601L1275.441,713.014z M1271.229,698.673
			c-2.816,0.113-3.646,1.857-3.564,3.896c0.064,1.618,0.527,2.681,1.285,3.611l2.369-0.096c-0.391-0.766-0.691-1.503-0.721-2.224
			c-0.043-1.078,0.447-1.608,1.586-1.654l6.533-0.265l0.146,3.598l2.518-0.102l-0.146-3.597l3.658-0.148l-0.088-2.188l-1.816-0.348
			c-1.24-0.25-1.916-0.584-2.178-1.863l-0.186-0.894l-2.127,0.086l0.074,1.889L1271.229,698.673z M1282.77,689.599l0.215,3.685
			l3.504-0.204l-0.215-3.685L1282.77,689.599z M1280.615,689.785l-13.207,0.77l0.211,3.594l13.207-0.77L1280.615,689.785z
			 M1279.762,678.048l-0.24-2.9l-8.986-1.668l-0.01-0.12l8.564-3.474l-0.293-3.558l-12.842,5.271l0.289,3.498l8.896,1.676l0.01,0.12
			l-8.504,3.108l0.285,3.468l13.531,3.101l-0.27-3.259l-9.014-1.998l-0.01-0.119L1279.762,678.048z M1268.068,620.269l14.172-2.547
			l0.291,1.624c0.877,4.871-1.326,7.02-5.904,7.843c-5.166,0.929-7.393-0.424-8.268-5.296L1268.068,620.269z M1246.236,642.102
			c2.088-1.52,4.686-1.91,10.525-3.34c5.705-1.331,9.07-3.383,9.287-8.527c1.662,4.577,5.85,7.102,13.084,5.801
			c8.191-1.474,12.811-6.724,11.008-16.763l-2.137-11.884l-46.506,8.359l1.619,9.007l17.717-3.185l0.346,1.918
			c0.715,3.986-1.621,5.397-6.367,6.556c-5.779,1.344-8.336,1.956-10.209,2.978L1246.236,642.102z M1248.031,609.884l-3.002-12.7
			l12.336-2.914l2.225,9.415l7.445-1.759l-2.225-9.416l11.314-2.673l2.967,12.555l7.445-1.759l-5.055-21.387l-45.984,10.865
			l5.088,21.531L1248.031,609.884z M1232.375,578.834l48.227-3.273l-2.385-8.288l-30.428,2.753l-0.084-0.289l27.211-13.923
			l-2.637-9.153l-42.582,22.876L1232.375,578.834z M1250.277,532.28c5.172-1.801,8.844-2.205,10.027,1.195
			c1.182,3.399-1.945,5.362-7.117,7.163l-14.307,4.981c-5.17,1.801-8.842,2.205-10.025-1.195c-1.184-3.399,1.945-5.362,7.115-7.163
			L1250.277,532.28z M1252.166,551.159c12.68-4.415,18.621-10.613,15.291-20.175c-3.354-9.633-11.861-10.801-24.539-6.386
			l-5.949,2.071c-12.68,4.415-18.621,10.613-15.268,20.246c3.33,9.562,11.836,10.73,24.516,6.315L1252.166,551.159z
			 M1253.037,495.067l-43.809,17.699l8.23,20.375l7.094-2.865l-4.748-11.752l36.717-14.834L1253.037,495.067z M1227.809,471.347
			l0.131,0.269l-13.811,10.318l-2.984-6.055L1227.809,471.347z M1237.191,461.037l-46.826,11.87l3.779,7.669l10.012-2.759
			l4.145,8.41l-8.287,6.257l4.109,8.343l37.941-29.9L1237.191,461.037z M1178.598,452.157l16.602-9.642l4.445,7.653l6.615-3.841
			l-4.443-7.653l11.025-6.403l5.988,10.313l6.615-3.842l-10.658-18.355l-40.859,23.727L1178.598,452.157z M1199.586,396.679
			l-39.623,25.738l11.969,18.429l6.416-4.167l-6.904-10.63l33.209-21.571L1199.586,396.679z M1163.805,414.511l-7.582-10.621
			l10.316-7.365l5.621,7.875l6.227-4.445l-5.621-7.875l9.461-6.754l7.494,10.499l6.227-4.445l-12.768-17.885l-38.457,27.453
			l12.855,18.008L1163.805,414.511z M1138.873,367.452l-2.104,1.69c-7.367,5.918-7.859,12.853-2.879,19.051
			c4.883,6.082,11.76,7.099,18.369,1.792c5.672-4.556,5.943-9.487,5.029-15.776l-0.572-5.023c-0.334-2.811,0.002-4.908,2.459-6.88
			c2.396-1.926,4.773-2.2,6.418-0.153c1.879,2.339,0.969,4.8-2.363,7.477l-2.164,1.738l5.119,6.373l2.105-1.69
			c7.074-5.683,8.211-12.174,3.092-18.548c-4.744-5.906-11.891-6.419-18.029-1.488c-6.141,4.931-6.119,10.109-5.475,15.46
			l0.512,4.591c0.322,3.396,0.514,5.551-2.117,7.664c-2.457,1.973-4.811,2.036-6.594-0.186c-1.975-2.456-1.02-5.339,2.139-7.876
			l2.223-1.784L1138.873,367.452z M1131.678,345.543l10.756-9.573l1.098,1.233c3.291,3.697,2.533,6.682-0.941,9.773
			c-3.922,3.49-6.525,3.498-9.816-0.2L1131.678,345.543z M1124.457,375.562c0.988-2.386,3-4.075,7.232-8.344
			c4.17-4.113,5.969-7.621,3.469-12.122c3.807,3.037,8.697,3.003,14.188-1.883c6.219-5.535,7.416-12.424,0.635-20.044l-8.027-9.02
			l-35.297,31.412l6.084,6.835l13.445-11.966l1.297,1.456c2.693,3.026,1.436,5.449-2.006,8.914
			c-4.227,4.163-6.088,6.021-7.152,7.871L1124.457,375.562z M1109.156,347.194l-9.158-9.296l9.031-8.895l6.789,6.892l5.451-5.368
			l-6.791-6.893l8.283-8.158l9.053,9.19l5.449-5.368l-15.422-15.655l-33.66,33.158l15.525,15.762L1109.156,347.194z
			 M1071.076,321.049l13.645-15.064l6.725,6.091l-13.643,15.065l6.893,6.243l31.719-35.021l-6.895-6.243l-12.939,14.287
			l-6.725-6.092l12.939-14.287l-6.895-6.243l-31.719,35.021L1071.076,321.049z M1043.098,277.147l-1.656,2.133
			c-5.795,7.464-4.664,14.324,1.615,19.2c6.162,4.783,13.088,4.178,18.285-2.516c4.461-5.746,3.582-10.607,1.234-16.512
			l-1.721-4.754c-0.975-2.656-1.135-4.775,0.797-7.263c1.885-2.429,4.135-3.246,6.207-1.636c2.371,1.839,2.057,4.444-0.564,7.821
			l-1.701,2.192l6.457,5.013l1.654-2.132c5.566-7.168,5.166-13.746-1.293-18.759c-5.982-4.646-13.053-3.488-17.883,2.732
			c-4.828,6.22-3.607,11.251-1.742,16.308l1.564,4.347c1.1,3.229,1.787,5.28-0.283,7.946c-1.932,2.488-4.207,3.096-6.459,1.348
			c-2.488-1.932-2.227-4.958,0.256-8.157l1.748-2.251L1043.098,277.147z M1023.936,283.494l22.682-32.461l7.439,5.197l4.381-6.27
			l-22.316-15.594l-4.383,6.271l7.256,5.069l-22.682,32.461L1023.936,283.494z M1010.361,264.933l-11.059-6.93l6.73-10.74
			l8.199,5.137l4.062-6.482l-8.199-5.137l6.172-9.851l10.932,6.85l4.062-6.483l-18.621-11.669l-25.09,40.039l18.748,11.748
			L1010.361,264.933z M983.541,257.302l11.619-21.084l-11.1-6.118l-3.402,6.174l3.414,1.882l-0.434,0.789
			c-2.678,4.86-5.197,7.411-8.285,5.71c-3.088-1.702-2.342-5.23,0.338-10.091l7.348-13.334c2.645-4.795,5.031-7.418,8.184-5.68
			c3.154,1.737,2.08,5.085-0.564,9.88l-1.266,2.299l7.947,4.38l0.508-0.919c5.465-9.919,5.703-17.496-2.967-22.274
			c-8.736-4.815-15.867-0.267-22.348,11.49l-3.258,5.912c-6.48,11.757-6.846,20.034,0.904,24.306c3.152,1.737,6.84,1.885,9.424-0.63
			l-1.514,4.304L983.541,257.302z M948.193,213.831l-0.273-0.123l1.066-26.831l-7.795-3.512l-19.412,43.078l7.863,3.543
			l11.309-25.095l0.273,0.124l-0.777,29.84l6.426,2.896l19.414-43.078l-7.863-3.544L948.193,213.831z M920.645,217.702
			l-12.176-4.697l4.562-11.825l9.027,3.482l2.754-7.137l-9.027-3.482l4.184-10.846l12.037,4.643l2.752-7.137l-20.502-7.91
			l-17.008,44.083l20.643,7.964L920.645,217.702z M895.715,208.137l-12.391-4.098l3.982-12.034l9.184,3.039l2.402-7.263
			l-9.186-3.039l3.652-11.037l12.246,4.051l2.402-7.263l-20.863-6.9l-14.838,44.859l21.006,6.948L895.715,208.137z M854.32,203.991
			c10.189,2.83,15.135-2.646,17.725-11.968l8.471-30.496l-9.178-2.549l-8.633,31.074c-1.385,4.986-2.941,7.511-6.338,6.567
			c-3.396-0.943-3.355-3.89-1.971-8.876l8.631-31.074l-9.178-2.549l-8.471,30.496C842.789,193.938,844.131,201.16,854.32,203.991
			 M825.721,164.407c1.145-5.354,2.705-8.702,6.225-7.949c3.521,0.753,3.574,4.445,2.43,9.799l-3.168,14.816
			c-1.145,5.354-2.703,8.701-6.225,7.949c-3.52-0.753-3.574-4.446-2.43-9.8L825.721,164.407z M842.838,172.592
			c2.807-13.129,0.594-21.425-9.309-23.542c-9.975-2.132-15.387,4.533-18.193,17.661l-1.318,6.161
			c-2.43,11.368-1.092,19.094,5.809,22.333l2.434,6.196l9.24,1.976l-2.867-6.672c6.646-0.957,10.613-7.318,12.889-17.953
			L842.838,172.592z M797.531,183.171l-12.924-1.804l1.752-12.553l9.582,1.337l1.057-7.576l-9.582-1.338l1.607-11.513l12.777,1.783
			l1.057-7.577l-21.764-3.037l-6.531,46.797l21.912,3.058L797.531,183.171z M751.406,185.574l1.723-20.251l9.042,0.769
			l-1.724,20.252l9.268,0.788l4.006-47.08l-9.268-0.788l-1.633,19.205l-9.043-0.769l1.633-19.206l-9.266-0.788l-4.005,47.08
			L751.406,185.574z M729.162,184.397l1-39.587l9.072,0.229l0.192-7.648l-27.216-0.687l-0.193,7.648l8.848,0.223l-1,39.588
			L729.162,184.397z"/>
	</g>
</g>
</svg>
