<?xml version="1.0" encoding="utf-8"?>
<!-- Generator: Adobe Illustrator 16.0.4, SVG Export Plug-In . SVG Version: 6.00 Build 0)  -->
<!DOCTYPE svg PUBLIC "-//W3C//DTD SVG 1.1//EN" "http://www.w3.org/Graphics/SVG/1.1/DTD/svg11.dtd">
<svg version="1.1" id="Ebene_1" xmlns="http://www.w3.org/2000/svg" xmlns:xlink="http://www.w3.org/1999/xlink" x="0px" y="0px"
	 width="1440px" height="1440px" viewBox="0 0 1440 1440" enable-background="new 0 0 1440 1440" xml:space="preserve">
<g>
	<defs>
		<rect id="SVGID_1_" x="430.831" y="12.971" width="997.169" height="1425.029"/>
	</defs>
	<clipPath id="SVGID_2_">
		<use xlink:href="#SVGID_1_"  overflow="visible"/>
	</clipPath>
	<path clip-path="url(#SVGID_2_)" fill="#231F20" d="M794.308,131.711"/>
</g>
<path fill="none" stroke="#231F20" d="M794.308,131.711"/>
<g>
	<defs>
		<rect id="SVGID_3_" x="430.831" y="12.971" width="997.169" height="1425.029"/>
	</defs>
	<clipPath id="SVGID_4_">
		<use xlink:href="#SVGID_3_"  overflow="visible"/>
	</clipPath>
	<path clip-path="url(#SVGID_4_)" fill="#231F20" d="M793.308,139.711"/>
</g>
<path fill="none" stroke="#231F20" d="M793.308,139.711"/>
<g>
	<defs>
		<rect id="SVGID_5_" x="432.688" y="6.486" width="997.175" height="1425.03"/>
	</defs>
	<clipPath id="SVGID_6_">
		<use xlink:href="#SVGID_5_"  overflow="visible"/>
	</clipPath>
	<path clip-path="url(#SVGID_6_)" fill="#231F20" d="M711.171,725.227"/>
</g>
<path fill="none" stroke="#231F20" d="M711.171,725.227"/>
<g>
	<defs>
		<rect id="SVGID_7_" x="432.688" y="6.486" width="997.175" height="1425.03"/>
	</defs>
	<clipPath id="SVGID_8_">
		<use xlink:href="#SVGID_7_"  overflow="visible"/>
	</clipPath>
	<path clip-path="url(#SVGID_8_)" fill="#231F20" d="M711.171,725.227"/>
</g>
<path fill="none" stroke="#231F20" d="M711.171,725.227"/>
<g>
	<defs>
		<rect id="SVGID_9_" x="432.688" y="6.486" width="997.175" height="1425.03"/>
	</defs>
	<clipPath id="SVGID_10_">
		<use xlink:href="#SVGID_9_"  overflow="visible"/>
	</clipPath>
	<g clip-path="url(#SVGID_10_)">
		<defs>
			<rect id="SVGID_11_" x="530.82" y="6" width="882.111" height="1360.398"/>
		</defs>
		<clipPath id="SVGID_12_">
			<use xlink:href="#SVGID_11_"  overflow="visible"/>
		</clipPath>
		<path clip-path="url(#SVGID_12_)" fill="#231F20" d="M706.662,724.957"/>
	</g>
	<path clip-path="url(#SVGID_10_)" fill="none" stroke="#231F20" d="M706.662,724.957"/>
	<g clip-path="url(#SVGID_10_)">
		<defs>
			<rect id="SVGID_13_" x="530.82" y="6" width="882.111" height="1360.398"/>
		</defs>
		<clipPath id="SVGID_14_">
			<use xlink:href="#SVGID_13_"  overflow="visible"/>
		</clipPath>
		<path clip-path="url(#SVGID_14_)" fill="#231F20" d="M706.662,724.957"/>
	</g>
	<path clip-path="url(#SVGID_10_)" fill="none" stroke="#231F20" d="M706.662,724.957"/>
	<g clip-path="url(#SVGID_10_)">
		<defs>
			<rect id="SVGID_15_" x="535.32" y="6.486" width="882.111" height="1360.399"/>
		</defs>
		<clipPath id="SVGID_16_">
			<use xlink:href="#SVGID_15_"  overflow="visible"/>
		</clipPath>
		<path clip-path="url(#SVGID_16_)" fill="#0000FF" d="M864.613,1066.652l-1.674,0.74c-0.482-1.164-0.174-1.729,0.982-2.305
			l-0.752-1.701c-2.594,1.18-3.113,2.754-2.105,5.031l1.396,3.154l3.621-1.602L864.613,1066.652z M871.594,1063.422l-1.654,0.781
			c-0.512-1.15-0.217-1.721,0.924-2.328l-0.795-1.68c-2.564,1.244-3.041,2.832-1.977,5.082l1.475,3.119l3.58-1.693L871.594,1063.422
			z M877.35,1057.891c-0.959-1.902-0.4-3.729,1.635-4.756c2.062-1.039,3.861-0.402,4.822,1.5c0.932,1.848,0.387,3.701-1.648,4.729
			C880.148,1060.375,878.27,1059.711,877.35,1057.891 M876.119,1047.121c1.82-0.918,3.285-0.414,4.297,1.059l3.094-1.66
			c-1.943-3.121-5.207-3.861-8.689-2.104c-4.793,2.418-5.26,7.357-2.625,12.58c2.648,5.25,6.746,7.314,11.354,4.992
			c3.805-1.92,5.215-5.52,3.43-9.055c-1.66-3.295-5.072-4.463-8.742-2.613c-2.223,1.121-3.236,2.977-3.148,4.814
			C873.371,1051.6,873.439,1048.473,876.119,1047.121 M897.861,1047.854l-3.098,1.713l-6.59-11.92l-3.281,1.814l9.174,16.594
			l2.416-1.336c-0.354-2.066,0.26-3.436,2.57-4.711L897.861,1047.854z M905.174,1045.373l-1.566,0.945
			c-0.625-1.094-0.391-1.691,0.684-2.41l-0.961-1.592c-2.426,1.498-2.74,3.125-1.453,5.256l1.783,2.955l3.389-2.047
			L905.174,1045.373z M914.137,1037.824l-2.984,1.904l-7.326-11.48l-3.162,2.018l10.201,15.98l2.326-1.484
			c-0.484-2.039,0.043-3.443,2.27-4.863L914.137,1037.824z M942.635,1019.643l-2.924,2.25l2.141,2.781l2.924-2.25L942.635,1019.643z
			 M941.271,1017.967l-8.066-10.486l-2.854,2.195l8.066,10.484L941.271,1017.967z M946.525,1010.283l0.133-10.639l-1.572-1.893
			l-8.861,7.359l1.705,2.055l5.539-4.6l-0.225,10.715l1.572,1.895l8.584-7.133l-1.705-2.053L946.525,1010.283z M959.576,994.266
			c1.502,1.635,1.635,3.467,0.287,4.703c-1.305,1.197-2.691,0.883-4.07-0.619l-5.092-5.547l-2.654,2.434l5.58,6.078
			c1.988,2.166,4.561,3.061,7.17,0.668c1.457-1.34,2.006-3.227,1.477-4.779l1.461,1.592l2.652-2.434l-8.947-9.748l-2.65,2.436
			L959.576,994.266z M972.799,982.703c0.926,1.406,1.17,3.062-0.238,4.455c-1.43,1.412-3.123,1.021-4.285,0.018L972.799,982.703z
			 M965.572,985.164c-0.691-1.424-0.473-2.695,0.785-3.939c1.389-1.371,3.447-1.465,4.902-0.162l-7.061,6.98l0.904,0.916
			c2.531,2.561,6.221,3.135,9.291,0.098c2.818-2.785,2.82-7.006-0.111-9.973c-2.932-2.965-6.857-2.754-9.758,0.113
			c-2.41,2.385-2.811,5.225-1.234,7.801L965.572,985.164z M986.732,972.035c1.588,0.654,3.295,0.412,4.855-1.332
			c1.34-1.498,1.58-3.297,0.904-4.789l1.607,1.441l2.402-2.684l-9.859-8.822l-2.4,2.684l5.275,4.721
			c1.654,1.48,2.027,3.223,0.867,4.52s-2.473,1.008-3.992-0.352l-5.613-5.021l-2.398,2.684l5.275,4.721
			c1.654,1.48,2.027,3.223,0.867,4.52c-1.18,1.32-2.473,1.008-3.992-0.352l-5.611-5.021l-2.4,2.684l6.148,5.502
			c2.145,1.92,4.738,2.711,7.119,0.049C987.227,975.576,987.416,973.611,986.732,972.035 M996.73,956.648
			c2.73,2.158,5.396,1.398,7.52-1.283c2.176-2.754,1.977-5.551,0.139-7.578l-2.264,2.379c0.826,1.035,1.029,2.23,0.1,3.406
			c-0.949,1.199-2.139,1.254-3.293,0.342l-0.234-0.186l1.686-3.295c1.391-2.725,1.832-4.977-0.143-6.539
			c-1.789-1.414-3.914-0.953-5.625,1.213c-1.211,1.529-1.691,3.443-0.957,4.98c-1.334-0.635-2.611-0.422-3.541,0.756
			c-0.746,0.941-0.887,1.748-0.887,2.475l1.506,1.191c0.102-0.418,0.254-0.758,0.477-1.039c0.354-0.447,0.836-0.525,1.377-0.098
			L996.73,956.648z M996.744,952.184c-1.67-1.322-1.908-3.344-0.734-4.826c0.707-0.895,1.557-1.1,2.264-0.543
			c1.035,0.82,0.559,1.857-0.15,3.285l-1.121,2.289L996.744,952.184z M999.201,939.844l13.572-0.744l2.293,11.033l2.504-3.594
			l-2.4-11.51l7.016,4.889l2.145-3.076l-15.506-10.807l-2.145,3.076l5.145,3.586l0.533,2.748l-10.584,0.707L999.201,939.844z
			 M1023.346,911.459l0.404,2.041l-7.42,0.811l-2.143,3.508l9.902-1.016l1.496,7.734l2.268-3.713l-1.59-7.582l9.369,5.727
			l1.877-3.072l-16.127-9.855l-1.877,3.072L1023.346,911.459z M1035.49,894.074c-3.686-2.014-7.504-0.787-9.463,2.793
			c-1.885,3.449-0.658,6.582,1.988,8.371l1.691-2.529c-1.635-1.201-2.207-2.779-1.256-4.518c0.949-1.736,2.9-2.242,5.297-0.932
			c2.42,1.324,3.049,3.24,2.098,4.979c-0.951,1.736-2.562,2.121-4.428,1.406l-1.271,2.76c2.934,1.262,6.234,0.605,8.121-2.842
			C1040.225,899.982,1039.174,896.092,1035.49,894.074 M1046.719,891.18l-1.654,3.299l3.139,1.572l1.654-3.299L1046.719,891.18z
			 M1044.762,890.264l-11.828-5.93l-1.613,3.219l11.828,5.93L1044.762,890.264z M1045.123,875.062
			c2.018,0.924,2.854,2.559,2.092,4.223c-0.736,1.609-2.137,1.859-3.992,1.012l-6.848-3.133l-1.496,3.275l7.502,3.43
			c2.674,1.225,5.393,1.049,6.865-2.17c0.822-1.801,0.594-3.754-0.496-4.977l1.965,0.896l1.498-3.273l-12.033-5.502l-1.496,3.273
			L1045.123,875.062z M1051.938,858.805c2.062,0.826,2.975,2.42,2.293,4.119c-0.658,1.643-2.045,1.959-3.939,1.199l-6.988-2.801
			l-1.34,3.34l7.658,3.07c2.729,1.094,5.436,0.789,6.754-2.496c0.736-1.838,0.414-3.777-0.732-4.947l2.004,0.803l1.34-3.342
			l-12.279-4.922l-1.34,3.342L1051.938,858.805z M1056.59,850.523c3.289,1.139,5.557-0.455,6.676-3.688
			c1.15-3.316,0.041-5.891-2.363-7.199l-1.354,2.99c1.121,0.705,1.707,1.766,1.215,3.184c-0.5,1.445-1.605,1.889-2.996,1.406
			l-0.283-0.098l0.508-3.666c0.416-3.031,0.092-5.303-2.289-6.127c-2.154-0.746-4.01,0.389-4.912,2.996
			c-0.639,1.844-0.463,3.811,0.736,5.02c-1.467-0.16-2.604,0.463-3.096,1.879c-0.393,1.135-0.26,1.941-0.02,2.629l1.812,0.629
			c-0.041-0.428-0.01-0.797,0.109-1.139c0.186-0.537,0.615-0.77,1.268-0.543L1056.59,850.523z M1055.133,846.305
			c-2.014-0.697-2.902-2.529-2.285-4.316c0.375-1.076,1.111-1.553,1.961-1.258c1.248,0.432,1.139,1.57,0.939,3.152l-0.305,2.529
			L1055.133,846.305z M1065.654,830.562l9.131-2.662l1.176-4.002l-13.203,3.75l-6.994-2.055l-1.031,3.512l6.994,2.055l9.076,10.297
			l1.141-3.887L1065.654,830.562z M1069.119,801.555c2.17,0.471,3.334,1.891,2.945,3.678c-0.375,1.73-1.691,2.273-3.684,1.84
			l-7.359-1.598l-0.764,3.516l8.061,1.754c2.873,0.623,5.492-0.127,6.244-3.586c0.422-1.936-0.219-3.793-1.545-4.758l7.652,1.664
			l0.764-3.518l-18.469-4.016l-0.764,3.52L1069.119,801.555z M1068.26,786.383c-2.775-0.498-3.963,1.025-4.324,3.033
			c-0.287,1.594-0.064,2.73,0.475,3.805l2.332,0.418c-0.217-0.83-0.35-1.617-0.223-2.326c0.191-1.062,0.783-1.473,1.906-1.271
			l6.436,1.156l-0.637,3.545l2.48,0.445l0.637-3.543l3.602,0.648l0.389-2.156l-1.697-0.732c-1.158-0.512-1.742-0.982-1.721-2.291
			l0.012-0.912l-2.096-0.377l-0.336,1.861L1068.26,786.383z M1081.486,779.828l-0.566,3.646l3.469,0.539l0.566-3.648
			L1081.486,779.828z M1079.342,779.557l-13.072-2.029l-0.553,3.557l13.074,2.029L1079.342,779.557z M1080.963,767.182l0.307-2.895
			l-8.518-3.316l0.012-0.119l9.062-1.814l0.377-3.551l-13.6,2.781l-0.371,3.49l8.43,3.309l-0.014,0.119l-8.934,1.465l-0.367,3.461
			l12.713,5.572l0.346-3.252l-8.484-3.645l0.014-0.121L1080.963,767.182z M1076.334,715.078l-0.012-0.299l24.471-11.055
			l-0.348-8.543l-47.211,1.922l0.352,8.618l27.502-1.12l0.012,0.3l-27.033,12.662l0.287,7.043l47.211-1.922l-0.35-8.619
			L1076.334,715.078z M1081.223,670.281c5.422-0.762,9.102-0.445,9.604,3.119c0.5,3.565-2.949,4.883-8.371,5.646l-15.002,2.108
			c-5.422,0.762-9.104,0.446-9.604-3.119c-0.502-3.564,2.949-4.883,8.371-5.645L1081.223,670.281z M1079.41,689.168
			c13.293-1.868,20.326-6.796,18.916-16.821c-1.42-10.102-9.537-12.898-22.832-11.029l-6.238,0.876
			c-13.295,1.869-20.328,6.796-18.908,16.897c1.41,10.025,9.529,12.822,22.822,10.955L1079.41,689.168z M1092.428,642.429
			l-46.289,9.482l1.867,9.11l46.289-9.482L1092.428,642.429z M1043.473,640.75l38.221-10.365l2.375,8.759l7.383-2.003l-7.125-26.276
			l-7.385,2.003l2.318,8.541l-38.221,10.365L1043.473,640.75z M1049.396,604.479l0.803,2.262
			c3.432,9.686,10.211,11.977,19.471,8.696c9.262-3.282,13.086-9.332,9.654-19.017l-3.883-10.957l-44.537,15.781l3.08,8.694
			L1049.396,604.479z M1056.467,601.974l14.986-5.312l0.502,1.414c1.703,4.807,0.082,6.973-5.361,8.901
			c-5.373,1.903-7.924,1.217-9.627-3.59L1056.467,601.974z M1068.213,568.248l-43.449,18.567l3.654,8.552l43.449-18.566
			L1068.213,568.248z M1038.09,555.995l12.855-6.485l0.744,1.473c2.229,4.42,0.729,7.107-3.424,9.202
			c-4.686,2.364-7.205,1.702-9.434-2.717L1038.09,555.995z M1023.391,583.146c1.57-2.052,3.947-3.167,9.137-6.203
			c5.088-2.902,7.727-5.83,6.469-10.822c2.898,3.914,7.633,5.139,14.193,1.828c7.436-3.749,10.363-10.099,5.771-19.206
			l-5.439-10.781l-42.188,21.277l4.121,8.171l16.07-8.106l0.879,1.741c1.824,3.617-0.014,5.635-4.23,8.099
			c-5.156,2.937-7.432,4.252-8.938,5.767L1023.391,583.146z M1026.711,524.174c4.65-2.888,7.977-4.07,9.836-1.075
			c1.898,3.059-0.715,5.388-5.367,8.275l-3.633,2.255l4.787,7.71l1.656-1.028c9.621-5.972,14.293-12.668,9.111-21.015
			c-5.379-8.667-13.744-8.065-25.15-0.985l-5.734,3.56c-11.406,7.079-15.658,14.308-10.279,22.975
			c5.182,8.348,13.254,7.133,22.875,1.16l1.658-1.028l-4.787-7.711l-3.631,2.255c-4.652,2.887-7.9,4.197-9.799,1.138
			c-1.859-2.995,0.678-5.452,5.33-8.339L1026.711,524.174z M991.602,500.688l-2.16,1.619c-7.561,5.668-8.283,12.583-3.516,18.944
			c4.68,6.242,11.52,7.488,18.301,2.405c5.82-4.364,6.256-9.284,5.555-15.599l-0.404-5.04c-0.24-2.82,0.166-4.905,2.686-6.794
			c2.461-1.845,4.846-2.039,6.42,0.061c1.801,2.401,0.809,4.83-2.611,7.395l-2.221,1.664l4.904,6.541l2.16-1.619
			c7.26-5.444,8.613-11.893,3.709-18.434c-4.543-6.061-11.668-6.813-17.969-2.09c-6.303,4.724-6.453,9.899-5.99,15.269l0.359,4.605
			c0.209,3.405,0.328,5.565-2.371,7.589c-2.521,1.89-4.875,1.874-6.584-0.406c-1.891-2.521-0.84-5.37,2.4-7.8l2.281-1.709
			L991.602,500.688z M983.475,504.271l-8.584-9.829l9.547-8.337l6.365,7.287l5.762-5.032l-6.363-7.288l8.756-7.646l8.484,9.716
			l5.762-5.032l-14.455-16.552L963.16,492.64l14.555,16.665L983.475,504.271z M980.734,470.989
			c9.062-9.181,10.762-17.094,3.607-24.154l-9.127-9.01l-33.193,33.627l9.127,9.01c7.154,7.06,15.043,5.259,24.107-3.922
			L980.734,470.989z M966.58,471.876c-4.637,4.697-7.918,5.673-11.068,2.565l-1.707-1.686l22.865-23.166l1.709,1.686
			c3.148,3.109,2.215,6.403-2.42,11.1L966.58,471.876z M935.947,456.267l-10.236-8.094l7.861-9.943l7.59,6.002l4.744-6.001
			l-7.59-6.001l7.211-9.119l10.119,8.002l4.746-6.001l-17.238-13.63l-29.307,37.063l17.355,13.723L935.947,456.267z
			 M903.084,441.277l21.852-33.025l7.568,5.008l4.221-6.38l-22.705-15.023l-4.221,6.38l7.381,4.883l-21.852,33.026L903.084,441.277z
			 M874.811,424.92c9.277,5.075,15.34,0.869,19.984-7.619l15.188-27.767l-8.355-4.571l-15.479,28.293
			c-2.482,4.54-4.574,6.645-7.666,4.953c-3.094-1.692-2.383-4.552,0.1-9.092l15.479-28.294l-8.357-4.571l-15.189,27.767
			C865.871,412.507,865.533,419.846,874.811,424.92 M854.695,380.002c2.156-5.032,4.334-8.016,7.643-6.597s2.648,5.052,0.492,10.084
			l-5.971,13.924c-2.158,5.032-4.336,8.016-7.645,6.597c-3.307-1.418-2.648-5.052-0.49-10.084L854.695,380.002z M869.908,391.339
			c5.291-12.338,4.721-20.906-4.584-24.896c-9.375-4.02-15.975,1.474-21.266,13.813l-2.482,5.79
			c-5.289,12.339-4.721,20.907,4.654,24.926c9.307,3.99,15.904-1.504,21.195-13.842L869.908,391.339z M824.654,375.155l4.553-13.662
			l1.564,0.522c4.697,1.564,5.527,4.529,4.059,8.941c-1.66,4.981-3.914,6.285-8.609,4.721L824.654,375.155z M833.365,404.776
			c-0.334-2.561,0.566-5.028,2.107-10.839c1.564-5.645,1.375-9.582-3.037-12.237c4.814,0.734,9.035-1.733,11.359-8.706
			c2.631-7.898,0.234-14.468-9.443-17.692l-11.455-3.816l-14.936,44.828l8.682,2.892l5.689-17.078l1.85,0.617
			c3.842,1.28,3.961,4.007,2.705,8.727c-1.588,5.716-2.275,8.254-2.275,10.389L833.365,404.776z M795.885,385.149l-12.752-2.772
			l2.691-12.386l9.453,2.055l1.625-7.475l-9.453-2.055l2.469-11.36l12.605,2.74l1.625-7.476l-21.475-4.667l-10.035,46.172
			l21.621,4.699L795.885,385.149z M749.614,384.652l2.631-20.154l8.999,1.175l-2.631,20.154l9.222,1.204l6.116-46.852l-9.221-1.204
			l-2.496,19.113l-8.998-1.175l2.494-19.113l-9.222-1.204l-6.116,46.852L749.614,384.652z M730.408,383.037l1.779-39.56l9.066,0.408
			l0.344-7.643l-27.197-1.223l-0.344,7.642l8.84,0.398l-1.779,39.56L730.408,383.037z"/>
	</g>
</g>
</svg>
