<?xml version="1.0" encoding="utf-8"?>
<!-- Generator: Adobe Illustrator 16.0.4, SVG Export Plug-In . SVG Version: 6.00 Build 0)  -->
<!DOCTYPE svg PUBLIC "-//W3C//DTD SVG 1.1//EN" "http://www.w3.org/Graphics/SVG/1.1/DTD/svg11.dtd">
<svg version="1.1" id="Ebene_1" xmlns="http://www.w3.org/2000/svg" xmlns:xlink="http://www.w3.org/1999/xlink" x="0px" y="0px"
	 width="1440px" height="1440px" viewBox="0 0 1440 1440" enable-background="new 0 0 1440 1440" xml:space="preserve">
<g>
	<defs>
		<rect id="SVGID_1_" x="430.831" y="12.971" width="997.169" height="1425.029"/>
	</defs>
	<clipPath id="SVGID_2_">
		<use xlink:href="#SVGID_1_"  overflow="visible"/>
	</clipPath>
	<path clip-path="url(#SVGID_2_)" fill="#231F20" d="M794.308,131.711"/>
</g>
<path fill="none" stroke="#231F20" d="M794.308,131.711"/>
<path fill="none" stroke="#231F20" d="M793.308,139.711"/>
<g>
	<defs>
		<rect id="SVGID_3_" x="432.688" y="6.486" width="997.175" height="1425.03"/>
	</defs>
	<clipPath id="SVGID_4_">
		<use xlink:href="#SVGID_3_"  overflow="visible"/>
	</clipPath>
	<path clip-path="url(#SVGID_4_)" fill="#231F20" d="M711.171,725.227"/>
</g>
<path fill="none" stroke="#231F20" d="M711.171,725.227"/>
<g>
	<defs>
		<rect id="SVGID_5_" x="432.688" y="6.486" width="997.175" height="1425.03"/>
	</defs>
	<clipPath id="SVGID_6_">
		<use xlink:href="#SVGID_5_"  overflow="visible"/>
	</clipPath>
	<path clip-path="url(#SVGID_6_)" fill="#231F20" d="M711.171,725.227"/>
</g>
<path fill="none" stroke="#231F20" d="M711.171,725.227"/>
<g>
	<defs>
		<rect id="SVGID_7_" x="651.113" y="201.147" width="583.934" height="1014.565"/>
	</defs>
	<clipPath id="SVGID_8_">
		<use xlink:href="#SVGID_7_"  overflow="visible"/>
	</clipPath>
	<path clip-path="url(#SVGID_8_)" fill="#0000FF" d="M1047.217,1011.336l-1.192,1.389c-0.937-0.844-0.901-1.484-0.106-2.502
		l-1.41-1.213c-1.834,2.184-1.624,3.826,0.266,5.449l2.618,2.246l2.579-3.004L1047.217,1011.336z M1051.91,1005.758l-1.174,1.404
		c-0.947-0.832-0.918-1.473-0.137-2.5l-1.426-1.195c-1.807,2.205-1.576,3.846,0.334,5.445l2.645,2.213l2.543-3.037L1051.91,1005.758
		z M1054.777,998.305c-1.666-1.326-1.925-3.219-0.506-5.002c1.438-1.809,3.34-1.982,5.008-0.656
		c1.619,1.289,1.901,3.199,0.481,4.984C1058.361,999.391,1056.375,999.574,1054.777,998.305 M1049.154,989.039
		c1.27-1.596,2.811-1.752,4.344-0.836l2.115-2.803c-3.07-2.021-6.343-1.328-8.771,1.725c-3.343,4.201-1.699,8.883,2.879,12.525
		c4.601,3.658,9.188,3.82,12.401-0.219c2.651-3.334,2.426-7.193-0.674-9.658c-2.888-2.299-6.476-1.932-9.035,1.285
		c-1.549,1.949-1.693,4.057-0.846,5.689C1048.531,994.254,1047.285,991.387,1049.154,989.039 M1069.197,980.623l-2.1,2.85
		l-10.967-8.076l-2.225,3.02l15.268,11.242l1.637-2.221c-1.186-1.73-1.197-3.23,0.367-5.357L1069.197,980.623z M1074.631,975.693
		l-1.049,1.5c-1.016-0.746-1.043-1.389-0.354-2.48l-1.523-1.064c-1.608,2.354-1.236,3.967,0.805,5.393l2.828,1.979l2.268-3.246
		L1074.631,975.693z M1079.723,965.15l-1.955,2.951l-11.354-7.525l-2.071,3.127l15.804,10.475l1.525-2.301
		c-1.27-1.67-1.357-3.166,0.102-5.367L1079.723,965.15z M1098.373,937.469l-1.807,3.217l3.061,1.719l1.807-3.217L1098.373,937.469z
		 M1096.461,936.463l-11.535-6.479l-1.764,3.139l11.535,6.479L1096.461,936.463z M1098.287,927.363l-4.047-9.842l-2.187-1.125
		l-5.271,10.242l2.375,1.223l3.293-6.402l3.99,9.947l2.188,1.127l5.106-9.924l-2.375-1.223L1098.287,927.363z M1104.023,907.85
		c2.01,0.943,2.829,2.588,2.053,4.244c-0.752,1.602-2.155,1.838-4.002,0.973l-6.817-3.199l-1.529,3.258l7.468,3.506
		c2.662,1.248,5.383,1.102,6.887-2.104c0.842-1.793,0.632-3.748-0.446-4.982l1.956,0.918l1.529-3.26l-11.977-5.619l-1.529,3.258
		L1104.023,907.85z M1111.893,892.164c1.389,0.951,2.244,2.389,1.469,4.211c-0.787,1.85-2.505,2.129-3.959,1.641L1111.893,892.164z
		 M1106.138,897.18c-1.181-1.057-1.459-2.316-0.765-3.943c0.764-1.795,2.633-2.662,4.474-2.008l-3.89,9.137l1.187,0.504
		c3.312,1.41,6.942,0.543,8.634-3.432c1.551-3.645-0.045-7.551-3.882-9.186c-3.837-1.633-7.39,0.049-8.987,3.803
		c-1.328,3.119-0.621,5.9,1.813,7.686L1106.138,897.18z M1120.812,877.414c1.717,0.027,3.217-0.826,4.028-3.02
		c0.696-1.887,0.261-3.646-0.917-4.785l2.025,0.748l1.25-3.375l-12.408-4.592l-1.25,3.377l6.641,2.455
		c2.082,0.771,3.068,2.256,2.465,3.889c-0.604,1.631-1.93,1.844-3.844,1.137l-7.062-2.613l-1.248,3.377l6.64,2.455
		c2.082,0.771,3.069,2.256,2.465,3.889c-0.614,1.658-1.931,1.844-3.843,1.137l-7.063-2.613l-1.249,3.377l7.738,2.861
		c2.701,1,5.404,0.785,6.643-2.564C1122.572,880.527,1122.025,878.631,1120.812,877.414 M1124.465,859.764
		c3.318,1.049,5.541-0.607,6.572-3.867c1.059-3.348-0.119-5.891-2.558-7.135l-1.272,3.027c1.14,0.676,1.754,1.719,1.302,3.15
		c-0.462,1.457-1.556,1.93-2.957,1.486l-0.286-0.09l0.408-3.678c0.333-3.043-0.053-5.303-2.455-6.064
		c-2.174-0.688-3.997,0.498-4.829,3.129c-0.588,1.861-0.358,3.82,0.874,4.998c-1.473-0.121-2.592,0.533-3.044,1.963
		c-0.362,1.145-0.207,1.947,0.05,2.627l1.831,0.578c-0.054-0.426-0.032-0.795,0.077-1.139c0.172-0.543,0.595-0.787,1.253-0.578
		L1124.465,859.764z M1122.892,855.584c-2.03-0.643-2.969-2.449-2.399-4.252c0.344-1.086,1.066-1.582,1.924-1.309
		c1.26,0.396,1.183,1.537,1.027,3.125l-0.236,2.535L1122.892,855.584z M1120.715,843.361l12.494-5.355l5.938,9.576l1.12-4.234
		l-6.203-9.986l8.266,2.186l0.959-3.627l-18.272-4.83l-0.958,3.625l6.061,1.604l1.445,2.398l-9.699,4.293L1120.715,843.361z
		 M1133.701,808.436l1.08,1.779l-6.693,3.301l-0.812,4.031l8.955-4.348l4.057,6.754l0.858-4.264l-4.091-6.578l10.764,2.168
		l0.711-3.529l-18.527-3.732l-0.711,3.529L1133.701,808.436z M1139.367,788.258c-4.144-0.682-7.34,1.74-8.002,5.768
		c-0.638,3.877,1.558,6.428,4.646,7.24l0.759-2.945c-1.94-0.594-3.003-1.895-2.682-3.848s1.995-3.076,4.69-2.633
		c2.723,0.447,3.949,2.047,3.629,4.002c-0.322,1.953-1.717,2.85-3.713,2.793l-0.285,3.025c3.187,0.219,6.082-1.492,6.721-5.371
		C1145.793,792.264,1143.513,788.939,1139.367,788.258 M1149.049,782.193l-0.512,3.652l3.476,0.488l0.512-3.654L1149.049,782.193z
		 M1146.9,781.951l-13.102-1.834l-0.499,3.564l13.103,1.836L1146.9,781.951z M1142.367,767.432c2.207,0.229,3.522,1.512,3.334,3.332
		c-0.184,1.762-1.431,2.445-3.459,2.234l-7.49-0.777l-0.372,3.58l8.206,0.854c2.925,0.303,5.445-0.732,5.81-4.254
		c0.205-1.969-0.636-3.746-2.06-4.557l2.148,0.223l0.371-3.58l-13.158-1.365l-0.373,3.58L1142.367,767.432z M1143.742,750.131
		c2.215,0.15,3.573,1.385,3.451,3.211c-0.121,1.766-1.343,2.494-3.378,2.357l-7.513-0.51l-0.244,3.592l8.232,0.559
		c2.933,0.197,5.414-0.928,5.654-4.459c0.133-1.975-0.771-3.721-2.224-4.48l2.155,0.146l0.244-3.592l-13.2-0.895l-0.243,3.592
		L1143.742,750.131z M1145.578,741.109c3.479,0.109,5.168-2.088,5.277-5.506c0.111-3.508-1.712-5.637-4.396-6.174l-0.403,3.26
		c1.28,0.342,2.153,1.18,2.106,2.678c-0.049,1.529-0.974,2.281-2.442,2.234l-0.3-0.01l-0.604-3.65
		c-0.505-3.018-1.489-5.092-4.008-5.17c-2.278-0.072-3.712,1.562-3.799,4.32c-0.062,1.949,0.69,3.775,2.196,4.572
		c-1.45,0.285-2.351,1.217-2.398,2.715c-0.038,1.201,0.329,1.934,0.762,2.518l1.918,0.061c-0.168-0.396-0.246-0.76-0.234-1.119
		c0.018-0.568,0.359-0.92,1.049-0.896L1145.578,741.109z M1142.931,737.512c-2.129-0.066-3.522-1.553-3.462-3.441
		c0.036-1.139,0.598-1.811,1.497-1.783c1.319,0.043,1.554,1.16,1.835,2.73l0.46,2.506L1142.931,737.512z M1148.252,719.35
		l7.927-5.257l-0.067-4.169l-11.49,7.505l-7.289,0.119l0.059,3.66l7.289-0.119l11.727,7.131l-0.064-4.049L1148.252,719.35z
		 M1143.156,690.88c2.213-0.17,3.735,0.857,3.875,2.684c0.135,1.764-0.971,2.66-3.004,2.816l-7.509,0.574l0.274,3.588l8.227-0.629
		c2.932-0.223,5.227-1.693,4.956-5.221c-0.151-1.977-1.296-3.572-2.842-4.117l7.807-0.596l-0.274-3.59l-18.844,1.439l0.273,3.59
		L1143.156,690.88z M1138.107,676.81c-2.806,0.281-3.529,2.074-3.324,4.104c0.162,1.611,0.688,2.645,1.5,3.527l2.358-0.238
		c-0.437-0.74-0.78-1.459-0.853-2.174c-0.107-1.076,0.349-1.633,1.482-1.748l6.508-0.656l0.36,3.582l2.507-0.252l-0.361-3.582
		l3.643-0.367l-0.221-2.18l-1.832-0.236c-1.254-0.176-1.946-0.469-2.285-1.73l-0.239-0.879l-2.119,0.213l0.189,1.881
		L1138.107,676.81z M1148.996,666.87l0.459,3.662l3.483-0.438l-0.459-3.662L1148.996,666.87z M1146.861,667.198l-13.127,1.645
		l0.446,3.572l13.128-1.645L1146.861,667.198z M1145.1,655.192l-0.466-2.871l-9.091-0.956l-0.02-0.118l8.264-4.139l-0.572-3.524
		l-12.387,6.267l0.563,3.466l9.002,0.969l0.019,0.117l-8.231,3.77l0.558,3.436l13.732,2.023l-0.523-3.227l-9.145-1.281l-0.02-0.119
		L1145.1,655.192z M1127.308,606.597l-0.084-0.287l21.095-16.614l-2.391-8.209l-45.364,13.217l2.412,8.28l26.427-7.699l0.084,0.288
		l-23.195,18.788l1.972,6.769l45.364-13.216l-2.413-8.281L1127.308,606.597z M1121.563,562.239
		c5.104-1.981,8.759-2.516,10.062,0.841s-1.756,5.428-6.859,7.409l-14.123,5.481c-5.104,1.982-8.759,2.516-10.061-0.841
		c-1.303-3.355,1.754-5.428,6.857-7.409L1121.563,562.239z M1124.115,581.04c12.515-4.858,18.235-11.262,14.571-20.701
		c-3.69-9.509-12.233-10.376-24.749-5.518l-5.874,2.28c-12.515,4.857-18.235,11.262-14.544,20.77
		c3.664,9.439,12.207,10.307,24.723,5.449L1124.115,581.04z M1126.496,533.033l-43.14,19.275l3.794,8.491l43.139-19.275
		L1126.496,533.033z M1078.33,541.992l35.3-17.948l4.112,8.089l6.819-3.467l-12.34-24.268l-6.819,3.467l4.012,7.889l-35.299,17.949
		L1078.33,541.992z M1076.75,505.259l1.246,2.052c5.336,8.78,12.441,9.641,20.838,4.538c8.396-5.102,10.904-11.805,5.568-20.586
		l-6.037-9.934l-40.379,24.538l4.791,7.883L1076.75,505.259z M1083.16,501.365l13.586-8.258l0.779,1.283
		c2.649,4.357,1.506,6.809-3.43,9.808c-4.871,2.96-7.509,2.808-10.157-1.551L1083.16,501.365z M1088.766,466.735l-39.419,26.052
		l5.128,7.759l39.419-26.052L1088.766,466.735z M1056.867,460.122l11.486-8.685l0.995,1.316c2.985,3.949,1.992,6.863-1.718,9.667
		c-4.188,3.166-6.783,2.966-9.77-0.983L1056.867,460.122z M1047.273,489.468c1.178-2.3,3.316-3.822,7.876-7.74
		c4.486-3.767,6.558-7.119,4.425-11.807c3.553,3.331,8.43,3.688,14.293-0.744c6.641-5.021,8.385-11.793,2.233-19.929l-7.282-9.633
		l-37.691,28.494l5.519,7.299l14.358-10.854l1.176,1.556c2.443,3.23,0.996,5.546-2.711,8.725c-4.546,3.813-6.551,5.515-7.758,7.275
		L1047.273,489.468z M1040.5,430.919c4.104-3.623,7.187-5.344,9.52-2.701c2.383,2.698,0.193,5.432-3.91,9.055l-3.205,2.83
		l6.006,6.803l1.461-1.291c8.49-7.494,11.979-14.876,5.477-22.241c-6.75-7.647-14.898-5.657-24.962,3.228l-5.062,4.468
		c-10.063,8.884-13.05,16.722-6.299,24.368c6.502,7.365,14.26,4.82,22.749-2.674l1.462-1.291l-6.006-6.804l-3.205,2.829
		c-4.104,3.623-7.088,5.457-9.47,2.758c-2.333-2.643-0.243-5.488,3.86-9.111L1040.5,430.919z M1002.711,413.45l-1.908,1.91
		c-6.676,6.688-6.405,13.635-0.779,19.252c5.52,5.511,12.467,5.77,18.455-0.228c5.141-5.148,4.871-10.08,3.275-16.23l-1.118-4.932
		c-0.64-2.757-0.534-4.878,1.69-7.107c2.174-2.176,4.506-2.709,6.363-0.854c2.123,2.12,1.489,4.667-1.531,7.691l-1.961,1.964
		l5.787,5.775l1.906-1.91c6.412-6.422,6.831-12.999,1.045-18.775c-5.359-5.351-12.52-5.08-18.084,0.493
		c-5.562,5.573-4.977,10.717-3.752,15.966l1.012,4.508c0.692,3.34,1.118,5.461-1.267,7.85c-2.226,2.229-4.558,2.549-6.575,0.535
		c-2.229-2.226-1.595-5.195,1.266-8.062l2.015-2.016L1002.711,413.45z M995.164,418.308l-9.795-8.623l8.375-9.514l7.262,6.393
		l5.055-5.742l-7.262-6.393l7.682-8.726l9.682,8.524l5.057-5.741l-16.494-14.521l-31.223,35.464l16.607,14.621L995.164,418.308z
		 M988.111,385.615c7.778-10.292,8.422-18.36,0.404-24.419l-10.232-7.732l-28.486,37.697l10.232,7.732
		c8.018,6.059,15.603,3.237,23.381-7.055L988.111,385.615z M974.197,388.354c-3.979,5.266-7.104,6.665-10.635,3.997l-1.915-1.447
		l19.624-25.969l1.915,1.447c3.53,2.668,3.038,6.056-0.94,11.322L974.197,388.354z M942.168,376.66l-11.051-6.94l6.74-10.734
		l8.194,5.145l4.067-6.478l-8.192-5.146l6.183-9.844l10.924,6.86l4.068-6.479l-18.609-11.686l-25.129,40.014l18.737,11.766
		L942.168,376.66z M907.994,365.107l18.545-34.99l8.018,4.25l3.583-6.759l-24.056-12.75l-3.582,6.76l7.82,4.144l-18.545,34.989
		L907.994,365.107z M878.408,351.255c9.679,4.26,15.357-0.452,19.254-9.307l12.75-28.969l-8.719-3.836l-12.99,29.517
		c-2.084,4.737-3.988,7.013-7.215,5.593c-3.226-1.42-2.765-4.33-0.68-9.067l12.991-29.518l-8.718-3.836l-12.75,28.968
		C868.435,339.656,868.729,346.996,878.408,351.255 M855.394,307.936c1.838-5.158,3.824-8.272,7.216-7.063
		c3.391,1.208,2.959,4.876,1.121,10.034l-5.086,14.27c-1.837,5.158-3.822,8.272-7.214,7.064c-3.392-1.209-2.96-4.877-1.122-10.034
		L855.394,307.936z M871.289,318.296c4.506-12.646,3.399-21.161-6.137-24.56c-9.609-3.424-15.851,2.473-20.357,15.119l-2.114,5.935
		c-4.507,12.646-3.401,21.161,6.207,24.585c9.538,3.399,15.778-2.498,20.286-15.144L871.289,318.296z M825.447,304.872l3.848-13.877
		l1.59,0.441c4.77,1.322,5.751,4.24,4.509,8.721c-1.403,5.06-3.586,6.478-8.356,5.155L825.447,304.872z M835.66,334.009
		c-0.463-2.541,0.31-5.051,1.552-10.933c1.274-5.717,0.882-9.639-3.66-12.066c4.846,0.487,8.937-2.193,10.899-9.275
		c2.225-8.023-0.506-14.461-10.334-17.187l-11.637-3.226l-12.623,45.533l8.817,2.444l4.81-17.346l1.879,0.521
		c3.902,1.082,4.16,3.8,3.147,8.578c-1.294,5.79-1.851,8.36-1.741,10.491L835.66,334.009z M797.436,316.256l-12.822-2.425
		l2.354-12.454l9.506,1.798l1.422-7.517l-9.507-1.798l2.16-11.422l12.675,2.396l1.422-7.516l-21.592-4.083l-8.78,46.427l21.74,4.111
		L797.436,316.256z M751.18,316.905l2.339-20.19l9.015,1.045l-2.338,20.19l9.237,1.07l5.438-46.936l-9.238-1.07l-2.219,19.146
		l-9.016-1.044l2.219-19.147l-9.237-1.07l-5.438,46.936L751.18,316.905z M731.955,315.469l1.258-39.58l9.07,0.288l0.244-7.646
		l-27.211-0.864l-0.244,7.646l8.846,0.281l-1.258,39.58L731.955,315.469z"/>
</g>
</svg>
