<?xml version="1.0" encoding="utf-8"?>
<!-- Generator: Adobe Illustrator 16.0.4, SVG Export Plug-In . SVG Version: 6.00 Build 0)  -->
<!DOCTYPE svg PUBLIC "-//W3C//DTD SVG 1.1//EN" "http://www.w3.org/Graphics/SVG/1.1/DTD/svg11.dtd">
<svg version="1.1" id="Ebene_1" xmlns="http://www.w3.org/2000/svg" xmlns:xlink="http://www.w3.org/1999/xlink" x="0px" y="0px"
	 width="1440px" height="1440px" viewBox="0 0 1440 1440" enable-background="new 0 0 1440 1440" xml:space="preserve">
<g>
	<defs>
		<rect id="SVGID_1_" x="430.831" y="12.971" width="997.169" height="1425.029"/>
	</defs>
	<clipPath id="SVGID_2_">
		<use xlink:href="#SVGID_1_"  overflow="visible"/>
	</clipPath>
	<path clip-path="url(#SVGID_2_)" fill="#231F20" d="M794.308,131.711"/>
</g>
<path fill="none" stroke="#231F20" d="M794.308,131.711"/>
<g>
	<defs>
		<rect id="SVGID_3_" x="430.831" y="12.971" width="997.169" height="1425.029"/>
	</defs>
	<clipPath id="SVGID_4_">
		<use xlink:href="#SVGID_3_"  overflow="visible"/>
	</clipPath>
	<path clip-path="url(#SVGID_4_)" fill="#231F20" d="M793.308,139.711"/>
</g>
<path fill="none" stroke="#231F20" d="M793.308,139.711"/>
<g>
	<defs>
		<rect id="SVGID_5_" x="432.688" y="6.486" width="997.175" height="1425.03"/>
	</defs>
	<clipPath id="SVGID_6_">
		<use xlink:href="#SVGID_5_"  overflow="visible"/>
	</clipPath>
	<path clip-path="url(#SVGID_6_)" fill="#231F20" d="M711.171,725.227"/>
</g>
<path fill="none" stroke="#231F20" d="M711.171,725.227"/>
<g>
	<defs>
		<rect id="SVGID_7_" x="432.688" y="6.486" width="997.175" height="1425.03"/>
	</defs>
	<clipPath id="SVGID_8_">
		<use xlink:href="#SVGID_7_"  overflow="visible"/>
	</clipPath>
	<path clip-path="url(#SVGID_8_)" fill="#231F20" d="M711.171,725.227"/>
</g>
<path fill="none" stroke="#231F20" d="M711.171,725.227"/>
<g>
	<defs>
		<rect id="SVGID_9_" x="432.688" y="6.486" width="997.175" height="1425.03"/>
	</defs>
	<clipPath id="SVGID_10_">
		<use xlink:href="#SVGID_9_"  overflow="visible"/>
	</clipPath>
	<g clip-path="url(#SVGID_10_)">
		<defs>
			<rect id="SVGID_11_" x="530.82" y="6" width="882.111" height="1360.398"/>
		</defs>
		<clipPath id="SVGID_12_">
			<use xlink:href="#SVGID_11_"  overflow="visible"/>
		</clipPath>
		<path clip-path="url(#SVGID_12_)" fill="#231F20" d="M706.662,724.957"/>
	</g>
	<path clip-path="url(#SVGID_10_)" fill="none" stroke="#231F20" d="M706.662,724.957"/>
	<g clip-path="url(#SVGID_10_)">
		<defs>
			<rect id="SVGID_13_" x="530.82" y="6" width="882.111" height="1360.398"/>
		</defs>
		<clipPath id="SVGID_14_">
			<use xlink:href="#SVGID_13_"  overflow="visible"/>
		</clipPath>
		<path clip-path="url(#SVGID_14_)" fill="#231F20" d="M706.662,724.957"/>
	</g>
	<path clip-path="url(#SVGID_10_)" fill="none" stroke="#231F20" d="M706.662,724.957"/>
	<g clip-path="url(#SVGID_10_)">
		<defs>
			<rect id="SVGID_15_" x="535.32" y="6.486" width="882.111" height="1360.399"/>
		</defs>
		<clipPath id="SVGID_16_">
			<use xlink:href="#SVGID_15_"  overflow="visible"/>
		</clipPath>
		<path clip-path="url(#SVGID_16_)" fill="#0000FF" d="M650.238,1360.031l-1.826-0.178c0.151-1.256,0.699-1.596,1.992-1.529
			l0.18-1.857c-2.848-0.246-4.075,0.875-4.316,3.361l-0.334,3.443l3.954,0.383L650.238,1360.031z M657.719,1360.697l-1.828-0.154
			c0.137-1.256,0.678-1.602,1.973-1.555l0.156-1.859c-2.851-0.209-4.064,0.926-4.273,3.416l-0.291,3.447l3.959,0.334
			L657.719,1360.697z M661.836,1364.715l11.439,0.748c0.293-3.117,1.274-7.967,1.926-10.547l-3.646-0.51
			c-0.667,0.98-1.772,1.754-3.454,1.643c-2.191-0.143-3.352-1.787-3.217-3.828c0.145-2.223,1.587-3.516,3.718-3.375
			c2.343,0.152,3.509,1.678,3.36,3.957l3.645,0.512c0.43-4.254-2.002-7.188-6.775-7.5c-4.145-0.271-7.228,2.15-7.492,6.205
			c-0.234,3.572,1.77,6.598,6.123,6.883c1.891,0.123,3.229-0.482,4.059-1.211c-0.234,0.828-0.73,3.328-0.82,4.258l-8.647-0.566
			L661.836,1364.715z M687.238,1350.332l-3.104,2.285c-2.948,2.168-5.379,4.209-5.514,7.545c-0.135,3.369,2.045,6.045,6.555,6.227
			c4.179,0.168,7.078-2.273,7.238-6.242c0.022-0.57-0.043-1.176-0.139-1.781l-3.723-0.301c0.13,0.518,0.169,1.029,0.145,1.66
			c-0.09,2.195-1.199,3.598-3.305,3.512c-2.044-0.082-2.895-1.381-2.824-3.125c0.092-2.285,1.775-3.723,4.821-6.068l5.468-4.146
			l0.102-2.525l-14.281-0.576l-0.128,3.188L687.238,1350.332z M701.205,1362.834l-1.834-0.039c0.057-1.264,0.576-1.643,1.871-1.676
			l0.041-1.865c-2.858-0.031-3.998,1.178-4.051,3.676l-0.076,3.459l3.972,0.084L701.205,1362.834z M713.32,1350.752l-3,2.418
			c-2.85,2.299-5.188,4.443-5.177,7.783c0.013,3.369,2.31,5.949,6.822,5.932c4.183-0.016,6.971-2.584,6.956-6.555
			c-0.002-0.572-0.094-1.174-0.217-1.775l-3.731-0.135c0.151,0.51,0.214,1.021,0.216,1.652c0.01,2.197-1.039,3.645-3.145,3.652
			c-2.047,0.01-2.953-1.252-2.96-2.996c-0.009-2.287,1.61-3.799,4.55-6.275l5.279-4.383l-0.01-2.527l-14.291,0.053l0.012,3.189
			L713.32,1350.752z M752.246,1361.547l-3.683,0.225l0.212,3.504l3.684-0.225L752.246,1361.547z M752.056,1359.396l-0.8-13.207
			l-3.594,0.219l0.801,13.205L752.056,1359.396z M760.236,1356.121l6.234-8.623l-0.195-2.451l-11.484,0.914l0.213,2.662l7.178-0.572
			l-6.355,8.633l0.195,2.451l11.125-0.885l-0.212-2.662L760.236,1356.121z M779.598,1350.807c0.23,2.207-0.752,3.76-2.572,3.951
			c-1.76,0.186-2.688-0.895-2.902-2.924l-0.785-7.488l-3.582,0.377l0.863,8.205c0.309,2.924,1.842,5.176,5.361,4.805
			c1.971-0.207,3.535-1.396,4.033-2.957l0.227,2.146l3.58-0.375l-1.385-13.158l-3.58,0.377L779.598,1350.807z M796.844,1349.557
			c-0.113,1.68-0.92,3.146-2.883,3.402c-1.992,0.26-3.105-1.076-3.424-2.578L796.844,1349.557z M789.6,1347.146
			c0.311-1.555,1.256-2.434,3.01-2.664c1.934-0.252,3.631,0.918,4.002,2.836l-9.846,1.289l0.168,1.277
			c0.467,3.57,3.057,6.256,7.34,5.695c3.928-0.514,6.482-3.873,5.941-8.008s-3.795-6.342-7.84-5.812
			c-3.361,0.441-5.396,2.461-5.699,5.467L789.6,1347.146z M813.664,1349.955c0.824,1.506,2.305,2.389,4.615,2.012
			c1.984-0.322,3.299-1.57,3.709-3.158l0.348,2.133l3.553-0.58l-2.131-13.059l-3.553,0.58l1.141,6.988
			c0.357,2.191-0.447,3.781-2.164,4.061c-1.717,0.281-2.557-0.768-2.885-2.781l-1.215-7.432l-3.553,0.58l1.143,6.988
			c0.355,2.191-0.447,3.781-2.164,4.061c-1.748,0.285-2.559-0.768-2.887-2.781l-1.213-7.432l-3.553,0.58l1.328,8.143
			c0.465,2.842,1.986,5.088,5.508,4.512C811.824,1353.021,813.205,1351.611,813.664,1349.955 M830.596,1344.568
			c0.691,3.412,3.217,4.553,6.568,3.875c3.441-0.697,5.096-2.961,5-5.697l-3.264,0.355c-0.039,1.324-0.654,2.367-2.123,2.664
			c-1.5,0.305-2.443-0.424-2.736-1.863l-0.059-0.295l3.416-1.426c2.82-1.184,4.611-2.617,4.111-5.088
			c-0.451-2.234-2.373-3.254-5.078-2.705c-1.91,0.387-3.516,1.537-3.945,3.186c-0.609-1.346-1.723-2.008-3.193-1.709
			c-1.176,0.238-1.805,0.762-2.273,1.316l0.381,1.883c0.346-0.254,0.682-0.414,1.035-0.486c0.557-0.113,0.977,0.139,1.113,0.816
			L830.596,1344.568z M833.488,1341.166c-0.422-2.086,0.703-3.783,2.557-4.158c1.115-0.227,1.9,0.166,2.078,1.047
			c0.262,1.295-0.771,1.779-2.234,2.412l-2.334,1.023L833.488,1341.166z M842.775,1333.445l10.549,8.57l-5.717,9.713l4.27-0.979
			l5.959-10.135l1.908,8.334l3.654-0.836l-4.217-18.424l-3.656,0.836l1.4,6.111l-1.453,2.395l-8.311-6.59L842.775,1333.445z
			 M879.361,1329.037l-1.111,1.76l-5.939-4.521l-3.967,1.068l7.881,6.08l-4.24,6.641l4.199-1.131l4.066-6.594l2.854,10.604
			l3.477-0.936l-4.912-18.252l-3.477,0.938L879.361,1329.037z M899.869,1325.182c-1.219-4.02-4.805-5.816-8.709-4.633
			c-3.762,1.141-5.08,4.236-4.443,7.367l2.977-0.621c-0.324-2.002,0.373-3.531,2.268-4.105s3.643,0.432,4.434,3.045
			c0.801,2.641-0.092,4.447-1.988,5.023c-1.895,0.574-3.312-0.281-4.146-2.098l-2.838,1.08c1.209,2.957,4.025,4.799,7.785,3.658
			C899.111,1332.715,901.088,1329.201,899.869,1325.182 M909.463,1331.316l-3.512,1.137l1.082,3.338l3.512-1.137L909.463,1331.316z
			 M908.738,1329.279l-4.076-12.586l-3.424,1.107l4.076,12.588L908.738,1329.279z M919.508,1319.156
			c0.723,2.098,0.115,3.832-1.615,4.428c-1.674,0.576-2.82-0.266-3.486-2.193l-2.455-7.119l-3.402,1.174l2.689,7.799
			c0.959,2.779,2.961,4.629,6.307,3.475c1.871-0.646,3.129-2.158,3.264-3.791l0.703,2.041l3.402-1.174l-4.312-12.506l-3.402,1.174
			L919.508,1319.156z M935.578,1313.295c0.777,2.08,0.213,3.828-1.502,4.467c-1.658,0.619-2.826-0.193-3.539-2.105l-2.633-7.055
			l-3.373,1.258l2.885,7.73c1.027,2.754,3.074,4.551,6.393,3.314c1.854-0.693,3.072-2.236,3.166-3.871l0.754,2.023l3.373-1.258
			l-4.625-12.396l-3.373,1.26L935.578,1313.295z M944.48,1311.365c1.318,3.221,4.014,3.867,7.178,2.572
			c3.25-1.328,4.449-3.861,3.844-6.531l-3.141,0.961c0.211,1.307-0.197,2.447-1.586,3.016c-1.416,0.578-2.479,0.041-3.035-1.318
			l-0.113-0.279l3.088-2.041c2.549-1.691,4.039-3.434,3.086-5.768c-0.865-2.109-2.941-2.752-5.496-1.705
			c-1.807,0.736-3.164,2.17-3.279,3.869c-0.85-1.209-2.068-1.65-3.457-1.082c-1.111,0.453-1.629,1.088-1.986,1.721l0.727,1.775
			c0.293-0.312,0.592-0.531,0.926-0.67c0.527-0.215,0.986-0.047,1.246,0.594L944.48,1311.365z M946.684,1307.48
			c-0.807-1.971-0.02-3.85,1.73-4.564c1.055-0.432,1.898-0.193,2.238,0.639c0.5,1.223-0.424,1.893-1.744,2.789l-2.1,1.443
			L946.684,1307.48z M964.961,1305.389l7.914,5.275l3.82-1.674l-11.367-7.693l-2.928-6.676l-3.352,1.469l2.928,6.676l-2.041,13.574
			l3.709-1.627L964.961,1305.389z M980.924,1286.088l-3.24,1.568l8.229,17.014l3.24-1.566l-3.578-7.4
			c1.246,1.197,3.266,1.652,5.371,0.633c3.539-1.711,4.029-5.381,2.332-8.891c-1.699-3.51-4.867-5.377-8.404-3.666
			c-2.107,1.018-3.004,2.885-2.852,4.578L980.924,1286.088z M983.666,1291.826c-1.059-2.188-0.375-4.15,1.463-5.039
			c2.025-0.98,3.797-0.004,4.881,2.238c1.098,2.268,0.762,4.264-1.264,5.244c-1.836,0.887-3.812,0.178-4.857-1.984L983.666,1291.826
			z M1004.896,1281.936c1.027,1.967,0.684,3.771-0.939,4.619c-1.568,0.818-2.828,0.156-3.771-1.65l-3.486-6.676l-3.191,1.668
			l3.818,7.312c1.363,2.605,3.617,4.135,6.754,2.496c1.756-0.916,2.773-2.598,2.662-4.234l1,1.914l3.191-1.666l-6.125-11.727
			l-3.191,1.668L1004.896,1281.936z M1013.352,1279.002c1.686,3.043,4.439,3.371,7.432,1.713c3.07-1.701,3.965-4.357,3.049-6.938
			l-3.006,1.322c0.363,1.273,0.092,2.453-1.221,3.18c-1.338,0.742-2.457,0.334-3.17-0.953l-0.145-0.262l2.826-2.389
			c2.332-1.979,3.609-3.887,2.387-6.092c-1.105-1.994-3.242-2.387-5.656-1.049c-1.707,0.945-2.889,2.527-2.803,4.229
			c-0.986-1.1-2.248-1.396-3.561-0.67c-1.049,0.582-1.49,1.273-1.77,1.943l0.93,1.68c0.254-0.348,0.525-0.6,0.84-0.775
			c0.498-0.275,0.973-0.162,1.307,0.441L1013.352,1279.002z M1015.084,1274.887c-1.031-1.863-0.471-3.82,1.182-4.736
			c0.998-0.553,1.863-0.416,2.299,0.373c0.641,1.152-0.199,1.928-1.404,2.973l-1.916,1.678L1015.084,1274.887z M1033.598,1267.449
			c1.797,2.979,4.561,3.205,7.49,1.438c3.006-1.812,3.801-4.5,2.791-7.045l-2.955,1.434c0.41,1.258,0.182,2.447-1.104,3.223
			c-1.309,0.791-2.441,0.422-3.201-0.836l-0.154-0.258l2.734-2.49c2.26-2.064,3.463-4.018,2.162-6.174
			c-1.178-1.953-3.33-2.268-5.691-0.842c-1.672,1.008-2.793,2.631-2.645,4.33c-1.027-1.064-2.299-1.312-3.582-0.537
			c-1.029,0.619-1.443,1.324-1.699,2.004l0.992,1.645c0.24-0.355,0.502-0.619,0.811-0.805c0.488-0.295,0.967-0.197,1.322,0.393
			L1033.598,1267.449z M1035.178,1263.273c-1.102-1.824-0.611-3.801,1.008-4.777c0.975-0.59,1.844-0.484,2.309,0.287
			c0.684,1.131-0.129,1.936-1.293,3.023l-1.854,1.748L1035.178,1263.273z M1054.166,1252.969c1.203,1.865,1.027,3.693-0.51,4.686
			c-1.486,0.961-2.803,0.418-3.91-1.297l-4.084-6.326l-3.023,1.953l4.475,6.932c1.596,2.469,3.98,3.785,6.955,1.865
			c1.664-1.074,2.521-2.842,2.262-4.461l1.172,1.814l3.023-1.953l-7.176-11.113l-3.025,1.953L1054.166,1252.969z M1062.314,1249.281
			c1.959,2.877,4.73,2.949,7.557,1.023c2.902-1.975,3.551-4.701,2.402-7.186l-2.873,1.592c0.48,1.234,0.316,2.436-0.924,3.279
			c-1.264,0.859-2.416,0.555-3.244-0.66l-0.168-0.248l2.596-2.637c2.143-2.186,3.236-4.201,1.818-6.283
			c-1.283-1.885-3.449-2.08-5.73-0.527c-1.611,1.098-2.643,2.779-2.402,4.467c-1.082-1.004-2.365-1.184-3.605-0.34
			c-0.992,0.676-1.369,1.404-1.586,2.098l1.08,1.586c0.221-0.369,0.469-0.645,0.768-0.848c0.471-0.32,0.953-0.252,1.342,0.32
			L1062.314,1249.281z M1063.662,1245.025c-1.197-1.762-0.818-3.762,0.744-4.826c0.943-0.643,1.816-0.584,2.322,0.16
			c0.744,1.092-0.021,1.939-1.125,3.09l-1.754,1.848L1063.662,1245.025z M1084.439,1236.654c1.418,0.967,3.139,1.078,5.025-0.309
			c1.617-1.191,2.223-2.9,1.865-4.502l1.279,1.74l2.9-2.133l-7.84-10.656l-2.9,2.133l4.195,5.703
			c1.316,1.787,1.322,3.57-0.078,4.602c-1.402,1.031-2.627,0.479-3.836-1.164l-4.461-6.066l-2.9,2.135l4.195,5.703
			c1.314,1.787,1.322,3.57-0.078,4.602c-1.426,1.049-2.627,0.479-3.836-1.164l-4.461-6.066l-2.9,2.133l4.887,6.646
			c1.707,2.32,4.084,3.627,6.959,1.51C1084.195,1240.221,1084.783,1238.336,1084.439,1236.654 M1103.357,1228.031l-2.92,2.258
			l2.148,2.777l2.918-2.26L1103.357,1228.031z M1101.986,1226.359l-8.094-10.463l-2.848,2.201l8.096,10.465L1101.986,1226.359z
			 M1108.758,1213.07c1.398,1.723,1.424,3.559,0.004,4.715c-1.375,1.115-2.74,0.719-4.027-0.865l-4.75-5.842l-2.793,2.27
			l5.203,6.402c1.855,2.281,4.369,3.33,7.117,1.096c1.535-1.248,2.195-3.1,1.762-4.68l1.363,1.676l2.793-2.27l-8.346-10.266
			l-2.795,2.271L1108.758,1213.07z M1114.119,1208.055c2.668,3.125,6.729,3.445,9.855,0.777c3.102-2.65,3.422-6.711,0.754-9.836
			c-2.67-3.125-6.711-3.422-9.814-0.773C1111.789,1200.891,1111.449,1204.928,1114.119,1208.055 M1121.967,1201.354
			c1.637,1.916,1.9,3.98,0.234,5.402c-1.688,1.441-3.686,0.857-5.32-1.059c-1.617-1.895-1.881-3.957-0.193-5.398
			C1118.354,1198.877,1120.35,1199.459,1121.967,1201.354 M1132.324,1186.713c-1.621-0.76-3.711-0.562-5.422,0.988
			c-2.932,2.662-2.41,6.318,0.211,9.207s6.23,3.787,9.117,1.166c1.756-1.592,2.068-3.617,1.422-5.219l5.525,6.088l2.666-2.42
			l-12.699-13.998l-2.045,1.855L1132.324,1186.713z M1135.115,1190.012c1.613,1.779,1.555,3.857,0.043,5.229
			c-1.688,1.531-3.664,1.096-5.355-0.771c-1.674-1.844-1.916-3.852-0.229-5.385c1.512-1.369,3.566-1.248,5.199,0.551
			L1135.115,1190.012z M1142.568,1173.586l7.062,13.859l-0.086,0.084l-10.324-10.717l-2.723,2.623l13.113,13.611l4.17-4.018
			l-6.703-12.621l0.064-0.062l12.514,7.021l4.256-4.1l-13.111-13.611l-2.506,2.414l10.322,10.717l-0.086,0.082l-13.65-7.51
			L1142.568,1173.586z M1170.604,1156.473c0.973,1.373,1.277,3.02-0.082,4.461c-1.379,1.463-3.086,1.131-4.281,0.166
			L1170.604,1156.473z M1163.467,1159.188c-0.74-1.4-0.566-2.68,0.648-3.967c1.338-1.418,3.393-1.586,4.893-0.334l-6.812,7.225
			l0.938,0.885c2.619,2.469,6.324,2.912,9.289-0.23c2.717-2.881,2.572-7.1-0.461-9.961c-3.033-2.859-6.949-2.512-9.75,0.455
			c-2.324,2.467-2.623,5.318-0.959,7.838L1163.467,1159.188z M1178.125,1155.883c0.506-0.066,1.105-0.414,1.65-1.014
			c1.232-1.354,1.139-3.303,0.354-4.666l1.863,1.695l2.422-2.662l-9.783-8.904l-2.424,2.662l4.838,4.402
			c1.773,1.615,1.902,3.436,0.65,4.811c-0.584,0.643-1.121,0.967-1.875,1.215L1178.125,1155.883z M1191.564,1143.592l4.098,1.41
			l2.537-2.924l-4.943-0.436L1191.564,1143.592z M1189.492,1135.402c1.031,1.33,1.402,2.963,0.105,4.459
			c-1.316,1.518-3.037,1.258-4.271,0.346L1189.492,1135.402z M1182.477,1138.412c-0.799-1.369-0.678-2.654,0.48-3.99
			c1.279-1.475,3.324-1.725,4.875-0.539l-6.506,7.502l0.977,0.846c2.719,2.357,6.439,2.646,9.27-0.617
			c2.594-2.992,2.273-7.201-0.877-9.934c-3.15-2.73-7.049-2.221-9.721,0.863c-2.221,2.561-2.4,5.422-0.631,7.871L1182.477,1138.412z
			 M1202.178,1131.881l-2.367,2.83l2.693,2.252l2.367-2.83L1202.178,1131.881z M1200.482,1130.541l-10.148-8.486l-2.311,2.762
			l10.15,8.486L1200.482,1130.541z M1209.861,1128.027l-14.643-11.951l-2.275,2.789l14.643,11.951L1209.861,1128.027z
			 M1205.082,1117.371c2.748,2.135,5.408,1.352,7.508-1.348c2.152-2.771,1.932-5.566,0.074-7.578l-2.242,2.398
			c0.834,1.027,1.049,2.221,0.127,3.404c-0.939,1.209-2.127,1.271-3.289,0.369l-0.236-0.184l1.66-3.309
			c1.367-2.736,1.789-4.992-0.201-6.537c-1.799-1.398-3.92-0.92-5.615,1.258c-1.195,1.541-1.66,3.459-0.912,4.99
			c-1.34-0.623-2.615-0.398-3.535,0.785c-0.738,0.947-0.871,1.756-0.865,2.482l1.516,1.178c0.096-0.418,0.246-0.758,0.467-1.043
			c0.352-0.449,0.832-0.531,1.377-0.107L1205.082,1117.371z M1205.059,1112.906c-1.682-1.309-1.938-3.328-0.777-4.82
			c0.701-0.9,1.551-1.115,2.26-0.561c1.043,0.809,0.574,1.852-0.121,3.285l-1.102,2.299L1205.059,1112.906z M1222.207,1098.742
			c1.645,0.494,3.318,0.084,4.699-1.807c1.186-1.623,1.246-3.436,0.424-4.854l1.744,1.275l2.125-2.908l-10.684-7.803l-2.123,2.906
			l5.717,4.176c1.793,1.311,2.336,3.008,1.311,4.412c-1.027,1.404-2.361,1.248-4.01,0.045l-6.08-4.441l-2.123,2.906l5.717,4.176
			c1.793,1.311,2.338,3.008,1.311,4.412c-1.045,1.43-2.361,1.248-4.008,0.045l-6.08-4.441l-2.123,2.906l6.662,4.867
			c2.324,1.699,4.984,2.229,7.09-0.654C1223.049,1102.217,1223.041,1100.244,1222.207,1098.742 M1230.453,1083.064
			c2.883,1.949,5.484,0.996,7.402-1.836c1.967-2.908,1.562-5.682-0.422-7.568l-2.08,2.541c0.898,0.971,1.191,2.146,0.35,3.389
			c-0.857,1.268-2.041,1.408-3.258,0.584l-0.248-0.168l1.439-3.41c1.184-2.82,1.459-5.098-0.629-6.512
			c-1.889-1.277-3.973-0.66-5.52,1.625c-1.094,1.615-1.432,3.561-0.586,5.039c-1.377-0.535-2.635-0.227-3.477,1.016
			c-0.672,0.994-0.752,1.809-0.699,2.533l1.59,1.076c0.068-0.424,0.197-0.771,0.398-1.072c0.318-0.471,0.795-0.584,1.365-0.197
			L1230.453,1083.064z M1230.135,1078.609c-1.764-1.193-2.148-3.193-1.09-4.758c0.641-0.945,1.475-1.213,2.219-0.709
			c1.094,0.74,0.693,1.811,0.094,3.287l-0.949,2.365L1230.135,1078.609z M1236.979,1057.07c-1.447,2.281-1.828,4.844-0.553,6.754
			l-2.357-1.494l-1.783,2.812l8.057,5.109l4.562-7.195l-2.355-1.492l-2.684,4.229c-1.736-1.74-1.984-4.207-0.555-6.461
			c1.977-3.117,5.377-3.66,8.797-1.49c3.344,2.121,4.307,5.361,2.459,8.275c-1.686,2.66-4.229,3.25-6.713,1.959l-1.834,3.17
			c4.238,2.225,8.459,1.172,11.383-3.439c2.844-4.482,1.709-10.141-3.207-13.258
			C1245.256,1051.414,1239.807,1052.613,1236.979,1057.07 M1249.104,1037.764l-2.031,3.471l3.471,2.029l2.029-3.469
			L1249.104,1037.764z M1262.252,1036.365l-9.309-5.299l-1.766,3.104l9.307,5.297l-1.75,3.076l2.189,1.248l1.752-3.078l1.199,0.684
			c1.068,0.607,1.561,1.441,1.012,2.406c-0.459,0.809-1.236,1.021-2.115,0.865l-0.492,2.379c2.107,0.543,3.826-0.17,5.014-2.256
			c1.469-2.58,0.799-5.102-1.887-6.631l-0.965-0.549l0.965-1.695l-2.189-1.246L1262.252,1036.365z M1260.699,1030.77
			c3.607,1.967,7.516,0.818,9.484-2.789c1.955-3.582,0.805-7.488-2.803-9.457c-3.607-1.971-7.488-0.807-9.443,2.775
			C1255.969,1024.906,1257.092,1028.799,1260.699,1030.77 M1265.643,1021.709c2.211,1.207,3.193,3.041,2.145,4.963
			c-1.062,1.949-3.137,2.117-5.35,0.91c-2.186-1.193-3.166-3.027-2.104-4.975
			C1261.383,1020.684,1263.457,1020.518,1265.643,1021.709 M1274.014,1019.674c0.471-0.195,0.961-0.686,1.332-1.406
			c0.838-1.627,0.242-3.486-0.871-4.6l2.24,1.154l1.646-3.201l-11.762-6.057l-1.646,3.199l5.814,2.996
			c2.133,1.098,2.73,2.822,1.877,4.477c-0.396,0.773-0.832,1.225-1.494,1.66L1274.014,1019.674z M1278.902,995.268l-1.662,3.428
			c-2.107,4.346-1.26,7.824,2.275,9.539c3.537,1.715,6.766,0.213,8.873-4.133l3.285-6.775l-17.006-8.248l-1.623,3.348
			L1278.902,995.268z M1281.656,996.602l5.668,2.75l-1.609,3.318c-1.23,2.537-2.793,3.148-4.629,2.258
			c-1.834-0.891-2.27-2.469-1.039-5.006L1281.656,996.602z M1289.328,973.613c2.035,0.883,2.902,2.502,2.176,4.18
			c-0.705,1.625-2.102,1.902-3.973,1.09l-6.908-2.998l-1.434,3.303l7.568,3.283c2.697,1.172,5.414,0.943,6.822-2.305
			c0.789-1.814,0.521-3.764-0.592-4.965l7.182,3.117l1.434-3.305l-17.338-7.521l-1.434,3.303L1289.328,973.613z M1291.432,958.939
			c-2.607-1.076-4.092,0.162-4.869,2.047c-0.619,1.498-0.641,2.656-0.342,3.818l2.191,0.904c-0.035-0.857,0-1.656,0.275-2.32
			c0.412-1,1.076-1.275,2.131-0.842l6.045,2.494l-1.373,3.328l2.33,0.961l1.373-3.328l3.385,1.396l0.834-2.023l-1.504-1.076
			c-1.021-0.746-1.494-1.33-1.197-2.602l0.205-0.891l-1.971-0.812l-0.719,1.748L1291.432,958.939z M1305.705,955.516l-1.346,3.436
			l3.27,1.281l1.346-3.438L1305.705,955.516z M1303.672,954.785l-12.318-4.824l-1.312,3.354l12.318,4.822L1303.672,954.785z
			 M1307.832,943.764l0.992-2.734l-7.467-5.27l0.041-0.113l9.232,0.422l1.221-3.355l-13.869-0.576l-1.201,3.299l7.385,5.24
			l-0.041,0.113l-9.025-0.73l-1.188,3.271l10.996,8.469l1.117-3.072l-7.355-5.58l0.041-0.113L1307.832,943.764z M1316.738,893.742
			l0.078-0.291l26.66-3.215l2.227-8.254l-45.617-12.312l-2.248,8.328l26.574,7.172l-0.078,0.289l-29.582,3.98l-1.838,6.807
			l45.617,12.309l2.248-8.326L1316.738,893.742z M1349.549,864.992l-46.039-10.623l-2.092,9.062l46.041,10.623L1349.549,864.992z
			 M1340.635,843.492l-0.055,0.293l-17.24,0.004l1.23-6.637L1340.635,843.492z M1354.322,840.846l-44.621-18.508l-1.561,8.406
			l9.672,3.781l-1.711,9.217l-10.385,0.055l-1.699,9.145l48.291-1.256L1354.322,840.846z M1310.465,816.609l39.211,5.535
			l-1.27,8.984l7.576,1.07l3.805-26.959l-7.574-1.068l-1.238,8.764l-39.211-5.535L1310.465,816.609z M1340.02,783.168l14.334,1.389
			l-0.16,1.645c-0.477,4.926-3.182,6.396-7.811,5.949c-5.225-0.506-7-2.412-6.521-7.338L1340.02,783.168z M1313.088,798.268
			c2.424-0.896,5.027-0.568,11.037-0.363c5.852,0.266,9.646-0.797,11.252-5.691c0.357,4.857,3.705,8.422,11.02,9.131
			c8.287,0.803,14.156-2.998,15.141-13.15l1.162-12.02l-47.027-4.557l-0.883,9.105l17.916,1.736l-0.189,1.941
			c-0.389,4.031-3.021,4.756-7.904,4.584c-5.926-0.273-8.553-0.377-10.633,0.1L1313.088,798.268z M1323.547,767.824l0.689-13.033
			l12.656,0.67l-0.51,9.66l7.639,0.404l0.51-9.66l11.609,0.613l-0.68,12.883l7.639,0.402l1.16-21.943l-47.186-2.494l-1.168,22.094
			L1323.547,767.824z M1348.6,723.729c5.475,0.014,8.924,0.771,8.914,4.297c-0.008,3.6-3.459,4.191-8.934,4.178l-4.275-0.012
			l-0.023,9.076l1.949,0.004c11.324,0.029,18.834-3.178,18.859-13.002c0.025-10.2-7.391-14.119-20.814-14.153l-6.75-0.017
			c-13.426-0.035-20.859,3.845-20.887,14.047c-0.025,9.824,7.467,13.068,18.791,13.098l1.951,0.004l0.023-9.074l-4.275-0.01
			c-5.475-0.014-8.924-0.623-8.914-4.223c0.008-3.525,3.461-4.268,8.936-4.252L1348.6,723.729z M1344.043,685.196l18.678-7.339
			l-0.641-9.578l-29.742,12.74l-16.688,1.116l0.602,8.98l16.688-1.117l31.174,8.662l-0.611-9.13L1344.043,685.196z
			 M1360.227,651.282l-46.99,4.943l2.299,21.854l7.607-0.801l-1.326-12.605l39.383-4.143L1360.227,651.282z M1320.354,651.009
			l-1.775-12.929l12.559-1.725l1.316,9.586l7.578-1.041l-1.316-9.586l11.516-1.581l1.756,12.78l7.578-1.041l-2.988-21.771
			l-46.811,6.428l3.01,21.919L1320.354,651.009z M1307.48,617.354l38.908-7.365l1.689,8.916l7.516-1.424l-5.064-26.748l-7.516,1.423
			l1.645,8.694l-38.908,7.367L1307.48,617.354z M1299.793,584.049c2.488,10.278,9.682,11.932,19.084,9.653l30.76-7.452l-2.242-9.257
			l-31.344,7.593c-5.029,1.219-7.994,1.088-8.822-2.338c-0.83-3.426,1.762-4.826,6.791-6.045l31.344-7.593l-2.242-9.257
			l-30.76,7.451C1302.959,569.083,1297.303,573.771,1299.793,584.049 M1335.932,534.119l-45.385,13.14l6.109,21.108l7.35-2.127
			l-3.525-12.175l38.039-11.013L1335.932,534.119z M1313.023,515.758c5.188-1.752,8.861-2.123,10.014,1.288
			c1.152,3.41-1.994,5.344-7.182,7.097l-14.352,4.849c-5.188,1.752-8.863,2.123-10.016-1.288c-1.15-3.411,1.994-5.345,7.182-7.097
			L1313.023,515.758z M1314.736,534.654c12.719-4.297,18.719-10.44,15.479-20.033c-3.266-9.663-11.762-10.91-24.48-6.613
			l-5.969,2.017c-12.719,4.297-18.717,10.44-15.453,20.103c3.24,9.593,11.736,10.839,24.455,6.542L1314.736,534.654z
			 M1284.854,483.598l-2.51,0.991c-8.791,3.469-11.314,9.948-8.396,17.343c2.863,7.255,9.131,10.265,17.014,7.154
			c6.768-2.671,8.488-7.3,9.479-13.577l0.941-4.968c0.516-2.783,1.457-4.686,4.387-5.843c2.861-1.128,5.213-0.686,6.176,1.756
			c1.102,2.791-0.496,4.872-4.473,6.441l-2.582,1.019l3.002,7.604l2.512-0.991c8.441-3.331,11.449-9.194,8.447-16.799
			c-2.781-7.046-9.453-9.653-16.779-6.763c-7.324,2.891-8.838,7.842-9.809,13.144l-0.871,4.536c-0.699,3.34-1.154,5.454-4.293,6.693
			c-2.93,1.156-5.197,0.52-6.244-2.132c-1.156-2.93,0.611-5.401,4.377-6.887l2.652-1.047L1284.854,483.598z M1297.549,454.385
			l1.084,2.391c1.857,4.098-0.1,6.139-3.377,7.625c-3.279,1.487-5.898,1.521-7.756-2.577l-1.084-2.391L1297.549,454.385z
			 M1281.135,465.039c1.889,4.167,0.16,6.35-3.527,8.023c-3.758,1.703-6.4,1.502-8.291-2.665l-1.207-2.664l11.816-5.358
			L1281.135,465.039z M1280.473,481.562c5.738-2.602,7.988-7.081,6.623-12.637c2.67,3.894,7.486,5.252,12.746,2.867
			c6.762-3.066,10.014-8.246,5.957-17.194l-5.203-11.476l-43.033,19.511l5.295,11.681
			C1266.883,483.194,1272.959,484.969,1280.473,481.562 M1279.418,430.044l0.139,0.267l-13.631,10.555l-3.088-6.002
			L1279.418,430.044z M1288.623,419.573l-46.613,12.681l3.912,7.602l9.961-2.932l4.291,8.336l-8.18,6.4l4.256,8.27l37.418-30.554
			L1288.623,419.573z M1231.285,414.1l33.781-20.663l4.734,7.742l6.527-3.992l-14.207-23.225l-6.525,3.992l4.617,7.55
			l-33.781,20.663L1231.285,414.1z M1220.896,368.055l-2.242,1.506c-7.842,5.271-8.92,12.139-4.484,18.738
			c4.35,6.474,11.115,8.071,18.15,3.344c6.037-4.058,6.727-8.948,6.35-15.291l-0.143-5.055c-0.094-2.828,0.418-4.89,3.033-6.646
			c2.551-1.716,4.943-1.787,6.408,0.392c1.674,2.49,0.559,4.865-2.99,7.25l-2.303,1.548l4.561,6.785l2.24-1.506
			c7.533-5.062,9.215-11.433,4.654-18.218c-4.225-6.288-11.301-7.406-17.838-3.013c-6.535,4.392-6.953,9.553-6.768,14.939
			l0.121,4.618c0.033,3.411,0.041,5.574-2.76,7.457c-2.615,1.757-4.965,1.62-6.557-0.746c-1.756-2.614-0.559-5.406,2.803-7.665
			l2.365-1.589L1220.896,368.055z M1237.896,338.842l-38.23,27.767l5.465,7.525l38.23-27.767L1237.896,338.842z M1208.541,322.098
			l0.189,0.233l-11.164,13.137l-4.258-5.238L1208.541,322.098z M1215.393,309.956l-43.002,22.008l5.393,6.634l9.145-4.921
			l5.914,7.275l-6.686,7.947l5.867,7.216l30.324-37.604L1215.393,309.956z M1181.188,308.279l-0.201-0.222l11.689-24.174
			l-5.744-6.332l-34.996,31.747l5.795,6.388l20.387-18.494l0.201,0.222l-12.625,27.049l4.736,5.221l34.996-31.748l-5.795-6.387
			L1181.188,308.279z M1162.844,271.583l0.213,0.212l-9.768,14.207l-4.77-4.776L1162.844,271.583z M1168.422,258.806l-40.535,26.278
			l6.043,6.049l8.594-5.828l6.625,6.634l-5.84,8.587l6.572,6.581l26.332-40.5L1168.422,258.806z M1139.602,232.241l-8.973-7.969
			l-31.377,35.326l6.111,5.429l19.574-22.037l0.223,0.199l-14.975,26.121l4.373,3.885l24.004-18.102l0.225,0.199l-19.574,22.037
			l6.449,5.728l31.377-35.326l-8.803-7.82l-22.168,16.825l-0.223-0.2L1139.602,232.241z M1116.549,213.154l-29.658,36.783
			l7.24,5.837l29.658-36.783L1116.549,213.154z M1088.289,222.827l-0.24-0.178l6.725-25.996l-6.873-5.084l-28.098,37.988
			l6.936,5.129l16.367-22.13l0.24,0.179l-7.08,28.998l5.668,4.192l28.096-37.988l-6.934-5.129L1088.289,222.827z M1058.129,190.957
			c3.014-4.57,5.684-7.121,8.689-5.138c3.006,1.982,1.711,5.441-1.303,10.012l-8.344,12.646c-3.016,4.57-5.686,7.121-8.691,5.138
			c-3.004-1.982-1.711-5.442,1.305-10.012L1058.129,190.957z M1071.092,204.811c7.393-11.207,8.35-19.74-0.102-25.315
			c-8.514-5.617-15.982-1.379-23.375,9.827l-3.469,5.259c-7.393,11.206-8.35,19.739,0.164,25.356
			c8.451,5.576,15.918,1.337,23.311-9.869L1071.092,204.811z M1036.488,167.491l2.258,1.339c3.869,2.296,3.434,5.09,1.598,8.186
			c-1.838,3.096-3.965,4.625-7.834,2.329l-2.258-1.339L1036.488,167.491z M1029.133,185.626c3.934,2.334,3.768,5.113,1.701,8.596
			c-2.105,3.548-4.387,4.897-8.322,2.563l-2.516-1.492l6.619-11.159L1029.133,185.626z M1038.051,199.55
			c3.215-5.419,2.496-10.38-1.809-14.153c4.422,1.663,9.146,0.019,12.094-4.948c3.787-6.386,3.486-12.495-4.965-17.507
			l-10.836-6.428l-24.105,40.638l11.031,6.543C1027.846,208.669,1033.842,206.646,1038.051,199.55 M1005.117,141.98l-10.668-5.493
			l-21.631,42.007l7.268,3.743l13.494-26.205l0.266,0.137l-8.025,29.021l5.201,2.678l18.762-23.492l0.266,0.137l-13.494,26.205
			l7.668,3.948l21.633-42.007l-10.469-5.391l-17.299,21.799l-0.268-0.137L1005.117,141.98z M953.922,142.503l5.652-13.245
			l1.518,0.648c4.553,1.943,5.139,4.965,3.312,9.242c-2.061,4.829-4.412,5.945-8.965,4.002L953.922,142.503z M960.182,172.736
			c-0.121-2.58,0.979-4.965,2.988-10.63c2.02-5.499,2.152-9.438-2.027-12.445c4.738,1.125,9.146-0.989,12.031-7.749
			c3.268-7.657,1.416-14.4-7.967-18.404l-11.105-4.739l-18.545,43.458l8.416,3.591l7.064-16.555l1.793,0.765
			c3.727,1.59,3.621,4.318,1.984,8.92c-2.051,5.567-2.943,8.04-3.117,10.167L960.182,172.736z M924.979,125.041
			c1.871-5.146,3.877-8.247,7.26-7.016c3.383,1.231,2.928,4.896,1.057,10.041l-5.18,14.237c-1.871,5.145-3.877,8.246-7.26,7.016
			c-3.385-1.231-2.928-4.896-1.057-10.041L924.979,125.041z M940.805,135.506c4.588-12.616,3.539-21.138-5.977-24.599
			c-9.586-3.488-15.865,2.368-20.455,14.984l-2.154,5.921c-4.588,12.616-3.539,21.138,6.047,24.625
			c9.514,3.462,15.795-2.395,20.385-15.01L940.805,135.506z M883.754,127.308l-0.799,2.579c-2.795,9.027,0.68,15.049,8.273,17.4
			c7.451,2.307,13.721-0.698,16.227-8.794c2.152-6.949-0.383-11.188-4.658-15.889l-3.285-3.843c-1.85-2.143-2.746-4.069-1.814-7.078
			c0.91-2.937,2.727-4.495,5.234-3.718c2.867,0.887,3.49,3.436,2.227,7.519l-0.82,2.651l7.809,2.418l0.799-2.579
			c2.684-8.669-0.008-14.684-7.816-17.102c-7.236-2.241-13.447,1.333-15.775,8.856c-2.33,7.522,0.586,11.801,4.113,15.876
			l2.994,3.518c2.168,2.634,3.531,4.313,2.533,7.537c-0.932,3.009-2.848,4.379-5.57,3.536c-3.01-0.932-3.83-3.856-2.633-7.725
			l0.844-2.722L883.754,127.308z M855.391,119.768l-0.689,2.611c-2.404,9.139,1.324,15.006,9.012,17.031
			c7.543,1.986,13.678-1.285,15.836-9.481c1.852-7.035-0.861-11.162-5.334-15.675l-3.447-3.699
			c-1.939-2.062-2.916-3.948-2.113-6.994c0.781-2.974,2.531-4.607,5.07-3.939c2.9,0.764,3.633,3.284,2.545,7.418l-0.707,2.683
			l7.906,2.082l0.686-2.611c2.312-8.776-0.635-14.67-8.541-16.752c-7.324-1.929-13.375,1.907-15.381,9.522
			c-2.006,7.616,1.09,11.766,4.789,15.687l3.141,3.386c2.279,2.539,3.713,4.158,2.855,7.422c-0.803,3.046-2.658,4.496-5.414,3.771
			c-3.047-0.802-3.992-3.688-2.961-7.604l0.725-2.756L855.391,119.768z M851.463,127.792l-12.752-2.777l2.697-12.384l9.453,2.058
			l1.629-7.475l-9.455-2.058l2.475-11.359l12.605,2.745l1.627-7.475l-21.471-4.676l-10.055,46.168l21.617,4.708L851.463,127.792z
			 M814.18,128.094l3.27-18.919l8.723,1.508l1.303-7.538l-8.721-1.508l2.172-12.564l11.75,2.032l1.305-7.538l-20.916-3.616
			l-8.049,46.559L814.18,128.094z M786.543,92.533c0.697-5.43,1.975-8.895,5.545-8.437c3.57,0.459,3.932,4.135,3.232,9.565
			l-1.93,15.027c-0.697,5.43-1.975,8.896-5.545,8.437s-3.932-4.135-3.232-9.565L786.543,92.533z M804.279,99.273
			c1.709-13.315-1.184-21.4-11.225-22.69c-10.117-1.3-14.961,5.791-16.672,19.107l-0.803,6.248
			c-1.711,13.315,1.184,21.401,11.301,22.7c10.043,1.29,14.885-5.8,16.596-19.116L804.279,99.273z M754.06,95.419l1.031-14.363
			l1.646,0.118c4.938,0.354,6.476,3.021,6.143,7.659c-0.375,5.237-2.236,7.058-7.174,6.704L754.06,95.419z M769.826,121.965
			c-0.955-2.399-0.693-5.012-0.637-11.024c0.119-5.856-1.039-9.624-5.972-11.105c4.847-0.479,8.327-3.915,8.853-11.246
			c0.596-8.304-3.352-14.076-13.525-14.805L746.5,72.921l-3.381,47.129l9.127,0.654l1.289-17.954l1.944,0.14
			c4.039,0.29,4.829,2.903,4.78,7.787c-0.125,5.931-0.163,8.56,0.365,10.628L769.826,121.965z M722.627,103.101l2.4,0.052
			c10.271,0.22,14.816-5.309,15.026-15.132c0.211-9.823-4.092-15.541-14.365-15.761l-11.622-0.249l-1.013,47.239l9.224,0.197
			L722.627,103.101z M722.787,95.603l0.342-15.896l1.499,0.032c5.099,0.109,6.551,2.391,6.427,8.164
			c-0.122,5.699-1.669,7.841-6.768,7.732L722.787,95.603z"/>
	</g>
</g>
</svg>
