<?xml version="1.0" encoding="utf-8"?>
<!-- Generator: Adobe Illustrator 16.0.4, SVG Export Plug-In . SVG Version: 6.00 Build 0)  -->
<!DOCTYPE svg PUBLIC "-//W3C//DTD SVG 1.1//EN" "http://www.w3.org/Graphics/SVG/1.1/DTD/svg11.dtd">
<svg version="1.1" id="Ebene_1" xmlns="http://www.w3.org/2000/svg" xmlns:xlink="http://www.w3.org/1999/xlink" x="0px" y="0px"
	 width="1440px" height="1440px" viewBox="0 0 1440 1440" enable-background="new 0 0 1440 1440" xml:space="preserve">
<g>
	<defs>
		<rect id="SVGID_1_" x="430.831" y="12.971" width="997.169" height="1425.029"/>
	</defs>
	<clipPath id="SVGID_2_">
		<use xlink:href="#SVGID_1_"  overflow="visible"/>
	</clipPath>
	<path clip-path="url(#SVGID_2_)" fill="#231F20" d="M794.308,131.711"/>
</g>
<path fill="none" stroke="#231F20" d="M794.308,131.711"/>
<g>
	<defs>
		<rect id="SVGID_3_" x="430.831" y="12.971" width="997.169" height="1425.029"/>
	</defs>
	<clipPath id="SVGID_4_">
		<use xlink:href="#SVGID_3_"  overflow="visible"/>
	</clipPath>
	<path clip-path="url(#SVGID_4_)" fill="#231F20" d="M793.308,139.711"/>
</g>
<path fill="none" stroke="#231F20" d="M793.308,139.711"/>
<g>
	<defs>
		<rect id="SVGID_5_" x="432.688" y="6.486" width="997.175" height="1425.03"/>
	</defs>
	<clipPath id="SVGID_6_">
		<use xlink:href="#SVGID_5_"  overflow="visible"/>
	</clipPath>
	<path clip-path="url(#SVGID_6_)" fill="#231F20" d="M711.171,725.227"/>
</g>
<path fill="none" stroke="#231F20" d="M711.171,725.227"/>
<g>
	<defs>
		<rect id="SVGID_7_" x="432.688" y="6.486" width="997.175" height="1425.03"/>
	</defs>
	<clipPath id="SVGID_8_">
		<use xlink:href="#SVGID_7_"  overflow="visible"/>
	</clipPath>
	<path clip-path="url(#SVGID_8_)" fill="#231F20" d="M711.171,725.227"/>
</g>
<path fill="none" stroke="#231F20" d="M711.171,725.227"/>
<g>
	<defs>
		<rect id="SVGID_9_" x="432.688" y="6.486" width="997.175" height="1425.03"/>
	</defs>
	<clipPath id="SVGID_10_">
		<use xlink:href="#SVGID_9_"  overflow="visible"/>
	</clipPath>
	<g clip-path="url(#SVGID_10_)">
		<defs>
			<rect id="SVGID_11_" x="530.82" y="6" width="882.111" height="1360.398"/>
		</defs>
		<clipPath id="SVGID_12_">
			<use xlink:href="#SVGID_11_"  overflow="visible"/>
		</clipPath>
		<path clip-path="url(#SVGID_12_)" fill="#231F20" d="M706.662,724.957"/>
	</g>
	<path clip-path="url(#SVGID_10_)" fill="none" stroke="#231F20" d="M706.662,724.957"/>
	<g clip-path="url(#SVGID_10_)">
		<defs>
			<rect id="SVGID_13_" x="530.82" y="6" width="882.111" height="1360.398"/>
		</defs>
		<clipPath id="SVGID_14_">
			<use xlink:href="#SVGID_13_"  overflow="visible"/>
		</clipPath>
		<path clip-path="url(#SVGID_14_)" fill="#231F20" d="M706.662,724.957"/>
	</g>
	<path clip-path="url(#SVGID_10_)" fill="none" stroke="#231F20" d="M706.662,724.957"/>
	<g clip-path="url(#SVGID_10_)">
		<defs>
			<rect id="SVGID_15_" x="535.32" y="6.486" width="882.111" height="1360.399"/>
		</defs>
		<clipPath id="SVGID_16_">
			<use xlink:href="#SVGID_15_"  overflow="visible"/>
		</clipPath>
		<path clip-path="url(#SVGID_16_)" fill="#0000FF" d="M1011.588,1359.516l-1.658,0.779c-0.508-1.154-0.211-1.725,0.932-2.326
			l-0.789-1.684c-2.568,1.236-3.051,2.822-1.992,5.076l1.465,3.125l3.584-1.684L1011.588,1359.516z M1018.332,1356.279l-1.648,0.799
			c-0.521-1.148-0.232-1.723,0.902-2.338l-0.811-1.674c-2.553,1.27-3.016,2.861-1.93,5.102l1.506,3.104l3.562-1.727
			L1018.332,1356.279z M1023.424,1340.264l-1.609,3.49c-1.529,3.314-2.668,6.266-1.178,9.244c1.504,3.004,4.697,4.291,8.721,2.277
			c3.73-1.865,5.084-5.395,3.311-8.936c-0.254-0.51-0.604-1.006-0.979-1.49l-3.395,1.531c0.363,0.389,0.645,0.818,0.926,1.381
			c0.98,1.959,0.686,3.717-1.191,4.656c-1.824,0.914-3.193,0.189-3.973-1.367c-1.02-2.039-0.242-4.105,1.285-7.621l2.775-6.252
			l-1.127-2.254l-12.744,6.377l1.424,2.844L1023.424,1340.264z M1038.527,1332.373l-1.521,3.529
			c-1.443,3.352-2.508,6.332-0.943,9.271c1.578,2.965,4.805,4.17,8.775,2.055c3.682-1.959,4.945-5.52,3.084-9.016
			c-0.266-0.504-0.629-0.99-1.016-1.465l-3.355,1.617c0.373,0.379,0.666,0.801,0.961,1.357c1.029,1.934,0.779,3.697-1.072,4.686
			c-1.803,0.957-3.189,0.268-4.008-1.268c-1.07-2.012-0.346-4.098,1.094-7.65l2.615-6.322l-1.184-2.223l-12.578,6.695l1.494,2.809
			L1038.527,1332.373z M1056.826,1336.098l-1.6,0.891c-0.588-1.115-0.33-1.703,0.768-2.385l-0.906-1.625
			c-2.475,1.414-2.846,3.027-1.635,5.203l1.68,3.016l3.459-1.928L1056.826,1336.098z M1058.301,1317.213
			c-4.045,2.354-5.375,5.557-3.697,8.434c1.221,2.102,3.492,2.723,5.496,2.111c-1.307,1.629-1.557,3.406-0.457,5.299
			c1.646,2.826,5.105,3.104,8.527,1.111c3.424-1.992,4.891-5.137,3.246-7.963c-1.102-1.893-2.771-2.553-4.834-2.219
			c1.547-1.457,2.102-3.725,0.881-5.824C1065.787,1315.285,1062.371,1314.842,1058.301,1317.213 M1062.646,1324.68
			c-1.996,1.162-3.635,0.971-4.586-0.664c-0.936-1.607-0.338-3.205,1.658-4.365c1.996-1.162,3.682-0.895,4.617,0.715
			C1065.287,1321.998,1064.643,1323.518,1062.646,1324.68 M1066.783,1331.783c-1.66,0.967-3.232,0.77-4.184-0.863
			c-0.875-1.504-0.27-2.967,1.391-3.934c1.607-0.936,3.18-0.74,4.055,0.764C1068.996,1329.383,1068.389,1330.848,1066.783,1331.783
			 M1095.115,1305.934c1.938,2.893,4.709,2.986,7.549,1.084c2.918-1.953,3.586-4.676,2.457-7.17l-2.883,1.57
			c0.467,1.24,0.295,2.438-0.951,3.271c-1.271,0.852-2.42,0.539-3.238-0.684l-0.166-0.248l2.615-2.619
			c2.158-2.168,3.27-4.174,1.867-6.268c-1.27-1.896-3.434-2.107-5.727-0.572c-1.619,1.086-2.664,2.76-2.436,4.449
			c-1.076-1.014-2.357-1.203-3.605-0.367c-0.996,0.668-1.377,1.391-1.6,2.082l1.068,1.596c0.223-0.365,0.473-0.641,0.771-0.842
			c0.475-0.316,0.957-0.242,1.34,0.33L1095.115,1305.934z M1096.496,1301.688c-1.184-1.77-0.789-3.768,0.781-4.818
			c0.947-0.635,1.82-0.57,2.322,0.178c0.734,1.098-0.037,1.939-1.15,3.082l-1.77,1.834L1096.496,1301.688z M1112.732,1296.434
			l0.961-10.598l-1.418-2.008l-9.41,6.646l1.541,2.182l5.881-4.156l-1.059,10.666l1.42,2.01l9.113-6.439l-1.541-2.182
			L1112.732,1296.434z M1127.055,1292.111l-2.984,2.166l2.061,2.842l2.986-2.168L1127.055,1292.111z M1125.738,1290.396
			l-7.77-10.709l-2.914,2.115l7.77,10.709L1125.738,1290.396z M1130.869,1273.227c-1.545-0.902-3.645-0.896-5.488,0.496
			c-3.162,2.385-2.971,6.074-0.621,9.188s5.861,4.334,8.975,1.984c1.893-1.428,2.385-3.416,1.889-5.07l4.951,6.562l2.873-2.168
			l-11.383-15.088l-2.203,1.662L1130.869,1273.227z M1133.352,1276.766c1.445,1.916,1.199,3.98-0.43,5.209
			c-1.818,1.373-3.748,0.762-5.266-1.252c-1.498-1.986-1.559-4.008,0.262-5.383c1.627-1.227,3.662-0.922,5.127,1.02
			L1133.352,1276.766z M1147.75,1276.348l-2.902,2.277l2.166,2.762l2.902-2.275L1147.75,1276.348z M1146.371,1274.686l-8.166-10.41
			l-2.832,2.223l8.164,10.41L1146.371,1274.686z M1151.24,1267.355l0.232-10.637l-1.555-1.908l-8.93,7.277l1.686,2.07l5.582-4.549
			l-0.324,10.715l1.555,1.906l8.65-7.051l-1.688-2.068L1151.24,1267.355z M1159.375,1254.889c-1.453-1.717-1.559-3.514-0.209-4.658
			c1.352-1.143,2.699-0.713,3.998,0.822l4.883,5.771l2.748-2.326l-5.348-6.32c-1.9-2.244-4.348-3.277-7.027-1.01
			c-1.533,1.299-2.084,3.061-1.623,4.676l-1.395-1.648l-2.748,2.324l8.547,10.1l2.748-2.326L1159.375,1254.889z M1180.779,1241.143
			l3.977,4.414l-3.232,2.912c-2.027,1.828-3.707,1.846-4.973,0.441c-1.365-1.516-1.033-3.027,0.996-4.855L1180.779,1241.143z
			 M1164.971,1242.02c0.932,0.092,1.641,0.744,3.688,2.656c1.641,1.508,3.309,1.701,5.195,0.568c-1.516,1.77-1.793,4.24,0.113,6.357
			c2.352,2.607,5.617,2.693,9.205-0.541l6.354-5.723l-12.652-14.041l-2.742,2.469l4.68,5.193l-3.299,2.973
			c-1.604,1.445-2.961,1.375-4.498-0.107c-1.516-1.459-2.559-2.256-3.189-2.375L1164.971,1242.02z M1185.871,1215.984l7.193,18.311
			l2.52-2.445l-3.727-8.965l0.086-0.084l8.871,3.975l2.713-2.635l-13.195-5.713l-1.92-4.908L1185.871,1215.984z M1208.199,1211.953
			c0.938,1.396,1.197,3.051-0.197,4.455c-1.418,1.426-3.115,1.051-4.285,0.057L1208.199,1211.953z M1200.994,1214.48
			c-0.705-1.42-0.496-2.691,0.75-3.947c1.375-1.385,3.432-1.498,4.898-0.209l-6.996,7.047l0.916,0.908
			c2.553,2.537,6.246,3.076,9.291,0.01c2.789-2.809,2.756-7.031-0.203-9.969c-2.959-2.939-6.885-2.691-9.76,0.203
			c-2.387,2.404-2.76,5.248-1.16,7.811L1200.994,1214.48z M1223.584,1211.744l-13.652-13.07l-2.488,2.602l13.652,13.068
			L1223.584,1211.744z M1223.725,1190.264c-2.545-2.02-5.438-1.096-7.777,1.439c-2.318,2.514-2.803,5.25-0.818,7.082
			c1.83,1.688,3.809,1.268,6.031-0.477l2.018-1.568c0.762-0.604,1.396-0.672,1.926-0.184c0.66,0.611,0.51,1.615-0.365,2.562
			c-1.281,1.389-2.525,1.631-3.789,0.789l-1.926,2.266c2.322,1.816,5.021,1.326,7.504-1.365c2.277-2.469,2.443-5.215,0.592-6.924
			c-1.811-1.668-3.639-1.232-5.881,0.535l-1.689,1.299c-1.049,0.828-1.744,1.004-2.404,0.395c-0.705-0.65-0.305-1.75,0.592-2.721
			c1.24-1.346,2.648-1.678,3.961-0.754L1223.725,1190.264z M1234.812,1183.129c1.021,1.338,1.383,2.973,0.074,4.459
			c-1.324,1.51-3.043,1.24-4.271,0.32L1234.812,1183.129z M1227.775,1186.094c-0.789-1.373-0.66-2.658,0.508-3.988
			c1.287-1.465,3.334-1.703,4.877-0.506l-6.553,7.459l0.969,0.854c2.705,2.375,6.424,2.688,9.275-0.559
			c2.613-2.975,2.318-7.186-0.814-9.938c-3.131-2.752-7.033-2.266-9.725,0.799c-2.238,2.547-2.436,5.408-0.682,7.867
			L1227.775,1186.094z M1253.809,1177.721l2.197-2.66l-8.379-11.666l0.076-0.092l12.926,6.162l2.389-2.893l-17.688-8.266
			l-2.617,3.17l8.209,11.449l-0.076,0.092l-12.773-5.92l-2.637,3.191l11.459,15.807l2.293-2.775l-8.537-11.525l0.076-0.092
			L1253.809,1177.721z M1256.48,1144.113l-2.174,2.871l15.07,11.404l2.172-2.869l-6.553-4.961c1.654,0.498,3.66-0.014,5.072-1.881
			c2.371-3.133,1.139-6.625-1.971-8.977c-3.109-2.355-6.781-2.574-9.152,0.559c-1.412,1.865-1.361,3.938-0.457,5.375
			L1256.48,1144.113z M1261.533,1147.975c-1.938-1.465-2.223-3.525-0.992-5.15c1.357-1.795,3.379-1.732,5.365-0.23
			c2.01,1.521,2.619,3.451,1.262,5.244c-1.23,1.627-3.314,1.893-5.229,0.445L1261.533,1147.975z M1275.941,1129.703
			c1.801,1.295,2.305,3.062,1.234,4.547c-1.033,1.438-2.455,1.412-4.111,0.221l-6.113-4.398l-2.102,2.922l6.697,4.818
			c2.387,1.719,5.088,2.072,7.154-0.801c1.156-1.607,1.311-3.566,0.479-4.979l1.754,1.262l2.102-2.924l-10.74-7.727l-2.102,2.924
			L1275.941,1129.703z M1282.193,1123.311c2.873,1.965,5.48,1.021,7.41-1.803c1.98-2.898,1.588-5.674-0.387-7.568l-2.094,2.529
			c0.896,0.977,1.184,2.152,0.336,3.393c-0.863,1.262-2.047,1.398-3.26,0.568l-0.248-0.17l1.455-3.402
			c1.197-2.814,1.48-5.092-0.6-6.514c-1.883-1.287-3.971-0.678-5.527,1.6c-1.1,1.609-1.447,3.553-0.607,5.035
			c-1.375-0.539-2.635-0.238-3.48,1c-0.678,0.99-0.762,1.807-0.713,2.529l1.586,1.084c0.072-0.424,0.201-0.771,0.402-1.068
			c0.322-0.471,0.799-0.582,1.367-0.191L1282.193,1123.311z M1281.896,1118.855c-1.76-1.201-2.135-3.203-1.068-4.764
			c0.643-0.941,1.479-1.207,2.221-0.699c1.09,0.746,0.688,1.814,0.078,3.289l-0.959,2.359L1281.896,1118.855z M1302.381,1105.492
			l-2.01,3.094l2.945,1.912l2.008-3.096L1302.381,1105.492z M1300.535,1104.365l-11.098-7.199l-1.959,3.02l11.098,7.201
			L1300.535,1104.365z M1290.805,1085.764l11.387,16.043l1.855-2.977l-5.773-7.809l0.062-0.102l9.568,1.723l2-3.207l-14.182-2.373
			l-3.047-4.303L1290.805,1085.764z M1310.686,1076.016c1.912,1.129,2.57,2.844,1.641,4.418c-0.9,1.525-2.32,1.627-4.076,0.59
			l-6.482-3.828l-1.832,3.098l7.104,4.197c2.531,1.494,5.254,1.604,7.055-1.443c1.008-1.705,0.982-3.67,0.027-5.002l1.859,1.098
			l1.832-3.1l-11.393-6.727l-1.83,3.1L1310.686,1076.016z M1319.949,1061.453c1.281,1.092,1.975,2.615,1.01,4.344
			c-0.98,1.754-2.717,1.85-4.111,1.207L1319.949,1061.453z M1313.691,1065.826c-1.061-1.178-1.203-2.459-0.34-4.004
			c0.953-1.703,2.902-2.365,4.664-1.52l-4.844,8.668l1.125,0.629c3.145,1.758,6.846,1.283,8.953-2.488
			c1.932-3.457,0.762-7.514-2.879-9.549c-3.641-2.033-7.354-0.738-9.344,2.822c-1.654,2.959-1.246,5.799,0.984,7.834
			L1313.691,1065.826z M1330.311,1048.25c1.701,0.242,3.295-0.418,4.375-2.494c0.926-1.783,0.715-3.584-0.312-4.861l1.916,0.996
			l1.662-3.193l-11.738-6.105l-1.66,3.195l6.281,3.266c1.969,1.025,2.762,2.621,1.959,4.164s-2.145,1.59-3.955,0.648l-6.68-3.475
			l-1.662,3.193l6.281,3.268c1.969,1.023,2.762,2.619,1.959,4.164c-0.816,1.57-2.146,1.588-3.955,0.648l-6.68-3.477l-1.662,3.195
			l7.318,3.807c2.557,1.328,5.266,1.453,6.912-1.715C1331.666,1051.559,1331.363,1049.609,1330.311,1048.25 M1343.467,1032.17
			l-1.623,3.312l3.15,1.545l1.625-3.312L1343.467,1032.17z M1341.502,1031.271l-11.881-5.822l-1.584,3.232l11.879,5.824
			L1341.502,1031.271z M1330.846,1023.084l13.23-3.119l4.199,10.459l1.832-3.979l-4.387-10.908l7.766,3.58l1.57-3.406l-17.166-7.912
			l-1.568,3.406l5.693,2.625l1.01,2.611l-10.295,2.557L1330.846,1023.084z M1353.139,992.576c1.389,0.949,2.244,2.389,1.469,4.211
			c-0.785,1.85-2.502,2.129-3.957,1.641L1353.139,992.576z M1347.387,997.594c-1.182-1.055-1.461-2.314-0.768-3.943
			c0.762-1.795,2.631-2.662,4.473-2.012l-3.887,9.139l1.188,0.506c3.312,1.408,6.941,0.539,8.633-3.436
			c1.551-3.645-0.049-7.553-3.885-9.184c-3.84-1.631-7.391,0.053-8.988,3.807c-1.326,3.119-0.617,5.898,1.818,7.686
			L1347.387,997.594z M1357.721,999.512l2.561,4.25l1.514-3.561l-3.064-3.064L1357.721,999.512z M1349.824,979.572l10.367,9.734
			l1.297-3.262l-7.303-6.645l0.045-0.111l9.883,0.148l1.395-3.512l-14.221-0.035L1349.824,979.572z M1366.072,973.854
			c0.445-0.25,0.871-0.797,1.152-1.557c0.635-1.715-0.182-3.488-1.422-4.459l2.363,0.875l1.25-3.377l-12.408-4.592l-1.25,3.377
			l6.135,2.27c2.25,0.832,3.051,2.473,2.404,4.217c-0.301,0.816-0.678,1.316-1.283,1.828L1366.072,973.854z M1368.973,950.77
			c1.449,0.857,2.396,2.236,1.742,4.105c-0.664,1.896-2.357,2.291-3.842,1.898L1368.973,950.77z M1363.561,956.156
			c-1.246-0.979-1.607-2.217-1.023-3.889c0.645-1.84,2.451-2.828,4.332-2.297l-3.279,9.373l1.219,0.426
			c3.396,1.189,6.963,0.084,8.389-3.994c1.307-3.738-0.543-7.531-4.48-8.908c-3.936-1.377-7.369,0.537-8.717,4.387
			c-1.119,3.201-0.23,5.926,2.316,7.549L1363.561,956.156z M1367.822,928.668l7.723,2.445l-2.816,8.895l-7.723-2.445l-1.133,3.576
			l18.02,5.705l1.133-3.574l-7.352-2.328l2.816-8.895l7.35,2.328l1.133-3.576l-18.018-5.705L1367.822,928.668z M1372.949,911.293
			l-0.492,1.73c-1.213-0.344-1.555-1.004-1.268-2.23l-1.818-0.518c-0.723,2.758,0.229,4.244,2.652,4.934l3.693,1.049l1.1-3.867
			L1372.949,911.293z M1382.436,908.947c3.363,0.891,5.506-0.869,6.383-4.176c0.896-3.393-0.4-5.879-2.895-7.004l-1.127,3.084
			c1.17,0.621,1.832,1.635,1.449,3.084c-0.393,1.479-1.461,2.002-2.883,1.625l-0.289-0.076l0.232-3.693
			c0.188-3.053-0.305-5.293-2.74-5.939c-2.205-0.584-3.969,0.688-4.674,3.355c-0.5,1.885-0.178,3.832,1.109,4.949
			c-1.477-0.049-2.564,0.654-2.947,2.105c-0.309,1.16-0.115,1.955,0.174,2.621l1.855,0.492c-0.072-0.422-0.068-0.793,0.023-1.141
			c0.146-0.553,0.557-0.816,1.225-0.639L1382.436,908.947z M1380.666,904.848c-2.059-0.545-3.082-2.307-2.598-4.133
			c0.291-1.102,0.99-1.631,1.861-1.4c1.275,0.338,1.252,1.48,1.172,3.072l-0.115,2.545L1380.666,904.848z M1387.211,884.412
			c2.16,0.518,3.295,1.961,2.869,3.74c-0.412,1.723-1.738,2.236-3.723,1.762l-7.322-1.752l-0.838,3.5l8.023,1.922
			c2.857,0.684,5.492-0.012,6.316-3.455c0.461-1.926-0.139-3.797-1.445-4.787l2.102,0.502l0.838-3.5l-12.867-3.082l-0.838,3.502
			L1387.211,884.412z M1390.576,876.131c3.404,0.73,5.459-1.131,6.174-4.475c0.736-3.434-0.678-5.854-3.225-6.859l-0.979,3.135
			c1.199,0.564,1.91,1.545,1.596,3.012c-0.32,1.496-1.363,2.07-2.803,1.762l-0.293-0.062l0.057-3.699
			c0.043-3.061-0.559-5.275-3.021-5.803c-2.229-0.477-3.932,0.877-4.51,3.576c-0.408,1.906,0.008,3.836,1.346,4.891
			c-1.477,0.02-2.527,0.777-2.842,2.242c-0.252,1.176-0.021,1.959,0.299,2.611l1.877,0.402c-0.094-0.418-0.105-0.789-0.029-1.143
			c0.117-0.557,0.516-0.84,1.191-0.695L1390.576,876.131z M1388.613,872.121c-2.084-0.445-3.189-2.156-2.793-4.004
			c0.238-1.115,0.91-1.676,1.791-1.488c1.291,0.277,1.322,1.42,1.318,3.014l0.006,2.549L1388.613,872.121z M1397.91,851.908
			c1.695-0.27,3.025-1.369,3.445-3.67c0.361-1.979-0.371-3.637-1.729-4.557l2.125,0.389l0.648-3.541l-13.014-2.381l-0.648,3.541
			l6.965,1.273c2.184,0.4,3.412,1.693,3.098,3.404c-0.312,1.711-1.582,2.15-3.59,1.783l-7.406-1.355l-0.648,3.541l6.965,1.275
			c2.184,0.398,3.41,1.689,3.098,3.402c-0.318,1.74-1.582,2.15-3.59,1.783l-7.406-1.355l-0.648,3.541l8.115,1.484
			c2.834,0.52,5.459-0.16,6.1-3.672C1400.18,854.67,1399.314,852.896,1397.91,851.908 M1405.779,832.666l-0.576,3.645l3.465,0.549
			l0.578-3.645L1405.779,832.666z M1403.637,832.389l-13.068-2.068l-0.562,3.557l13.068,2.068L1403.637,832.389z M1399.486,818.219
			c2.199,0.309,3.467,1.637,3.213,3.449c-0.244,1.752-1.514,2.393-3.535,2.111l-7.457-1.043l-0.5,3.564l8.172,1.143
			c2.912,0.406,5.467-0.537,5.957-4.043c0.273-1.963-0.504-3.768-1.898-4.629l2.139,0.299l0.5-3.564l-13.104-1.832l-0.498,3.566
			L1399.486,818.219z M1399.984,810.893c4.084,0.471,7.273-2.061,7.744-6.145c0.467-4.053-2.064-7.244-6.148-7.715
			c-4.082-0.471-7.244,2.064-7.711,6.119C1393.4,807.234,1395.902,810.422,1399.984,810.893 M1401.166,800.639
			c2.502,0.289,4.102,1.621,3.852,3.797c-0.254,2.205-2.115,3.139-4.617,2.85c-2.475-0.285-4.072-1.615-3.818-3.822
			C1396.832,801.289,1398.691,800.354,1401.166,800.639 M1398.816,782.979c-1.705,0.539-3.111,2.098-3.32,4.398
			c-0.357,3.943,2.502,6.283,6.387,6.635c3.885,0.354,7.148-1.43,7.5-5.314c0.215-2.359-0.926-4.061-2.484-4.805l8.186,0.744
			l0.324-3.586l-18.822-1.709l-0.25,2.75L1398.816,782.979z M1403.105,783.52c2.391,0.217,3.754,1.785,3.568,3.818
			c-0.205,2.271-1.953,3.287-4.463,3.059c-2.48-0.225-4.018-1.539-3.812-3.811c0.186-2.031,1.779-3.332,4.199-3.113L1403.105,783.52
			z M1397.451,766.377l14.58,5.416l-0.008,0.119l-14.854-0.895l-0.227,3.773l18.867,1.137l0.348-5.781l-13.479-4.748l0.004-0.09
			l13.965-3.307l0.355-5.898l-18.865-1.137l-0.209,3.475l14.852,0.895l-0.006,0.119l-15.131,3.717L1397.451,766.377z
			 M1406.58,734.928c1.645,0.359,2.979,1.373,2.943,3.354c-0.035,2.008-1.521,2.912-3.053,3.006L1406.58,734.928z M1403.131,741.738
			c-1.49-0.535-2.223-1.6-2.191-3.369c0.035-1.949,1.441-3.455,3.393-3.541l-0.174,9.93l1.289,0.021
			c3.6,0.062,6.639-2.104,6.715-6.422c0.068-3.961-2.879-6.982-7.049-7.057c-4.168-0.072-6.83,2.822-6.902,6.9
			c-0.059,3.391,1.643,5.701,4.568,6.441L1403.131,741.738z M1411.75,729.414c0.33-0.389,0.539-1.049,0.539-1.859
			c-0.002-1.83-1.383-3.209-2.883-3.688l2.52-0.002l-0.004-3.602l-13.229,0.012l0.002,3.6l6.541-0.004
			c2.4-0.002,3.721,1.256,3.723,3.115c0,0.871-0.18,1.471-0.568,2.16L1411.75,729.414z M1413.443,711.446l3.988-1.697l-0.074-3.869
			l-3.963,2.986L1413.443,711.446z M1406.422,706.75c1.656,0.298,3.025,1.262,3.062,3.242c0.039,2.009-1.414,2.967-2.941,3.117
			L1406.422,706.75z M1403.225,713.683c-1.51-0.481-2.279-1.517-2.314-3.286c-0.037-1.949,1.314-3.506,3.26-3.663l0.191,9.928
			l1.291-0.025c3.598-0.068,6.555-2.346,6.473-6.666c-0.076-3.959-3.133-6.871-7.303-6.791c-4.168,0.08-6.721,3.07-6.643,7.149
			c0.064,3.389,1.848,5.635,4.801,6.268L1403.225,713.683z M1413.473,695.626l0.139,3.687l3.506-0.132l-0.137-3.687
			L1413.473,695.626z M1411.316,695.767l-13.221,0.498l0.135,3.598l13.221-0.498L1411.316,695.767z M1416.6,687.604l-18.877,0.943
			l0.18,3.596l18.877-0.943L1416.6,687.604z M1405.924,683.028c3.473-0.238,4.936-2.594,4.701-6.005
			c-0.238-3.502-2.266-5.438-4.992-5.702l-0.074,3.282c1.307,0.212,2.26,0.957,2.363,2.454c0.104,1.526-0.74,2.366-2.207,2.467
			l-0.299,0.021l-0.967-3.572c-0.803-2.951-1.99-4.916-4.504-4.744c-2.275,0.156-3.537,1.928-3.348,4.681
			c0.133,1.946,1.062,3.686,2.641,4.33c-1.414,0.427-2.217,1.444-2.113,2.94c0.082,1.197,0.52,1.89,1.008,2.428l1.916-0.132
			c-0.207-0.377-0.32-0.729-0.346-1.089c-0.039-0.568,0.266-0.951,0.955-0.998L1405.924,683.028z M1402.932,679.715
			c-2.125,0.146-3.66-1.193-3.789-3.078c-0.078-1.137,0.414-1.862,1.311-1.924c1.318-0.09,1.662,0.998,2.098,2.532l0.711,2.448
			L1402.932,679.715z M1406.275,657.698c1.555-0.728,2.529-2.151,2.297-4.48c-0.199-1.999-1.363-3.391-2.92-3.898l2.148-0.214
			l-0.357-3.584l-13.164,1.312l0.357,3.583l7.045-0.703c2.209-0.22,3.744,0.683,3.918,2.414c0.172,1.731-0.926,2.504-2.955,2.706
			l-7.494,0.747l0.357,3.582l7.045-0.702c2.209-0.22,3.746,0.682,3.918,2.414c0.176,1.761-0.926,2.504-2.955,2.706l-7.494,0.747
			l0.357,3.582l8.209-0.818c2.865-0.286,5.201-1.664,4.848-5.216C1409.221,659.726,1407.898,658.26,1406.275,657.698
			 M1402.025,640.627c3.451-0.452,4.764-2.893,4.32-6.284c-0.455-3.481-2.6-5.286-5.334-5.383l0.127,3.281
			c1.318,0.13,2.316,0.815,2.51,2.304c0.199,1.518-0.592,2.407-2.049,2.598l-0.299,0.039l-1.184-3.506
			c-0.986-2.896-2.291-4.781-4.791-4.455c-2.26,0.297-3.41,2.143-3.051,4.879c0.252,1.934,1.291,3.612,2.904,4.157
			c-1.385,0.515-2.123,1.579-1.928,3.066c0.156,1.19,0.637,1.853,1.156,2.36l1.904-0.25c-0.23-0.363-0.365-0.709-0.412-1.065
			c-0.074-0.565,0.207-0.966,0.891-1.056L1402.025,640.627z M1398.832,637.506c-2.109,0.276-3.727-0.964-3.971-2.838
			c-0.148-1.131,0.297-1.885,1.189-2.002c1.309-0.171,1.721,0.895,2.25,2.398l0.859,2.398L1398.832,637.506z M1389.709,616.921
			c0.418,2.667,1.822,4.847,4.041,5.44l-2.756,0.432l0.514,3.29l9.426-1.476l-1.316-8.416l-2.758,0.431l0.775,4.95
			c-2.455-0.163-4.268-1.854-4.682-4.491c-0.57-3.646,1.627-6.297,5.629-6.923c3.912-0.612,6.775,1.187,7.309,4.595
			c0.486,3.113-1.035,5.233-3.754,5.902l0.715,3.592c4.65-1.122,7.129-4.698,6.285-10.093c-0.82-5.246-5.408-8.749-11.158-7.85
			C1392.199,607.209,1388.895,611.704,1389.709,616.921 M1386.096,594.486l0.744,3.951l3.951-0.746l-0.746-3.95L1386.096,594.486z
			 M1395.068,584.792l-10.5,2.117l0.705,3.499l10.5-2.116l0.699,3.47l2.471-0.498l-0.701-3.47l1.354-0.272
			c1.205-0.244,2.125,0.062,2.344,1.149c0.184,0.912-0.264,1.583-1.027,2.043l1.193,2.116c1.943-0.973,2.771-2.641,2.297-4.992
			c-0.586-2.912-2.748-4.373-5.777-3.763l-1.088,0.22l-0.385-1.912l-2.471,0.498L1395.068,584.792z M1390.205,581.575
			c4.016-0.888,6.205-4.322,5.316-8.335c-0.881-3.984-4.316-6.174-8.328-5.286c-4.014,0.888-6.174,4.315-5.293,8.299
			C1382.789,580.266,1386.193,582.463,1390.205,581.575 M1387.979,571.498c2.459-0.544,4.404,0.193,4.877,2.332
			c0.48,2.167-0.973,3.656-3.434,4.2c-2.432,0.538-4.377-0.199-4.855-2.367C1384.094,573.525,1385.545,572.036,1387.979,571.498
			 M1392.969,564.424c0.227-0.458,0.271-1.148,0.076-1.936c-0.439-1.776-2.111-2.784-3.682-2.889l2.445-0.606l-0.865-3.494
			l-12.842,3.181l0.865,3.494l6.348-1.572c2.33-0.576,3.914,0.328,4.361,2.135c0.211,0.844,0.18,1.47-0.033,2.232L1392.969,564.424z
			 M1380.701,542.919l0.986,3.681c1.248,4.665,4.166,6.742,7.961,5.725c3.797-1.017,5.256-4.265,4.006-8.931l-1.947-7.273
			l-18.258,4.889l0.963,3.594L1380.701,542.919z M1383.656,542.128l6.086-1.63l0.955,3.564c0.729,2.724-0.055,4.207-2.025,4.735
			c-1.971,0.528-3.332-0.381-4.061-3.105L1383.656,542.128z M1374.521,519.796c2.121-0.655,3.832,0.01,4.373,1.758
			c0.521,1.692-0.357,2.811-2.307,3.413l-7.195,2.221l1.062,3.44l7.883-2.434c2.809-0.867,4.723-2.808,3.678-6.19
			c-0.584-1.892-2.055-3.197-3.684-3.385l7.482-2.31l-1.062-3.44l-18.059,5.576l1.062,3.44L1374.521,519.796z M1366.574,507.269
			c-2.68,0.882-2.998,2.788-2.359,4.726c0.508,1.538,1.244,2.432,2.229,3.119l2.25-0.742c-0.586-0.628-1.076-1.256-1.303-1.94
			c-0.338-1.026-0.014-1.67,1.07-2.027l6.211-2.047l1.127,3.419l2.393-0.789l-1.127-3.419l3.477-1.146l-0.686-2.08l-1.84,0.165
			c-1.264,0.1-2.002-0.035-2.605-1.195l-0.426-0.807l-2.021,0.666l0.592,1.795L1366.574,507.269z M1375.277,495.517l1.199,3.49
			l3.318-1.141l-1.199-3.49L1375.277,495.517z M1373.252,496.276l-12.51,4.3l1.17,3.405l12.51-4.3L1373.252,496.276z
			 M1369.348,485.328l-0.998-2.733l-9.109,0.77l-0.041-0.113l7.338-5.617l-1.223-3.354l-10.988,8.482l1.203,3.297l9.025-0.739
			l0.041,0.113l-7.379,5.248l1.193,3.269l13.867-0.591l-1.121-3.072l-9.221,0.46l-0.041-0.113L1369.348,485.328z M1339.248,451.284
			l19.754-6.125l11.678-5.121l-3.887-8.86l-11.676,5.121l-17.916,10.314L1339.248,451.284z M1332.061,446.657l-8.449,3.705
			l3.676,8.379l8.447-3.705L1332.061,446.657z M1346.855,434.792c11.643-5.552,15.932-12.417,11.605-21.488l-5.52-11.576
			l-42.65,20.338l5.521,11.576c4.326,9.072,12.357,10.06,24.002,4.508L1346.855,434.792z M1333.242,430.814
			c-5.957,2.841-9.375,2.643-11.279-1.351l-1.033-2.166l29.381-14.011l1.031,2.166c1.906,3.995-0.092,6.775-6.049,9.616
			L1333.242,430.814z M1345.465,387.613l-41.846,21.942l4.318,8.236l41.846-21.942L1345.465,387.613z M1307.777,383.255l1.182,2.09
			c5.057,8.945,12.131,10.029,20.684,5.193c8.553-4.835,11.271-11.455,6.217-20.399l-5.721-10.12l-41.135,23.252l4.541,8.031
			L1307.777,383.255z M1314.307,379.565l13.842-7.825l0.738,1.306c2.51,4.44,1.289,6.853-3.738,9.695
			c-4.961,2.805-7.594,2.569-10.104-1.871L1314.307,379.565z M1278.693,367.869c5.605,8.967,12.951,8.267,21.156,3.139
			l26.838-16.775l-5.049-8.077l-27.348,17.093c-4.389,2.743-7.242,3.554-9.109,0.565c-1.869-2.989,0.148-5.136,4.539-7.879
			l27.346-17.093l-5.047-8.077l-26.84,16.775C1276.977,352.668,1273.088,358.901,1278.693,367.869 M1264.672,345.243l32.484-22.649
			l5.191,7.445l6.275-4.376l-15.572-22.332l-6.275,4.375l5.062,7.26l-32.484,22.648L1264.672,345.243z M1250.662,298.67l-2.146,1.64
			c-7.508,5.739-8.164,12.66-3.336,18.976c4.736,6.197,11.588,7.38,18.32,2.233c5.779-4.418,6.17-9.342,5.408-15.65l-0.451-5.036
			c-0.266-2.818,0.119-4.906,2.623-6.819c2.443-1.868,4.826-2.084,6.42,0.001c1.822,2.384,0.854,4.823-2.543,7.419l-2.205,1.685
			l4.965,6.495l2.146-1.64c7.209-5.511,8.5-11.973,3.535-18.468c-4.6-6.018-11.73-6.703-17.988-1.921
			c-6.256,4.783-6.359,9.959-5.844,15.324l0.4,4.602c0.242,3.403,0.383,5.562-2.301,7.611c-2.502,1.913-4.857,1.919-6.588-0.345
			c-1.912-2.502-0.889-5.362,2.328-7.821l2.266-1.731L1250.662,298.67z M1219.783,287.986c6.881,8.03,14.041,6.24,21.387-0.056
			l24.031-20.597l-6.199-7.232l-24.486,20.987c-3.93,3.368-6.631,4.596-8.924,1.92c-2.295-2.677-0.619-5.101,3.311-8.468
			l24.486-20.988l-6.197-7.231l-24.031,20.597C1215.814,273.213,1212.902,279.957,1219.783,287.986 M1218.562,239.218
			c3.977-3.764,7.156-5.64,9.633-3.026c2.475,2.614,0.428,5.688-3.549,9.452l-11,10.416c-3.977,3.764-7.158,5.64-9.633,3.026
			c-2.475-2.614-0.428-5.688,3.547-9.452L1218.562,239.218z M1228.033,255.658c9.75-9.23,12.623-17.321,5.662-24.674
			c-7.014-7.407-15.248-4.979-24.998,4.25l-4.574,4.332c-9.75,9.23-12.623,17.321-5.611,24.728
			c6.961,7.352,15.197,4.925,24.947-4.305L1228.033,255.658z M1198.387,223.305l8.947-17.962l-6.895-6.681l-13.541,29.385
			l-11.639,12.01l6.463,6.263l11.639-12.01l28.945-14.457l-6.57-6.368L1198.387,223.305z M1158.055,224.198l3.066,2.76
			c-1.957,2.174-3.658,2.157-5.826,0.306l-2.91,3.233c4.949,4.254,8.863,3.943,12.777-0.405l5.922-6.577l-6.855-6.173
			L1158.055,224.198z M1162.723,198.606l-0.229-0.194l8.418-25.498l-6.525-5.524l-30.529,36.063l6.582,5.573l17.785-21.009
			l0.229,0.194l-8.969,28.471l5.381,4.555l30.529-36.063l-6.582-5.572L1162.723,198.606z M1134.887,164.866
			c3.332-4.345,6.176-6.701,9.033-4.511s1.322,5.549-2.008,9.895l-9.217,12.025c-3.33,4.345-6.174,6.7-9.031,4.511
			c-2.857-2.19-1.322-5.549,2.008-9.895L1134.887,164.866z M1146.84,179.602c8.166-10.656,9.725-19.1,1.689-25.259
			c-8.098-6.205-15.846-2.505-24.014,8.15l-3.832,5.001c-8.166,10.655-9.725,19.099-1.629,25.304
			c8.037,6.159,15.785,2.46,23.953-8.196L1146.84,179.602z M1124.586,137.531l-27.363,38.52l7.582,5.385l27.363-38.519
			L1124.586,137.531z M1086.525,168.708l21.951-32.96l7.553,5.031l4.24-6.367l-22.658-15.091l-4.242,6.367l7.367,4.906
			l-21.951,32.959L1086.525,168.708z M1077.062,122.019l0.256,0.156l-6.102,16.124l-5.77-3.502L1077.062,122.019z M1079.434,108.281
			l-33.105,35.179l7.309,4.436l6.959-7.708l8.016,4.864l-3.625,9.731l7.949,4.825l15.924-45.607L1079.434,108.281z
			 M1035.459,128.828l27.793-21.851l3.402-6.175l-20.889-11.508l-3.691,6.7l12.219,6.732l-28.23,21.866l-3.295,5.979l21.48,11.834
			l3.693-6.7L1035.459,128.828z M1031.975,82.387l-21.301,42.175l8.301,4.193l21.303-42.176L1031.975,82.387z M1008.004,98.431
			l-0.271-0.127l1.455-26.812l-7.744-3.625L981.41,110.66l7.811,3.657l11.67-24.929l0.273,0.127l-1.211,29.826l6.385,2.989
			l20.035-42.793l-7.812-3.657L1008.004,98.431z M972.322,73.19c2.082-5.063,4.215-8.079,7.543-6.71
			c3.33,1.369,2.725,5.013,0.641,10.076l-5.762,14.012c-2.082,5.062-4.213,8.079-7.543,6.71c-3.33-1.37-2.723-5.013-0.643-10.076
			L972.322,73.19z M987.703,84.3c5.105-12.417,4.408-20.975-4.957-24.826c-9.432-3.879-15.949,1.713-21.055,14.129l-2.396,5.827
			c-5.105,12.416-4.408,20.974,5.025,24.853c9.363,3.851,15.881-1.741,20.986-14.157L987.703,84.3z M945.258,45.921l-16.133,44.411
			l20.654,7.503l2.611-7.191l-11.912-4.327l13.52-37.22L945.258,45.921z M916.979,53.661c1.652-5.22,3.525-8.403,6.959-7.316
			c3.432,1.087,3.131,4.768,1.477,9.987l-4.572,14.443c-1.652,5.22-3.525,8.403-6.959,7.316c-3.432-1.087-3.131-4.768-1.479-9.987
			L916.979,53.661z M933.232,63.449c4.053-12.799,2.643-21.269-7.01-24.326c-9.725-3.079-15.752,3.037-19.805,15.835l-1.902,6.006
			c-4.053,12.799-2.643,21.269,7.08,24.349c9.654,3.056,15.682-3.059,19.734-15.858L933.232,63.449z M886.129,44.814
			c1.402-5.293,3.01-8.436,6.418-7.533c3.48,0.921,3.178,4.41,1.775,9.703l-1.094,4.132L902,53.439l0.5-1.885
			c2.9-10.947,1.701-19.023-7.795-21.538c-9.861-2.612-15.531,3.568-18.969,16.545l-1.729,6.525
			c-3.436,12.978-1.566,21.154,8.293,23.765c9.496,2.515,14.535-3.909,17.434-14.857l0.5-1.885l-8.773-2.323l-1.094,4.133
			c-1.402,5.292-2.865,8.474-6.344,7.552c-3.408-0.903-3.25-4.43-1.85-9.722L886.129,44.814z M833.881,48.65l-0.535,2.647
			c-1.867,9.263,2.197,14.903,9.99,16.475c7.646,1.542,13.58-2.082,15.256-10.389c1.438-7.132-1.512-11.093-6.242-15.337
			l-3.656-3.492c-2.057-1.945-3.143-3.77-2.52-6.858c0.609-3.014,2.258-4.748,4.832-4.229c2.941,0.594,3.82,3.066,2.975,7.257
			l-0.549,2.72l8.014,1.616l0.535-2.647c1.793-8.896-1.492-14.608-9.508-16.224c-7.424-1.498-13.24,2.685-14.799,10.405
			c-1.557,7.719,1.777,11.681,5.697,15.38l3.334,3.197c2.424,2.401,3.951,3.933,3.283,7.241c-0.623,3.088-2.391,4.645-5.184,4.081
			c-3.088-0.623-4.201-3.448-3.4-7.418l0.562-2.794L833.881,48.65z M819.555,62.793l6.191-39.113l8.963,1.418l1.195-7.556
			l-26.891-4.255l-1.195,7.556l8.74,1.384l-6.188,39.113L819.555,62.793z M791.467,24.277l0.299,0.035l1.189,17.199l-6.707-0.773
			L791.467,24.277z M787.885,10.804l-15.391,45.789l8.494,0.979l3.104-9.91l9.314,1.073l0.768,10.355l9.24,1.065l-4.576-48.09
			L787.885,10.804z M751.166,55.118l1.344-20.281l9.056,0.601l-1.345,20.281l9.279,0.615l3.127-47.146l-9.279-0.616l-1.275,19.233
			l-9.055-0.601l1.275-19.232l-9.279-0.616l-3.129,47.146L751.166,55.118z M728.912,54.151l0.936-39.589l9.072,0.214l0.182-7.647
			l-27.219-0.643l-0.18,7.646l8.848,0.209l-0.936,39.589L728.912,54.151z"/>
	</g>
</g>
</svg>
