<?xml version="1.0" encoding="utf-8"?>
<!-- Generator: Adobe Illustrator 16.0.4, SVG Export Plug-In . SVG Version: 6.00 Build 0)  -->
<!DOCTYPE svg PUBLIC "-//W3C//DTD SVG 1.1//EN" "http://www.w3.org/Graphics/SVG/1.1/DTD/svg11.dtd">
<svg version="1.1" id="Ebene_1" xmlns="http://www.w3.org/2000/svg" xmlns:xlink="http://www.w3.org/1999/xlink" x="0px" y="0px"
	 width="1440px" height="1440px" viewBox="0 0 1440 1440" enable-background="new 0 0 1440 1440" xml:space="preserve">
<g>
	<defs>
		<rect id="SVGID_1_" x="430.831" y="12.971" width="997.169" height="1425.029"/>
	</defs>
	<clipPath id="SVGID_2_">
		<use xlink:href="#SVGID_1_"  overflow="visible"/>
	</clipPath>
	<path clip-path="url(#SVGID_2_)" fill="#231F20" d="M794.308,131.711"/>
</g>
<path fill="none" stroke="#231F20" d="M794.308,131.711"/>
<g>
	<defs>
		<rect id="SVGID_3_" x="430.831" y="12.971" width="997.169" height="1425.029"/>
	</defs>
	<clipPath id="SVGID_4_">
		<use xlink:href="#SVGID_3_"  overflow="visible"/>
	</clipPath>
	<path clip-path="url(#SVGID_4_)" fill="#231F20" d="M793.308,139.711"/>
</g>
<path fill="none" stroke="#231F20" d="M793.308,139.711"/>
<g>
	<defs>
		<rect id="SVGID_5_" x="432.688" y="6.486" width="997.175" height="1425.03"/>
	</defs>
	<clipPath id="SVGID_6_">
		<use xlink:href="#SVGID_5_"  overflow="visible"/>
	</clipPath>
	<path clip-path="url(#SVGID_6_)" fill="#231F20" d="M711.171,725.227"/>
</g>
<path fill="none" stroke="#231F20" d="M711.171,725.227"/>
<g>
	<defs>
		<rect id="SVGID_7_" x="432.688" y="6.486" width="997.175" height="1425.03"/>
	</defs>
	<clipPath id="SVGID_8_">
		<use xlink:href="#SVGID_7_"  overflow="visible"/>
	</clipPath>
	<path clip-path="url(#SVGID_8_)" fill="#231F20" d="M711.171,725.227"/>
</g>
<path fill="none" stroke="#231F20" d="M711.171,725.227"/>
<g>
	<defs>
		<rect id="SVGID_9_" x="432.688" y="6.486" width="997.175" height="1425.03"/>
	</defs>
	<clipPath id="SVGID_10_">
		<use xlink:href="#SVGID_9_"  overflow="visible"/>
	</clipPath>
	<g clip-path="url(#SVGID_10_)">
		<defs>
			<rect id="SVGID_11_" x="530.82" y="6" width="882.111" height="1360.398"/>
		</defs>
		<clipPath id="SVGID_12_">
			<use xlink:href="#SVGID_11_"  overflow="visible"/>
		</clipPath>
		<path clip-path="url(#SVGID_12_)" fill="#231F20" d="M706.662,724.957"/>
	</g>
	<path clip-path="url(#SVGID_10_)" fill="none" stroke="#231F20" d="M706.662,724.957"/>
	<g clip-path="url(#SVGID_10_)">
		<defs>
			<rect id="SVGID_13_" x="530.82" y="6" width="882.111" height="1360.398"/>
		</defs>
		<clipPath id="SVGID_14_">
			<use xlink:href="#SVGID_13_"  overflow="visible"/>
		</clipPath>
		<path clip-path="url(#SVGID_14_)" fill="#231F20" d="M706.662,724.957"/>
	</g>
	<path clip-path="url(#SVGID_10_)" fill="none" stroke="#231F20" d="M706.662,724.957"/>
	<g clip-path="url(#SVGID_10_)">
		<defs>
			<rect id="SVGID_15_" x="535.32" y="6.486" width="882.111" height="1360.399"/>
		</defs>
		<clipPath id="SVGID_16_">
			<use xlink:href="#SVGID_15_"  overflow="visible"/>
		</clipPath>
		<path clip-path="url(#SVGID_16_)" fill="#0000FF" d="M750.674,1029.729l-1.814,0.234c-0.132-1.254,0.324-1.705,1.596-1.93
			l-0.238-1.846c-2.824,0.395-3.767,1.756-3.446,4.227l0.442,3.422l3.926-0.508L750.674,1029.729z M757.898,1028.719l-1.812,0.258
			c-0.146-1.252,0.303-1.709,1.571-1.951l-0.261-1.84c-2.818,0.43-3.744,1.805-3.393,4.27l0.484,3.416l3.921-0.559L757.898,1028.719
			z M763.623,1031.504l11.221-2.178c-0.506-3.08-0.791-8.006-0.816-10.66l-3.645,0.434c-0.395,1.115-1.266,2.141-2.914,2.459
			c-2.15,0.418-3.685-0.873-4.073-2.875c-0.423-2.18,0.639-3.793,2.729-4.199c2.297-0.445,3.809,0.729,4.244,2.967l3.645-0.432
			c-0.666-4.211-3.754-6.424-8.437-5.514c-4.063,0.789-6.423,3.906-5.651,7.881c0.681,3.504,3.379,5.914,7.649,5.086
			c1.854-0.359,2.991-1.283,3.606-2.199c-0.016,0.859,0.141,3.396,0.289,4.316l-8.482,1.645L763.623,1031.504z M786.125,1023.309
			l-1.998-7.664l6.154-1.605L786.125,1023.309z M783.387,1027.432l4.385-1.143l5.736-12.719l-0.879-3.367l-9.289,2.422l-1.15-4.412
			l-3.57,0.93l1.15,4.414l-2.787,0.727l0.787,3.018l2.787-0.725L783.387,1027.432z M800.193,1019.059l-1.752,0.529
			c-0.334-1.215,0.041-1.736,1.258-2.166l-0.537-1.781c-2.719,0.854-3.428,2.352-2.707,4.734l0.996,3.303l3.791-1.143
			L800.193,1019.059z M810.742,1013.943l-3.361,1.109l-4.264-12.936l-3.561,1.172l5.934,18.008l2.621-0.863
			c0.037-2.096,0.895-3.328,3.4-4.152L810.742,1013.943z M843.057,1002.67l-3.35,1.545l1.469,3.188l3.352-1.545L843.057,1002.67z
			 M842.1,1000.734l-5.535-12.016l-3.271,1.506l5.537,12.016L842.1,1000.734z M848.385,994.648l2.49-10.344l-1.113-2.195
			l-10.273,5.211l1.209,2.383l6.42-3.258l-2.596,10.398l1.111,2.195l9.953-5.047l-1.207-2.383L848.385,994.648z M864.303,981.9
			c1.125,1.912,0.873,3.732-0.705,4.66c-1.525,0.896-2.816,0.299-3.852-1.459l-3.816-6.492l-3.104,1.826l4.182,7.111
			c1.49,2.535,3.82,3.949,6.871,2.154c1.707-1.004,2.637-2.734,2.445-4.361l1.096,1.861l3.104-1.824l-6.707-11.404l-3.104,1.824
			L864.303,981.9z M879.322,973.4c0.629,1.561,0.543,3.232-1.111,4.318c-1.68,1.104-3.266,0.385-4.205-0.828L879.322,973.4z
			 M871.752,974.389c-0.398-1.533,0.068-2.738,1.547-3.709c1.629-1.07,3.666-0.758,4.838,0.807l-8.301,5.451l0.709,1.078
			c1.977,3.01,5.479,4.299,9.09,1.926c3.311-2.174,4.145-6.311,1.855-9.797c-2.289-3.484-6.18-4.053-9.59-1.812
			c-2.832,1.861-3.783,4.566-2.746,7.402L871.752,974.389z M894.822,965.773c1.439,0.939,3.162,1.016,5.018-0.41
			c1.594-1.225,2.162-2.947,1.773-4.539l1.314,1.713l2.855-2.193l-8.059-10.492l-2.855,2.193l4.312,5.615
			c1.354,1.76,1.396,3.543,0.018,4.602c-1.381,1.061-2.617,0.535-3.859-1.084l-4.586-5.971l-2.855,2.191l4.312,5.615
			c1.354,1.762,1.396,3.543,0.018,4.604c-1.404,1.076-2.617,0.533-3.859-1.084l-4.586-5.973l-2.855,2.193l5.025,6.543
			c1.754,2.283,4.156,3.541,6.988,1.365C894.654,969.346,895.203,967.451,894.822,965.773 M907.242,952.666
			c2.314,2.598,5.074,2.309,7.625,0.033c2.621-2.336,2.908-5.123,1.447-7.439l-2.641,1.953c0.635,1.162,0.629,2.373-0.492,3.371
			c-1.141,1.018-2.322,0.865-3.301-0.232l-0.199-0.223l2.23-2.953c1.84-2.445,2.664-4.586,0.988-6.467
			c-1.52-1.703-3.691-1.615-5.75,0.223c-1.457,1.297-2.262,3.1-1.803,4.74c-1.203-0.855-2.5-0.865-3.619,0.133
			c-0.896,0.799-1.174,1.57-1.301,2.285l1.279,1.432c0.17-0.393,0.379-0.699,0.648-0.939c0.426-0.379,0.914-0.373,1.373,0.143
			L907.242,952.666z M908.025,948.27c-1.418-1.59-1.303-3.623,0.109-4.881c0.852-0.758,1.725-0.814,2.324-0.143
			c0.879,0.984,0.23,1.926-0.715,3.211l-1.5,2.059L908.025,948.27z M912.098,936.906l13.496,1.611l0.357,11.264l3.086-3.109
			l-0.377-11.75l6.064,6.027l2.643-2.662l-13.408-13.32l-2.643,2.66l4.447,4.42l0.053,2.799l-10.547-1.131L912.098,936.906z
			 M939.977,913.344l0.098,2.08l-7.459-0.305l-2.643,3.148l9.943,0.471l0.33,7.869l2.795-3.332l-0.445-7.732l8.414,7.055
			l2.312-2.758l-14.48-12.145l-2.312,2.758L939.977,913.344z M954.275,898.15c-3.375-2.502-7.324-1.809-9.754,1.469
			c-2.342,3.156-1.557,6.428,0.818,8.562l2.023-2.271c-1.455-1.414-1.807-3.057-0.625-4.646c1.178-1.592,3.182-1.824,5.375-0.197
			c2.215,1.645,2.574,3.629,1.395,5.219s-2.828,1.748-4.58,0.787l-1.635,2.559c2.732,1.652,6.092,1.455,8.432-1.703
			C958.156,904.65,957.648,900.652,954.275,898.15 M965.469,897.326l-2.09,3.041l2.893,1.988l2.09-3.041L965.469,897.326z
			 M963.656,896.152l-10.904-7.494l-2.039,2.965l10.902,7.496L963.656,896.152z M965.848,881.371
			c1.889,1.168,2.512,2.895,1.549,4.451c-0.934,1.506-2.354,1.576-4.088,0.504l-6.402-3.967l-1.896,3.061l7.016,4.344
			c2.498,1.549,5.219,1.717,7.082-1.293c1.043-1.684,1.061-3.648,0.133-5l1.836,1.137l1.896-3.059l-11.248-6.967l-1.895,3.059
			L965.848,881.371z M974.346,866.613c1.941,1.078,2.646,2.773,1.76,4.373c-0.861,1.549-2.277,1.688-4.061,0.697l-6.582-3.654
			l-1.748,3.146l7.213,4.004c2.57,1.428,5.293,1.465,7.014-1.629c0.961-1.73,0.885-3.695-0.107-5l1.889,1.047l1.748-3.146
			l-11.566-6.422l-1.748,3.146L974.346,866.613z M979.771,859.207c3.137,1.506,5.57,0.178,7.051-2.906
			c1.518-3.166,0.709-5.848-1.531-7.422l-1.686,2.818c1.033,0.828,1.494,1.947,0.846,3.301c-0.662,1.379-1.811,1.693-3.135,1.057
			l-0.271-0.129l0.92-3.584c0.758-2.965,0.693-5.258-1.58-6.348c-2.055-0.986-4.025-0.068-5.219,2.42
			c-0.844,1.758-0.893,3.73,0.164,5.068c-1.441-0.324-2.641,0.164-3.291,1.518c-0.518,1.082-0.477,1.9-0.318,2.607l1.73,0.832
			c0.006-0.43,0.082-0.793,0.238-1.117c0.244-0.516,0.697-0.697,1.32-0.398L979.771,859.207z M978.801,854.85
			c-1.922-0.922-2.598-2.844-1.779-4.547c0.492-1.029,1.277-1.416,2.09-1.027c1.189,0.57,0.953,1.688,0.576,3.238l-0.59,2.479
			L978.801,854.85z M990.828,840.611l9.355-1.723l1.574-3.861l-13.514,2.391l-6.75-2.754l-1.383,3.389l6.75,2.754l7.982,11.164
			l1.531-3.75L990.828,840.611z M996.736,812.904c2.119,0.662,3.152,2.182,2.605,3.928c-0.529,1.689-1.887,2.113-3.834,1.504
			l-7.186-2.25l-1.076,3.436l7.873,2.465c2.807,0.879,5.48,0.363,6.539-3.016c0.592-1.889,0.121-3.797-1.115-4.875l7.473,2.34
			l1.076-3.436l-18.037-5.646l-1.076,3.436L996.736,812.904z M997.047,798.041c-2.729-0.711-4.031,0.717-4.545,2.689
			c-0.408,1.568-0.273,2.721,0.18,3.83l2.293,0.598c-0.15-0.846-0.223-1.639-0.041-2.336c0.271-1.045,0.895-1.41,1.996-1.121
			l6.33,1.648l-0.908,3.484l2.439,0.635l0.908-3.484l3.541,0.924l0.553-2.119l-1.637-0.859c-1.115-0.602-1.662-1.117-1.541-2.418
			l0.082-0.908l-2.061-0.537l-0.477,1.828L997.047,798.041z M1010.613,793.104l-0.844,3.594l3.418,0.801l0.844-3.592
			L1010.613,793.104z M1008.498,792.668l-12.881-3.025l-0.822,3.504l12.879,3.025L1008.498,792.668z M1010.893,781.018l0.527-2.859
			l-8.24-3.957l0.021-0.119l9.174-1.117l0.646-3.512l-13.771,1.736l-0.635,3.451l8.15,3.941l-0.021,0.117l-9.021,0.779l-0.629,3.424
			l12.25,6.525l0.594-3.217l-8.182-4.281l0.023-0.117L1010.893,781.018z M994.457,737.094l-0.041-13.049l12.676-0.041l0.029,9.676
			l7.65-0.023l-0.029-9.676l11.625-0.035l0.039,12.898l7.65-0.023l-0.068-21.975l-47.25,0.148l0.068,22.124L994.457,737.094z
			 M1016.232,691.646c5.445-0.564,8.953-0.175,9.316,3.331c0.373,3.58-2.998,4.533-8.443,5.099l-4.252,0.44l0.938,9.027l1.939-0.201
			c11.264-1.169,18.391-5.151,17.377-14.923c-1.053-10.146-8.84-13.259-22.193-11.873l-6.715,0.696
			c-13.354,1.386-20.336,6.03-19.283,16.177c1.014,9.771,8.807,12.206,20.072,11.037l1.938-0.201l-0.936-9.026l-4.252,0.441
			c-5.445,0.565-8.939,0.324-9.311-3.257c-0.363-3.506,2.99-4.608,8.436-5.173L1016.232,691.646z M1014.682,663.27l0.062,0.293
			l-15.959,6.525l-1.369-6.609L1014.682,663.27z M1026.352,655.642l-48.307-0.25l1.736,8.372l10.383-0.161l1.904,9.181l-9.594,3.979
			l1.889,9.107l44.227-19.432L1026.352,655.642z M975.598,647.958l18.383-5.546l2.557,8.473l7.324-2.21l-2.557-8.472l12.205-3.684
			l3.445,11.416l7.324-2.209l-6.131-20.32l-45.236,13.648L975.598,647.958z M988.871,609.468l13.367-5.36l0.613,1.53
			c1.842,4.595,0.117,7.146-4.197,8.876c-4.873,1.954-7.326,1.079-9.168-3.515L988.871,609.468z M971.906,635.263
			c1.738-1.909,4.203-2.817,9.631-5.399c5.318-2.455,8.199-5.146,7.373-10.229c2.551,4.147,7.164,5.772,13.986,3.037
			c7.725-3.099,11.188-9.174,7.391-18.642l-4.496-11.207l-43.854,17.59l3.406,8.492l16.707-6.7l0.727,1.81
			c1.506,3.76-0.496,5.613-4.91,7.706c-5.387,2.484-7.768,3.601-9.396,4.981L971.906,635.263z M967.523,604.423l-6.049-11.563
			l11.232-5.873l4.484,8.572l6.777-3.545l-4.482-8.572l10.301-5.388l5.979,11.431l6.779-3.545l-10.184-19.473l-41.871,21.895
			l10.254,19.606L967.523,604.423z M945.281,579.843l33.098-21.741l4.984,7.586l6.393-4.201l-14.947-22.754l-6.393,4.2l4.857,7.397
			l-33.098,21.741L945.281,579.843z M947.82,544.245l-0.189-0.233l13.057-23.464l-5.373-6.651l-36.758,29.689l5.42,6.71
			l21.412-17.295l0.189,0.233l-14.156,26.28l4.432,5.485l36.756-29.69l-5.42-6.71L947.82,544.245z M943.287,501.004l-34.496,32.291
			l6.357,6.789l34.494-32.29L943.287,501.004z M901.84,492.629l9.254-11.032l1.266,1.06c3.793,3.181,3.475,6.243,0.486,9.806
			c-3.373,4.022-5.947,4.408-9.74,1.227L901.84,492.629z M899.053,523.378c0.633-2.504,2.377-4.467,5.945-9.305
			c3.531-4.675,4.801-8.406,1.674-12.497c4.207,2.452,9.039,1.709,13.762-3.922c5.352-6.379,5.537-13.369-2.277-19.924l-9.252-7.76
			l-30.365,36.202l7.01,5.88l11.568-13.791l1.494,1.253c3.104,2.603,2.211,5.183-0.691,9.111c-3.578,4.732-5.15,6.84-5.934,8.825
			L899.053,523.378z M879.416,497.451l-10.754-7.393l7.18-10.445l7.975,5.481l4.334-6.303l-7.975-5.482l6.586-9.579l10.631,7.308
			l4.334-6.304l-18.109-12.449l-26.768,38.936l18.232,12.534L879.416,497.451z M838.473,462.547l-1.281,2.376
			c-4.488,8.316-2.244,14.896,4.75,18.672c6.863,3.705,13.598,1.97,17.623-5.488c3.455-6.402,1.789-11.051-1.498-16.49l-2.479-4.407
			c-1.4-2.46-1.906-4.522-0.41-7.294c1.461-2.706,3.545-3.883,5.855-2.636c2.639,1.425,2.758,4.046,0.729,7.808l-1.318,2.442
			l7.193,3.883l1.283-2.376c4.311-7.985,2.834-14.408-4.361-18.291c-6.664-3.598-13.449-1.293-17.189,5.636
			c-3.74,6.93-1.709,11.692,0.965,16.373l2.256,4.031c1.617,3.003,2.631,4.914,1.027,7.884c-1.496,2.772-3.641,3.745-6.148,2.392
			c-2.771-1.497-3.012-4.524-1.09-8.088l1.355-2.508L838.473,462.547z M817.217,471.843c9.742,4.112,15.35-0.685,19.111-9.599
			l12.307-29.159l-8.773-3.704l-12.541,29.712c-2.014,4.768-3.881,7.073-7.129,5.702s-2.83-4.288-0.818-9.056l12.541-29.712
			l-8.775-3.704l-12.307,29.159C807.07,460.396,807.473,467.73,817.217,471.843 M793.311,454.15l-12.629-3.292l3.197-12.265
			l9.363,2.44l1.928-7.403l-9.361-2.44l2.932-11.249l12.482,3.254l1.932-7.403l-21.266-5.543l-11.918,45.723l21.41,5.58
			L793.311,454.15z M748.521,452.311l3.189-20.074l8.963,1.424l-3.189,20.074l9.186,1.459l7.414-46.665l-9.186-1.459l-3.023,19.036
			l-8.964-1.424l3.024-19.036l-9.184-1.459l-7.414,46.664L748.521,452.311z M729.344,450.378l1.846-39.557l9.064,0.423l0.357-7.642
			l-27.195-1.269l-0.357,7.642l8.841,0.413l-1.847,39.556L729.344,450.378z"/>
	</g>
</g>
</svg>
