<?xml version="1.0" encoding="utf-8"?>
<!-- Generator: Adobe Illustrator 16.0.4, SVG Export Plug-In . SVG Version: 6.00 Build 0)  -->
<!DOCTYPE svg PUBLIC "-//W3C//DTD SVG 1.1//EN" "http://www.w3.org/Graphics/SVG/1.1/DTD/svg11.dtd">
<svg version="1.1" id="Ebene_1" xmlns="http://www.w3.org/2000/svg" xmlns:xlink="http://www.w3.org/1999/xlink" x="0px" y="0px"
	 width="1440px" height="1440px" viewBox="0 0 1440 1440" enable-background="new 0 0 1440 1440" xml:space="preserve">
<g>
	<defs>
		<rect id="SVGID_1_" x="430.831" y="12.971" width="997.169" height="1425.029"/>
	</defs>
	<clipPath id="SVGID_2_">
		<use xlink:href="#SVGID_1_"  overflow="visible"/>
	</clipPath>
	<path clip-path="url(#SVGID_2_)" fill="#231F20" d="M794.308,131.711"/>
</g>
<path fill="none" stroke="#231F20" d="M794.308,131.711"/>
<g>
	<defs>
		<rect id="SVGID_3_" x="430.831" y="12.971" width="997.169" height="1425.029"/>
	</defs>
	<clipPath id="SVGID_4_">
		<use xlink:href="#SVGID_3_"  overflow="visible"/>
	</clipPath>
	<path clip-path="url(#SVGID_4_)" fill="#231F20" d="M793.308,139.711"/>
</g>
<path fill="none" stroke="#231F20" d="M793.308,139.711"/>
<g>
	<defs>
		<rect id="SVGID_5_" x="432.688" y="6.486" width="997.175" height="1425.03"/>
	</defs>
	<clipPath id="SVGID_6_">
		<use xlink:href="#SVGID_5_"  overflow="visible"/>
	</clipPath>
	<path clip-path="url(#SVGID_6_)" fill="#231F20" d="M711.171,725.227"/>
</g>
<path fill="none" stroke="#231F20" d="M711.171,725.227"/>
<g>
	<defs>
		<rect id="SVGID_7_" x="432.688" y="6.486" width="997.175" height="1425.03"/>
	</defs>
	<clipPath id="SVGID_8_">
		<use xlink:href="#SVGID_7_"  overflow="visible"/>
	</clipPath>
	<path clip-path="url(#SVGID_8_)" fill="#231F20" d="M711.171,725.227"/>
</g>
<path fill="none" stroke="#231F20" d="M711.171,725.227"/>
<g>
	<defs>
		<rect id="SVGID_9_" x="432.688" y="6.486" width="997.175" height="1425.03"/>
	</defs>
	<clipPath id="SVGID_10_">
		<use xlink:href="#SVGID_9_"  overflow="visible"/>
	</clipPath>
	<g clip-path="url(#SVGID_10_)">
		<defs>
			<rect id="SVGID_11_" x="530.82" y="6" width="882.111" height="1360.398"/>
		</defs>
		<clipPath id="SVGID_12_">
			<use xlink:href="#SVGID_11_"  overflow="visible"/>
		</clipPath>
		<path clip-path="url(#SVGID_12_)" fill="#231F20" d="M706.662,724.957"/>
	</g>
	<path clip-path="url(#SVGID_10_)" fill="none" stroke="#231F20" d="M706.662,724.957"/>
	<g clip-path="url(#SVGID_10_)">
		<defs>
			<rect id="SVGID_13_" x="530.82" y="6" width="882.111" height="1360.398"/>
		</defs>
		<clipPath id="SVGID_14_">
			<use xlink:href="#SVGID_13_"  overflow="visible"/>
		</clipPath>
		<path clip-path="url(#SVGID_14_)" fill="#231F20" d="M706.662,724.957"/>
	</g>
	<path clip-path="url(#SVGID_10_)" fill="none" stroke="#231F20" d="M706.662,724.957"/>
	<g clip-path="url(#SVGID_10_)">
		<defs>
			<rect id="SVGID_15_" x="535.32" y="6.486" width="882.111" height="1360.399"/>
		</defs>
		<clipPath id="SVGID_16_">
			<use xlink:href="#SVGID_15_"  overflow="visible"/>
		</clipPath>
		<path clip-path="url(#SVGID_16_)" fill="#0000FF" d="M590.741,934.061l-1.573-0.932c0.666-1.07,1.305-1.146,2.444-0.539
			l0.948-1.602c-2.469-1.426-4.051-0.934-5.318,1.209l-1.758,2.969l3.408,2.018L590.741,934.061z M597.758,937.945l-1.607-0.875
			c0.629-1.092,1.263-1.191,2.425-0.627l0.89-1.633c-2.518-1.338-4.08-0.789-5.271,1.398l-1.65,3.029l3.479,1.895L597.758,937.945z
			 M614.699,928.971c-4.236-1.99-7.627-1.262-9.042,1.752c-1.034,2.199-0.254,4.422,1.388,5.723
			c-2.084-0.15-3.688,0.654-4.619,2.637c-1.39,2.961,0.349,5.965,3.933,7.646c3.585,1.686,7.006,1.104,8.396-1.855
			c0.932-1.982,0.526-3.73-0.92-5.238c2.077,0.445,4.258-0.387,5.291-2.586C620.541,934.033,618.963,930.973,614.699,928.971
			 M611.026,936.791c-2.091-0.982-2.865-2.439-2.062-4.15c0.791-1.684,2.444-2.1,4.535-1.117c2.092,0.982,2.827,2.521,2.036,4.203
			C614.733,937.438,613.117,937.773,611.026,936.791 M607.532,944.23c-1.737-0.814-2.471-2.221-1.667-3.932
			c0.74-1.574,2.288-1.908,4.025-1.092c1.685,0.791,2.416,2.195,1.677,3.771C610.764,944.688,609.215,945.021,607.532,944.23
			 M626.067,940.17c0.636-1.652,2.258-2.023,3.994-1.355c2.155,0.83,3.097,2.479,2.307,4.777l3.39,1.467
			c1.51-3.92-0.213-7.379-4.607-9.072c-4.004-1.541-7.362-0.584-8.559,2.523c-0.862,2.24-0.021,4.396,2.078,5.623
			c-1.766-0.422-3.972,0.463-4.812,2.646c-1.175,3.053,0.295,5.996,4.325,7.551c4.173,1.605,7.759-0.197,9.16-3.836l-3.334-1.443
			c-0.873,2.266-2.608,3.27-4.652,2.482c-1.932-0.742-2.475-2.174-1.871-3.742c0.689-1.791,2.293-1.945,3.777-1.375
			c0.644,0.248,1.176,0.453,1.518,0.648l1.014-2.631c-0.498-0.127-1.013-0.293-1.545-0.498
			C626.43,943.234,625.422,941.85,626.067,940.17 M640.23,955.643l-1.744-0.555c0.411-1.191,1.016-1.408,2.262-1.074l0.564-1.773
			c-2.725-0.836-4.156,0-4.91,2.373l-1.045,3.289l3.773,1.199L640.23,955.643z M655.203,947.303l-3.516,1.547
			c-3.34,1.473-6.149,2.93-7.004,6.148c-0.864,3.246,0.677,6.326,5.025,7.482c4.03,1.07,7.383-0.678,8.399-4.504
			c0.146-0.551,0.213-1.154,0.252-1.764l-3.558-1.102c0.015,0.531-0.059,1.039-0.221,1.648c-0.562,2.117-1.947,3.238-3.977,2.699
			c-1.971-0.525-2.518-1.975-2.07-3.654c0.585-2.205,2.536-3.238,6.01-4.859l6.221-2.848l0.646-2.436l-13.771-3.66l-0.816,3.072
			L655.203,947.303z M692.186,958.832c-0.229,3.473,1.908,5.236,5.322,5.463c3.502,0.23,5.691-1.52,6.318-4.184l-3.242-0.514
			c-0.385,1.266-1.252,2.111-2.75,2.012c-1.525-0.1-2.244-1.049-2.148-2.516l0.02-0.299l3.67-0.48
			c3.033-0.4,5.139-1.314,5.305-3.828c0.149-2.275-1.437-3.764-4.19-3.945c-1.944-0.127-3.795,0.561-4.644,2.039
			c-0.234-1.459-1.135-2.391-2.633-2.488c-1.197-0.08-1.94,0.262-2.539,0.674l-0.127,1.916c0.401-0.154,0.767-0.221,1.125-0.197
			c0.569,0.037,0.906,0.391,0.861,1.078L692.186,958.832z M695.869,956.309c0.141-2.125,1.672-3.467,3.559-3.342
			c1.138,0.074,1.791,0.66,1.73,1.557c-0.087,1.318-1.212,1.514-2.79,1.74l-2.521,0.375L695.869,956.309z M713.487,960.148
			c-0.03-1.527,0.883-2.357,2.263-2.385c1.35-0.027,2.295,0.764,2.326,2.293s-0.882,2.359-2.232,2.385
			C714.465,962.471,713.519,961.68,713.487,960.148 M719.426,949.617c0.02,0.961-0.752,1.365-1.713,1.385l-4.408,0.09
			c-1.2,0.023-1.926-0.291-1.944-1.162c-0.026-1.289,1.881-1.928,4.521-1.982C718.01,947.904,719.401,948.418,719.426,949.617
			 M709.828,960.223c0.016,0.75,0.239,1.436,0.61,1.998c-0.685,0.254-1.552,0.393-2.272,0.406l0.059,2.881
			c1.439-0.029,2.742-0.896,3.471-1.961c1.096,0.727,2.604,1.117,4.223,1.084c3.48-0.07,5.935-1.83,5.877-4.65
			c-0.029-1.438-0.742-2.594-1.897-3.352c1.28-0.535,2.101-1.453,2.077-2.652c-0.022-1.08-0.672-2.027-1.879-2.393
			c1.556-0.242,2.615-1.223,2.588-2.572c-0.049-2.459-3.188-3.326-6.846-3.252c-4.11,0.082-7.922,1.539-7.854,4.84
			c0.043,2.129,1.575,3.689,4.514,3.629l5.279-0.107c0.989-0.02,1.388,0.361,1.399,0.963c0.008,0.42-0.194,0.754-0.521,0.971
			c-0.847-0.314-1.839-0.443-2.919-0.422C712.258,955.703,709.772,957.465,709.828,960.223 M731.588,959.258
			c-0.144-1.523,0.705-2.418,2.08-2.549c1.344-0.127,2.346,0.592,2.49,2.113c0.145,1.523-0.705,2.418-2.049,2.547
			C732.736,961.5,731.733,960.781,731.588,959.258 M736.727,948.312c0.091,0.955-0.649,1.418-1.604,1.508l-4.391,0.418
			c-1.194,0.113-1.942-0.146-2.024-1.014c-0.123-1.283,1.732-2.062,4.36-2.312C735.188,946.711,736.613,947.119,736.727,948.312
			 M727.945,959.604c0.07,0.746,0.346,1.414,0.758,1.947c-0.665,0.305-1.52,0.506-2.236,0.574l0.272,2.867
			c1.435-0.137,2.668-1.098,3.315-2.215c1.146,0.646,2.68,0.922,4.293,0.77c3.464-0.33,5.781-2.268,5.514-5.076
			c-0.137-1.432-0.934-2.533-2.143-3.201c1.236-0.629,1.988-1.605,1.873-2.799c-0.102-1.076-0.819-1.973-2.051-2.246
			c1.533-0.357,2.518-1.416,2.389-2.76c-0.231-2.449-3.426-3.078-7.069-2.732c-4.092,0.389-7.784,2.125-7.472,5.41
			c0.201,2.121,1.846,3.562,4.771,3.283l5.258-0.498c0.984-0.094,1.409,0.258,1.467,0.854c0.039,0.418-0.139,0.768-0.447,1.008
			c-0.867-0.248-1.867-0.305-2.942-0.203C730.031,954.916,727.684,956.855,727.945,959.604 M746.024,956.996
			c0.588,3.428,3.08,4.645,6.45,4.066c3.459-0.594,5.181-2.805,5.168-5.543l-3.274,0.258c-0.077,1.322-0.723,2.346-2.202,2.6
			c-1.508,0.258-2.429-0.496-2.677-1.945l-0.051-0.297l3.456-1.322c2.855-1.1,4.689-2.479,4.263-4.963
			c-0.386-2.246-2.274-3.322-4.995-2.855c-1.922,0.328-3.559,1.432-4.04,3.066c-0.569-1.363-1.661-2.059-3.14-1.805
			c-1.184,0.203-1.827,0.709-2.312,1.248l0.324,1.893c0.354-0.244,0.694-0.393,1.049-0.455c0.562-0.096,0.973,0.17,1.09,0.85
			L746.024,956.996z M749.018,953.682c-0.36-2.1,0.816-3.762,2.679-4.082c1.123-0.193,1.896,0.223,2.047,1.109
			c0.224,1.301-0.825,1.756-2.307,2.344l-2.363,0.953L749.018,953.682z M771.166,956.613l2.814-0.74l0.068-9.143l0.117-0.029
			l4.918,7.822l3.453-0.91l-7.438-11.721l-3.395,0.896l-0.092,9.053l-0.115,0.031l-4.55-7.828l-3.364,0.889l-0.685,13.863
			l3.162-0.834l0.388-9.227l0.116-0.029L771.166,956.613z M793.609,943.045c0.754,2.088,0.172,3.83-1.551,4.451
			c-1.664,0.602-2.822-0.225-3.516-2.143l-2.559-7.082l-3.387,1.223l2.803,7.76c1,2.764,3.027,4.584,6.357,3.381
			c1.863-0.672,3.096-2.203,3.207-3.838l2.66,7.365l3.385-1.225l-6.42-17.775l-3.387,1.223L793.609,943.045z M813.502,934.02
			c-1.721-3.83-5.508-5.154-9.229-3.48c-3.584,1.611-4.496,4.85-3.467,7.873l2.875-0.996c-0.578-1.943-0.082-3.549,1.725-4.361
			c1.805-0.811,3.666-0.037,4.787,2.453c1.131,2.518,0.475,4.424-1.33,5.236c-1.807,0.812-3.324,0.145-4.381-1.551l-2.678,1.436
			c1.578,2.777,4.605,4.244,8.189,2.633C813.715,941.588,815.225,937.85,813.502,934.02 M831.592,924.293
			c-2.229-3.979-6.521-4.461-10.762-2.084c-3.717,2.082-5.533,5.404-3.715,8.65c1.496,2.668,3.879,3.363,7.461,2.146l3.344-1.152
			c1.654-0.549,2.752-0.613,3.426,0.59c0.793,1.414,0.178,2.893-1.76,3.979c-2.25,1.262-4.375,0.906-5.742-1.287l-2.949,1.791
			c2.104,3.635,5.785,4.496,10.104,2.076c3.846-2.156,5.166-5.51,3.436-8.598c-1.525-2.723-4.098-3.139-6.926-2.172l-3.463,1.186
			c-1.918,0.627-3.178,0.713-3.881-0.543c-0.777-1.387,0.076-2.932,2.117-4.076c2.303-1.291,4.807-1.18,6.375,1.311L831.592,924.293
			z M849.246,909.561c-2.055-2.516-5.078-2.23-7.904-0.252c-2.801,1.961-3.857,4.531-2.309,6.744
			c1.428,2.039,3.451,2.051,5.994,0.82l2.305-1.102c0.873-0.428,1.508-0.359,1.92,0.23c0.518,0.736,0.156,1.686-0.902,2.426
			c-1.547,1.084-2.812,1.055-3.869-0.037l-2.365,1.803c1.883,2.271,4.623,2.365,7.623,0.268c2.752-1.928,3.498-4.574,2.053-6.639
			c-1.412-2.016-3.291-1.98-5.859-0.732l-1.928,0.91c-1.201,0.586-1.916,0.609-2.432-0.127c-0.551-0.787,0.076-1.775,1.158-2.533
			c1.498-1.049,2.945-1.074,4.029,0.107L849.246,909.561z M862.273,913.234l-2.887,2.299l2.188,2.744l2.885-2.299L862.273,913.234z
			 M860.879,911.582l-8.244-10.348l-2.814,2.244l8.244,10.346L860.879,911.582z M863.617,909.152
			c0.512-0.002,1.148-0.273,1.764-0.801c1.389-1.193,1.535-3.139,0.922-4.59l1.643,1.912l2.729-2.346l-8.621-10.035l-2.73,2.346
			l4.262,4.961c1.564,1.82,1.469,3.641,0.059,4.855c-0.66,0.566-1.232,0.82-2.01,0.975L863.617,909.152z M877.205,888.52
			c1.566,1.574,1.775,3.398,0.479,4.689c-1.254,1.25-2.654,0.99-4.094-0.453l-5.312-5.336l-2.553,2.539l5.822,5.846
			c2.074,2.084,4.684,2.875,7.191,0.377c1.402-1.398,1.873-3.305,1.283-4.834l5.523,5.549l2.551-2.541l-13.336-13.393l-2.551,2.541
			L877.205,888.52z M897.055,869.678c-4.439-3.76-10.141-3.201-13.611,0.896c-3.605,4.26-2.947,8.865,0.504,12.219l2.439-2.65
			c-1.977-2.029-2.654-4.803-0.426-7.436c2.172-2.564,5.529-2.631,8.574-0.053s3.535,5.902,1.363,8.467
			c-2.229,2.633-5.078,2.422-7.404,0.805l-2.211,2.846c3.852,2.83,8.529,2.74,12.133-1.52
			C901.887,879.154,901.498,873.439,897.055,869.678 M907.318,850.639c1.854,1.221,2.43,2.965,1.424,4.494
			c-0.975,1.479-2.396,1.512-4.102,0.389l-6.287-4.141l-1.98,3.006l6.889,4.539c2.457,1.617,5.17,1.857,7.117-1.098
			c1.09-1.654,1.162-3.617,0.271-4.994l6.539,4.307l1.98-3.006l-15.785-10.396l-1.979,3.008L907.318,850.639z M912.002,835.385
			c-2.459-1.379-4.08-0.326-5.078,1.453c-0.791,1.414-0.953,2.561-0.793,3.75l2.066,1.158c0.068-0.855,0.199-1.643,0.551-2.271
			c0.527-0.941,1.223-1.137,2.217-0.58l5.705,3.197l-1.76,3.141l2.199,1.23l1.76-3.141l3.193,1.789l1.07-1.91l-1.365-1.246
			c-0.928-0.863-1.326-1.5-0.879-2.729l0.309-0.857l-1.859-1.041l-0.922,1.648L912.002,835.385z M926.752,833.148l-1.688,3.281
			l3.121,1.604l1.688-3.281L926.752,833.148z M924.803,832.213l-11.766-6.049l-1.646,3.201l11.766,6.051L924.803,832.213z
			 M930.348,820.279l1.143-2.676l-7.17-5.67l0.047-0.111l9.195,0.924l1.4-3.283l-13.814-1.33l-1.379,3.229l7.088,5.635l-0.047,0.109
			l-8.973-1.219l-1.365,3.201l10.52,9.055l1.285-3.008l-7.041-5.971l0.047-0.111L930.348,820.279z M943.779,759.002l14.209,2.34
			l-0.27,1.629c-0.805,4.883-3.602,6.172-8.189,5.416c-5.18-0.855-6.824-2.873-6.02-7.758L943.779,759.002z M915.9,772.268
			c2.477-0.73,5.055-0.23,11.037,0.375c5.82,0.656,9.678-0.152,11.605-4.928c0.033,4.871,3.135,8.65,10.387,9.846
			c8.215,1.354,14.324-2.049,15.982-12.113l1.963-11.914l-46.621-7.684l-1.488,9.029l17.762,2.926l-0.318,1.924
			c-0.658,3.996-3.332,4.545-8.191,4.047c-5.895-0.668-8.51-0.945-10.617-0.609L915.9,772.268z M928.029,743.336l0.379-13.043
			l12.67,0.369l-0.283,9.67l7.648,0.223l0.281-9.67l11.619,0.338l-0.375,12.895l7.646,0.223l0.641-21.965l-47.23-1.377
			l-0.645,22.116L928.029,743.336z M921.188,717.802l23.936-2.576l-1.357-12.602l-7.008,0.755l0.416,3.878l-0.895,0.096
			c-5.518,0.594-9.051-0.006-9.43-3.511c-0.377-3.505,2.941-4.918,8.459-5.512l15.139-1.629c5.441-0.587,8.961-0.136,9.346,3.443
			s-2.973,4.62-8.416,5.206l-2.609,0.281l0.971,9.022l1.045-0.111c11.26-1.212,17.602-5.366,16.543-15.208
			c-1.068-9.917-8.885-13.15-22.232-11.713l-6.711,0.723c-13.348,1.436-20.338,5.885-19.391,14.684
			c0.387,3.579,2.379,6.685,5.922,7.359l-4.393,1.227L921.188,717.802z M948.346,668.638l0.072,0.291l-15.676,7.174l-1.641-6.547
			L948.346,668.638z M959.693,660.538l-48.277,1.732l2.078,8.294l10.367-0.588l2.277,9.095l-9.42,4.37l2.262,9.021l43.391-21.23
			L959.693,660.538z M927.387,647.846l-0.113-0.279l23.758-14.066l-2.617-6.467l-26.826,6.49l-0.111-0.277l23.758-14.067
			l-3.322-8.203l-40.814,25.099l3.266,8.064l25.836-6.333l0.113,0.278l-22.938,13.493l3.264,8.064l46.781-10.361l-3.209-7.925
			L927.387,647.846z M890.732,587.781l-2.232,1.521c-7.807,5.323-8.838,12.199-4.361,18.768c4.395,6.444,11.172,7.996,18.174,3.223
			c6.012-4.098,6.668-8.994,6.248-15.334l-0.178-5.053c-0.111-2.828,0.387-4.894,2.99-6.668c2.539-1.731,4.932-1.819,6.41,0.35
			c1.689,2.479,0.592,4.861-2.941,7.27l-2.293,1.563l4.605,6.755l2.23-1.521c7.498-5.111,9.139-11.494,4.533-18.248
			c-4.268-6.26-11.352-7.33-17.857-2.895c-6.508,4.438-6.891,9.6-6.668,14.984l0.152,4.617c0.055,3.412,0.078,5.574-2.711,7.476
			c-2.602,1.774-4.953,1.653-6.559-0.701c-1.775-2.603-0.598-5.403,2.748-7.685l2.355-1.605L890.732,587.781z M877.137,596.439
			l17.869-16.133l-8.494-9.408l-5.232,4.725l2.615,2.895l-0.67,0.604c-4.119,3.719-7.334,5.307-9.695,2.69s-0.504-5.708,3.615-9.427
			l11.301-10.202c4.062-3.669,7.178-5.369,9.59-2.696c2.412,2.672,0.303,5.485-3.76,9.153l-1.949,1.759l6.082,6.736l0.779-0.703
			c8.406-7.589,11.104-14.673,4.471-22.022c-6.686-7.404-14.91-5.434-24.875,3.562l-5.01,4.522
			c-9.967,8.996-13.014,16.701-7.084,23.27c2.412,2.672,5.85,4.016,9.113,2.482l-2.838,3.572L877.137,596.439z M865.889,552.497
			l-0.229-0.194l8.42-25.497l-6.525-5.525l-30.531,36.06l6.584,5.573l17.785-21.006l0.229,0.194l-8.971,28.471l5.381,4.555
			l30.531-36.06l-6.582-5.573L865.889,552.497z M851.627,510.365l-26.457,39.148l7.705,5.207l26.457-39.148L851.627,510.365z
			 M825.447,549.028l5.096-27.543l17.373-14.023l-8.432-4.592l-18.402,15.598l10.762-19.759l-8.166-4.448l-22.6,41.495l8.166,4.448
			l5.346-9.814l5.773-4.798l-3.479,18.773L825.447,549.028z M790.434,522.844l-12.389-4.101l3.984-12.033l9.186,3.041l2.404-7.262
			l-9.186-3.041l3.654-11.036l12.246,4.055l2.406-7.263l-20.863-6.907l-14.851,44.855l21.003,6.955L790.434,522.844z
			 M745.735,518.641l3.789-19.968l8.916,1.692l-3.79,19.969l9.137,1.733l8.811-46.421l-9.137-1.734l-3.595,18.937l-8.915-1.692
			l3.594-18.937l-9.138-1.734l-8.81,46.422L745.735,518.641z M728.1,516.409l2.123-39.543l9.062,0.487l0.411-7.639l-27.187-1.461
			l-0.41,7.639l8.838,0.475l-2.125,39.543L728.1,516.409z"/>
	</g>
</g>
</svg>
