<?xml version="1.0" encoding="utf-8"?>
<!-- Generator: Adobe Illustrator 16.0.4, SVG Export Plug-In . SVG Version: 6.00 Build 0)  -->
<!DOCTYPE svg PUBLIC "-//W3C//DTD SVG 1.1//EN" "http://www.w3.org/Graphics/SVG/1.1/DTD/svg11.dtd">
<svg version="1.1" id="Ebene_1" xmlns="http://www.w3.org/2000/svg" xmlns:xlink="http://www.w3.org/1999/xlink" x="0px" y="0px"
	 width="1440px" height="1440px" viewBox="0 0 1440 1440" enable-background="new 0 0 1440 1440" xml:space="preserve">
<g>
	<defs>
		<rect id="SVGID_1_" x="430.831" y="12.971" width="997.169" height="1425.029"/>
	</defs>
	<clipPath id="SVGID_2_">
		<use xlink:href="#SVGID_1_"  overflow="visible"/>
	</clipPath>
	<path clip-path="url(#SVGID_2_)" fill="#231F20" d="M794.308,131.711"/>
</g>
<path fill="none" stroke="#231F20" d="M794.308,131.711"/>
<g>
	<defs>
		<rect id="SVGID_3_" x="430.831" y="12.971" width="997.169" height="1425.029"/>
	</defs>
	<clipPath id="SVGID_4_">
		<use xlink:href="#SVGID_3_"  overflow="visible"/>
	</clipPath>
	<path clip-path="url(#SVGID_4_)" fill="#231F20" d="M793.308,139.711"/>
</g>
<path fill="none" stroke="#231F20" d="M793.308,139.711"/>
<g>
	<defs>
		<rect id="SVGID_5_" x="432.688" y="6.486" width="997.175" height="1425.03"/>
	</defs>
	<clipPath id="SVGID_6_">
		<use xlink:href="#SVGID_5_"  overflow="visible"/>
	</clipPath>
	<path clip-path="url(#SVGID_6_)" fill="#231F20" d="M711.171,725.227"/>
</g>
<path fill="none" stroke="#231F20" d="M711.171,725.227"/>
<g>
	<defs>
		<rect id="SVGID_7_" x="432.688" y="6.486" width="997.175" height="1425.03"/>
	</defs>
	<clipPath id="SVGID_8_">
		<use xlink:href="#SVGID_7_"  overflow="visible"/>
	</clipPath>
	<path clip-path="url(#SVGID_8_)" fill="#231F20" d="M711.171,725.227"/>
</g>
<path fill="none" stroke="#231F20" d="M711.171,725.227"/>
<g>
	<defs>
		<rect id="SVGID_9_" x="432.688" y="6.486" width="997.175" height="1425.03"/>
	</defs>
	<clipPath id="SVGID_10_">
		<use xlink:href="#SVGID_9_"  overflow="visible"/>
	</clipPath>
	<g clip-path="url(#SVGID_10_)">
		<defs>
			<rect id="SVGID_11_" x="530.82" y="6" width="882.111" height="1360.398"/>
		</defs>
		<clipPath id="SVGID_12_">
			<use xlink:href="#SVGID_11_"  overflow="visible"/>
		</clipPath>
		<path clip-path="url(#SVGID_12_)" fill="#231F20" d="M706.662,724.957"/>
	</g>
	<path clip-path="url(#SVGID_10_)" fill="none" stroke="#231F20" d="M706.662,724.957"/>
	<g clip-path="url(#SVGID_10_)">
		<defs>
			<rect id="SVGID_13_" x="530.82" y="6" width="882.111" height="1360.398"/>
		</defs>
		<clipPath id="SVGID_14_">
			<use xlink:href="#SVGID_13_"  overflow="visible"/>
		</clipPath>
		<path clip-path="url(#SVGID_14_)" fill="#231F20" d="M706.662,724.957"/>
	</g>
	<path clip-path="url(#SVGID_10_)" fill="none" stroke="#231F20" d="M706.662,724.957"/>
	<path clip-path="url(#SVGID_10_)" fill="#0000FF" d="M543.243,688.782l0.413-1.783c1.221,0.314,1.486,0.899,1.253,2.169
		l1.812,0.422c0.615-2.783-0.332-4.143-2.758-4.705l-3.361-0.78l-0.895,3.856L543.243,688.782z M541.633,697.104l0.323-1.801
		c1.235,0.252,1.529,0.822,1.36,2.104l1.831,0.328c0.474-2.81-0.541-4.12-2.992-4.56l-3.396-0.609l-0.699,3.897L541.633,697.104z
		 M551.973,711.412l-2.082-3.229c-1.977-3.068-3.856-5.613-7.17-5.953c-3.342-0.343-6.142,1.662-6.601,6.138
		c-0.426,4.149,1.826,7.185,5.765,7.589c0.567,0.059,1.174,0.029,1.782-0.029l0.529-3.685c-0.522,0.098-1.036,0.105-1.662,0.041
		c-2.179-0.224-3.504-1.415-3.29-3.504c0.209-2.03,1.555-2.796,3.285-2.619c2.268,0.233,3.595,1.998,5.742,5.173l3.787,5.698
		l2.508,0.256l1.453-14.174l-3.162-0.325L551.973,711.412z M549.137,725.557c1.77-0.039,2.729,1.32,2.771,3.18
		c0.051,2.309-1.117,3.805-3.544,3.949l-0.068,3.691c4.198-0.092,6.745-2.998,6.641-7.707c-0.094-4.289-2.254-7.031-5.584-6.959
		c-2.398,0.053-4.073,1.648-4.411,4.057c-0.279-1.793-1.937-3.498-4.276-3.447c-3.27,0.072-5.436,2.551-5.341,6.869
		c0.099,4.469,3.127,7.104,7.026,7.018l0.07-3.633c-2.43,0.055-4.018-1.172-4.066-3.361c-0.045-2.068,1.072-3.113,2.753-3.15
		c1.919-0.041,2.671,1.381,2.706,2.971c0.015,0.691,0.027,1.26-0.024,1.652l2.819-0.062c-0.071-0.508-0.113-1.049-0.125-1.619
		C546.439,727.057,547.338,725.596,549.137,725.557 M540.426,745.334l-0.197-1.818c1.257-0.105,1.699,0.359,1.897,1.635l1.851-0.199
		c-0.338-2.832-1.68-3.803-4.155-3.535l-3.431,0.371l0.427,3.938L540.426,745.334z M541.594,755.484l7.791-1.424l1.144,6.256
		L541.594,755.484z M537.684,752.447l0.814,4.457l12.258,6.664l3.424-0.625l-1.727-9.443l4.486-0.82l-0.664-3.629l-4.485,0.818
		l-0.518-2.832l-3.069,0.561l0.518,2.834L537.684,752.447z M562.137,796.662c-3.086,1.609-3.483,4.354-1.903,7.387
		c1.622,3.111,4.255,4.074,6.856,3.227l-1.244-3.039c-1.283,0.33-2.455,0.027-3.148-1.303c-0.707-1.357-0.27-2.465,1.034-3.145
		l0.266-0.139l2.315,2.887c1.92,2.383,3.794,3.707,6.027,2.543c2.022-1.053,2.471-3.182,1.194-5.629
		c-0.901-1.729-2.451-2.951-4.153-2.91c1.123-0.957,1.451-2.211,0.758-3.541c-0.555-1.064-1.232-1.521-1.896-1.82l-1.702,0.889
		c0.34,0.262,0.586,0.539,0.752,0.859c0.264,0.506,0.137,0.977-0.475,1.295L562.137,796.662z M566.205,798.5
		c1.889-0.984,3.832-0.373,4.705,1.305c0.527,1.01,0.367,1.871-0.432,2.287c-1.17,0.609-1.922-0.248-2.937-1.48l-1.629-1.959
		L566.205,798.5z M579.95,818.943c2.587-1.965,2.407-4.996,0.528-7.891c-1.862-2.867-4.395-4.014-6.659-2.543
		c-2.088,1.355-2.171,3.377-1.029,5.961l1.021,2.344c0.396,0.887,0.306,1.518-0.299,1.91c-0.754,0.488-1.689,0.096-2.392-0.986
		c-1.03-1.586-0.956-2.85,0.171-3.867l-1.718-2.426c-2.335,1.801-2.526,4.537-0.533,7.607c1.83,2.818,4.449,3.656,6.563,2.283
		c2.062-1.338,2.094-3.219,0.936-5.828l-0.842-1.957c-0.543-1.223-0.542-1.938,0.213-2.428c0.805-0.523,1.77,0.139,2.489,1.244
		c0.997,1.535,0.971,2.982-0.248,4.025L579.95,818.943z M575.76,831.523l-2.228-2.943l-2.799,2.119l2.226,2.941L575.76,831.523z
		 M577.445,830.172l10.55-7.982l-2.172-2.871l-10.55,7.982L577.445,830.172z M578.676,840.555l14.359-12.291l-2.341-2.734
		l-14.358,12.289L578.676,840.555z M594.143,838.588c1.6-1.584,3.383-1.828,4.629-0.57c1.244,1.256,0.92,2.635-0.508,4.049
		l-5.371,5.32l2.533,2.557l5.883-5.826c2.089-2.068,2.928-4.59,0.457-7.084c-1.414-1.428-3.215-1.84-4.787-1.252l1.535-1.52
		l-2.535-2.559l-9.398,9.311l2.533,2.557L594.143,838.588z M609.559,858.592c-0.514,1.637-0.125,3.316,1.748,4.721
		c1.609,1.205,3.422,1.289,4.849,0.482l-1.295,1.73l2.881,2.158l7.933-10.588l-2.881-2.158l-4.244,5.666
		c-1.332,1.775-3.035,2.299-4.429,1.256c-1.392-1.043-1.219-2.377,0.004-4.008l4.515-6.027l-2.881-2.158l-4.244,5.666
		c-1.332,1.777-3.035,2.301-4.428,1.256c-1.416-1.061-1.219-2.375,0.004-4.008l4.516-6.025l-2.881-2.158l-4.947,6.602
		c-1.727,2.305-2.29,4.957,0.566,7.098C606.073,859.391,608.047,859.408,609.559,858.592 M627.04,867.578
		c-1.687,3.043-0.504,5.551,2.488,7.209c3.069,1.701,5.797,1.051,7.499-1.094l-2.715-1.846c-0.889,0.982-2.032,1.377-3.344,0.65
		c-1.34-0.74-1.586-1.906-0.873-3.191l0.146-0.264l3.524,1.129c2.914,0.93,5.207,1,6.43-1.205c1.104-1.994,0.304-4.016-2.111-5.354
		c-1.705-0.945-3.672-1.109-5.07-0.133c0.41-1.42-0.008-2.646-1.32-3.373c-1.051-0.582-1.868-0.59-2.585-0.471l-0.931,1.678
		c0.429,0.033,0.787,0.127,1.102,0.303c0.499,0.275,0.654,0.738,0.32,1.342L627.04,867.578z M631.448,866.865
		c1.032-1.863,2.989-2.426,4.642-1.51c0.998,0.553,1.34,1.359,0.903,2.146c-0.64,1.154-1.741,0.854-3.267,0.387l-2.438-0.734
		L631.448,866.865z M652.004,875.299l-1.953,0.717l-1.953-7.205l-3.797-1.572l2.541,9.625l-7.408,2.68l4.02,1.664l7.242-2.75
		l-4.2,10.146l3.326,1.377l7.229-17.463l-3.326-1.377L652.004,875.299z M663.723,881.135c0.619-2.164,2.054-3.25,3.756-2.764
		c1.701,0.486,2.093,1.846,1.539,3.779l-2.078,7.268l3.462,0.99l2.276-7.961c0.809-2.826,0.307-5.436-3.068-6.4
		c-1.932-0.553-3.704-0.029-4.789,1.252l0.594-2.076l-3.461-0.99l-3.638,12.719l3.461,0.99L663.723,881.135z M687.775,880.303
		l-6.561,14.102l-0.117-0.016l2.074-14.734l-3.744-0.527l-2.635,18.715l5.734,0.807l5.807-13.057l0.09,0.012l2.184,14.184
		l5.852,0.824l2.635-18.717l-3.445-0.484l-2.074,14.734l-0.119-0.018l-2.501-15.379L687.775,880.303z M712.065,890.619
		c0.118,3.479,2.423,5.02,5.841,4.902c3.508-0.119,5.512-2.08,5.87-4.793l-3.279-0.188c-0.255,1.299-1.034,2.227-2.532,2.277
		c-1.529,0.053-2.341-0.82-2.391-2.289l-0.01-0.301l3.603-0.844c2.978-0.701,4.98-1.82,4.894-4.34
		c-0.077-2.277-1.803-3.6-4.562-3.506c-1.947,0.066-3.72,0.938-4.417,2.492c-0.379-1.428-1.368-2.264-2.866-2.213
		c-1.201,0.041-1.906,0.457-2.461,0.926l0.066,1.918c0.383-0.191,0.74-0.295,1.1-0.307c0.569-0.021,0.941,0.297,0.965,0.986
		L712.065,890.619z M715.479,887.74c-0.073-2.129,1.316-3.617,3.205-3.682c1.141-0.039,1.849,0.477,1.879,1.377
		c0.046,1.318-1.055,1.627-2.602,2.01l-2.471,0.625L715.479,887.74z M734.908,883.668c-0.372-2.797-2.186-3.463-4.208-3.193
		c-1.606,0.213-2.621,0.771-3.478,1.611l0.312,2.35c0.727-0.459,1.434-0.826,2.146-0.92c1.072-0.143,1.645,0.295,1.795,1.426
		l0.861,6.482l-3.568,0.475l0.332,2.498l3.568-0.475l0.483,3.629l2.171-0.289l0.18-1.84c0.135-1.26,0.404-1.961,1.655-2.34
		l0.872-0.266l-0.28-2.113l-1.874,0.25L734.908,883.668z M741.932,887.719c0.75,3.396,3.295,4.494,6.636,3.758
		c3.428-0.756,5.042-3.047,4.899-5.781l-3.258,0.412c-0.015,1.324-0.611,2.377-2.076,2.701c-1.494,0.33-2.451-0.381-2.767-1.818
		l-0.065-0.293l3.391-1.484c2.8-1.232,4.566-2.695,4.023-5.156c-0.492-2.229-2.429-3.213-5.125-2.619
		c-1.904,0.42-3.486,1.6-3.89,3.254c-0.632-1.334-1.757-1.979-3.222-1.654c-1.172,0.258-1.791,0.795-2.252,1.357l0.414,1.875
		c0.343-0.26,0.675-0.426,1.026-0.504c0.556-0.123,0.979,0.123,1.128,0.797L741.932,887.719z M744.766,884.268
		c-0.459-2.08,0.637-3.797,2.482-4.205c1.113-0.244,1.903,0.135,2.098,1.014c0.283,1.289-0.742,1.791-2.194,2.449l-2.315,1.062
		L744.766,884.268z M767.367,880.133c0.215,1.67-0.292,3.266-2.168,3.898c-1.904,0.643-3.256-0.455-3.857-1.865L767.367,880.133z
		 M759.793,879.174c0.004-1.586,0.76-2.631,2.438-3.197c1.848-0.623,3.738,0.197,4.475,2.006l-9.408,3.172l0.411,1.223
		c1.15,3.412,4.212,5.545,8.306,4.164c3.752-1.264,5.609-5.057,4.277-9.008c-1.334-3.951-4.953-5.484-8.82-4.182
		c-3.211,1.084-4.815,3.461-4.53,6.467L759.793,879.174z M765.232,888.166l-1.473,4.74l3.666-1.238l0.252-4.326L765.232,888.166z
		 M789.703,879.049l-4.062,1.936c-2.031,0.967-3.338,0.459-3.943-0.814c-0.607-1.271-0.166-2.578,1.865-3.547l4.062-1.936
		L789.703,879.049z M782.066,874.18c-2.113,1.008-3.58,0.576-4.266-0.859c-0.67-1.408-0.066-2.793,2.045-3.799l4.334-2.064
		l2.221,4.658L782.066,874.18z M774.168,874.619c1.16,2.439,3.404,3.031,5.643,2.43c-1.699,1.176-2.354,3.148-1.438,5.072
		c1.328,2.789,4.047,3.754,8.354,1.701l7.584-3.613l-8.131-17.062l-8.016,3.82C774.184,868.863,772.76,871.668,774.168,874.619
		 M807.738,857.623c1.273,1.816,1.168,3.65-0.33,4.701c-1.449,1.018-2.783,0.525-3.955-1.145l-4.326-6.166l-2.947,2.068l4.74,6.754
		c1.688,2.406,4.121,3.631,7.02,1.598c1.621-1.139,2.41-2.938,2.09-4.545l4.498,6.41l2.945-2.066l-10.854-15.473l-2.947,2.066
		L807.738,857.623z M817.441,845.033c-1.832-2.143-3.719-1.713-5.268-0.387c-1.23,1.053-1.779,2.074-2.039,3.246l1.541,1.801
		c0.359-0.781,0.752-1.475,1.299-1.943c0.822-0.701,1.541-0.646,2.281,0.221l4.254,4.969l-2.734,2.34l1.639,1.914l2.734-2.34
		l2.379,2.781l1.664-1.426l-0.852-1.641c-0.572-1.129-0.727-1.865,0.117-2.863l0.586-0.697l-1.385-1.619l-1.438,1.229
		L817.441,845.033z M832.078,847.785l-2.652,2.564l2.439,2.523l2.652-2.564L832.078,847.785z M830.533,846.273l-9.195-9.512
		l-2.588,2.502l9.195,9.512L830.533,846.273z M839.639,836.549l1.887-2.217l-5.166-7.543l0.078-0.09l8.508,3.609l2.312-2.721
		l-12.801-5.369l-2.273,2.676l5.098,7.482l-0.078,0.092l-8.207-3.826l-2.254,2.65l7.359,11.77l2.117-2.492l-4.951-7.793l0.078-0.09
		L839.639,836.549z M839.221,784.902l22.684,8.072l4.248-11.943l-6.643-2.363l-1.307,3.676l-0.848-0.303
		c-5.229-1.859-8.152-3.936-6.971-7.258c1.182-3.32,4.785-3.152,10.014-1.291l14.344,5.104c5.158,1.836,8.131,3.77,6.924,7.162
		c-1.207,3.391-4.682,2.869-9.84,1.033l-2.475-0.879l-3.043,8.549l0.99,0.354c10.67,3.797,18.186,2.809,21.504-6.518
		c3.346-9.398-2.293-15.703-14.939-20.203l-6.361-2.264c-12.648-4.502-20.875-3.527-23.842,4.811
		c-1.207,3.391-0.758,7.053,2.139,9.199l-4.49-0.803L839.221,784.902z M871.512,755.377l0.041-0.297l26.059-6.48l1.191-8.467
		l-46.789-6.588l-1.201,8.541l27.256,3.838l-0.041,0.297l-28.867,7.6l-0.982,6.982l46.789,6.586l1.201-8.541L871.512,755.377z
		 M882.488,712.023c5.467-0.322,9.107,0.29,9.32,3.884c0.211,3.594-3.334,4.629-8.799,4.951l-15.125,0.891
		c-5.465,0.322-9.107-0.291-9.318-3.883c-0.213-3.594,3.334-4.63,8.799-4.953L882.488,712.023z M879.156,730.703
		c13.402-0.791,20.809-5.133,20.215-15.243c-0.602-10.181-8.467-13.625-21.869-12.835l-6.289,0.371
		c-13.402,0.79-20.809,5.133-20.209,15.316c0.596,10.108,8.461,13.551,21.863,12.76L879.156,730.703z M860.104,674.827l-2.613,0.677
		c-9.148,2.367-12.445,8.488-10.453,16.185c1.955,7.551,7.807,11.305,16.012,9.182c7.043-1.822,9.316-6.207,11.066-12.315
		l1.543-4.815c0.852-2.699,2.02-4.473,5.068-5.263c2.977-0.771,5.258-0.043,5.914,2.498c0.752,2.904-1.088,4.774-5.227,5.846
		l-2.688,0.696l2.049,7.914l2.613-0.677c8.787-2.273,12.488-7.726,10.441-15.64c-1.898-7.333-8.203-10.737-15.826-8.765
		s-9.73,6.702-11.344,11.845l-1.42,4.396c-1.102,3.229-1.812,5.271-5.078,6.117c-3.051,0.789-5.223-0.12-5.938-2.88
		c-0.789-3.05,1.268-5.286,5.188-6.3l2.76-0.714L860.104,674.827z M839.252,634.035l-2.316,1.389
		c-8.105,4.859-9.535,11.662-5.447,18.481c4.01,6.69,10.684,8.635,17.953,4.277c6.24-3.74,7.182-8.589,7.133-14.943l0.117-5.055
		c0.053-2.83,0.67-4.862,3.371-6.482c2.639-1.581,5.031-1.528,6.381,0.724c1.543,2.572,0.307,4.888-3.359,7.086l-2.381,1.427
		l4.203,7.012l2.316-1.389c7.783-4.666,9.791-10.942,5.588-17.953c-3.895-6.498-10.902-7.979-17.658-3.931
		c-6.754,4.05-7.438,9.182-7.529,14.57l-0.117,4.617c-0.143,3.409-0.248,5.57-3.143,7.305c-2.701,1.62-5.041,1.362-6.508-1.082
		c-1.619-2.702-0.279-5.429,3.193-7.511l2.445-1.466L839.252,634.035z M848.994,610.457l2.613,3.287
		c-2.289,1.82-3.729,1.336-5.607-0.906l-3.406,2.707c4.18,5.014,7.914,5.494,12.375,1.945l6.34-5.041l-5.74-7.221L848.994,610.457z
		 M829.66,605.295l8.877-17.998l-6.92-6.653l-13.426,29.437l-11.594,12.057l6.488,6.238l11.592-12.057l28.889-14.568l-6.596-6.343
		L829.66,605.295z M795.996,613.049l22.143-32.83l7.525,5.074l4.277-6.342l-22.572-15.223l-4.277,6.342l7.338,4.949l-22.143,32.83
		L795.996,613.049z M775.846,600.438l16.521-35.988l8.248,3.786l3.191-6.952l-24.742-11.359l-3.191,6.952l8.043,3.693
		l-16.523,35.988L775.846,600.438z M762.903,585.9l-12.593-3.429l3.332-12.229l9.334,2.542l2.011-7.381l-9.334-2.543l3.054-11.216
		l12.447,3.39l2.01-7.381l-21.201-5.775l-12.418,45.588l21.348,5.815L762.903,585.9z M724.941,545.517l2.613,0.235
		c4.482,0.404,5.293,3.112,4.971,6.698c-0.323,3.585-1.584,5.881-6.066,5.479l-2.613-0.235L724.941,545.517z M726.119,565.051
		c4.557,0.41,5.605,2.99,5.242,7.022c-0.37,4.109-1.85,6.31-6.405,5.9l-2.913-0.263l1.163-12.922L726.119,565.051z M740.17,573.771
		c0.564-6.274-2.224-10.44-7.732-11.991c4.705-0.404,8.261-3.926,8.779-9.677c0.666-7.396-2.24-12.778-12.024-13.658l-12.55-1.13
		l-4.235,47.061l12.772,1.148C734.891,586.398,739.43,581.987,740.17,573.771"/>
	<rect x="535.32" y="6.486" clip-path="url(#SVGID_10_)" fill="none" width="882.111" height="1360.399"/>
</g>
</svg>
