<?xml version="1.0" encoding="utf-8"?>
<!-- Generator: Adobe Illustrator 16.0.4, SVG Export Plug-In . SVG Version: 6.00 Build 0)  -->
<!DOCTYPE svg PUBLIC "-//W3C//DTD SVG 1.1//EN" "http://www.w3.org/Graphics/SVG/1.1/DTD/svg11.dtd">
<svg version="1.1" id="Ebene_1" xmlns="http://www.w3.org/2000/svg" xmlns:xlink="http://www.w3.org/1999/xlink" x="0px" y="0px"
	 width="1440px" height="1440px" viewBox="0 0 1440 1440" enable-background="new 0 0 1440 1440" xml:space="preserve">
<g>
	<defs>
		<rect id="SVGID_1_" x="430.831" y="12.971" width="997.169" height="1425.029"/>
	</defs>
	<clipPath id="SVGID_2_">
		<use xlink:href="#SVGID_1_"  overflow="visible"/>
	</clipPath>
	<path clip-path="url(#SVGID_2_)" fill="#231F20" d="M794.308,131.711"/>
</g>
<path fill="none" stroke="#231F20" d="M794.308,131.711"/>
<path fill="none" stroke="#231F20" d="M793.308,139.711"/>
<g>
	<defs>
		<rect id="SVGID_3_" x="432.688" y="6.486" width="997.175" height="1425.03"/>
	</defs>
	<clipPath id="SVGID_4_">
		<use xlink:href="#SVGID_3_"  overflow="visible"/>
	</clipPath>
	<path clip-path="url(#SVGID_4_)" fill="#231F20" d="M711.171,725.227"/>
</g>
<path fill="none" stroke="#231F20" d="M711.171,725.227"/>
<g>
	<defs>
		<rect id="SVGID_5_" x="432.688" y="6.486" width="997.175" height="1425.03"/>
	</defs>
	<clipPath id="SVGID_6_">
		<use xlink:href="#SVGID_5_"  overflow="visible"/>
	</clipPath>
	<path clip-path="url(#SVGID_6_)" fill="#231F20" d="M711.171,725.227"/>
</g>
<path fill="none" stroke="#231F20" d="M711.171,725.227"/>
<g>
	<defs>
		<rect id="SVGID_7_" x="651.113" y="201.147" width="583.934" height="1014.565"/>
	</defs>
	<clipPath id="SVGID_8_">
		<use xlink:href="#SVGID_7_"  overflow="visible"/>
	</clipPath>
	<path clip-path="url(#SVGID_8_)" fill="#0000FF" d="M655.568,1095.002l-1.81-0.271c0.217-1.24,0.778-1.551,2.063-1.418l0.276-1.842
		c-2.823-0.393-4.104,0.66-4.474,3.121l-0.512,3.412l3.916,0.588L655.568,1095.002z M662.785,1096.023l-1.812-0.248
		c0.201-1.244,0.76-1.562,2.046-1.445l0.253-1.842c-2.828-0.359-4.095,0.709-4.434,3.176l-0.469,3.418l3.922,0.539L662.785,1096.023
		z M670.776,1097.225c4.162-3.656,6.478-8.461,7.205-14.871l-4.09-0.406c-0.638,6.117-2.04,11.133-7.3,15.523l-0.27,2.719
		l13.762,1.365l0.334-3.373L670.776,1097.225z M688.27,1088.562c0.086-1.768,1.51-2.629,3.368-2.539
		c2.307,0.113,3.717,1.385,3.688,3.814l3.678,0.33c0.205-4.195-2.514-6.939-7.219-7.17c-4.285-0.209-7.174,1.752-7.336,5.078
		c-0.117,2.396,1.357,4.18,3.735,4.688c-1.81,0.152-3.627,1.686-3.741,4.021c-0.16,3.266,2.159,5.602,6.475,5.812
		c4.465,0.219,7.306-2.615,7.496-6.512l-3.619-0.326c-0.117,2.428-1.452,3.924-3.639,3.816c-2.068-0.102-3.031-1.289-2.949-2.967
		c0.094-1.918,1.566-2.566,3.154-2.488c0.689,0.033,1.26,0.061,1.645,0.139l0.139-2.816c-0.512,0.035-1.053,0.039-1.623,0.012
		C689.574,1091.359,688.182,1090.361,688.27,1088.562 M705.48,1099.113l-1.83-0.043c0.061-1.26,0.579-1.639,1.87-1.668l0.044-1.859
		c-2.85-0.037-3.988,1.166-4.048,3.656l-0.081,3.449l3.959,0.094L705.48,1099.113z M717.322,1086.994l-2.967,2.443
		c-2.816,2.318-5.127,4.482-5.079,7.812c0.048,3.359,2.364,5.906,6.863,5.842c4.17-0.059,6.923-2.646,6.866-6.607
		c-0.008-0.57-0.106-1.168-0.234-1.768l-3.722-0.096c0.157,0.508,0.225,1.016,0.233,1.646c0.031,2.189-0.998,3.645-3.099,3.674
		c-2.039,0.029-2.957-1.219-2.981-2.957c-0.033-2.279,1.565-3.803,4.471-6.305l5.218-4.424l-0.036-2.52l-14.248,0.201l0.045,3.18
		L717.322,1086.994z M757.664,1096.373l-3.666,0.424l0.404,3.488l3.665-0.426L757.664,1096.373z M757.355,1094.234l-1.523-13.143
		l-3.576,0.414l1.523,13.143L757.355,1094.234z M765.692,1074.738l-4.728,19.096l3.469-0.537l2.148-9.469l0.119-0.02l4.938,8.375
		l3.734-0.576l-7.455-12.295l1.272-5.115L765.692,1074.738z M786.341,1083.225c0.422,2.18-0.423,3.811-2.22,4.158
		c-1.737,0.336-2.756-0.658-3.144-2.66l-1.433-7.393l-3.534,0.684l1.569,8.102c0.56,2.885,2.281,4.996,5.758,4.322
		c1.943-0.375,3.398-1.697,3.762-3.295l0.411,2.119l3.534-0.684l-2.516-12.988l-3.535,0.686L786.341,1083.225z M803.925,1080.004
		c0.073,1.68-0.564,3.229-2.486,3.703c-1.952,0.482-3.206-0.723-3.688-2.18L803.925,1080.004z M796.457,1078.416
		c0.136-1.578,0.976-2.559,2.693-2.982c1.895-0.467,3.709,0.508,4.293,2.371l-9.641,2.377l0.309,1.254
		c0.862,3.494,3.736,5.877,7.93,4.842c3.846-0.949,6.011-4.572,5.012-8.621c-0.998-4.049-4.479-5.879-8.439-4.902
		c-3.291,0.812-5.088,3.047-5.054,6.068L796.457,1078.416z M821.414,1078.025c1.029,1.373,2.621,2.037,4.854,1.336
		c1.918-0.604,3.043-2.027,3.223-3.656l0.647,2.061l3.435-1.08l-3.969-12.619l-3.434,1.078l2.123,6.754
		c0.666,2.117,0.097,3.807-1.563,4.33c-1.66,0.521-2.642-0.396-3.253-2.344l-2.258-7.184l-3.436,1.08l2.125,6.754
		c0.666,2.119,0.096,3.807-1.564,4.33c-1.688,0.531-2.641-0.398-3.252-2.344l-2.26-7.184l-3.434,1.08l2.475,7.871
		c0.865,2.746,2.689,4.752,6.096,3.68C820.029,1081.322,821.194,1079.729,821.414,1078.025 M842.791,1075.5l-3.461,1.281l1.22,3.291
		l3.46-1.281L842.791,1075.5z M841.984,1073.496l-4.595-12.408l-3.376,1.25l4.595,12.408L841.984,1073.496z M840.125,1060.18
		l11.826,6.699l-4.023,10.527l4.048-1.674l4.19-10.984l3.268,7.9l3.466-1.432l-7.221-17.467l-3.466,1.432l2.396,5.797l-1.034,2.602
		l-9.291-5.119L840.125,1060.18z M877.916,1051.928c0.447,1.623,0.17,3.275-1.599,4.164c-1.796,0.904-3.286,0.008-4.082-1.305
		L877.916,1051.928z M870.283,1052.043c-0.219-1.57,0.383-2.711,1.963-3.508c1.742-0.875,3.729-0.33,4.713,1.357l-8.871,4.463
		l0.58,1.152c1.619,3.215,4.951,4.898,8.81,2.955c3.537-1.779,4.842-5.795,2.967-9.52c-1.874-3.725-5.674-4.734-9.317-2.9
		c-3.029,1.523-4.283,4.104-3.578,7.039L870.283,1052.043z M876.932,1060.182l-0.792,4.9l3.457-1.74l-0.36-4.318L876.932,1060.182z
		 M883.957,1039.736l1.807,14.107l3.074-1.691l-1.405-9.773l0.104-0.059l7.53,6.402l3.312-1.822l-10.951-9.074L883.957,1039.736z
		 M900.738,1045.254c0.506,0.078,1.178-0.09,1.867-0.514c1.559-0.961,2.01-2.859,1.633-4.389l1.32,2.146l3.064-1.889l-6.937-11.266
		l-3.065,1.889l3.43,5.568c1.258,2.043,0.878,3.828-0.706,4.805c-0.741,0.457-1.347,0.617-2.138,0.646L900.738,1045.254z
		 M917.543,1028.49c0.641,1.557,0.566,3.229-1.08,4.328c-1.672,1.115-3.262,0.41-4.211-0.797L917.543,1028.49z M909.979,1029.535
		c-0.407-1.531,0.048-2.738,1.521-3.721c1.623-1.082,3.66-0.783,4.844,0.771l-8.26,5.512l0.716,1.074
		c1.999,2.994,5.511,4.256,9.104,1.859c3.294-2.199,4.099-6.342,1.784-9.812c-2.314-3.467-6.209-4.006-9.604-1.74
		c-2.819,1.881-3.75,4.594-2.691,7.422L909.979,1029.535z M929.992,1009.729l4.817,6.512l-7.5,5.549l-4.817-6.512l-3.016,2.23
		l11.241,15.195l3.015-2.232l-4.586-6.197l7.501-5.549l4.585,6.197l3.016-2.229l-11.242-15.195L929.992,1009.729z M953.302,999.652
		c1.446,1.686,1.518,3.52,0.129,4.713c-1.343,1.152-2.72,0.791-4.048-0.756l-4.904-5.715l-2.732,2.346l5.373,6.26
		c1.916,2.23,4.457,3.211,7.144,0.906c1.503-1.289,2.112-3.158,1.637-4.727l5.101,5.943l2.731-2.346l-12.31-14.342l-2.731,2.346
		L953.302,999.652z M961.813,986.74c-1.937-2.049-3.798-1.529-5.28-0.127c-1.178,1.111-1.675,2.16-1.877,3.342l1.627,1.723
		c0.32-0.797,0.68-1.508,1.203-2.004c0.784-0.742,1.506-0.721,2.288,0.107l4.493,4.754l-2.617,2.473l1.73,1.83l2.617-2.471
		l2.515,2.66l1.591-1.506l-0.932-1.596c-0.627-1.1-0.817-1.828-0.024-2.867l0.552-0.727l-1.464-1.547l-1.374,1.297L961.813,986.74z
		 M976.354,989.33l-2.621,2.598l2.473,2.492l2.619-2.598L976.354,989.33z M974.789,987.838l-9.314-9.395l-2.557,2.535l9.315,9.395
		L974.789,987.838z M983.447,978.869l1.967-2.146l-4.881-7.729l0.082-0.088l8.366,3.926l2.412-2.633l-12.591-5.842l-2.371,2.586
		l4.814,7.668l-0.082,0.09l-8.058-4.131l-2.351,2.564l6.914,12.037l2.209-2.412l-4.656-7.971l0.081-0.088L983.447,978.869z
		 M987.254,929.031l19.886,13.568l7.144-10.469l-5.822-3.975l-2.198,3.223l-0.744-0.508c-4.584-3.129-6.884-5.879-4.897-8.791
		c1.986-2.91,5.429-1.834,10.013,1.295l12.575,8.582c4.523,3.086,6.908,5.711,4.879,8.684c-2.029,2.975-5.26,1.588-9.781-1.498
		l-2.169-1.48l-5.115,7.498l0.868,0.59c9.354,6.385,16.874,7.338,22.455-0.838c5.622-8.24,1.771-15.771-9.318-23.338l-5.574-3.805
		c-11.09-7.566-19.295-8.717-24.283-1.406c-2.029,2.975-2.526,6.631-0.269,9.441l-4.14-1.916L987.254,929.031z M1028.65,906.053
		l0.145-0.262l26.66,3.201l4.123-7.492l-41.396-22.779l-4.159,7.557l24.115,13.27l-0.144,0.262l-29.685-3.15l-3.399,6.176
		l41.396,22.781l4.159-7.557L1028.65,906.053z M1066.811,886.088l-42.689-20.25l-3.986,8.402l42.689,20.252L1066.811,886.088z
		 M1032.938,844.326l18.947,7.355l-3.284,8.461l-18.947-7.357l-3.365,8.67l44.045,17.102l3.367-8.67l-17.969-6.975l3.284-8.461
		l17.969,6.977l3.366-8.67l-44.047-17.102L1032.938,844.326z M1039.149,826.08l38.003,11.131l-2.551,8.709l7.342,2.15l7.653-26.127
		l-7.343-2.15l-2.487,8.494l-38.003-11.133L1039.149,826.08z M1080.488,803.016l-0.059,0.293l-17.239-0.256l1.333-6.617
		L1080.488,803.016z M1094.215,800.576l-44.338-19.176l-1.687,8.381l9.614,3.924l-1.85,9.191l-10.385-0.102l-1.836,9.117
		l48.305-0.527L1094.215,800.576z M1057.84,780.041l1.615-12.951l12.576,1.568l-1.197,9.602l7.593,0.947l1.196-9.602l11.535,1.438
		l-1.596,12.801l7.592,0.947l2.719-21.807l-46.888-5.846l-2.737,21.955L1057.84,780.041z M1079.479,736.559l14.391,0.521l-0.06,1.65
		c-0.181,4.945-2.79,6.576-7.437,6.408c-5.248-0.189-7.133-1.984-6.955-6.932L1079.479,736.559z M1053.507,753.254
		c2.364-1.041,4.985-0.871,10.995-1.027c5.856-0.088,9.58-1.379,10.887-6.359c0.65,4.826,4.206,8.182,11.552,8.449
		c8.319,0.301,13.948-3.848,14.318-14.041l0.437-12.066l-47.219-1.713l-0.331,9.145l17.988,0.652l-0.071,1.949
		c-0.146,4.047-2.73,4.928-7.613,5.051c-5.932,0.086-8.561,0.141-10.608,0.742L1053.507,753.254z M1093.457,702.755l0.136,2.621
		c0.235,4.494-2.332,5.679-5.927,5.867c-3.596,0.188-6.047-0.736-6.281-5.23l-0.137-2.621L1093.457,702.755z M1074.285,706.685
		c0.238,4.568-2.168,5.97-6.211,6.181c-4.121,0.215-6.509-0.938-6.746-5.505l-0.153-2.92l12.958-0.678L1074.285,706.685z
		 M1067.64,721.824c6.291-0.328,10.022-3.675,10.778-9.349c1.065,4.602,5.054,7.623,10.82,7.322
		c7.414-0.387,12.332-4.021,11.82-13.833l-0.656-12.584l-47.186,2.461l0.668,12.809
		C1054.393,718.385,1059.4,722.254,1067.64,721.824 M1077.295,663.681l17.857-9.152l-1.587-9.466l-28.332,15.623l-16.495,2.764
		l1.487,8.877l16.495-2.766l31.878,5.533l-1.513-9.023L1077.295,663.681z M1088.287,623.812l-45.875,11.314l5.262,21.335
		l7.428-1.832l-3.035-12.305l38.447-9.483L1088.287,623.812z M1067.638,622.429c12.256-4.022,17.384-10.284,14.25-19.834l-4-12.185
		l-44.894,14.737l4,12.185c3.135,9.549,10.976,11.553,23.232,7.53L1067.638,622.429z M1054.643,616.75
		c-6.271,2.058-9.636,1.426-11.016-2.778l-0.75-2.279l30.928-10.152l0.748,2.28c1.38,4.204-0.955,6.708-7.227,8.766L1054.643,616.75
		z M1047.955,575.317l13.239-5.666l0.649,1.517c1.947,4.55,0.281,7.14-3.993,8.969c-4.826,2.066-7.298,1.248-9.245-3.303
		L1047.955,575.317z M1031.586,601.495c1.695-1.949,4.138-2.913,9.507-5.618c5.26-2.578,8.077-5.334,7.134-10.396
		c2.648,4.089,7.295,5.606,14.052,2.715c7.654-3.276,10.976-9.43,6.962-18.807l-4.752-11.101l-43.438,18.592l3.6,8.412l16.549-7.083
		l0.768,1.793c1.593,3.723-0.367,5.623-4.731,7.817c-5.329,2.606-7.683,3.777-9.278,5.195L1031.586,601.495z M1042.147,543.595
		l0.146,0.263l-13.332,10.932l-3.254-5.913L1042.147,543.595z M1051.057,532.872l-46.241,13.976l4.122,7.491l9.876-3.21l4.521,8.214
		l-7.996,6.626l4.484,8.148l36.549-31.586L1051.057,532.872z M993.761,530.311l16.905-11.283l5.037,7.548l-16.906,11.283
		l5.164,7.734l39.301-26.229l-5.163-7.736l-16.032,10.7l-5.038-7.548l16.033-10.7l-5.163-7.735l-39.301,26.229L993.761,530.311z
		 M975.598,481.341l-2.049,1.76c-7.172,6.153-7.436,13.102-2.258,19.135c5.08,5.919,11.986,6.712,18.418,1.191
		c5.521-4.737,5.632-9.676,4.513-15.931l-0.735-5.002c-0.425-2.798-0.158-4.905,2.233-6.957c2.333-2.003,4.7-2.354,6.409-0.362
		c1.955,2.277,1.125,4.768-2.118,7.551l-2.104,1.808l5.323,6.204l2.048-1.76c6.887-5.909,7.811-12.435,2.486-18.638
		c-4.934-5.749-12.092-6.028-18.068-0.899c-5.976,5.128-5.785,10.302-4.969,15.63l0.662,4.571c0.434,3.383,0.695,5.53-1.866,7.729
		c-2.392,2.051-4.741,2.191-6.598,0.028c-2.052-2.391-1.191-5.303,1.883-7.941l2.162-1.855L975.598,481.341z M987.99,449.812
		l-33.949,32.863l6.469,6.682l33.947-32.862L987.99,449.812z M961.809,451.761c8.371-9.814,9.49-17.83,1.843-24.352l-9.758-8.322
		l-30.66,35.952l9.759,8.322c7.646,6.521,15.385,4.151,23.756-5.665L961.809,451.761z M947.756,453.677
		c-4.282,5.021-7.484,6.232-10.852,3.361l-1.826-1.557l21.123-24.768l1.825,1.557c3.367,2.873,2.675,6.226-1.606,11.248
		L947.756,453.677z M923.094,430.212l-0.248-0.169l11.98-24.876l-5.762-3.931l-18.732,20.267l-0.248-0.169l11.979-24.875
		l-7.31-4.988l-20.065,43.51l7.187,4.904l17.998-19.59l0.246,0.169l-11.615,23.943l7.186,4.903l33.199-34.549l-7.062-4.818
		L923.094,430.212z M887.992,395.185c2.641-4.797,5.099-7.553,8.252-5.817c3.154,1.735,2.142,5.287-0.498,10.084l-7.305,13.272
		c-2.639,4.797-5.098,7.554-8.252,5.817c-3.152-1.735-2.141-5.287,0.499-10.084L887.992,395.185z M902.023,407.957
		c6.473-11.762,6.744-20.344-2.127-25.226c-8.936-4.917-16.041-0.095-22.514,11.666l-3.037,5.52
		c-6.473,11.761-6.744,20.345,2.191,25.261c8.871,4.883,15.977,0.061,22.448-11.701L902.023,407.957z M855.818,386.18l5.856-13.155
		l1.507,0.671c4.521,2.013,5.061,5.044,3.17,9.292c-2.135,4.797-4.504,5.876-9.025,3.864L855.818,386.18z M861.61,416.506
		c-0.081-2.581,1.054-4.948,3.152-10.583c2.104-5.466,2.297-9.403-1.836-12.475c4.721,1.199,9.161-0.847,12.149-7.562
		c3.387-7.605,1.639-14.376-7.68-18.524l-11.031-4.911l-19.216,43.167l8.36,3.721l7.32-16.445l1.78,0.793
		c3.7,1.647,3.554,4.373,1.845,8.949c-2.135,5.535-3.064,7.994-3.271,10.119L861.61,416.506z M826.541,368.839
		c1.73-5.194,3.533-8.23,6.877-7.116c3.416,1.139,2.895,4.601,1.164,9.796l-1.353,4.055l8.61,2.869l0.615-1.85
		c3.58-10.744,2.893-18.879-6.429-21.985c-9.677-3.224-15.724,2.587-19.968,15.324l-2.134,6.403
		c-4.244,12.737-2.892,21.014,6.784,24.239c9.322,3.105,14.752-2.99,18.332-13.735l0.617-1.85l-8.609-2.869l-1.352,4.056
		c-1.73,5.194-3.391,8.278-6.806,7.14c-3.345-1.115-2.965-4.625-1.235-9.819L826.541,368.839z M796.14,384.596l-12.761-2.734
		l2.654-12.393l9.461,2.026l1.603-7.48l-9.46-2.027l2.436-11.367l12.613,2.702l1.602-7.48l-21.486-4.603l-9.898,46.202l21.635,4.634
		L796.14,384.596z M749.875,384.206l2.514-20.169l9.005,1.122l-2.515,20.169l9.229,1.151l5.846-46.887l-9.229-1.151l-2.384,19.127
		l-9.007-1.123l2.386-19.127l-9.229-1.15l-5.845,46.887L749.875,384.206z M730.668,382.571l1.436-39.574l9.068,0.329l0.277-7.645
		l-27.207-0.987l-0.276,7.645l8.844,0.321l-1.435,39.574L730.668,382.571z"/>
</g>
</svg>
